<svg width="1712" height="1146" viewBox="0 0 1712 1146" fill="none" xmlns="http://www.w3.org/2000/svg">
<path d="M340.871 725.111C423.182 843.498 526.836 952.563 657.446 979.595C788.056 1006.63 944.452 952.291 1119.71 879.411C1294.73 807.368 1488.62 716.779 1544.36 582.881C1600.82 449.991 1519.36 272.955 1381.6 206.018C1245.01 138.415 1050.45 179.733 883.582 158.46C715.769 137.016 574.928 51.9714 455.126 73.4019C336.494 94.1655 237.955 221.233 218.471 349.373C198.988 477.513 258.785 605.888 340.871 725.111Z" fill="#B4DCE6"/>
<path d="M322.571 757.041C404.882 875.427 508.536 984.492 639.146 1011.52C769.757 1038.56 926.152 984.221 1101.41 911.34C1276.44 839.297 1470.32 748.708 1526.06 614.811C1582.52 481.92 1501.06 304.884 1363.3 237.947C1226.71 170.344 1032.15 211.663 865.282 190.389C697.469 168.945 556.628 83.9006 436.826 105.331C318.194 126.095 219.655 253.163 200.172 381.302C180.688 509.442 240.485 637.817 322.571 757.041Z" stroke="#797979" stroke-width="6" stroke-linecap="round" stroke-linejoin="round" stroke-dasharray="15 15"/>
<path d="M809.714 303.307C809.714 300.545 807.475 298.307 804.714 298.307H785.132V171.874C785.132 169.112 782.894 166.874 780.132 166.874H771.749H742.479H741.768C740.056 166.874 738.462 167.75 737.545 169.196L649.876 307.449C649.306 308.349 649.037 309.407 649.11 310.47L650.673 333.204C650.854 335.826 653.033 337.861 655.662 337.861H737.479V378.756C737.479 381.518 739.717 383.756 742.479 383.756H780.132C782.894 383.756 785.132 381.518 785.132 378.756V337.861H804.714C807.475 337.861 809.714 335.623 809.714 332.861V303.307ZM737.479 298.307H701.268L737.479 239.45V298.307ZM949.328 364.099L949.349 364.074C955.963 356.22 960.889 346.308 964.257 334.519C967.642 322.673 969.281 308.591 969.281 292.366V257.554C969.281 244.6 968.171 233.05 965.897 222.949C963.731 212.821 960.546 203.984 956.259 196.53C952.001 189.032 946.763 182.828 940.505 178.023C934.403 173.169 927.486 169.618 919.802 167.363C912.273 165.125 904.116 164.032 895.367 164.032C884.512 164.032 874.509 165.774 865.426 169.343C856.196 172.873 848.271 178.535 841.69 186.247C835.076 193.998 830.1 203.807 826.633 215.494L826.622 215.532C823.234 227.29 821.596 241.331 821.596 257.554V292.366C821.596 305.32 822.658 316.907 824.832 327.085L824.842 327.131C827.104 337.26 830.336 346.13 834.609 353.659L834.634 353.703C838.973 361.17 844.183 367.432 850.295 372.404C850.307 372.414 850.32 372.424 850.332 372.434C850.344 372.443 850.355 372.453 850.367 372.462C856.548 377.303 863.494 380.899 871.167 383.252C871.186 383.258 871.206 383.264 871.225 383.27C878.835 385.502 886.987 386.598 895.651 386.598C906.516 386.598 916.526 384.853 925.615 381.278L925.66 381.26C934.857 377.54 942.759 371.797 949.328 364.099ZM920.398 232.258C920.403 232.288 920.407 232.318 920.412 232.347C921.305 237.886 921.769 244.523 921.769 252.296V297.481C921.769 307.114 921.072 315.193 919.737 321.78L919.727 321.831C918.476 328.355 916.654 333.37 914.411 337.062C912.167 340.661 909.542 343.096 906.586 344.609L906.542 344.633C903.584 346.185 900.002 347.043 895.651 347.043C892.218 347.043 889.188 346.517 886.51 345.531C883.923 344.487 881.615 342.934 879.563 340.823C877.581 338.594 875.748 335.63 874.132 331.813C872.612 328.001 871.375 323.292 870.473 317.623C869.666 311.958 869.25 305.254 869.25 297.481V252.296C869.25 242.657 869.9 234.67 871.142 228.268C872.488 221.728 874.352 216.829 876.567 213.348C878.796 209.845 881.404 207.499 884.345 206.064C884.374 206.05 884.403 206.035 884.432 206.021C887.524 204.437 891.131 203.586 895.367 203.586C898.825 203.586 901.874 204.12 904.567 205.121C907.15 206.08 909.459 207.594 911.518 209.73C911.539 209.752 911.561 209.773 911.582 209.795C913.57 211.783 915.371 214.542 916.884 218.241C918.391 221.925 919.586 226.57 920.398 232.258ZM1142.2 303.307C1142.2 300.545 1139.97 298.307 1137.2 298.307H1117.62V171.874C1117.62 169.112 1115.38 166.874 1112.62 166.874H1104.24H1074.97H1074.26C1072.55 166.874 1070.95 167.75 1070.04 169.196L982.366 307.449C981.796 308.349 981.528 309.407 981.601 310.47L983.164 333.204C983.344 335.826 985.524 337.861 988.152 337.861H1069.97V378.756C1069.97 381.518 1072.21 383.756 1074.97 383.756H1112.62C1115.38 383.756 1117.62 381.518 1117.62 378.756V337.861H1137.2C1139.97 337.861 1142.2 335.623 1142.2 332.861V303.307ZM1033.76 298.307L1069.97 239.45V298.307H1033.76Z" fill="#DB162F" stroke="white" stroke-width="10" stroke-linejoin="round"/>
<mask id="path-4-outside-1_1709_505" maskUnits="userSpaceOnUse" x="702.998" y="406.942" width="385" height="74" fill="black">
<rect fill="white" x="702.998" y="406.942" width="385" height="74"/>
<path d="M719.47 435.284V469.928H712.998V429.698H718.96L719.47 435.284ZM738.403 443.959V444.523C738.403 446.635 738.153 448.596 737.651 450.404C737.168 452.194 736.443 453.761 735.476 455.104C734.527 456.429 733.354 457.458 731.958 458.192C730.562 458.926 728.95 459.293 727.124 459.293C725.316 459.293 723.731 458.962 722.371 458.3C721.028 457.619 719.891 456.661 718.96 455.426C718.029 454.191 717.277 452.74 716.704 451.075C716.149 449.392 715.755 447.548 715.522 445.543V443.368C715.755 441.237 716.149 439.304 716.704 437.567C717.277 435.83 718.029 434.336 718.96 433.082C719.891 431.829 721.028 430.862 722.371 430.182C723.713 429.502 725.28 429.161 727.07 429.161C728.896 429.161 730.517 429.519 731.931 430.236C733.346 430.934 734.536 431.936 735.503 433.243C736.47 434.532 737.195 436.09 737.678 437.916C738.162 439.725 738.403 441.739 738.403 443.959ZM731.931 444.523V443.959C731.931 442.616 731.806 441.372 731.555 440.226C731.305 439.062 730.911 438.042 730.374 437.164C729.836 436.287 729.147 435.607 728.306 435.123C727.482 434.622 726.488 434.371 725.325 434.371C724.179 434.371 723.194 434.568 722.371 434.962C721.547 435.338 720.858 435.866 720.303 436.547C719.748 437.227 719.318 438.024 719.014 438.937C718.709 439.832 718.494 440.808 718.369 441.864V447.074C718.584 448.363 718.951 449.545 719.47 450.619C719.989 451.693 720.723 452.552 721.672 453.197C722.639 453.824 723.875 454.137 725.378 454.137C726.542 454.137 727.536 453.886 728.359 453.385C729.183 452.884 729.854 452.194 730.374 451.317C730.911 450.422 731.305 449.392 731.555 448.229C731.806 447.065 731.931 445.83 731.931 444.523Z"/>
<path d="M760.291 452.928V439.071C760.291 438.033 760.103 437.137 759.727 436.385C759.351 435.634 758.778 435.052 758.008 434.64C757.256 434.228 756.307 434.022 755.161 434.022C754.105 434.022 753.192 434.201 752.422 434.559C751.652 434.917 751.052 435.401 750.623 436.01C750.193 436.618 749.978 437.308 749.978 438.077H743.533C743.533 436.932 743.81 435.822 744.365 434.747C744.92 433.673 745.726 432.715 746.782 431.874C747.839 431.032 749.101 430.37 750.569 429.886C752.037 429.403 753.684 429.161 755.51 429.161C757.694 429.161 759.628 429.528 761.311 430.262C763.012 430.997 764.346 432.107 765.312 433.593C766.297 435.061 766.79 436.905 766.79 439.125V452.042C766.79 453.367 766.879 454.558 767.058 455.614C767.255 456.652 767.533 457.557 767.891 458.326V458.756H761.257C760.953 458.058 760.711 457.172 760.532 456.097C760.371 455.005 760.291 453.949 760.291 452.928ZM761.23 441.085L761.284 445.087H756.638C755.439 445.087 754.382 445.203 753.469 445.436C752.556 445.651 751.795 445.973 751.187 446.403C750.578 446.832 750.121 447.351 749.817 447.96C749.513 448.569 749.36 449.258 749.36 450.028C749.36 450.798 749.539 451.505 749.897 452.15C750.256 452.776 750.775 453.269 751.455 453.627C752.153 453.985 752.995 454.164 753.979 454.164C755.304 454.164 756.459 453.895 757.444 453.358C758.446 452.803 759.234 452.132 759.807 451.344C760.38 450.538 760.684 449.777 760.72 449.061L762.815 451.935C762.6 452.669 762.233 453.457 761.714 454.298C761.195 455.14 760.514 455.945 759.673 456.715C758.849 457.467 757.856 458.085 756.692 458.568C755.546 459.052 754.221 459.293 752.717 459.293C750.819 459.293 749.128 458.917 747.642 458.165C746.156 457.395 744.992 456.366 744.15 455.077C743.309 453.77 742.888 452.293 742.888 450.646C742.888 449.106 743.175 447.745 743.748 446.564C744.338 445.364 745.198 444.362 746.326 443.556C747.472 442.75 748.868 442.142 750.515 441.73C752.162 441.3 754.042 441.085 756.155 441.085H761.23Z"/>
<path d="M792.168 429.698H798.049V457.95C798.049 460.564 797.494 462.784 796.384 464.611C795.274 466.437 793.726 467.824 791.738 468.773C789.751 469.74 787.45 470.223 784.836 470.223C783.726 470.223 782.491 470.062 781.13 469.74C779.788 469.418 778.481 468.899 777.209 468.182C775.956 467.484 774.909 466.562 774.067 465.416L777.102 461.603C778.14 462.838 779.286 463.742 780.54 464.315C781.793 464.888 783.109 465.175 784.487 465.175C785.973 465.175 787.236 464.897 788.274 464.342C789.33 463.805 790.145 463.008 790.718 461.952C791.291 460.896 791.577 459.607 791.577 458.085V436.278L792.168 429.698ZM772.429 444.55V443.986C772.429 441.783 772.698 439.778 773.235 437.97C773.772 436.144 774.542 434.577 775.544 433.27C776.547 431.945 777.764 430.934 779.197 430.236C780.629 429.519 782.249 429.161 784.058 429.161C785.938 429.161 787.54 429.502 788.865 430.182C790.208 430.862 791.326 431.838 792.222 433.109C793.117 434.362 793.815 435.866 794.316 437.621C794.836 439.358 795.221 441.291 795.471 443.422V445.221C795.238 447.298 794.845 449.196 794.29 450.914C793.735 452.633 793 454.119 792.087 455.372C791.174 456.626 790.046 457.592 788.704 458.273C787.379 458.953 785.812 459.293 784.004 459.293C782.231 459.293 780.629 458.926 779.197 458.192C777.782 457.458 776.565 456.429 775.544 455.104C774.542 453.779 773.772 452.221 773.235 450.431C772.698 448.623 772.429 446.662 772.429 444.55ZM778.901 443.986V444.55C778.901 445.874 779.027 447.11 779.277 448.256C779.546 449.401 779.949 450.413 780.486 451.29C781.041 452.15 781.739 452.83 782.581 453.331C783.44 453.815 784.451 454.056 785.615 454.056C787.137 454.056 788.381 453.734 789.348 453.09C790.333 452.445 791.085 451.577 791.604 450.485C792.141 449.375 792.517 448.139 792.732 446.779V441.918C792.625 440.861 792.401 439.877 792.061 438.964C791.738 438.051 791.3 437.254 790.745 436.573C790.19 435.875 789.491 435.338 788.65 434.962C787.808 434.568 786.815 434.371 785.669 434.371C784.505 434.371 783.494 434.622 782.634 435.123C781.775 435.625 781.068 436.314 780.513 437.191C779.976 438.068 779.573 439.089 779.304 440.253C779.036 441.416 778.901 442.661 778.901 443.986Z"/>
<path d="M817.573 459.293C815.425 459.293 813.482 458.944 811.746 458.246C810.027 457.53 808.559 456.536 807.341 455.265C806.142 453.994 805.22 452.499 804.575 450.78C803.931 449.061 803.608 447.208 803.608 445.221V444.147C803.608 441.873 803.94 439.814 804.602 437.97C805.264 436.126 806.187 434.55 807.368 433.243C808.55 431.919 809.946 430.907 811.558 430.209C813.169 429.51 814.915 429.161 816.794 429.161C818.871 429.161 820.688 429.51 822.246 430.209C823.804 430.907 825.093 431.892 826.113 433.163C827.152 434.416 827.922 435.911 828.423 437.648C828.942 439.384 829.202 441.3 829.202 443.395V446.161H806.75V441.515H822.81V441.005C822.774 439.841 822.542 438.749 822.112 437.728C821.7 436.708 821.064 435.884 820.205 435.258C819.346 434.631 818.2 434.318 816.768 434.318C815.693 434.318 814.736 434.55 813.894 435.016C813.07 435.463 812.381 436.117 811.826 436.976C811.271 437.836 810.841 438.874 810.537 440.092C810.251 441.291 810.107 442.643 810.107 444.147V445.221C810.107 446.492 810.278 447.674 810.618 448.766C810.976 449.84 811.495 450.78 812.175 451.586C812.856 452.391 813.679 453.027 814.646 453.492C815.613 453.94 816.714 454.164 817.949 454.164C819.507 454.164 820.894 453.851 822.112 453.224C823.329 452.597 824.386 451.711 825.281 450.565L828.691 453.868C828.065 454.781 827.25 455.659 826.248 456.5C825.245 457.324 824.019 457.995 822.568 458.514C821.136 459.034 819.471 459.293 817.573 459.293Z"/>
<path d="M854.365 435.902V458.756H847.893V429.698H853.989L854.365 435.902ZM853.21 443.153L851.116 443.126C851.134 441.067 851.42 439.178 851.975 437.46C852.548 435.741 853.336 434.264 854.338 433.029C855.359 431.793 856.576 430.844 857.991 430.182C859.405 429.502 860.981 429.161 862.717 429.161C864.114 429.161 865.376 429.358 866.504 429.752C867.65 430.128 868.625 430.746 869.431 431.605C870.255 432.465 870.881 433.584 871.311 434.962C871.741 436.323 871.956 437.997 871.956 439.984V458.756H865.457V439.957C865.457 438.561 865.251 437.46 864.839 436.654C864.445 435.83 863.863 435.249 863.093 434.908C862.341 434.55 861.401 434.371 860.273 434.371C859.163 434.371 858.17 434.604 857.292 435.07C856.415 435.535 855.672 436.171 855.063 436.976C854.473 437.782 854.016 438.713 853.694 439.769C853.372 440.826 853.21 441.954 853.21 443.153Z"/>
<path d="M877.327 444.55V443.932C877.327 441.837 877.631 439.895 878.24 438.104C878.848 436.296 879.726 434.729 880.872 433.405C882.035 432.062 883.45 431.023 885.115 430.289C886.798 429.537 888.695 429.161 890.808 429.161C892.939 429.161 894.836 429.537 896.501 430.289C898.184 431.023 899.608 432.062 900.771 433.405C901.935 434.729 902.821 436.296 903.43 438.104C904.039 439.895 904.343 441.837 904.343 443.932V444.55C904.343 446.644 904.039 448.587 903.43 450.377C902.821 452.168 901.935 453.734 900.771 455.077C899.608 456.402 898.193 457.44 896.528 458.192C894.863 458.926 892.974 459.293 890.862 459.293C888.731 459.293 886.825 458.926 885.142 458.192C883.477 457.44 882.062 456.402 880.898 455.077C879.735 453.734 878.848 452.168 878.24 450.377C877.631 448.587 877.327 446.644 877.327 444.55ZM883.799 443.932V444.55C883.799 445.857 883.933 447.092 884.202 448.256C884.47 449.419 884.891 450.44 885.464 451.317C886.037 452.194 886.771 452.884 887.666 453.385C888.561 453.886 889.626 454.137 890.862 454.137C892.061 454.137 893.1 453.886 893.977 453.385C894.872 452.884 895.606 452.194 896.179 451.317C896.752 450.44 897.173 449.419 897.441 448.256C897.728 447.092 897.871 445.857 897.871 444.55V443.932C897.871 442.643 897.728 441.425 897.441 440.28C897.173 439.116 896.743 438.086 896.152 437.191C895.579 436.296 894.845 435.598 893.95 435.096C893.073 434.577 892.026 434.318 890.808 434.318C889.591 434.318 888.534 434.577 887.639 435.096C886.762 435.598 886.037 436.296 885.464 437.191C884.891 438.086 884.47 439.116 884.202 440.28C883.933 441.425 883.799 442.643 883.799 443.932Z"/>
<path d="M923.088 429.698V434.425H906.707V429.698H923.088ZM911.433 422.582H917.905V450.726C917.905 451.622 918.031 452.311 918.281 452.794C918.55 453.26 918.917 453.573 919.382 453.734C919.848 453.895 920.394 453.976 921.021 453.976C921.468 453.976 921.898 453.949 922.31 453.895C922.721 453.842 923.053 453.788 923.303 453.734L923.33 458.676C922.793 458.837 922.166 458.98 921.45 459.105C920.752 459.231 919.946 459.293 919.033 459.293C917.547 459.293 916.231 459.034 915.085 458.514C913.94 457.977 913.044 457.109 912.4 455.909C911.755 454.71 911.433 453.116 911.433 451.129V422.582Z"/>
<path d="M950.535 458.756H944.062V426.906C944.062 424.739 944.465 422.922 945.271 421.454C946.095 419.968 947.267 418.849 948.789 418.097C950.311 417.327 952.11 416.942 954.187 416.942C954.832 416.942 955.467 416.987 956.094 417.076C956.72 417.148 957.329 417.264 957.92 417.426L957.759 422.421C957.401 422.331 957.007 422.268 956.577 422.233C956.165 422.197 955.718 422.179 955.234 422.179C954.25 422.179 953.399 422.367 952.683 422.743C951.985 423.101 951.448 423.629 951.072 424.327C950.714 425.026 950.535 425.885 950.535 426.906V458.756ZM956.523 429.698V434.425H939.604V429.698H956.523Z"/>
<path d="M959.988 444.55V443.932C959.988 441.837 960.292 439.895 960.901 438.104C961.51 436.296 962.387 434.729 963.533 433.405C964.696 432.062 966.111 431.023 967.776 430.289C969.459 429.537 971.357 429.161 973.469 429.161C975.6 429.161 977.498 429.537 979.163 430.289C980.846 431.023 982.269 432.062 983.433 433.405C984.596 434.729 985.483 436.296 986.091 438.104C986.7 439.895 987.004 441.837 987.004 443.932V444.55C987.004 446.644 986.7 448.587 986.091 450.377C985.483 452.168 984.596 453.734 983.433 455.077C982.269 456.402 980.854 457.44 979.189 458.192C977.524 458.926 975.636 459.293 973.523 459.293C971.392 459.293 969.486 458.926 967.803 458.192C966.138 457.44 964.723 456.402 963.56 455.077C962.396 453.734 961.51 452.168 960.901 450.377C960.292 448.587 959.988 446.644 959.988 444.55ZM966.46 443.932V444.55C966.46 445.857 966.594 447.092 966.863 448.256C967.131 449.419 967.552 450.44 968.125 451.317C968.698 452.194 969.432 452.884 970.327 453.385C971.222 453.886 972.288 454.137 973.523 454.137C974.722 454.137 975.761 453.886 976.638 453.385C977.533 452.884 978.267 452.194 978.84 451.317C979.413 450.44 979.834 449.419 980.103 448.256C980.389 447.092 980.532 445.857 980.532 444.55V443.932C980.532 442.643 980.389 441.425 980.103 440.28C979.834 439.116 979.404 438.086 978.813 437.191C978.241 436.296 977.507 435.598 976.611 435.096C975.734 434.577 974.687 434.318 973.469 434.318C972.252 434.318 971.195 434.577 970.3 435.096C969.423 435.598 968.698 436.296 968.125 437.191C967.552 438.086 967.131 439.116 966.863 440.28C966.594 441.425 966.46 442.643 966.46 443.932Z"/>
<path d="M1009.91 451.908V429.698H1016.41V458.756H1010.29L1009.91 451.908ZM1010.83 445.865L1013 445.812C1013 447.763 1012.79 449.563 1012.36 451.21C1011.93 452.839 1011.26 454.262 1010.37 455.48C1009.47 456.679 1008.33 457.619 1006.93 458.3C1005.53 458.962 1003.86 459.293 1001.91 459.293C1000.49 459.293 999.197 459.087 998.015 458.676C996.833 458.264 995.813 457.628 994.954 456.769C994.112 455.909 993.459 454.79 992.993 453.412C992.528 452.033 992.295 450.386 992.295 448.47V429.698H998.767V448.524C998.767 449.58 998.892 450.467 999.143 451.183C999.394 451.881 999.734 452.445 1000.16 452.875C1000.59 453.304 1001.09 453.609 1001.67 453.788C1002.24 453.967 1002.85 454.056 1003.49 454.056C1005.34 454.056 1006.79 453.698 1007.84 452.982C1008.92 452.248 1009.68 451.263 1010.13 450.028C1010.59 448.793 1010.83 447.405 1010.83 445.865Z"/>
<path d="M1029.46 435.902V458.756H1022.99V429.698H1029.09L1029.46 435.902ZM1028.31 443.153L1026.21 443.126C1026.23 441.067 1026.52 439.178 1027.07 437.46C1027.65 435.741 1028.43 434.264 1029.44 433.029C1030.46 431.793 1031.67 430.844 1033.09 430.182C1034.5 429.502 1036.08 429.161 1037.81 429.161C1039.21 429.161 1040.47 429.358 1041.6 429.752C1042.75 430.128 1043.72 430.746 1044.53 431.605C1045.35 432.465 1045.98 433.584 1046.41 434.962C1046.84 436.323 1047.05 437.997 1047.05 439.984V458.756H1040.55V439.957C1040.55 438.561 1040.35 437.46 1039.94 436.654C1039.54 435.83 1038.96 435.249 1038.19 434.908C1037.44 434.55 1036.5 434.371 1035.37 434.371C1034.26 434.371 1033.27 434.604 1032.39 435.07C1031.51 435.535 1030.77 436.171 1030.16 436.976C1029.57 437.782 1029.11 438.713 1028.79 439.769C1028.47 440.826 1028.31 441.954 1028.31 443.153Z"/>
<path d="M1071.38 452.74V417.506H1077.88V458.756H1072L1071.38 452.74ZM1052.48 444.55V443.986C1052.48 441.783 1052.74 439.778 1053.26 437.97C1053.78 436.144 1054.53 434.577 1055.51 433.27C1056.5 431.945 1057.7 430.934 1059.11 430.236C1060.53 429.519 1062.12 429.161 1063.89 429.161C1065.65 429.161 1067.19 429.502 1068.51 430.182C1069.84 430.862 1070.96 431.838 1071.89 433.109C1072.83 434.362 1073.57 435.866 1074.12 437.621C1074.68 439.358 1075.07 441.291 1075.31 443.422V445.221C1075.07 447.298 1074.68 449.196 1074.12 450.914C1073.57 452.633 1072.83 454.119 1071.89 455.372C1070.96 456.626 1069.83 457.592 1068.48 458.273C1067.16 458.953 1065.61 459.293 1063.84 459.293C1062.08 459.293 1060.5 458.926 1059.08 458.192C1057.69 457.458 1056.5 456.429 1055.51 455.104C1054.53 453.779 1053.78 452.221 1053.26 450.431C1052.74 448.623 1052.48 446.662 1052.48 444.55ZM1058.95 443.986V444.55C1058.95 445.874 1059.07 447.11 1059.3 448.256C1059.55 449.401 1059.93 450.413 1060.45 451.29C1060.97 452.15 1061.64 452.83 1062.47 453.331C1063.31 453.815 1064.31 454.056 1065.48 454.056C1066.94 454.056 1068.15 453.734 1069.1 453.09C1070.05 452.445 1070.79 451.577 1071.33 450.485C1071.89 449.375 1072.26 448.139 1072.46 446.779V441.918C1072.35 440.861 1072.13 439.877 1071.79 438.964C1071.46 438.051 1071.03 437.254 1070.47 436.573C1069.92 435.875 1069.23 435.338 1068.4 434.962C1067.6 434.568 1066.64 434.371 1065.53 434.371C1064.35 434.371 1063.35 434.622 1062.52 435.123C1061.7 435.625 1061.02 436.314 1060.48 437.191C1059.96 438.068 1059.58 439.089 1059.33 440.253C1059.08 441.416 1058.95 442.661 1058.95 443.986Z"/>
</mask>
<path d="M719.47 435.284V469.928H712.998V429.698H718.96L719.47 435.284ZM738.403 443.959V444.523C738.403 446.635 738.153 448.596 737.651 450.404C737.168 452.194 736.443 453.761 735.476 455.104C734.527 456.429 733.354 457.458 731.958 458.192C730.562 458.926 728.95 459.293 727.124 459.293C725.316 459.293 723.731 458.962 722.371 458.3C721.028 457.619 719.891 456.661 718.96 455.426C718.029 454.191 717.277 452.74 716.704 451.075C716.149 449.392 715.755 447.548 715.522 445.543V443.368C715.755 441.237 716.149 439.304 716.704 437.567C717.277 435.83 718.029 434.336 718.96 433.082C719.891 431.829 721.028 430.862 722.371 430.182C723.713 429.502 725.28 429.161 727.07 429.161C728.896 429.161 730.517 429.519 731.931 430.236C733.346 430.934 734.536 431.936 735.503 433.243C736.47 434.532 737.195 436.09 737.678 437.916C738.162 439.725 738.403 441.739 738.403 443.959ZM731.931 444.523V443.959C731.931 442.616 731.806 441.372 731.555 440.226C731.305 439.062 730.911 438.042 730.374 437.164C729.836 436.287 729.147 435.607 728.306 435.123C727.482 434.622 726.488 434.371 725.325 434.371C724.179 434.371 723.194 434.568 722.371 434.962C721.547 435.338 720.858 435.866 720.303 436.547C719.748 437.227 719.318 438.024 719.014 438.937C718.709 439.832 718.494 440.808 718.369 441.864V447.074C718.584 448.363 718.951 449.545 719.47 450.619C719.989 451.693 720.723 452.552 721.672 453.197C722.639 453.824 723.875 454.137 725.378 454.137C726.542 454.137 727.536 453.886 728.359 453.385C729.183 452.884 729.854 452.194 730.374 451.317C730.911 450.422 731.305 449.392 731.555 448.229C731.806 447.065 731.931 445.83 731.931 444.523Z" fill="#797979"/>
<path d="M760.291 452.928V439.071C760.291 438.033 760.103 437.137 759.727 436.385C759.351 435.634 758.778 435.052 758.008 434.64C757.256 434.228 756.307 434.022 755.161 434.022C754.105 434.022 753.192 434.201 752.422 434.559C751.652 434.917 751.052 435.401 750.623 436.01C750.193 436.618 749.978 437.308 749.978 438.077H743.533C743.533 436.932 743.81 435.822 744.365 434.747C744.92 433.673 745.726 432.715 746.782 431.874C747.839 431.032 749.101 430.37 750.569 429.886C752.037 429.403 753.684 429.161 755.51 429.161C757.694 429.161 759.628 429.528 761.311 430.262C763.012 430.997 764.346 432.107 765.312 433.593C766.297 435.061 766.79 436.905 766.79 439.125V452.042C766.79 453.367 766.879 454.558 767.058 455.614C767.255 456.652 767.533 457.557 767.891 458.326V458.756H761.257C760.953 458.058 760.711 457.172 760.532 456.097C760.371 455.005 760.291 453.949 760.291 452.928ZM761.23 441.085L761.284 445.087H756.638C755.439 445.087 754.382 445.203 753.469 445.436C752.556 445.651 751.795 445.973 751.187 446.403C750.578 446.832 750.121 447.351 749.817 447.96C749.513 448.569 749.36 449.258 749.36 450.028C749.36 450.798 749.539 451.505 749.897 452.15C750.256 452.776 750.775 453.269 751.455 453.627C752.153 453.985 752.995 454.164 753.979 454.164C755.304 454.164 756.459 453.895 757.444 453.358C758.446 452.803 759.234 452.132 759.807 451.344C760.38 450.538 760.684 449.777 760.72 449.061L762.815 451.935C762.6 452.669 762.233 453.457 761.714 454.298C761.195 455.14 760.514 455.945 759.673 456.715C758.849 457.467 757.856 458.085 756.692 458.568C755.546 459.052 754.221 459.293 752.717 459.293C750.819 459.293 749.128 458.917 747.642 458.165C746.156 457.395 744.992 456.366 744.15 455.077C743.309 453.77 742.888 452.293 742.888 450.646C742.888 449.106 743.175 447.745 743.748 446.564C744.338 445.364 745.198 444.362 746.326 443.556C747.472 442.75 748.868 442.142 750.515 441.73C752.162 441.3 754.042 441.085 756.155 441.085H761.23Z" fill="#797979"/>
<path d="M792.168 429.698H798.049V457.95C798.049 460.564 797.494 462.784 796.384 464.611C795.274 466.437 793.726 467.824 791.738 468.773C789.751 469.74 787.45 470.223 784.836 470.223C783.726 470.223 782.491 470.062 781.13 469.74C779.788 469.418 778.481 468.899 777.209 468.182C775.956 467.484 774.909 466.562 774.067 465.416L777.102 461.603C778.14 462.838 779.286 463.742 780.54 464.315C781.793 464.888 783.109 465.175 784.487 465.175C785.973 465.175 787.236 464.897 788.274 464.342C789.33 463.805 790.145 463.008 790.718 461.952C791.291 460.896 791.577 459.607 791.577 458.085V436.278L792.168 429.698ZM772.429 444.55V443.986C772.429 441.783 772.698 439.778 773.235 437.97C773.772 436.144 774.542 434.577 775.544 433.27C776.547 431.945 777.764 430.934 779.197 430.236C780.629 429.519 782.249 429.161 784.058 429.161C785.938 429.161 787.54 429.502 788.865 430.182C790.208 430.862 791.326 431.838 792.222 433.109C793.117 434.362 793.815 435.866 794.316 437.621C794.836 439.358 795.221 441.291 795.471 443.422V445.221C795.238 447.298 794.845 449.196 794.29 450.914C793.735 452.633 793 454.119 792.087 455.372C791.174 456.626 790.046 457.592 788.704 458.273C787.379 458.953 785.812 459.293 784.004 459.293C782.231 459.293 780.629 458.926 779.197 458.192C777.782 457.458 776.565 456.429 775.544 455.104C774.542 453.779 773.772 452.221 773.235 450.431C772.698 448.623 772.429 446.662 772.429 444.55ZM778.901 443.986V444.55C778.901 445.874 779.027 447.11 779.277 448.256C779.546 449.401 779.949 450.413 780.486 451.29C781.041 452.15 781.739 452.83 782.581 453.331C783.44 453.815 784.451 454.056 785.615 454.056C787.137 454.056 788.381 453.734 789.348 453.09C790.333 452.445 791.085 451.577 791.604 450.485C792.141 449.375 792.517 448.139 792.732 446.779V441.918C792.625 440.861 792.401 439.877 792.061 438.964C791.738 438.051 791.3 437.254 790.745 436.573C790.19 435.875 789.491 435.338 788.65 434.962C787.808 434.568 786.815 434.371 785.669 434.371C784.505 434.371 783.494 434.622 782.634 435.123C781.775 435.625 781.068 436.314 780.513 437.191C779.976 438.068 779.573 439.089 779.304 440.253C779.036 441.416 778.901 442.661 778.901 443.986Z" fill="#797979"/>
<path d="M817.573 459.293C815.425 459.293 813.482 458.944 811.746 458.246C810.027 457.53 808.559 456.536 807.341 455.265C806.142 453.994 805.22 452.499 804.575 450.78C803.931 449.061 803.608 447.208 803.608 445.221V444.147C803.608 441.873 803.94 439.814 804.602 437.97C805.264 436.126 806.187 434.55 807.368 433.243C808.55 431.919 809.946 430.907 811.558 430.209C813.169 429.51 814.915 429.161 816.794 429.161C818.871 429.161 820.688 429.51 822.246 430.209C823.804 430.907 825.093 431.892 826.113 433.163C827.152 434.416 827.922 435.911 828.423 437.648C828.942 439.384 829.202 441.3 829.202 443.395V446.161H806.75V441.515H822.81V441.005C822.774 439.841 822.542 438.749 822.112 437.728C821.7 436.708 821.064 435.884 820.205 435.258C819.346 434.631 818.2 434.318 816.768 434.318C815.693 434.318 814.736 434.55 813.894 435.016C813.07 435.463 812.381 436.117 811.826 436.976C811.271 437.836 810.841 438.874 810.537 440.092C810.251 441.291 810.107 442.643 810.107 444.147V445.221C810.107 446.492 810.278 447.674 810.618 448.766C810.976 449.84 811.495 450.78 812.175 451.586C812.856 452.391 813.679 453.027 814.646 453.492C815.613 453.94 816.714 454.164 817.949 454.164C819.507 454.164 820.894 453.851 822.112 453.224C823.329 452.597 824.386 451.711 825.281 450.565L828.691 453.868C828.065 454.781 827.25 455.659 826.248 456.5C825.245 457.324 824.019 457.995 822.568 458.514C821.136 459.034 819.471 459.293 817.573 459.293Z" fill="#797979"/>
<path d="M854.365 435.902V458.756H847.893V429.698H853.989L854.365 435.902ZM853.21 443.153L851.116 443.126C851.134 441.067 851.42 439.178 851.975 437.46C852.548 435.741 853.336 434.264 854.338 433.029C855.359 431.793 856.576 430.844 857.991 430.182C859.405 429.502 860.981 429.161 862.717 429.161C864.114 429.161 865.376 429.358 866.504 429.752C867.65 430.128 868.625 430.746 869.431 431.605C870.255 432.465 870.881 433.584 871.311 434.962C871.741 436.323 871.956 437.997 871.956 439.984V458.756H865.457V439.957C865.457 438.561 865.251 437.46 864.839 436.654C864.445 435.83 863.863 435.249 863.093 434.908C862.341 434.55 861.401 434.371 860.273 434.371C859.163 434.371 858.17 434.604 857.292 435.07C856.415 435.535 855.672 436.171 855.063 436.976C854.473 437.782 854.016 438.713 853.694 439.769C853.372 440.826 853.21 441.954 853.21 443.153Z" fill="#797979"/>
<path d="M877.327 444.55V443.932C877.327 441.837 877.631 439.895 878.24 438.104C878.848 436.296 879.726 434.729 880.872 433.405C882.035 432.062 883.45 431.023 885.115 430.289C886.798 429.537 888.695 429.161 890.808 429.161C892.939 429.161 894.836 429.537 896.501 430.289C898.184 431.023 899.608 432.062 900.771 433.405C901.935 434.729 902.821 436.296 903.43 438.104C904.039 439.895 904.343 441.837 904.343 443.932V444.55C904.343 446.644 904.039 448.587 903.43 450.377C902.821 452.168 901.935 453.734 900.771 455.077C899.608 456.402 898.193 457.44 896.528 458.192C894.863 458.926 892.974 459.293 890.862 459.293C888.731 459.293 886.825 458.926 885.142 458.192C883.477 457.44 882.062 456.402 880.898 455.077C879.735 453.734 878.848 452.168 878.24 450.377C877.631 448.587 877.327 446.644 877.327 444.55ZM883.799 443.932V444.55C883.799 445.857 883.933 447.092 884.202 448.256C884.47 449.419 884.891 450.44 885.464 451.317C886.037 452.194 886.771 452.884 887.666 453.385C888.561 453.886 889.626 454.137 890.862 454.137C892.061 454.137 893.1 453.886 893.977 453.385C894.872 452.884 895.606 452.194 896.179 451.317C896.752 450.44 897.173 449.419 897.441 448.256C897.728 447.092 897.871 445.857 897.871 444.55V443.932C897.871 442.643 897.728 441.425 897.441 440.28C897.173 439.116 896.743 438.086 896.152 437.191C895.579 436.296 894.845 435.598 893.95 435.096C893.073 434.577 892.026 434.318 890.808 434.318C889.591 434.318 888.534 434.577 887.639 435.096C886.762 435.598 886.037 436.296 885.464 437.191C884.891 438.086 884.47 439.116 884.202 440.28C883.933 441.425 883.799 442.643 883.799 443.932Z" fill="#797979"/>
<path d="M923.088 429.698V434.425H906.707V429.698H923.088ZM911.433 422.582H917.905V450.726C917.905 451.622 918.031 452.311 918.281 452.794C918.55 453.26 918.917 453.573 919.382 453.734C919.848 453.895 920.394 453.976 921.021 453.976C921.468 453.976 921.898 453.949 922.31 453.895C922.721 453.842 923.053 453.788 923.303 453.734L923.33 458.676C922.793 458.837 922.166 458.98 921.45 459.105C920.752 459.231 919.946 459.293 919.033 459.293C917.547 459.293 916.231 459.034 915.085 458.514C913.94 457.977 913.044 457.109 912.4 455.909C911.755 454.71 911.433 453.116 911.433 451.129V422.582Z" fill="#797979"/>
<path d="M950.535 458.756H944.062V426.906C944.062 424.739 944.465 422.922 945.271 421.454C946.095 419.968 947.267 418.849 948.789 418.097C950.311 417.327 952.11 416.942 954.187 416.942C954.832 416.942 955.467 416.987 956.094 417.076C956.72 417.148 957.329 417.264 957.92 417.426L957.759 422.421C957.401 422.331 957.007 422.268 956.577 422.233C956.165 422.197 955.718 422.179 955.234 422.179C954.25 422.179 953.399 422.367 952.683 422.743C951.985 423.101 951.448 423.629 951.072 424.327C950.714 425.026 950.535 425.885 950.535 426.906V458.756ZM956.523 429.698V434.425H939.604V429.698H956.523Z" fill="#797979"/>
<path d="M959.988 444.55V443.932C959.988 441.837 960.292 439.895 960.901 438.104C961.51 436.296 962.387 434.729 963.533 433.405C964.696 432.062 966.111 431.023 967.776 430.289C969.459 429.537 971.357 429.161 973.469 429.161C975.6 429.161 977.498 429.537 979.163 430.289C980.846 431.023 982.269 432.062 983.433 433.405C984.596 434.729 985.483 436.296 986.091 438.104C986.7 439.895 987.004 441.837 987.004 443.932V444.55C987.004 446.644 986.7 448.587 986.091 450.377C985.483 452.168 984.596 453.734 983.433 455.077C982.269 456.402 980.854 457.44 979.189 458.192C977.524 458.926 975.636 459.293 973.523 459.293C971.392 459.293 969.486 458.926 967.803 458.192C966.138 457.44 964.723 456.402 963.56 455.077C962.396 453.734 961.51 452.168 960.901 450.377C960.292 448.587 959.988 446.644 959.988 444.55ZM966.46 443.932V444.55C966.46 445.857 966.594 447.092 966.863 448.256C967.131 449.419 967.552 450.44 968.125 451.317C968.698 452.194 969.432 452.884 970.327 453.385C971.222 453.886 972.288 454.137 973.523 454.137C974.722 454.137 975.761 453.886 976.638 453.385C977.533 452.884 978.267 452.194 978.84 451.317C979.413 450.44 979.834 449.419 980.103 448.256C980.389 447.092 980.532 445.857 980.532 444.55V443.932C980.532 442.643 980.389 441.425 980.103 440.28C979.834 439.116 979.404 438.086 978.813 437.191C978.241 436.296 977.507 435.598 976.611 435.096C975.734 434.577 974.687 434.318 973.469 434.318C972.252 434.318 971.195 434.577 970.3 435.096C969.423 435.598 968.698 436.296 968.125 437.191C967.552 438.086 967.131 439.116 966.863 440.28C966.594 441.425 966.46 442.643 966.46 443.932Z" fill="#797979"/>
<path d="M1009.91 451.908V429.698H1016.41V458.756H1010.29L1009.91 451.908ZM1010.83 445.865L1013 445.812C1013 447.763 1012.79 449.563 1012.36 451.21C1011.93 452.839 1011.26 454.262 1010.37 455.48C1009.47 456.679 1008.33 457.619 1006.93 458.3C1005.53 458.962 1003.86 459.293 1001.91 459.293C1000.49 459.293 999.197 459.087 998.015 458.676C996.833 458.264 995.813 457.628 994.954 456.769C994.112 455.909 993.459 454.79 992.993 453.412C992.528 452.033 992.295 450.386 992.295 448.47V429.698H998.767V448.524C998.767 449.58 998.892 450.467 999.143 451.183C999.394 451.881 999.734 452.445 1000.16 452.875C1000.59 453.304 1001.09 453.609 1001.67 453.788C1002.24 453.967 1002.85 454.056 1003.49 454.056C1005.34 454.056 1006.79 453.698 1007.84 452.982C1008.92 452.248 1009.68 451.263 1010.13 450.028C1010.59 448.793 1010.83 447.405 1010.83 445.865Z" fill="#797979"/>
<path d="M1029.46 435.902V458.756H1022.99V429.698H1029.09L1029.46 435.902ZM1028.31 443.153L1026.21 443.126C1026.23 441.067 1026.52 439.178 1027.07 437.46C1027.65 435.741 1028.43 434.264 1029.44 433.029C1030.46 431.793 1031.67 430.844 1033.09 430.182C1034.5 429.502 1036.08 429.161 1037.81 429.161C1039.21 429.161 1040.47 429.358 1041.6 429.752C1042.75 430.128 1043.72 430.746 1044.53 431.605C1045.35 432.465 1045.98 433.584 1046.41 434.962C1046.84 436.323 1047.05 437.997 1047.05 439.984V458.756H1040.55V439.957C1040.55 438.561 1040.35 437.46 1039.94 436.654C1039.54 435.83 1038.96 435.249 1038.19 434.908C1037.44 434.55 1036.5 434.371 1035.37 434.371C1034.26 434.371 1033.27 434.604 1032.39 435.07C1031.51 435.535 1030.77 436.171 1030.16 436.976C1029.57 437.782 1029.11 438.713 1028.79 439.769C1028.47 440.826 1028.31 441.954 1028.31 443.153Z" fill="#797979"/>
<path d="M1071.38 452.74V417.506H1077.88V458.756H1072L1071.38 452.74ZM1052.48 444.55V443.986C1052.48 441.783 1052.74 439.778 1053.26 437.97C1053.78 436.144 1054.53 434.577 1055.51 433.27C1056.5 431.945 1057.7 430.934 1059.11 430.236C1060.53 429.519 1062.12 429.161 1063.89 429.161C1065.65 429.161 1067.19 429.502 1068.51 430.182C1069.84 430.862 1070.96 431.838 1071.89 433.109C1072.83 434.362 1073.57 435.866 1074.12 437.621C1074.68 439.358 1075.07 441.291 1075.31 443.422V445.221C1075.07 447.298 1074.68 449.196 1074.12 450.914C1073.57 452.633 1072.83 454.119 1071.89 455.372C1070.96 456.626 1069.83 457.592 1068.48 458.273C1067.16 458.953 1065.61 459.293 1063.84 459.293C1062.08 459.293 1060.5 458.926 1059.08 458.192C1057.69 457.458 1056.5 456.429 1055.51 455.104C1054.53 453.779 1053.78 452.221 1053.26 450.431C1052.74 448.623 1052.48 446.662 1052.48 444.55ZM1058.95 443.986V444.55C1058.95 445.874 1059.07 447.11 1059.3 448.256C1059.55 449.401 1059.93 450.413 1060.45 451.29C1060.97 452.15 1061.64 452.83 1062.47 453.331C1063.31 453.815 1064.31 454.056 1065.48 454.056C1066.94 454.056 1068.15 453.734 1069.1 453.09C1070.05 452.445 1070.79 451.577 1071.33 450.485C1071.89 449.375 1072.26 448.139 1072.46 446.779V441.918C1072.35 440.861 1072.13 439.877 1071.79 438.964C1071.46 438.051 1071.03 437.254 1070.47 436.573C1069.92 435.875 1069.23 435.338 1068.4 434.962C1067.6 434.568 1066.64 434.371 1065.53 434.371C1064.35 434.371 1063.35 434.622 1062.52 435.123C1061.7 435.625 1061.02 436.314 1060.48 437.191C1059.96 438.068 1059.58 439.089 1059.33 440.253C1059.08 441.416 1058.95 442.661 1058.95 443.986Z" fill="#797979"/>
<path d="M719.47 435.284V469.928H712.998V429.698H718.96L719.47 435.284ZM738.403 443.959V444.523C738.403 446.635 738.153 448.596 737.651 450.404C737.168 452.194 736.443 453.761 735.476 455.104C734.527 456.429 733.354 457.458 731.958 458.192C730.562 458.926 728.95 459.293 727.124 459.293C725.316 459.293 723.731 458.962 722.371 458.3C721.028 457.619 719.891 456.661 718.96 455.426C718.029 454.191 717.277 452.74 716.704 451.075C716.149 449.392 715.755 447.548 715.522 445.543V443.368C715.755 441.237 716.149 439.304 716.704 437.567C717.277 435.83 718.029 434.336 718.96 433.082C719.891 431.829 721.028 430.862 722.371 430.182C723.713 429.502 725.28 429.161 727.07 429.161C728.896 429.161 730.517 429.519 731.931 430.236C733.346 430.934 734.536 431.936 735.503 433.243C736.47 434.532 737.195 436.09 737.678 437.916C738.162 439.725 738.403 441.739 738.403 443.959ZM731.931 444.523V443.959C731.931 442.616 731.806 441.372 731.555 440.226C731.305 439.062 730.911 438.042 730.374 437.164C729.836 436.287 729.147 435.607 728.306 435.123C727.482 434.622 726.488 434.371 725.325 434.371C724.179 434.371 723.194 434.568 722.371 434.962C721.547 435.338 720.858 435.866 720.303 436.547C719.748 437.227 719.318 438.024 719.014 438.937C718.709 439.832 718.494 440.808 718.369 441.864V447.074C718.584 448.363 718.951 449.545 719.47 450.619C719.989 451.693 720.723 452.552 721.672 453.197C722.639 453.824 723.875 454.137 725.378 454.137C726.542 454.137 727.536 453.886 728.359 453.385C729.183 452.884 729.854 452.194 730.374 451.317C730.911 450.422 731.305 449.392 731.555 448.229C731.806 447.065 731.931 445.83 731.931 444.523Z" stroke="white" stroke-width="20" stroke-linejoin="round" mask="url(#path-4-outside-1_1709_505)"/>
<path d="M760.291 452.928V439.071C760.291 438.033 760.103 437.137 759.727 436.385C759.351 435.634 758.778 435.052 758.008 434.64C757.256 434.228 756.307 434.022 755.161 434.022C754.105 434.022 753.192 434.201 752.422 434.559C751.652 434.917 751.052 435.401 750.623 436.01C750.193 436.618 749.978 437.308 749.978 438.077H743.533C743.533 436.932 743.81 435.822 744.365 434.747C744.92 433.673 745.726 432.715 746.782 431.874C747.839 431.032 749.101 430.37 750.569 429.886C752.037 429.403 753.684 429.161 755.51 429.161C757.694 429.161 759.628 429.528 761.311 430.262C763.012 430.997 764.346 432.107 765.312 433.593C766.297 435.061 766.79 436.905 766.79 439.125V452.042C766.79 453.367 766.879 454.558 767.058 455.614C767.255 456.652 767.533 457.557 767.891 458.326V458.756H761.257C760.953 458.058 760.711 457.172 760.532 456.097C760.371 455.005 760.291 453.949 760.291 452.928ZM761.23 441.085L761.284 445.087H756.638C755.439 445.087 754.382 445.203 753.469 445.436C752.556 445.651 751.795 445.973 751.187 446.403C750.578 446.832 750.121 447.351 749.817 447.96C749.513 448.569 749.36 449.258 749.36 450.028C749.36 450.798 749.539 451.505 749.897 452.15C750.256 452.776 750.775 453.269 751.455 453.627C752.153 453.985 752.995 454.164 753.979 454.164C755.304 454.164 756.459 453.895 757.444 453.358C758.446 452.803 759.234 452.132 759.807 451.344C760.38 450.538 760.684 449.777 760.72 449.061L762.815 451.935C762.6 452.669 762.233 453.457 761.714 454.298C761.195 455.14 760.514 455.945 759.673 456.715C758.849 457.467 757.856 458.085 756.692 458.568C755.546 459.052 754.221 459.293 752.717 459.293C750.819 459.293 749.128 458.917 747.642 458.165C746.156 457.395 744.992 456.366 744.15 455.077C743.309 453.77 742.888 452.293 742.888 450.646C742.888 449.106 743.175 447.745 743.748 446.564C744.338 445.364 745.198 444.362 746.326 443.556C747.472 442.75 748.868 442.142 750.515 441.73C752.162 441.3 754.042 441.085 756.155 441.085H761.23Z" stroke="white" stroke-width="20" stroke-linejoin="round" mask="url(#path-4-outside-1_1709_505)"/>
<path d="M792.168 429.698H798.049V457.95C798.049 460.564 797.494 462.784 796.384 464.611C795.274 466.437 793.726 467.824 791.738 468.773C789.751 469.74 787.45 470.223 784.836 470.223C783.726 470.223 782.491 470.062 781.13 469.74C779.788 469.418 778.481 468.899 777.209 468.182C775.956 467.484 774.909 466.562 774.067 465.416L777.102 461.603C778.14 462.838 779.286 463.742 780.54 464.315C781.793 464.888 783.109 465.175 784.487 465.175C785.973 465.175 787.236 464.897 788.274 464.342C789.33 463.805 790.145 463.008 790.718 461.952C791.291 460.896 791.577 459.607 791.577 458.085V436.278L792.168 429.698ZM772.429 444.55V443.986C772.429 441.783 772.698 439.778 773.235 437.97C773.772 436.144 774.542 434.577 775.544 433.27C776.547 431.945 777.764 430.934 779.197 430.236C780.629 429.519 782.249 429.161 784.058 429.161C785.938 429.161 787.54 429.502 788.865 430.182C790.208 430.862 791.326 431.838 792.222 433.109C793.117 434.362 793.815 435.866 794.316 437.621C794.836 439.358 795.221 441.291 795.471 443.422V445.221C795.238 447.298 794.845 449.196 794.29 450.914C793.735 452.633 793 454.119 792.087 455.372C791.174 456.626 790.046 457.592 788.704 458.273C787.379 458.953 785.812 459.293 784.004 459.293C782.231 459.293 780.629 458.926 779.197 458.192C777.782 457.458 776.565 456.429 775.544 455.104C774.542 453.779 773.772 452.221 773.235 450.431C772.698 448.623 772.429 446.662 772.429 444.55ZM778.901 443.986V444.55C778.901 445.874 779.027 447.11 779.277 448.256C779.546 449.401 779.949 450.413 780.486 451.29C781.041 452.15 781.739 452.83 782.581 453.331C783.44 453.815 784.451 454.056 785.615 454.056C787.137 454.056 788.381 453.734 789.348 453.09C790.333 452.445 791.085 451.577 791.604 450.485C792.141 449.375 792.517 448.139 792.732 446.779V441.918C792.625 440.861 792.401 439.877 792.061 438.964C791.738 438.051 791.3 437.254 790.745 436.573C790.19 435.875 789.491 435.338 788.65 434.962C787.808 434.568 786.815 434.371 785.669 434.371C784.505 434.371 783.494 434.622 782.634 435.123C781.775 435.625 781.068 436.314 780.513 437.191C779.976 438.068 779.573 439.089 779.304 440.253C779.036 441.416 778.901 442.661 778.901 443.986Z" stroke="white" stroke-width="20" stroke-linejoin="round" mask="url(#path-4-outside-1_1709_505)"/>
<path d="M817.573 459.293C815.425 459.293 813.482 458.944 811.746 458.246C810.027 457.53 808.559 456.536 807.341 455.265C806.142 453.994 805.22 452.499 804.575 450.78C803.931 449.061 803.608 447.208 803.608 445.221V444.147C803.608 441.873 803.94 439.814 804.602 437.97C805.264 436.126 806.187 434.55 807.368 433.243C808.55 431.919 809.946 430.907 811.558 430.209C813.169 429.51 814.915 429.161 816.794 429.161C818.871 429.161 820.688 429.51 822.246 430.209C823.804 430.907 825.093 431.892 826.113 433.163C827.152 434.416 827.922 435.911 828.423 437.648C828.942 439.384 829.202 441.3 829.202 443.395V446.161H806.75V441.515H822.81V441.005C822.774 439.841 822.542 438.749 822.112 437.728C821.7 436.708 821.064 435.884 820.205 435.258C819.346 434.631 818.2 434.318 816.768 434.318C815.693 434.318 814.736 434.55 813.894 435.016C813.07 435.463 812.381 436.117 811.826 436.976C811.271 437.836 810.841 438.874 810.537 440.092C810.251 441.291 810.107 442.643 810.107 444.147V445.221C810.107 446.492 810.278 447.674 810.618 448.766C810.976 449.84 811.495 450.78 812.175 451.586C812.856 452.391 813.679 453.027 814.646 453.492C815.613 453.94 816.714 454.164 817.949 454.164C819.507 454.164 820.894 453.851 822.112 453.224C823.329 452.597 824.386 451.711 825.281 450.565L828.691 453.868C828.065 454.781 827.25 455.659 826.248 456.5C825.245 457.324 824.019 457.995 822.568 458.514C821.136 459.034 819.471 459.293 817.573 459.293Z" stroke="white" stroke-width="20" stroke-linejoin="round" mask="url(#path-4-outside-1_1709_505)"/>
<path d="M854.365 435.902V458.756H847.893V429.698H853.989L854.365 435.902ZM853.21 443.153L851.116 443.126C851.134 441.067 851.42 439.178 851.975 437.46C852.548 435.741 853.336 434.264 854.338 433.029C855.359 431.793 856.576 430.844 857.991 430.182C859.405 429.502 860.981 429.161 862.717 429.161C864.114 429.161 865.376 429.358 866.504 429.752C867.65 430.128 868.625 430.746 869.431 431.605C870.255 432.465 870.881 433.584 871.311 434.962C871.741 436.323 871.956 437.997 871.956 439.984V458.756H865.457V439.957C865.457 438.561 865.251 437.46 864.839 436.654C864.445 435.83 863.863 435.249 863.093 434.908C862.341 434.55 861.401 434.371 860.273 434.371C859.163 434.371 858.17 434.604 857.292 435.07C856.415 435.535 855.672 436.171 855.063 436.976C854.473 437.782 854.016 438.713 853.694 439.769C853.372 440.826 853.21 441.954 853.21 443.153Z" stroke="white" stroke-width="20" stroke-linejoin="round" mask="url(#path-4-outside-1_1709_505)"/>
<path d="M877.327 444.55V443.932C877.327 441.837 877.631 439.895 878.24 438.104C878.848 436.296 879.726 434.729 880.872 433.405C882.035 432.062 883.45 431.023 885.115 430.289C886.798 429.537 888.695 429.161 890.808 429.161C892.939 429.161 894.836 429.537 896.501 430.289C898.184 431.023 899.608 432.062 900.771 433.405C901.935 434.729 902.821 436.296 903.43 438.104C904.039 439.895 904.343 441.837 904.343 443.932V444.55C904.343 446.644 904.039 448.587 903.43 450.377C902.821 452.168 901.935 453.734 900.771 455.077C899.608 456.402 898.193 457.44 896.528 458.192C894.863 458.926 892.974 459.293 890.862 459.293C888.731 459.293 886.825 458.926 885.142 458.192C883.477 457.44 882.062 456.402 880.898 455.077C879.735 453.734 878.848 452.168 878.24 450.377C877.631 448.587 877.327 446.644 877.327 444.55ZM883.799 443.932V444.55C883.799 445.857 883.933 447.092 884.202 448.256C884.47 449.419 884.891 450.44 885.464 451.317C886.037 452.194 886.771 452.884 887.666 453.385C888.561 453.886 889.626 454.137 890.862 454.137C892.061 454.137 893.1 453.886 893.977 453.385C894.872 452.884 895.606 452.194 896.179 451.317C896.752 450.44 897.173 449.419 897.441 448.256C897.728 447.092 897.871 445.857 897.871 444.55V443.932C897.871 442.643 897.728 441.425 897.441 440.28C897.173 439.116 896.743 438.086 896.152 437.191C895.579 436.296 894.845 435.598 893.95 435.096C893.073 434.577 892.026 434.318 890.808 434.318C889.591 434.318 888.534 434.577 887.639 435.096C886.762 435.598 886.037 436.296 885.464 437.191C884.891 438.086 884.47 439.116 884.202 440.28C883.933 441.425 883.799 442.643 883.799 443.932Z" stroke="white" stroke-width="20" stroke-linejoin="round" mask="url(#path-4-outside-1_1709_505)"/>
<path d="M923.088 429.698V434.425H906.707V429.698H923.088ZM911.433 422.582H917.905V450.726C917.905 451.622 918.031 452.311 918.281 452.794C918.55 453.26 918.917 453.573 919.382 453.734C919.848 453.895 920.394 453.976 921.021 453.976C921.468 453.976 921.898 453.949 922.31 453.895C922.721 453.842 923.053 453.788 923.303 453.734L923.33 458.676C922.793 458.837 922.166 458.98 921.45 459.105C920.752 459.231 919.946 459.293 919.033 459.293C917.547 459.293 916.231 459.034 915.085 458.514C913.94 457.977 913.044 457.109 912.4 455.909C911.755 454.71 911.433 453.116 911.433 451.129V422.582Z" stroke="white" stroke-width="20" stroke-linejoin="round" mask="url(#path-4-outside-1_1709_505)"/>
<path d="M950.535 458.756H944.062V426.906C944.062 424.739 944.465 422.922 945.271 421.454C946.095 419.968 947.267 418.849 948.789 418.097C950.311 417.327 952.11 416.942 954.187 416.942C954.832 416.942 955.467 416.987 956.094 417.076C956.72 417.148 957.329 417.264 957.92 417.426L957.759 422.421C957.401 422.331 957.007 422.268 956.577 422.233C956.165 422.197 955.718 422.179 955.234 422.179C954.25 422.179 953.399 422.367 952.683 422.743C951.985 423.101 951.448 423.629 951.072 424.327C950.714 425.026 950.535 425.885 950.535 426.906V458.756ZM956.523 429.698V434.425H939.604V429.698H956.523Z" stroke="white" stroke-width="20" stroke-linejoin="round" mask="url(#path-4-outside-1_1709_505)"/>
<path d="M959.988 444.55V443.932C959.988 441.837 960.292 439.895 960.901 438.104C961.51 436.296 962.387 434.729 963.533 433.405C964.696 432.062 966.111 431.023 967.776 430.289C969.459 429.537 971.357 429.161 973.469 429.161C975.6 429.161 977.498 429.537 979.163 430.289C980.846 431.023 982.269 432.062 983.433 433.405C984.596 434.729 985.483 436.296 986.091 438.104C986.7 439.895 987.004 441.837 987.004 443.932V444.55C987.004 446.644 986.7 448.587 986.091 450.377C985.483 452.168 984.596 453.734 983.433 455.077C982.269 456.402 980.854 457.44 979.189 458.192C977.524 458.926 975.636 459.293 973.523 459.293C971.392 459.293 969.486 458.926 967.803 458.192C966.138 457.44 964.723 456.402 963.56 455.077C962.396 453.734 961.51 452.168 960.901 450.377C960.292 448.587 959.988 446.644 959.988 444.55ZM966.46 443.932V444.55C966.46 445.857 966.594 447.092 966.863 448.256C967.131 449.419 967.552 450.44 968.125 451.317C968.698 452.194 969.432 452.884 970.327 453.385C971.222 453.886 972.288 454.137 973.523 454.137C974.722 454.137 975.761 453.886 976.638 453.385C977.533 452.884 978.267 452.194 978.84 451.317C979.413 450.44 979.834 449.419 980.103 448.256C980.389 447.092 980.532 445.857 980.532 444.55V443.932C980.532 442.643 980.389 441.425 980.103 440.28C979.834 439.116 979.404 438.086 978.813 437.191C978.241 436.296 977.507 435.598 976.611 435.096C975.734 434.577 974.687 434.318 973.469 434.318C972.252 434.318 971.195 434.577 970.3 435.096C969.423 435.598 968.698 436.296 968.125 437.191C967.552 438.086 967.131 439.116 966.863 440.28C966.594 441.425 966.46 442.643 966.46 443.932Z" stroke="white" stroke-width="20" stroke-linejoin="round" mask="url(#path-4-outside-1_1709_505)"/>
<path d="M1009.91 451.908V429.698H1016.41V458.756H1010.29L1009.91 451.908ZM1010.83 445.865L1013 445.812C1013 447.763 1012.79 449.563 1012.36 451.21C1011.93 452.839 1011.26 454.262 1010.37 455.48C1009.47 456.679 1008.33 457.619 1006.93 458.3C1005.53 458.962 1003.86 459.293 1001.91 459.293C1000.49 459.293 999.197 459.087 998.015 458.676C996.833 458.264 995.813 457.628 994.954 456.769C994.112 455.909 993.459 454.79 992.993 453.412C992.528 452.033 992.295 450.386 992.295 448.47V429.698H998.767V448.524C998.767 449.58 998.892 450.467 999.143 451.183C999.394 451.881 999.734 452.445 1000.16 452.875C1000.59 453.304 1001.09 453.609 1001.67 453.788C1002.24 453.967 1002.85 454.056 1003.49 454.056C1005.34 454.056 1006.79 453.698 1007.84 452.982C1008.92 452.248 1009.68 451.263 1010.13 450.028C1010.59 448.793 1010.83 447.405 1010.83 445.865Z" stroke="white" stroke-width="20" stroke-linejoin="round" mask="url(#path-4-outside-1_1709_505)"/>
<path d="M1029.46 435.902V458.756H1022.99V429.698H1029.09L1029.46 435.902ZM1028.31 443.153L1026.21 443.126C1026.23 441.067 1026.52 439.178 1027.07 437.46C1027.65 435.741 1028.43 434.264 1029.44 433.029C1030.46 431.793 1031.67 430.844 1033.09 430.182C1034.5 429.502 1036.08 429.161 1037.81 429.161C1039.21 429.161 1040.47 429.358 1041.6 429.752C1042.75 430.128 1043.72 430.746 1044.53 431.605C1045.35 432.465 1045.98 433.584 1046.41 434.962C1046.84 436.323 1047.05 437.997 1047.05 439.984V458.756H1040.55V439.957C1040.55 438.561 1040.35 437.46 1039.94 436.654C1039.54 435.83 1038.96 435.249 1038.19 434.908C1037.44 434.55 1036.5 434.371 1035.37 434.371C1034.26 434.371 1033.27 434.604 1032.39 435.07C1031.51 435.535 1030.77 436.171 1030.16 436.976C1029.57 437.782 1029.11 438.713 1028.79 439.769C1028.47 440.826 1028.31 441.954 1028.31 443.153Z" stroke="white" stroke-width="20" stroke-linejoin="round" mask="url(#path-4-outside-1_1709_505)"/>
<path d="M1071.38 452.74V417.506H1077.88V458.756H1072L1071.38 452.74ZM1052.48 444.55V443.986C1052.48 441.783 1052.74 439.778 1053.26 437.97C1053.78 436.144 1054.53 434.577 1055.51 433.27C1056.5 431.945 1057.7 430.934 1059.11 430.236C1060.53 429.519 1062.12 429.161 1063.89 429.161C1065.65 429.161 1067.19 429.502 1068.51 430.182C1069.84 430.862 1070.96 431.838 1071.89 433.109C1072.83 434.362 1073.57 435.866 1074.12 437.621C1074.68 439.358 1075.07 441.291 1075.31 443.422V445.221C1075.07 447.298 1074.68 449.196 1074.12 450.914C1073.57 452.633 1072.83 454.119 1071.89 455.372C1070.96 456.626 1069.83 457.592 1068.48 458.273C1067.16 458.953 1065.61 459.293 1063.84 459.293C1062.08 459.293 1060.5 458.926 1059.08 458.192C1057.69 457.458 1056.5 456.429 1055.51 455.104C1054.53 453.779 1053.78 452.221 1053.26 450.431C1052.74 448.623 1052.48 446.662 1052.48 444.55ZM1058.95 443.986V444.55C1058.95 445.874 1059.07 447.11 1059.3 448.256C1059.55 449.401 1059.93 450.413 1060.45 451.29C1060.97 452.15 1061.64 452.83 1062.47 453.331C1063.31 453.815 1064.31 454.056 1065.48 454.056C1066.94 454.056 1068.15 453.734 1069.1 453.09C1070.05 452.445 1070.79 451.577 1071.33 450.485C1071.89 449.375 1072.26 448.139 1072.46 446.779V441.918C1072.35 440.861 1072.13 439.877 1071.79 438.964C1071.46 438.051 1071.03 437.254 1070.47 436.573C1069.92 435.875 1069.23 435.338 1068.4 434.962C1067.6 434.568 1066.64 434.371 1065.53 434.371C1064.35 434.371 1063.35 434.622 1062.52 435.123C1061.7 435.625 1061.02 436.314 1060.48 437.191C1059.96 438.068 1059.58 439.089 1059.33 440.253C1059.08 441.416 1058.95 442.661 1058.95 443.986Z" stroke="white" stroke-width="20" stroke-linejoin="round" mask="url(#path-4-outside-1_1709_505)"/>
<path d="M468.664 829.658C468.106 827.433 466.107 825.874 463.814 825.874H431.382C429.079 825.874 427.074 827.446 426.526 829.682L372.985 1047.92C372.619 1049.41 372.959 1050.99 373.907 1052.2C374.854 1053.41 376.305 1054.11 377.841 1054.11H518.542C520.082 1054.11 521.537 1053.4 522.484 1052.19C523.432 1050.97 523.767 1049.39 523.392 1047.9L468.664 829.658Z" fill="#DB162F" stroke="#383838" stroke-width="10" stroke-linejoin="round"/>
<rect x="340.501" y="1044.11" width="212.843" height="38.3443" fill="#DB162F" stroke="#383838" stroke-width="10" stroke-linejoin="round"/>
<mask id="mask0_1709_505" style="mask-type:alpha" maskUnits="userSpaceOnUse" x="377" y="830" width="142" height="220">
<path d="M463.814 830.874H431.382L377.841 1049.11H518.542L463.814 830.874Z" fill="#DB162F"/>
</mask>
<g mask="url(#mask0_1709_505)">
<rect x="377.841" y="913.574" width="146.211" height="24.1364" fill="white"/>
<rect x="377.841" y="961.847" width="146.211" height="24.1364" fill="white"/>
</g>
<path d="M1366.11 829.649C1365.55 827.425 1363.55 825.865 1361.26 825.865H1328.83C1326.52 825.865 1324.52 827.438 1323.97 829.674L1270.43 1047.91C1270.06 1049.4 1270.4 1050.98 1271.35 1052.19C1272.3 1053.4 1273.75 1054.1 1275.29 1054.1H1415.99C1417.53 1054.1 1418.98 1053.39 1419.93 1052.18C1420.88 1050.97 1421.21 1049.38 1420.84 1047.89L1366.11 829.649Z" fill="#DB162F" stroke="#383838" stroke-width="10" stroke-linejoin="round"/>
<rect x="1237.95" y="1044.1" width="212.843" height="38.3443" fill="#DB162F" stroke="#383838" stroke-width="10" stroke-linejoin="round"/>
<mask id="mask1_1709_505" style="mask-type:alpha" maskUnits="userSpaceOnUse" x="1275" y="830" width="141" height="220">
<path d="M1361.26 830.865H1328.83L1275.29 1049.1H1415.99L1361.26 830.865Z" fill="#DB162F"/>
</mask>
<g mask="url(#mask1_1709_505)">
<rect x="1275.29" y="913.566" width="146.211" height="24.1364" fill="white"/>
<rect x="1275.29" y="961.838" width="146.211" height="24.1364" fill="white"/>
</g>
<path d="M675.902 1082.46C678.664 1082.46 680.902 1080.22 680.902 1077.46V579.422C680.902 565.615 669.71 554.422 655.902 554.422H643.78C629.973 554.422 618.78 565.615 618.78 579.422V1077.46C618.78 1080.22 621.019 1082.46 623.78 1082.46H675.902Z" fill="white" stroke="#383838" stroke-width="10" stroke-linejoin="round"/>
<path d="M1169.74 1082.46C1172.51 1082.46 1174.74 1080.22 1174.74 1077.46V579.422C1174.74 565.615 1163.55 554.422 1149.74 554.422H1137.62C1123.81 554.422 1112.62 565.615 1112.62 579.422V1077.46C1112.62 1080.22 1114.86 1082.46 1117.62 1082.46H1169.74Z" fill="white" stroke="#383838" stroke-width="10" stroke-linejoin="round"/>
<rect x="591.187" y="622.935" width="608.895" height="144.229" fill="white" stroke="#383838" stroke-width="10" stroke-linejoin="round"/>
<rect x="591.187" y="889.002" width="608.895" height="101.981" fill="white" stroke="#383838" stroke-width="10" stroke-linejoin="round"/>
<circle cx="648.713" cy="526.336" r="38.0862" fill="white" stroke="#383838" stroke-width="10" stroke-linejoin="round"/>
<circle cx="648.713" cy="526.336" r="28.0862" fill="white" stroke="#DB162F" stroke-width="10" stroke-linejoin="round"/>
<circle cx="1142.55" cy="526.336" r="38.0862" fill="white" stroke="#383838" stroke-width="10" stroke-linejoin="round"/>
<circle cx="1142.55" cy="526.336" r="28.0862" fill="white" stroke="#DB162F" stroke-width="10" stroke-linejoin="round"/>
<mask id="mask2_1709_505" style="mask-type:alpha" maskUnits="userSpaceOnUse" x="596" y="627" width="600" height="136">
<rect x="596.187" y="627.935" width="598.895" height="134.229" fill="white"/>
</mask>
<g mask="url(#mask2_1709_505)">
<rect x="376.396" y="868.767" width="909.389" height="42.3324" transform="rotate(-42.8024 376.396 868.767)" fill="#DB162F"/>
<rect x="433.923" y="930.886" width="909.389" height="42.3324" transform="rotate(-42.8024 433.923 930.886)" fill="#DB162F"/>
<rect x="491.45" y="993.004" width="909.389" height="42.3324" transform="rotate(-42.8024 491.45 993.004)" fill="#DB162F"/>
<rect x="548.978" y="1055.12" width="909.389" height="42.3324" transform="rotate(-42.8024 548.978 1055.12)" fill="#DB162F"/>
<rect x="606.505" y="1117.24" width="909.389" height="42.3324" transform="rotate(-42.8024 606.505 1117.24)" fill="#DB162F"/>
<rect x="664.032" y="1179.36" width="909.389" height="42.3324" transform="rotate(-42.8024 664.032 1179.36)" fill="#DB162F"/>
<rect x="721.56" y="1241.48" width="909.389" height="42.3324" transform="rotate(-42.8024 721.56 1241.48)" fill="#DB162F"/>
<rect x="779.087" y="1303.6" width="909.389" height="42.3324" transform="rotate(-42.8024 779.087 1303.6)" fill="#DB162F"/>
<rect x="836.614" y="1365.72" width="909.389" height="42.3324" transform="rotate(-42.8024 836.614 1365.72)" fill="#DB162F"/>
</g>
<mask id="mask3_1709_505" style="mask-type:alpha" maskUnits="userSpaceOnUse" x="596" y="894" width="600" height="92">
<rect x="596.187" y="894.002" width="598.895" height="91.9805" fill="white"/>
</mask>
<g mask="url(#mask3_1709_505)">
<rect x="376.396" y="868.767" width="909.389" height="42.3324" transform="rotate(-42.8024 376.396 868.767)" fill="#DB162F"/>
<rect x="433.923" y="930.885" width="909.389" height="42.3324" transform="rotate(-42.8024 433.923 930.885)" fill="#DB162F"/>
<rect x="491.45" y="993.004" width="909.389" height="42.3324" transform="rotate(-42.8024 491.45 993.004)" fill="#DB162F"/>
<rect x="548.978" y="1055.12" width="909.389" height="42.3324" transform="rotate(-42.8024 548.978 1055.12)" fill="#DB162F"/>
<rect x="606.505" y="1117.24" width="909.389" height="42.3324" transform="rotate(-42.8024 606.505 1117.24)" fill="#DB162F"/>
<rect x="664.032" y="1179.36" width="909.389" height="42.3324" transform="rotate(-42.8024 664.032 1179.36)" fill="#DB162F"/>
<rect x="721.56" y="1241.48" width="909.389" height="42.3324" transform="rotate(-42.8024 721.56 1241.48)" fill="#DB162F"/>
<rect x="779.087" y="1303.6" width="909.389" height="42.3324" transform="rotate(-42.8024 779.087 1303.6)" fill="#DB162F"/>
<rect x="836.614" y="1365.71" width="909.389" height="42.3324" transform="rotate(-42.8024 836.614 1365.71)" fill="#DB162F"/>
</g>
<rect x="623.784" y="772.429" width="52.1191" height="28.7558" fill="#D2D2D2"/>
<rect x="623.784" y="995.963" width="52.1191" height="19.1136" fill="#D2D2D2"/>
<rect x="1117.63" y="772.429" width="52.1191" height="28.7558" fill="#D2D2D2"/>
<rect x="1117.63" y="995.963" width="52.1191" height="19.1136" fill="#D2D2D2"/>
<rect x="209.323" y="1077.46" width="1372.64" height="11.6446" fill="#383838"/>
<mask id="path-48-outside-2_1709_505" maskUnits="userSpaceOnUse" x="245.932" y="33.6279" width="330" height="151" fill="black">
<rect fill="white" x="245.932" y="33.6279" width="330" height="151"/>
<path fill-rule="evenodd" clip-rule="evenodd" d="M420.951 43.6279C396.704 43.6279 376.157 59.4694 369.096 81.367C363.643 78.0818 357.255 76.192 350.425 76.192C330.413 76.192 314.191 92.4143 314.191 112.425L314.191 112.541C308.01 107.081 299.887 103.767 290.991 103.767C271.628 103.767 255.932 119.463 255.932 138.826C255.932 157.349 270.298 172.518 288.496 173.797V173.884H290.822C290.878 173.885 290.934 173.885 290.991 173.885C291.047 173.885 291.103 173.885 291.159 173.884H532.364C532.397 173.884 532.431 173.884 532.464 173.884C550.449 173.884 565.029 159.305 565.029 141.32C565.029 123.336 550.449 108.756 532.464 108.756C528.875 108.756 525.422 109.337 522.193 110.409C522.358 108.938 522.443 107.442 522.443 105.927C522.443 83.9507 504.627 66.1353 482.651 66.1353C477.16 66.1353 471.929 67.2475 467.17 69.259C457.545 53.8664 440.443 43.6279 420.951 43.6279Z"/>
</mask>
<path fill-rule="evenodd" clip-rule="evenodd" d="M420.951 43.6279C396.704 43.6279 376.157 59.4694 369.096 81.367C363.643 78.0818 357.255 76.192 350.425 76.192C330.413 76.192 314.191 92.4143 314.191 112.425L314.191 112.541C308.01 107.081 299.887 103.767 290.991 103.767C271.628 103.767 255.932 119.463 255.932 138.826C255.932 157.349 270.298 172.518 288.496 173.797V173.884H290.822C290.878 173.885 290.934 173.885 290.991 173.885C291.047 173.885 291.103 173.885 291.159 173.884H532.364C532.397 173.884 532.431 173.884 532.464 173.884C550.449 173.884 565.029 159.305 565.029 141.32C565.029 123.336 550.449 108.756 532.464 108.756C528.875 108.756 525.422 109.337 522.193 110.409C522.358 108.938 522.443 107.442 522.443 105.927C522.443 83.9507 504.627 66.1353 482.651 66.1353C477.16 66.1353 471.929 67.2475 467.17 69.259C457.545 53.8664 440.443 43.6279 420.951 43.6279Z" fill="white"/>
<path d="M369.096 81.367L363.936 89.9326C366.551 91.5084 369.743 91.8028 372.603 90.7319C375.463 89.661 377.676 87.3423 378.614 84.4361L369.096 81.367ZM314.191 112.425H304.191C304.191 112.431 304.191 112.436 304.191 112.441L314.191 112.425ZM314.191 112.541L307.571 120.036C310.52 122.641 314.723 123.274 318.309 121.654C321.895 120.034 324.197 116.461 324.191 112.526L314.191 112.541ZM288.496 173.797H298.496C298.496 168.547 294.435 164.19 289.197 163.822L288.496 173.797ZM288.496 173.884H278.496C278.496 179.407 282.973 183.884 288.496 183.884V173.884ZM290.822 173.884L290.868 163.884C290.853 163.884 290.837 163.884 290.822 163.884V173.884ZM291.159 173.884V163.884C291.144 163.884 291.128 163.884 291.113 163.884L291.159 173.884ZM532.364 173.884L532.395 163.884C532.385 163.884 532.374 163.884 532.364 163.884V173.884ZM522.193 110.409L512.255 109.295C511.876 112.684 513.249 116.033 515.898 118.179C518.548 120.326 522.109 120.974 525.345 119.899L522.193 110.409ZM467.17 69.259L458.691 74.561C461.296 78.7257 466.539 80.3823 471.064 78.4699L467.17 69.259ZM378.614 84.4361C384.382 66.5483 401.17 53.6279 420.951 53.6279V33.6279C392.238 33.6279 367.933 52.3905 359.579 78.298L378.614 84.4361ZM350.425 86.192C355.386 86.192 359.997 87.5595 363.936 89.9326L374.257 72.8014C367.29 68.6041 359.124 66.192 350.425 66.192V86.192ZM324.191 112.425C324.191 97.9371 335.936 86.192 350.425 86.192V66.192C324.891 66.192 304.191 86.8914 304.191 112.425H324.191ZM324.191 112.526L324.191 112.41L304.191 112.441L304.191 112.557L324.191 112.526ZM290.991 113.767C297.356 113.767 303.146 116.127 307.571 120.036L320.812 105.046C312.873 98.0337 302.418 93.7668 290.991 93.7668V113.767ZM265.932 138.826C265.932 124.986 277.151 113.767 290.991 113.767V93.7668C266.105 93.7668 245.932 113.94 245.932 138.826H265.932ZM289.197 163.822C276.199 162.908 265.932 152.062 265.932 138.826H245.932C245.932 162.637 264.396 182.128 287.794 183.773L289.197 163.822ZM298.496 173.884V173.797H278.496V173.884H298.496ZM290.822 163.884H288.496V183.884H290.822V163.884ZM290.991 163.885C290.951 163.885 290.91 163.885 290.868 163.884L290.776 183.884C290.846 183.884 290.918 183.885 290.991 183.885V163.885ZM291.113 163.884C291.071 163.885 291.03 163.885 290.991 163.885V183.885C291.063 183.885 291.135 183.884 291.205 183.884L291.113 163.884ZM532.364 163.884H291.159V183.884H532.364V163.884ZM532.464 163.884C532.44 163.884 532.417 163.884 532.395 163.884L532.332 183.884C532.377 183.884 532.422 183.884 532.464 183.884V163.884ZM555.029 141.32C555.029 153.782 544.926 163.884 532.464 163.884V183.884C555.972 183.884 575.029 164.828 575.029 141.32H555.029ZM532.464 118.756C544.926 118.756 555.029 128.858 555.029 141.32H575.029C575.029 117.813 555.972 98.7561 532.464 98.7561V118.756ZM525.345 119.899C527.57 119.16 529.96 118.756 532.464 118.756V98.7561C527.791 98.7561 523.274 99.5131 519.041 100.919L525.345 119.899ZM512.443 105.927C512.443 107.069 512.379 108.193 512.255 109.295L532.131 111.523C532.337 109.683 532.443 107.815 532.443 105.927H512.443ZM482.651 76.1353C499.105 76.1353 512.443 89.4735 512.443 105.927H532.443C532.443 78.4278 510.15 56.1353 482.651 56.1353V76.1353ZM471.064 78.4699C474.612 76.9698 478.521 76.1353 482.651 76.1353V56.1353C475.798 56.1353 469.245 57.5252 463.277 60.0481L471.064 78.4699ZM420.951 53.6279C436.854 53.6279 450.817 61.9682 458.691 74.561L475.649 63.9569C464.272 45.7646 444.033 33.6279 420.951 33.6279V53.6279Z" fill="#383838" mask="url(#path-48-outside-2_1709_505)"/>
<mask id="path-50-outside-3_1709_505" maskUnits="userSpaceOnUse" x="1382.06" y="352.993" width="330" height="151" fill="black">
<rect fill="white" x="1382.06" y="352.993" width="330" height="151"/>
<path fill-rule="evenodd" clip-rule="evenodd" d="M1557.08 362.993C1532.83 362.993 1512.29 378.834 1505.23 400.732C1499.77 397.447 1493.38 395.557 1486.55 395.557C1466.54 395.557 1450.32 411.779 1450.32 431.79L1450.32 431.906C1444.14 426.446 1436.02 423.132 1427.12 423.132C1407.76 423.132 1392.06 438.828 1392.06 458.191C1392.06 476.714 1406.43 491.883 1424.62 493.162V493.249H1426.95C1427.01 493.249 1427.06 493.25 1427.12 493.25C1427.18 493.25 1427.23 493.249 1427.29 493.249H1668.49C1668.53 493.249 1668.56 493.249 1668.59 493.249C1686.58 493.249 1701.16 478.67 1701.16 460.685C1701.16 442.701 1686.58 428.121 1668.59 428.121C1665 428.121 1661.55 428.702 1658.32 429.774C1658.49 428.303 1658.57 426.807 1658.57 425.292C1658.57 403.316 1640.76 385.5 1618.78 385.5C1613.29 385.5 1608.06 386.612 1603.3 388.624C1593.67 373.231 1576.57 362.993 1557.08 362.993Z"/>
</mask>
<path fill-rule="evenodd" clip-rule="evenodd" d="M1557.08 362.993C1532.83 362.993 1512.29 378.834 1505.23 400.732C1499.77 397.447 1493.38 395.557 1486.55 395.557C1466.54 395.557 1450.32 411.779 1450.32 431.79L1450.32 431.906C1444.14 426.446 1436.02 423.132 1427.12 423.132C1407.76 423.132 1392.06 438.828 1392.06 458.191C1392.06 476.714 1406.43 491.883 1424.62 493.162V493.249H1426.95C1427.01 493.249 1427.06 493.25 1427.12 493.25C1427.18 493.25 1427.23 493.249 1427.29 493.249H1668.49C1668.53 493.249 1668.56 493.249 1668.59 493.249C1686.58 493.249 1701.16 478.67 1701.16 460.685C1701.16 442.701 1686.58 428.121 1668.59 428.121C1665 428.121 1661.55 428.702 1658.32 429.774C1658.49 428.303 1658.57 426.807 1658.57 425.292C1658.57 403.316 1640.76 385.5 1618.78 385.5C1613.29 385.5 1608.06 386.612 1603.3 388.624C1593.67 373.231 1576.57 362.993 1557.08 362.993Z" fill="white"/>
<path d="M1505.23 400.732L1500.06 409.298C1502.68 410.873 1505.87 411.168 1508.73 410.097C1511.59 409.026 1513.81 406.707 1514.74 403.801L1505.23 400.732ZM1450.32 431.79H1440.32C1440.32 431.796 1440.32 431.801 1440.32 431.806L1450.32 431.79ZM1450.32 431.906L1443.7 439.401C1446.65 442.006 1450.85 442.639 1454.44 441.019C1458.02 439.399 1460.33 435.826 1460.32 431.891L1450.32 431.906ZM1424.62 493.162H1434.62C1434.62 487.912 1430.56 483.555 1425.33 483.187L1424.62 493.162ZM1424.62 493.249H1414.62C1414.62 498.772 1419.1 503.249 1424.62 503.249V493.249ZM1426.95 493.249L1427 483.249C1426.98 483.249 1426.97 483.249 1426.95 483.249V493.249ZM1427.29 493.249V483.249C1427.27 483.249 1427.26 483.249 1427.24 483.249L1427.29 493.249ZM1668.49 493.249L1668.52 483.249C1668.51 483.249 1668.5 483.249 1668.49 483.249V493.249ZM1658.32 429.774L1648.38 428.66C1648 432.049 1649.38 435.398 1652.03 437.544C1654.68 439.691 1658.24 440.339 1661.47 439.264L1658.32 429.774ZM1603.3 388.624L1594.82 393.926C1597.42 398.091 1602.67 399.747 1607.19 397.835L1603.3 388.624ZM1514.74 403.801C1520.51 385.913 1537.3 372.993 1557.08 372.993V352.993C1528.37 352.993 1504.06 371.756 1495.71 397.663L1514.74 403.801ZM1486.55 405.557C1491.51 405.557 1496.13 406.925 1500.06 409.298L1510.39 392.166C1503.42 387.969 1495.25 385.557 1486.55 385.557V405.557ZM1460.32 431.79C1460.32 417.302 1472.07 405.557 1486.55 405.557V385.557C1461.02 385.557 1440.32 406.256 1440.32 431.79H1460.32ZM1460.32 431.891L1460.32 431.775L1440.32 431.806L1440.32 431.922L1460.32 431.891ZM1427.12 433.132C1433.49 433.132 1439.28 435.492 1443.7 439.401L1456.94 424.411C1449 417.399 1438.55 413.132 1427.12 413.132V433.132ZM1402.06 458.191C1402.06 444.351 1413.28 433.132 1427.12 433.132V413.132C1402.23 413.132 1382.06 433.305 1382.06 458.191H1402.06ZM1425.33 483.187C1412.33 482.273 1402.06 471.427 1402.06 458.191H1382.06C1382.06 482.002 1400.52 501.493 1423.92 503.138L1425.33 483.187ZM1434.62 493.249V493.162H1414.62V493.249H1434.62ZM1426.95 483.249H1424.62V503.249H1426.95V483.249ZM1427.12 483.25C1427.08 483.25 1427.04 483.25 1427 483.249L1426.9 503.249C1426.98 503.249 1427.05 503.25 1427.12 503.25V483.25ZM1427.24 483.249C1427.2 483.25 1427.16 483.25 1427.12 483.25V503.25C1427.19 503.25 1427.26 503.249 1427.33 503.249L1427.24 483.249ZM1668.49 483.249H1427.29V503.249H1668.49V483.249ZM1668.59 483.249C1668.57 483.249 1668.55 483.249 1668.52 483.249L1668.46 503.249C1668.51 503.249 1668.55 503.249 1668.59 503.249V483.249ZM1691.16 460.685C1691.16 473.147 1681.06 483.249 1668.59 483.249V503.249C1692.1 503.249 1711.16 484.193 1711.16 460.685H1691.16ZM1668.59 438.121C1681.06 438.121 1691.16 448.223 1691.16 460.685H1711.16C1711.16 437.178 1692.1 418.121 1668.59 418.121V438.121ZM1661.47 439.264C1663.7 438.525 1666.09 438.121 1668.59 438.121V418.121C1663.92 418.121 1659.4 418.878 1655.17 420.284L1661.47 439.264ZM1648.57 425.292C1648.57 426.434 1648.51 427.558 1648.38 428.66L1668.26 430.888C1668.47 429.048 1668.57 427.18 1668.57 425.292H1648.57ZM1618.78 395.5C1635.23 395.5 1648.57 408.839 1648.57 425.292H1668.57C1668.57 397.793 1646.28 375.5 1618.78 375.5V395.5ZM1607.19 397.835C1610.74 396.335 1614.65 395.5 1618.78 395.5V375.5C1611.93 375.5 1605.37 376.89 1599.41 379.413L1607.19 397.835ZM1557.08 372.993C1572.98 372.993 1586.95 381.333 1594.82 393.926L1611.78 383.322C1600.4 365.13 1580.16 352.993 1557.08 352.993V372.993Z" fill="#383838" mask="url(#path-50-outside-3_1709_505)"/>
<mask id="path-52-outside-4_1709_505" maskUnits="userSpaceOnUse" x="4.30273" y="299.5" width="330" height="151" fill="black">
<rect fill="white" x="4.30273" y="299.5" width="330" height="151"/>
<path fill-rule="evenodd" clip-rule="evenodd" d="M179.322 309.5C155.075 309.5 134.528 325.341 127.467 347.239C122.014 343.953 115.626 342.064 108.796 342.064C88.7845 342.064 72.5622 358.286 72.5622 378.297L72.5624 378.413C66.3807 372.952 58.2582 369.638 49.3616 369.638C29.9991 369.638 14.3027 385.335 14.3027 404.697C14.3027 423.221 28.6686 438.389 46.8668 439.669V439.756H49.1931C49.2492 439.756 49.3054 439.756 49.3616 439.756C49.4179 439.756 49.4741 439.756 49.5302 439.756H290.735C290.768 439.756 290.802 439.756 290.836 439.756C308.82 439.756 323.4 425.177 323.4 407.192C323.4 389.207 308.82 374.628 290.836 374.628C287.247 374.628 283.793 375.208 280.564 376.281C280.729 374.809 280.814 373.314 280.814 371.799C280.814 349.822 262.998 332.007 241.022 332.007C235.531 332.007 230.3 333.119 225.541 335.131C215.916 319.738 198.814 309.5 179.322 309.5Z"/>
</mask>
<path fill-rule="evenodd" clip-rule="evenodd" d="M179.322 309.5C155.075 309.5 134.528 325.341 127.467 347.239C122.014 343.953 115.626 342.064 108.796 342.064C88.7845 342.064 72.5622 358.286 72.5622 378.297L72.5624 378.413C66.3807 372.952 58.2582 369.638 49.3616 369.638C29.9991 369.638 14.3027 385.335 14.3027 404.697C14.3027 423.221 28.6686 438.389 46.8668 439.669V439.756H49.1931C49.2492 439.756 49.3054 439.756 49.3616 439.756C49.4179 439.756 49.4741 439.756 49.5302 439.756H290.735C290.768 439.756 290.802 439.756 290.836 439.756C308.82 439.756 323.4 425.177 323.4 407.192C323.4 389.207 308.82 374.628 290.836 374.628C287.247 374.628 283.793 375.208 280.564 376.281C280.729 374.809 280.814 373.314 280.814 371.799C280.814 349.822 262.998 332.007 241.022 332.007C235.531 332.007 230.3 333.119 225.541 335.131C215.916 319.738 198.814 309.5 179.322 309.5Z" fill="white"/>
<path d="M127.467 347.239L122.307 355.804C124.922 357.38 128.115 357.674 130.974 356.604C133.834 355.533 136.048 353.214 136.985 350.308L127.467 347.239ZM72.5622 378.297H62.5622C62.5622 378.302 62.5622 378.307 62.5622 378.313L72.5622 378.297ZM72.5624 378.413L65.942 385.907C68.8912 388.513 73.0942 389.146 76.6802 387.526C80.2662 385.905 82.5685 382.332 82.5624 378.397L72.5624 378.413ZM46.8668 439.669H56.8668C56.8668 434.418 52.8059 430.062 47.5682 429.693L46.8668 439.669ZM46.8668 439.756H36.8668C36.8668 445.279 41.344 449.756 46.8668 449.756V439.756ZM49.1931 439.756L49.2393 429.756C49.2239 429.756 49.2085 429.756 49.1931 429.756V439.756ZM49.5302 439.756V429.756C49.5148 429.756 49.4994 429.756 49.484 429.756L49.5302 439.756ZM290.735 439.756L290.767 429.756C290.756 429.756 290.745 429.756 290.735 429.756V439.756ZM280.564 376.281L270.627 375.167C270.247 378.555 271.62 381.904 274.269 384.051C276.919 386.197 280.48 386.846 283.716 385.771L280.564 376.281ZM225.541 335.131L217.063 340.433C219.667 344.597 224.91 346.254 229.435 344.341L225.541 335.131ZM136.985 350.308C142.753 332.42 159.541 319.5 179.322 319.5V299.5C150.609 299.5 126.304 318.262 117.95 344.17L136.985 350.308ZM108.796 352.064C113.757 352.064 118.368 353.431 122.307 355.804L132.628 338.673C125.661 334.476 117.495 332.064 108.796 332.064V352.064ZM82.5622 378.297C82.5622 363.809 94.3073 352.064 108.796 352.064V332.064C83.2616 332.064 62.5622 352.763 62.5622 378.297H82.5622ZM82.5624 378.397L82.5622 378.282L62.5622 378.313L62.5624 378.428L82.5624 378.397ZM49.3616 379.638C55.7274 379.638 61.5175 381.999 65.942 385.907L79.1828 370.918C71.244 363.905 60.789 359.638 49.3616 359.638V379.638ZM24.3027 404.697C24.3027 390.858 35.522 379.638 49.3616 379.638V359.638C24.4763 359.638 4.30273 379.812 4.30273 404.697H24.3027ZM47.5682 429.693C34.5706 428.78 24.3027 417.933 24.3027 404.697H4.30273C4.30273 428.509 22.7667 447.999 46.1655 449.644L47.5682 429.693ZM56.8668 439.756V439.669H36.8668V439.756H56.8668ZM49.1931 429.756H46.8668V449.756H49.1931V429.756ZM49.3616 429.756C49.3217 429.756 49.2809 429.756 49.2393 429.756L49.1469 449.756C49.2175 449.756 49.2891 449.756 49.3616 449.756V429.756ZM49.484 429.756C49.4424 429.756 49.4016 429.756 49.3616 429.756V449.756C49.4341 449.756 49.5057 449.756 49.5764 449.756L49.484 429.756ZM290.735 429.756H49.5302V449.756H290.735V429.756ZM290.836 429.756C290.811 429.756 290.788 429.756 290.767 429.756L290.703 449.756C290.749 449.756 290.793 449.756 290.836 449.756V429.756ZM313.4 407.192C313.4 419.654 303.297 429.756 290.836 429.756V449.756C314.343 449.756 333.4 430.699 333.4 407.192H313.4ZM290.836 384.628C303.297 384.628 313.4 394.73 313.4 407.192H333.4C333.4 383.684 314.343 364.628 290.836 364.628V384.628ZM283.716 385.771C285.941 385.032 288.331 384.628 290.836 384.628V364.628C286.162 364.628 281.645 365.385 277.412 366.79L283.716 385.771ZM270.814 371.799C270.814 372.941 270.75 374.065 270.627 375.167L290.502 377.395C290.708 375.554 290.814 373.687 290.814 371.799H270.814ZM241.022 342.007C257.476 342.007 270.814 355.345 270.814 371.799H290.814C290.814 344.299 268.521 322.007 241.022 322.007V342.007ZM229.435 344.341C232.983 342.841 236.892 342.007 241.022 342.007V322.007C234.169 322.007 227.616 323.397 221.648 325.92L229.435 344.341ZM179.322 319.5C195.225 319.5 209.188 327.84 217.063 340.433L234.02 329.828C222.643 311.636 202.404 299.5 179.322 299.5V319.5Z" fill="#383838" mask="url(#path-52-outside-4_1709_505)"/>
<circle cx="1496.73" cy="695.049" r="33.5569" stroke="#383838" stroke-width="10"/>
<circle cx="229.05" cy="784.882" r="33.5569" stroke="#383838" stroke-width="10"/>
<path d="M178.23 220.969C178.23 235.682 166.302 247.61 151.588 247.61C136.875 247.61 124.947 235.682 124.947 220.969C124.947 206.255 136.875 194.327 151.588 194.327C166.302 194.327 178.23 206.255 178.23 220.969Z" stroke="#383838" stroke-width="8"/>
<path d="M1003.97 108.756C1003.97 120.706 994.283 130.393 982.334 130.393C970.384 130.393 960.697 120.706 960.697 108.756C960.697 96.8068 970.384 87.1199 982.334 87.1199C994.283 87.1199 1003.97 96.8068 1003.97 108.756Z" stroke="#383838" stroke-width="8"/>
<path d="M90.2852 88.8363C91.1892 89.5547 90.9766 90.9823 89.9025 91.406L31.2658 114.538C30.1917 114.962 29.0616 114.064 29.2317 112.922L38.5167 50.5751C38.6868 49.433 40.0295 48.9033 40.9335 49.6217L90.2852 88.8363Z" stroke="#383838" stroke-width="7" stroke-linejoin="round"/>
<path d="M1657.34 217.124C1658.25 217.842 1658.04 219.27 1656.96 219.694L1598.32 242.826C1597.25 243.25 1596.12 242.352 1596.29 241.21L1605.58 178.863C1605.75 177.721 1607.09 177.191 1607.99 177.91L1657.34 217.124Z" stroke="#383838" stroke-width="7" stroke-linejoin="round"/>
</svg>
