<svg width="1920" height="1067" viewBox="0 0 1920 1067" fill="none" xmlns="http://www.w3.org/2000/svg">
<g clip-path="url(#clip0_1711_772)">
<path d="M1810 990.796C1810 765.362 1720.45 549.161 1561.04 389.755C1401.63 230.349 1185.43 140.796 960 140.796C734.566 140.796 518.365 230.349 358.959 389.755C199.553 549.161 110 765.362 110 990.796L960 990.796H1810Z" fill="#B4DCE6"/>
<path d="M1758.43 990.796C1758.43 879.172 1736.45 768.642 1693.73 665.515C1651.01 562.388 1588.4 468.685 1509.47 389.755C1430.54 310.825 1336.84 248.215 1233.71 205.498C1130.59 162.782 1020.06 140.796 908.433 140.796C796.809 140.796 686.278 162.782 583.152 205.498C480.025 248.215 386.322 310.825 307.392 389.755C228.462 468.685 165.851 562.388 123.135 665.515C80.4185 768.642 58.4326 879.172 58.4326 990.796" stroke="#797979" stroke-width="6" stroke-linecap="round" stroke-linejoin="round" stroke-dasharray="15 15"/>
<circle cx="495.112" cy="757.707" r="33.5569" stroke="#383838" stroke-width="10"/>
<path d="M1342.87 512.318C1342.87 527.032 1330.94 538.96 1316.23 538.96C1301.52 538.96 1289.59 527.032 1289.59 512.318C1289.59 497.604 1301.52 485.677 1316.23 485.677C1330.94 485.677 1342.87 497.604 1342.87 512.318Z" stroke="#383838" stroke-width="8"/>
<path d="M1262.77 675.616C1263.68 676.334 1263.46 677.762 1262.39 678.185L1203.75 701.318C1202.68 701.742 1201.55 700.844 1201.72 699.701L1211 637.354C1211.17 636.212 1212.52 635.683 1213.42 636.401L1262.77 675.616Z" stroke="#383838" stroke-width="7" stroke-linejoin="round"/>
<path d="M551.205 338.195C552.109 338.913 551.896 340.341 550.822 340.765L492.185 363.897C491.111 364.321 489.981 363.423 490.151 362.281L499.436 299.934C499.606 298.792 500.949 298.262 501.853 298.98L551.205 338.195Z" stroke="#383838" stroke-width="7" stroke-linejoin="round"/>
<mask id="path-7-outside-1_1711_772" maskUnits="userSpaceOnUse" x="738.32" y="68" width="488" height="233" fill="black">
<rect fill="white" x="738.32" y="68" width="488" height="233"/>
<path d="M783.985 192.524L754.004 185.278L765.513 80.8418H879.327V111.959H796.631L791.231 160.27C794.168 158.47 798.431 156.67 804.02 154.871C809.703 152.976 816.097 152.029 823.202 152.029C833.053 152.029 841.863 153.639 849.63 156.86C857.398 159.986 863.981 164.533 869.381 170.5C874.875 176.468 878.996 183.762 881.743 192.382C884.584 200.908 886.005 210.57 886.005 221.369C886.005 230.841 884.584 239.746 881.743 248.082C878.996 256.323 874.78 263.664 869.097 270.105C863.413 276.452 856.261 281.473 847.641 285.167C839.021 288.767 828.885 290.566 817.234 290.566C808.424 290.566 799.946 289.288 791.8 286.73C783.748 284.078 776.501 280.241 770.06 275.221C763.619 270.105 758.456 263.854 754.572 256.465C750.783 249.076 748.699 240.598 748.32 231.031H785.406C786.069 237.377 787.774 242.777 790.521 247.229C793.268 251.681 796.868 255.091 801.32 257.459C805.867 259.828 811.124 261.012 817.092 261.012C822.491 261.012 827.133 260.017 831.017 258.028C834.995 255.944 838.263 253.055 840.821 249.36C843.378 245.666 845.273 241.309 846.504 236.288C847.736 231.268 848.352 225.773 848.352 219.806C848.352 214.027 847.641 208.77 846.22 204.034C844.799 199.203 842.621 195.035 839.684 191.53C836.748 188.025 833.053 185.325 828.601 183.431C824.244 181.536 819.128 180.589 813.255 180.589C805.393 180.589 799.331 181.773 795.068 184.141C790.9 186.509 787.206 189.304 783.985 192.524Z"/>
<path d="M1049.98 166.522V201.334C1049.98 217.248 1048.37 230.841 1045.15 242.114C1041.93 253.386 1037.28 262.622 1031.22 269.821C1025.16 276.926 1017.91 282.183 1009.48 285.593C1001.05 288.909 991.673 290.566 981.348 290.566C973.106 290.566 965.434 289.524 958.329 287.44C951.225 285.262 944.831 281.946 939.147 277.494C933.558 272.947 928.727 267.169 924.654 260.159C920.675 253.149 917.597 244.766 915.418 235.009C913.334 225.252 912.292 214.027 912.292 201.334V166.522C912.292 150.608 913.902 137.062 917.123 125.884C920.438 114.707 925.127 105.565 931.19 98.4609C937.252 91.3564 944.499 86.1938 952.93 82.9731C961.36 79.6577 970.738 78 981.063 78C989.399 78 997.072 79.042 1004.08 81.126C1011.19 83.21 1017.53 86.478 1023.12 90.9302C1028.81 95.2876 1033.64 100.971 1037.62 107.981C1041.59 114.896 1044.62 123.232 1046.71 132.989C1048.89 142.651 1049.98 153.829 1049.98 166.522ZM1012.47 206.449V161.265C1012.47 153.308 1011.99 146.393 1011.04 140.52C1010.19 134.552 1008.91 129.484 1007.21 125.316C1005.5 121.148 1003.37 117.785 1000.81 115.228C998.256 112.575 995.32 110.633 992.004 109.402C988.689 108.17 985.042 107.555 981.063 107.555C976.138 107.555 971.733 108.549 967.849 110.539C963.965 112.433 960.697 115.464 958.045 119.632C955.393 123.8 953.356 129.342 951.935 136.257C950.609 143.077 949.946 151.413 949.946 161.265V206.449C949.946 214.406 950.372 221.369 951.225 227.336C952.172 233.304 953.498 238.419 955.203 242.682C957.003 246.945 959.134 250.45 961.597 253.197C964.155 255.849 967.091 257.838 970.407 259.165C973.722 260.396 977.369 261.012 981.348 261.012C986.368 261.012 990.773 260.017 994.562 258.028C998.446 256.039 1001.71 252.913 1004.37 248.65C1007.02 244.292 1009.01 238.656 1010.33 231.741C1011.75 224.731 1012.47 216.301 1012.47 206.449Z"/>
<path d="M1216.22 166.522V201.334C1216.22 217.248 1214.61 230.841 1211.39 242.114C1208.17 253.386 1203.53 262.622 1197.47 269.821C1191.4 276.926 1184.16 282.183 1175.73 285.593C1167.3 288.909 1157.92 290.566 1147.59 290.566C1139.35 290.566 1131.68 289.524 1124.57 287.44C1117.47 285.262 1111.08 281.946 1105.39 277.494C1099.8 272.947 1094.97 267.169 1090.9 260.159C1086.92 253.149 1083.84 244.766 1081.66 235.009C1079.58 225.252 1078.54 214.027 1078.54 201.334V166.522C1078.54 150.608 1080.15 137.062 1083.37 125.884C1086.68 114.707 1091.37 105.565 1097.44 98.4609C1103.5 91.3564 1110.74 86.1938 1119.17 82.9731C1127.61 79.6577 1136.98 78 1147.31 78C1155.64 78 1163.32 79.042 1170.33 81.126C1177.43 83.21 1183.78 86.478 1189.37 90.9302C1195.05 95.2876 1199.88 100.971 1203.86 107.981C1207.84 114.896 1210.87 123.232 1212.95 132.989C1215.13 142.651 1216.22 153.829 1216.22 166.522ZM1178.71 206.449V161.265C1178.71 153.308 1178.24 146.393 1177.29 140.52C1176.44 134.552 1175.16 129.484 1173.45 125.316C1171.75 121.148 1169.62 117.785 1167.06 115.228C1164.5 112.575 1161.56 110.633 1158.25 109.402C1154.93 108.17 1151.29 107.555 1147.31 107.555C1142.38 107.555 1137.98 108.549 1134.09 110.539C1130.21 112.433 1126.94 115.464 1124.29 119.632C1121.64 123.8 1119.6 129.342 1118.18 136.257C1116.85 143.077 1116.19 151.413 1116.19 161.265V206.449C1116.19 214.406 1116.62 221.369 1117.47 227.336C1118.42 233.304 1119.74 238.419 1121.45 242.682C1123.25 246.945 1125.38 250.45 1127.84 253.197C1130.4 255.849 1133.34 257.838 1136.65 259.165C1139.97 260.396 1143.61 261.012 1147.59 261.012C1152.61 261.012 1157.02 260.017 1160.81 258.028C1164.69 256.039 1167.96 252.913 1170.61 248.65C1173.26 244.292 1175.25 238.656 1176.58 231.741C1178 224.731 1178.71 216.301 1178.71 206.449Z"/>
</mask>
<path d="M783.985 192.524L754.004 185.278L765.513 80.8418H879.327V111.959H796.631L791.231 160.27C794.168 158.47 798.431 156.67 804.02 154.871C809.703 152.976 816.097 152.029 823.202 152.029C833.053 152.029 841.863 153.639 849.63 156.86C857.398 159.986 863.981 164.533 869.381 170.5C874.875 176.468 878.996 183.762 881.743 192.382C884.584 200.908 886.005 210.57 886.005 221.369C886.005 230.841 884.584 239.746 881.743 248.082C878.996 256.323 874.78 263.664 869.097 270.105C863.413 276.452 856.261 281.473 847.641 285.167C839.021 288.767 828.885 290.566 817.234 290.566C808.424 290.566 799.946 289.288 791.8 286.73C783.748 284.078 776.501 280.241 770.06 275.221C763.619 270.105 758.456 263.854 754.572 256.465C750.783 249.076 748.699 240.598 748.32 231.031H785.406C786.069 237.377 787.774 242.777 790.521 247.229C793.268 251.681 796.868 255.091 801.32 257.459C805.867 259.828 811.124 261.012 817.092 261.012C822.491 261.012 827.133 260.017 831.017 258.028C834.995 255.944 838.263 253.055 840.821 249.36C843.378 245.666 845.273 241.309 846.504 236.288C847.736 231.268 848.352 225.773 848.352 219.806C848.352 214.027 847.641 208.77 846.22 204.034C844.799 199.203 842.621 195.035 839.684 191.53C836.748 188.025 833.053 185.325 828.601 183.431C824.244 181.536 819.128 180.589 813.255 180.589C805.393 180.589 799.331 181.773 795.068 184.141C790.9 186.509 787.206 189.304 783.985 192.524Z" fill="#DB162F"/>
<path d="M1049.98 166.522V201.334C1049.98 217.248 1048.37 230.841 1045.15 242.114C1041.93 253.386 1037.28 262.622 1031.22 269.821C1025.16 276.926 1017.91 282.183 1009.48 285.593C1001.05 288.909 991.673 290.566 981.348 290.566C973.106 290.566 965.434 289.524 958.329 287.44C951.225 285.262 944.831 281.946 939.147 277.494C933.558 272.947 928.727 267.169 924.654 260.159C920.675 253.149 917.597 244.766 915.418 235.009C913.334 225.252 912.292 214.027 912.292 201.334V166.522C912.292 150.608 913.902 137.062 917.123 125.884C920.438 114.707 925.127 105.565 931.19 98.4609C937.252 91.3564 944.499 86.1938 952.93 82.9731C961.36 79.6577 970.738 78 981.063 78C989.399 78 997.072 79.042 1004.08 81.126C1011.19 83.21 1017.53 86.478 1023.12 90.9302C1028.81 95.2876 1033.64 100.971 1037.62 107.981C1041.59 114.896 1044.62 123.232 1046.71 132.989C1048.89 142.651 1049.98 153.829 1049.98 166.522ZM1012.47 206.449V161.265C1012.47 153.308 1011.99 146.393 1011.04 140.52C1010.19 134.552 1008.91 129.484 1007.21 125.316C1005.5 121.148 1003.37 117.785 1000.81 115.228C998.256 112.575 995.32 110.633 992.004 109.402C988.689 108.17 985.042 107.555 981.063 107.555C976.138 107.555 971.733 108.549 967.849 110.539C963.965 112.433 960.697 115.464 958.045 119.632C955.393 123.8 953.356 129.342 951.935 136.257C950.609 143.077 949.946 151.413 949.946 161.265V206.449C949.946 214.406 950.372 221.369 951.225 227.336C952.172 233.304 953.498 238.419 955.203 242.682C957.003 246.945 959.134 250.45 961.597 253.197C964.155 255.849 967.091 257.838 970.407 259.165C973.722 260.396 977.369 261.012 981.348 261.012C986.368 261.012 990.773 260.017 994.562 258.028C998.446 256.039 1001.71 252.913 1004.37 248.65C1007.02 244.292 1009.01 238.656 1010.33 231.741C1011.75 224.731 1012.47 216.301 1012.47 206.449Z" fill="#DB162F"/>
<path d="M1216.22 166.522V201.334C1216.22 217.248 1214.61 230.841 1211.39 242.114C1208.17 253.386 1203.53 262.622 1197.47 269.821C1191.4 276.926 1184.16 282.183 1175.73 285.593C1167.3 288.909 1157.92 290.566 1147.59 290.566C1139.35 290.566 1131.68 289.524 1124.57 287.44C1117.47 285.262 1111.08 281.946 1105.39 277.494C1099.8 272.947 1094.97 267.169 1090.9 260.159C1086.92 253.149 1083.84 244.766 1081.66 235.009C1079.58 225.252 1078.54 214.027 1078.54 201.334V166.522C1078.54 150.608 1080.15 137.062 1083.37 125.884C1086.68 114.707 1091.37 105.565 1097.44 98.4609C1103.5 91.3564 1110.74 86.1938 1119.17 82.9731C1127.61 79.6577 1136.98 78 1147.31 78C1155.64 78 1163.32 79.042 1170.33 81.126C1177.43 83.21 1183.78 86.478 1189.37 90.9302C1195.05 95.2876 1199.88 100.971 1203.86 107.981C1207.84 114.896 1210.87 123.232 1212.95 132.989C1215.13 142.651 1216.22 153.829 1216.22 166.522ZM1178.71 206.449V161.265C1178.71 153.308 1178.24 146.393 1177.29 140.52C1176.44 134.552 1175.16 129.484 1173.45 125.316C1171.75 121.148 1169.62 117.785 1167.06 115.228C1164.5 112.575 1161.56 110.633 1158.25 109.402C1154.93 108.17 1151.29 107.555 1147.31 107.555C1142.38 107.555 1137.98 108.549 1134.09 110.539C1130.21 112.433 1126.94 115.464 1124.29 119.632C1121.64 123.8 1119.6 129.342 1118.18 136.257C1116.85 143.077 1116.19 151.413 1116.19 161.265V206.449C1116.19 214.406 1116.62 221.369 1117.47 227.336C1118.42 233.304 1119.74 238.419 1121.45 242.682C1123.25 246.945 1125.38 250.45 1127.84 253.197C1130.4 255.849 1133.34 257.838 1136.65 259.165C1139.97 260.396 1143.61 261.012 1147.59 261.012C1152.61 261.012 1157.02 260.017 1160.81 258.028C1164.69 256.039 1167.96 252.913 1170.61 248.65C1173.26 244.292 1175.25 238.656 1176.58 231.741C1178 224.731 1178.71 216.301 1178.71 206.449Z" fill="#DB162F"/>
<path d="M783.985 192.524L754.004 185.278L765.513 80.8418H879.327V111.959H796.631L791.231 160.27C794.168 158.47 798.431 156.67 804.02 154.871C809.703 152.976 816.097 152.029 823.202 152.029C833.053 152.029 841.863 153.639 849.63 156.86C857.398 159.986 863.981 164.533 869.381 170.5C874.875 176.468 878.996 183.762 881.743 192.382C884.584 200.908 886.005 210.57 886.005 221.369C886.005 230.841 884.584 239.746 881.743 248.082C878.996 256.323 874.78 263.664 869.097 270.105C863.413 276.452 856.261 281.473 847.641 285.167C839.021 288.767 828.885 290.566 817.234 290.566C808.424 290.566 799.946 289.288 791.8 286.73C783.748 284.078 776.501 280.241 770.06 275.221C763.619 270.105 758.456 263.854 754.572 256.465C750.783 249.076 748.699 240.598 748.32 231.031H785.406C786.069 237.377 787.774 242.777 790.521 247.229C793.268 251.681 796.868 255.091 801.32 257.459C805.867 259.828 811.124 261.012 817.092 261.012C822.491 261.012 827.133 260.017 831.017 258.028C834.995 255.944 838.263 253.055 840.821 249.36C843.378 245.666 845.273 241.309 846.504 236.288C847.736 231.268 848.352 225.773 848.352 219.806C848.352 214.027 847.641 208.77 846.22 204.034C844.799 199.203 842.621 195.035 839.684 191.53C836.748 188.025 833.053 185.325 828.601 183.431C824.244 181.536 819.128 180.589 813.255 180.589C805.393 180.589 799.331 181.773 795.068 184.141C790.9 186.509 787.206 189.304 783.985 192.524Z" stroke="white" stroke-width="20" stroke-linejoin="round" mask="url(#path-7-outside-1_1711_772)"/>
<path d="M1049.98 166.522V201.334C1049.98 217.248 1048.37 230.841 1045.15 242.114C1041.93 253.386 1037.28 262.622 1031.22 269.821C1025.16 276.926 1017.91 282.183 1009.48 285.593C1001.05 288.909 991.673 290.566 981.348 290.566C973.106 290.566 965.434 289.524 958.329 287.44C951.225 285.262 944.831 281.946 939.147 277.494C933.558 272.947 928.727 267.169 924.654 260.159C920.675 253.149 917.597 244.766 915.418 235.009C913.334 225.252 912.292 214.027 912.292 201.334V166.522C912.292 150.608 913.902 137.062 917.123 125.884C920.438 114.707 925.127 105.565 931.19 98.4609C937.252 91.3564 944.499 86.1938 952.93 82.9731C961.36 79.6577 970.738 78 981.063 78C989.399 78 997.072 79.042 1004.08 81.126C1011.19 83.21 1017.53 86.478 1023.12 90.9302C1028.81 95.2876 1033.64 100.971 1037.62 107.981C1041.59 114.896 1044.62 123.232 1046.71 132.989C1048.89 142.651 1049.98 153.829 1049.98 166.522ZM1012.47 206.449V161.265C1012.47 153.308 1011.99 146.393 1011.04 140.52C1010.19 134.552 1008.91 129.484 1007.21 125.316C1005.5 121.148 1003.37 117.785 1000.81 115.228C998.256 112.575 995.32 110.633 992.004 109.402C988.689 108.17 985.042 107.555 981.063 107.555C976.138 107.555 971.733 108.549 967.849 110.539C963.965 112.433 960.697 115.464 958.045 119.632C955.393 123.8 953.356 129.342 951.935 136.257C950.609 143.077 949.946 151.413 949.946 161.265V206.449C949.946 214.406 950.372 221.369 951.225 227.336C952.172 233.304 953.498 238.419 955.203 242.682C957.003 246.945 959.134 250.45 961.597 253.197C964.155 255.849 967.091 257.838 970.407 259.165C973.722 260.396 977.369 261.012 981.348 261.012C986.368 261.012 990.773 260.017 994.562 258.028C998.446 256.039 1001.71 252.913 1004.37 248.65C1007.02 244.292 1009.01 238.656 1010.33 231.741C1011.75 224.731 1012.47 216.301 1012.47 206.449Z" stroke="white" stroke-width="20" stroke-linejoin="round" mask="url(#path-7-outside-1_1711_772)"/>
<path d="M1216.22 166.522V201.334C1216.22 217.248 1214.61 230.841 1211.39 242.114C1208.17 253.386 1203.53 262.622 1197.47 269.821C1191.4 276.926 1184.16 282.183 1175.73 285.593C1167.3 288.909 1157.92 290.566 1147.59 290.566C1139.35 290.566 1131.68 289.524 1124.57 287.44C1117.47 285.262 1111.08 281.946 1105.39 277.494C1099.8 272.947 1094.97 267.169 1090.9 260.159C1086.92 253.149 1083.84 244.766 1081.66 235.009C1079.58 225.252 1078.54 214.027 1078.54 201.334V166.522C1078.54 150.608 1080.15 137.062 1083.37 125.884C1086.68 114.707 1091.37 105.565 1097.44 98.4609C1103.5 91.3564 1110.74 86.1938 1119.17 82.9731C1127.61 79.6577 1136.98 78 1147.31 78C1155.64 78 1163.32 79.042 1170.33 81.126C1177.43 83.21 1183.78 86.478 1189.37 90.9302C1195.05 95.2876 1199.88 100.971 1203.86 107.981C1207.84 114.896 1210.87 123.232 1212.95 132.989C1215.13 142.651 1216.22 153.829 1216.22 166.522ZM1178.71 206.449V161.265C1178.71 153.308 1178.24 146.393 1177.29 140.52C1176.44 134.552 1175.16 129.484 1173.45 125.316C1171.75 121.148 1169.62 117.785 1167.06 115.228C1164.5 112.575 1161.56 110.633 1158.25 109.402C1154.93 108.17 1151.29 107.555 1147.31 107.555C1142.38 107.555 1137.98 108.549 1134.09 110.539C1130.21 112.433 1126.94 115.464 1124.29 119.632C1121.64 123.8 1119.6 129.342 1118.18 136.257C1116.85 143.077 1116.19 151.413 1116.19 161.265V206.449C1116.19 214.406 1116.62 221.369 1117.47 227.336C1118.42 233.304 1119.74 238.419 1121.45 242.682C1123.25 246.945 1125.38 250.45 1127.84 253.197C1130.4 255.849 1133.34 257.838 1136.65 259.165C1139.97 260.396 1143.61 261.012 1147.59 261.012C1152.61 261.012 1157.02 260.017 1160.81 258.028C1164.69 256.039 1167.96 252.913 1170.61 248.65C1173.26 244.292 1175.25 238.656 1176.58 231.741C1178 224.731 1178.71 216.301 1178.71 206.449Z" stroke="white" stroke-width="20" stroke-linejoin="round" mask="url(#path-7-outside-1_1711_772)"/>
<mask id="path-8-outside-2_1711_772" maskUnits="userSpaceOnUse" x="728.769" y="307.475" width="509" height="62" fill="black">
<rect fill="white" x="728.769" y="307.475" width="509" height="62"/>
<path d="M745.509 319.623V358.725H738.769V319.623H745.509Z"/>
<path d="M759.662 335.871V358.725H753.19V329.667H759.286L759.662 335.871ZM758.507 343.122L756.413 343.095C756.431 341.036 756.717 339.147 757.272 337.428C757.845 335.709 758.633 334.232 759.635 332.997C760.656 331.762 761.873 330.813 763.288 330.15C764.702 329.47 766.278 329.13 768.014 329.13C769.411 329.13 770.673 329.327 771.801 329.721C772.947 330.097 773.922 330.714 774.728 331.574C775.552 332.433 776.178 333.552 776.608 334.931C777.038 336.291 777.252 337.965 777.252 339.953V358.725H770.753V339.926C770.753 338.529 770.548 337.428 770.136 336.623C769.742 335.799 769.16 335.217 768.39 334.877C767.638 334.519 766.698 334.34 765.57 334.34C764.46 334.34 763.467 334.573 762.589 335.038C761.712 335.504 760.969 336.139 760.36 336.945C759.77 337.75 759.313 338.681 758.991 339.738C758.668 340.794 758.507 341.922 758.507 343.122Z"/>
<path d="M797.179 329.667V334.394H780.797V329.667H797.179ZM785.524 322.55H791.996V350.695C791.996 351.59 792.121 352.279 792.372 352.763C792.641 353.228 793.008 353.542 793.473 353.703C793.939 353.864 794.485 353.944 795.111 353.944C795.559 353.944 795.989 353.917 796.4 353.864C796.812 353.81 797.143 353.756 797.394 353.703L797.421 358.644C796.884 358.805 796.257 358.948 795.541 359.074C794.843 359.199 794.037 359.262 793.124 359.262C791.638 359.262 790.322 359.002 789.176 358.483C788.03 357.946 787.135 357.077 786.491 355.878C785.846 354.678 785.524 353.085 785.524 351.098V322.55Z"/>
<path d="M814.984 359.262C812.836 359.262 810.893 358.913 809.157 358.214C807.438 357.498 805.97 356.505 804.752 355.233C803.553 353.962 802.631 352.467 801.986 350.749C801.342 349.03 801.02 347.177 801.02 345.189V344.115C801.02 341.841 801.351 339.783 802.013 337.938C802.676 336.094 803.598 334.519 804.779 333.212C805.961 331.887 807.357 330.875 808.969 330.177C810.58 329.479 812.326 329.13 814.206 329.13C816.282 329.13 818.1 329.479 819.657 330.177C821.215 330.875 822.504 331.86 823.524 333.131C824.563 334.385 825.333 335.88 825.834 337.616C826.353 339.353 826.613 341.269 826.613 343.363V346.129H804.162V341.483H820.221V340.973C820.185 339.809 819.953 338.717 819.523 337.697C819.111 336.676 818.476 335.853 817.616 335.226C816.757 334.599 815.611 334.286 814.179 334.286C813.104 334.286 812.147 334.519 811.305 334.984C810.482 335.432 809.792 336.085 809.237 336.945C808.682 337.804 808.253 338.843 807.948 340.06C807.662 341.26 807.519 342.611 807.519 344.115V345.189C807.519 346.461 807.689 347.642 808.029 348.734C808.387 349.809 808.906 350.749 809.586 351.554C810.267 352.36 811.09 352.995 812.057 353.461C813.024 353.909 814.125 354.132 815.36 354.132C816.918 354.132 818.306 353.819 819.523 353.192C820.74 352.566 821.797 351.68 822.692 350.534L826.103 353.837C825.476 354.75 824.661 355.627 823.659 356.469C822.656 357.292 821.43 357.964 819.979 358.483C818.547 359.002 816.882 359.262 814.984 359.262Z"/>
<path d="M838.161 335.199V358.725H831.688V329.667H837.865L838.161 335.199ZM847.05 329.479L846.996 335.495C846.602 335.423 846.173 335.369 845.707 335.333C845.259 335.298 844.812 335.28 844.364 335.28C843.254 335.28 842.278 335.441 841.437 335.763C840.596 336.068 839.888 336.515 839.315 337.106C838.76 337.679 838.331 338.377 838.026 339.201C837.722 340.024 837.543 340.946 837.489 341.967L836.012 342.074C836.012 340.248 836.191 338.556 836.549 336.999C836.907 335.441 837.444 334.071 838.161 332.89C838.895 331.708 839.808 330.786 840.9 330.124C842.01 329.461 843.29 329.13 844.74 329.13C845.134 329.13 845.555 329.166 846.002 329.237C846.468 329.309 846.817 329.389 847.05 329.479Z"/>
<path d="M857.523 335.871V358.725H851.051V329.667H857.147L857.523 335.871ZM856.369 343.122L854.274 343.095C854.292 341.036 854.578 339.147 855.133 337.428C855.706 335.709 856.494 334.232 857.497 332.997C858.517 331.762 859.735 330.813 861.149 330.15C862.563 329.47 864.139 329.13 865.875 329.13C867.272 329.13 868.534 329.327 869.662 329.721C870.808 330.097 871.784 330.714 872.589 331.574C873.413 332.433 874.04 333.552 874.469 334.931C874.899 336.291 875.114 337.965 875.114 339.953V358.725H868.615V339.926C868.615 338.529 868.409 337.428 867.997 336.623C867.603 335.799 867.021 335.217 866.251 334.877C865.5 334.519 864.56 334.34 863.432 334.34C862.322 334.34 861.328 334.573 860.451 335.038C859.573 335.504 858.83 336.139 858.222 336.945C857.631 337.75 857.174 338.681 856.852 339.738C856.53 340.794 856.369 341.922 856.369 343.122Z"/>
<path d="M898.102 352.897V339.04C898.102 338.001 897.914 337.106 897.538 336.354C897.162 335.602 896.589 335.02 895.819 334.608C895.067 334.197 894.118 333.991 892.973 333.991C891.916 333.991 891.003 334.17 890.233 334.528C889.464 334.886 888.864 335.369 888.434 335.978C888.004 336.587 887.79 337.276 887.79 338.046H881.344C881.344 336.9 881.622 335.79 882.177 334.716C882.732 333.642 883.537 332.684 884.594 331.842C885.65 331.001 886.912 330.338 888.38 329.855C889.848 329.372 891.496 329.13 893.322 329.13C895.506 329.13 897.44 329.497 899.123 330.231C900.823 330.965 902.157 332.075 903.124 333.561C904.109 335.029 904.601 336.873 904.601 339.093V352.011C904.601 353.336 904.691 354.526 904.87 355.583C905.067 356.621 905.344 357.525 905.702 358.295V358.725H899.069C898.764 358.026 898.523 357.14 898.344 356.066C898.183 354.974 898.102 353.917 898.102 352.897ZM899.042 341.054L899.096 345.055H894.45C893.25 345.055 892.194 345.172 891.281 345.404C890.368 345.619 889.607 345.941 888.998 346.371C888.389 346.801 887.933 347.32 887.628 347.929C887.324 348.537 887.172 349.227 887.172 349.997C887.172 350.766 887.351 351.474 887.709 352.118C888.067 352.745 888.586 353.237 889.267 353.595C889.965 353.953 890.806 354.132 891.791 354.132C893.116 354.132 894.271 353.864 895.255 353.327C896.258 352.772 897.046 352.1 897.619 351.312C898.192 350.507 898.496 349.746 898.532 349.03L900.626 351.903C900.412 352.637 900.045 353.425 899.525 354.267C899.006 355.108 898.326 355.914 897.484 356.684C896.661 357.436 895.667 358.053 894.503 358.537C893.358 359.02 892.033 359.262 890.529 359.262C888.631 359.262 886.939 358.886 885.453 358.134C883.967 357.364 882.803 356.334 881.962 355.045C881.12 353.738 880.7 352.261 880.7 350.614C880.7 349.075 880.986 347.714 881.559 346.532C882.15 345.333 883.009 344.33 884.137 343.524C885.283 342.719 886.68 342.11 888.327 341.698C889.974 341.269 891.854 341.054 893.966 341.054H899.042Z"/>
<path d="M918.297 317.475V358.725H911.798V317.475H918.297Z"/>
<path d="M960.299 348.654C960.299 347.848 960.174 347.132 959.923 346.505C959.691 345.879 959.27 345.306 958.661 344.787C958.052 344.267 957.193 343.766 956.083 343.283C954.991 342.781 953.594 342.271 951.894 341.752C950.032 341.179 948.313 340.543 946.737 339.845C945.18 339.129 943.819 338.306 942.655 337.375C941.492 336.426 940.587 335.342 939.943 334.125C939.298 332.89 938.976 331.466 938.976 329.855C938.976 328.262 939.307 326.811 939.97 325.504C940.65 324.197 941.608 323.069 942.843 322.121C944.097 321.154 945.574 320.411 947.274 319.892C948.975 319.354 950.855 319.086 952.914 319.086C955.814 319.086 958.312 319.623 960.407 320.697C962.519 321.771 964.14 323.213 965.268 325.021C966.413 326.829 966.986 328.826 966.986 331.01H960.299C960.299 329.721 960.022 328.584 959.467 327.599C958.93 326.597 958.106 325.809 956.996 325.236C955.904 324.663 954.516 324.376 952.833 324.376C951.24 324.376 949.915 324.618 948.859 325.102C947.803 325.585 947.015 326.238 946.496 327.062C945.976 327.886 945.717 328.817 945.717 329.855C945.717 330.589 945.887 331.26 946.227 331.869C946.567 332.46 947.086 333.015 947.785 333.534C948.483 334.035 949.36 334.51 950.417 334.958C951.473 335.405 952.717 335.835 954.149 336.247C956.316 336.891 958.205 337.607 959.816 338.395C961.427 339.165 962.77 340.042 963.844 341.027C964.918 342.012 965.724 343.131 966.261 344.384C966.798 345.619 967.067 347.025 967.067 348.6C967.067 350.247 966.736 351.733 966.073 353.058C965.411 354.365 964.462 355.484 963.227 356.415C962.009 357.328 960.541 358.035 958.822 358.537C957.121 359.02 955.224 359.262 953.129 359.262C951.249 359.262 949.396 359.011 947.57 358.51C945.762 358.008 944.114 357.248 942.628 356.227C941.142 355.189 939.961 353.9 939.083 352.36C938.206 350.802 937.768 348.985 937.768 346.908H944.508C944.508 348.179 944.723 349.263 945.153 350.158C945.6 351.053 946.218 351.787 947.006 352.36C947.794 352.915 948.707 353.327 949.745 353.595C950.801 353.864 951.929 353.998 953.129 353.998C954.704 353.998 956.02 353.774 957.077 353.327C958.151 352.879 958.957 352.252 959.494 351.447C960.031 350.641 960.299 349.71 960.299 348.654Z"/>
<path d="M985.194 359.262C983.046 359.262 981.103 358.913 979.367 358.214C977.648 357.498 976.18 356.505 974.962 355.233C973.763 353.962 972.841 352.467 972.196 350.749C971.552 349.03 971.229 347.177 971.229 345.189V344.115C971.229 341.841 971.561 339.783 972.223 337.938C972.886 336.094 973.808 334.519 974.989 333.212C976.171 331.887 977.567 330.875 979.179 330.177C980.79 329.479 982.536 329.13 984.416 329.13C986.492 329.13 988.31 329.479 989.867 330.177C991.425 330.875 992.714 331.86 993.734 333.131C994.773 334.385 995.543 335.88 996.044 337.616C996.563 339.353 996.823 341.269 996.823 343.363V346.129H974.372V341.483H990.431V340.973C990.395 339.809 990.163 338.717 989.733 337.697C989.321 336.676 988.686 335.853 987.826 335.226C986.967 334.599 985.821 334.286 984.389 334.286C983.314 334.286 982.357 334.519 981.515 334.984C980.692 335.432 980.002 336.085 979.447 336.945C978.892 337.804 978.463 338.843 978.158 340.06C977.872 341.26 977.729 342.611 977.729 344.115V345.189C977.729 346.461 977.899 347.642 978.239 348.734C978.597 349.809 979.116 350.749 979.796 351.554C980.477 352.36 981.3 352.995 982.267 353.461C983.234 353.909 984.335 354.132 985.57 354.132C987.128 354.132 988.515 353.819 989.733 353.192C990.95 352.566 992.007 351.68 992.902 350.534L996.312 353.837C995.686 354.75 994.871 355.627 993.869 356.469C992.866 357.292 991.64 357.964 990.189 358.483C988.757 359.002 987.092 359.262 985.194 359.262Z"/>
<path d="M1008.37 335.199V358.725H1001.9V329.667H1008.08L1008.37 335.199ZM1017.26 329.479L1017.21 335.495C1016.81 335.423 1016.38 335.369 1015.92 335.333C1015.47 335.298 1015.02 335.28 1014.57 335.28C1013.46 335.28 1012.49 335.441 1011.65 335.763C1010.81 336.068 1010.1 336.515 1009.53 337.106C1008.97 337.679 1008.54 338.377 1008.24 339.201C1007.93 340.024 1007.75 340.946 1007.7 341.967L1006.22 342.074C1006.22 340.248 1006.4 338.556 1006.76 336.999C1007.12 335.441 1007.65 334.071 1008.37 332.89C1009.1 331.708 1010.02 330.786 1011.11 330.124C1012.22 329.461 1013.5 329.13 1014.95 329.13C1015.34 329.13 1015.76 329.166 1016.21 329.237C1016.68 329.309 1017.03 329.389 1017.26 329.479Z"/>
<path d="M1031.25 353.595L1038.37 329.667H1045.08L1034.98 358.725H1030.79L1031.25 353.595ZM1025.8 329.667L1033.05 353.703L1033.4 358.725H1029.21L1019.06 329.667H1025.8Z"/>
<path d="M1061.52 359.262C1059.37 359.262 1057.43 358.913 1055.69 358.214C1053.97 357.498 1052.5 356.505 1051.29 355.233C1050.09 353.962 1049.16 352.467 1048.52 350.749C1047.88 349.03 1047.55 347.177 1047.55 345.189V344.115C1047.55 341.841 1047.88 339.783 1048.55 337.938C1049.21 336.094 1050.13 334.519 1051.31 333.212C1052.49 331.887 1053.89 330.875 1055.5 330.177C1057.11 329.479 1058.86 329.13 1060.74 329.13C1062.82 329.13 1064.63 329.479 1066.19 330.177C1067.75 330.875 1069.04 331.86 1070.06 333.131C1071.1 334.385 1071.87 335.88 1072.37 337.616C1072.89 339.353 1073.15 341.269 1073.15 343.363V346.129H1050.69V341.483H1066.75V340.973C1066.72 339.809 1066.49 338.717 1066.06 337.697C1065.64 336.676 1065.01 335.853 1064.15 335.226C1063.29 334.599 1062.14 334.286 1060.71 334.286C1059.64 334.286 1058.68 334.519 1057.84 334.984C1057.01 335.432 1056.33 336.085 1055.77 336.945C1055.22 337.804 1054.79 338.843 1054.48 340.06C1054.19 341.26 1054.05 342.611 1054.05 344.115V345.189C1054.05 346.461 1054.22 347.642 1054.56 348.734C1054.92 349.809 1055.44 350.749 1056.12 351.554C1056.8 352.36 1057.62 352.995 1058.59 353.461C1059.56 353.909 1060.66 354.132 1061.89 354.132C1063.45 354.132 1064.84 353.819 1066.06 353.192C1067.27 352.566 1068.33 351.68 1069.23 350.534L1072.64 353.837C1072.01 354.75 1071.19 355.627 1070.19 356.469C1069.19 357.292 1067.96 357.964 1066.51 358.483C1065.08 359.002 1063.42 359.262 1061.52 359.262Z"/>
<path d="M1084.69 335.199V358.725H1078.22V329.667H1084.4L1084.69 335.199ZM1093.58 329.479L1093.53 335.495C1093.14 335.423 1092.71 335.369 1092.24 335.333C1091.79 335.298 1091.35 335.28 1090.9 335.28C1089.79 335.28 1088.81 335.441 1087.97 335.763C1087.13 336.068 1086.42 336.515 1085.85 337.106C1085.29 337.679 1084.86 338.377 1084.56 339.201C1084.26 340.024 1084.08 340.946 1084.02 341.967L1082.55 342.074C1082.55 340.248 1082.72 338.556 1083.08 336.999C1083.44 335.441 1083.98 334.071 1084.69 332.89C1085.43 331.708 1086.34 330.786 1087.43 330.124C1088.54 329.461 1089.82 329.13 1091.27 329.13C1091.67 329.13 1092.09 329.166 1092.54 329.237C1093 329.309 1093.35 329.389 1093.58 329.479Z"/>
<path d="M1137.57 353.38V358.725H1116.81V353.38H1137.57ZM1118.72 319.623V358.725H1111.98V319.623H1118.72ZM1134.86 335.951V341.215H1116.81V335.951H1134.86ZM1137.44 319.623V324.994H1116.81V319.623H1137.44Z"/>
<path d="M1148.93 335.199V358.725H1142.46V329.667H1148.64L1148.93 335.199ZM1157.82 329.479L1157.77 335.495C1157.37 335.423 1156.94 335.369 1156.48 335.333C1156.03 335.298 1155.58 335.28 1155.14 335.28C1154.03 335.28 1153.05 335.441 1152.21 335.763C1151.37 336.068 1150.66 336.515 1150.09 337.106C1149.53 337.679 1149.1 338.377 1148.8 339.201C1148.49 340.024 1148.31 340.946 1148.26 341.967L1146.78 342.074C1146.78 340.248 1146.96 338.556 1147.32 336.999C1147.68 335.441 1148.22 334.071 1148.93 332.89C1149.67 331.708 1150.58 330.786 1151.67 330.124C1152.78 329.461 1154.06 329.13 1155.51 329.13C1155.91 329.13 1156.33 329.166 1156.77 329.237C1157.24 329.309 1157.59 329.389 1157.82 329.479Z"/>
<path d="M1168.38 335.199V358.725H1161.9V329.667H1168.08L1168.38 335.199ZM1177.26 329.479L1177.21 335.495C1176.82 335.423 1176.39 335.369 1175.92 335.333C1175.47 335.298 1175.03 335.28 1174.58 335.28C1173.47 335.28 1172.49 335.441 1171.65 335.763C1170.81 336.068 1170.1 336.515 1169.53 337.106C1168.98 337.679 1168.55 338.377 1168.24 339.201C1167.94 340.024 1167.76 340.946 1167.7 341.967L1166.23 342.074C1166.23 340.248 1166.41 338.556 1166.76 336.999C1167.12 335.441 1167.66 334.071 1168.38 332.89C1169.11 331.708 1170.02 330.786 1171.11 330.124C1172.22 329.461 1173.5 329.13 1174.96 329.13C1175.35 329.13 1175.77 329.166 1176.22 329.237C1176.68 329.309 1177.03 329.389 1177.26 329.479Z"/>
<path d="M1179.39 344.518V343.9C1179.39 341.806 1179.69 339.863 1180.3 338.073C1180.91 336.264 1181.79 334.698 1182.93 333.373C1184.09 332.03 1185.51 330.992 1187.17 330.258C1188.86 329.506 1190.76 329.13 1192.87 329.13C1195 329.13 1196.9 329.506 1198.56 330.258C1200.24 330.992 1201.67 332.03 1202.83 333.373C1203.99 334.698 1204.88 336.264 1205.49 338.073C1206.1 339.863 1206.4 341.806 1206.4 343.9V344.518C1206.4 346.613 1206.1 348.555 1205.49 350.346C1204.88 352.136 1203.99 353.703 1202.83 355.045C1201.67 356.37 1200.25 357.409 1198.59 358.161C1196.92 358.895 1195.03 359.262 1192.92 359.262C1190.79 359.262 1188.88 358.895 1187.2 358.161C1185.54 357.409 1184.12 356.37 1182.96 355.045C1181.79 353.703 1180.91 352.136 1180.3 350.346C1179.69 348.555 1179.39 346.613 1179.39 344.518ZM1185.86 343.9V344.518C1185.86 345.825 1185.99 347.06 1186.26 348.224C1186.53 349.388 1186.95 350.408 1187.52 351.286C1188.1 352.163 1188.83 352.852 1189.73 353.354C1190.62 353.855 1191.69 354.105 1192.92 354.105C1194.12 354.105 1195.16 353.855 1196.04 353.354C1196.93 352.852 1197.67 352.163 1198.24 351.286C1198.81 350.408 1199.23 349.388 1199.5 348.224C1199.79 347.06 1199.93 345.825 1199.93 344.518V343.9C1199.93 342.611 1199.79 341.394 1199.5 340.248C1199.23 339.084 1198.8 338.055 1198.21 337.16C1197.64 336.264 1196.9 335.566 1196.01 335.065C1195.13 334.546 1194.09 334.286 1192.87 334.286C1191.65 334.286 1190.59 334.546 1189.7 335.065C1188.82 335.566 1188.1 336.264 1187.52 337.16C1186.95 338.055 1186.53 339.084 1186.26 340.248C1185.99 341.394 1185.86 342.611 1185.86 343.9Z"/>
<path d="M1218.33 335.199V358.725H1211.85V329.667H1218.03L1218.33 335.199ZM1227.22 329.479L1227.16 335.495C1226.77 335.423 1226.34 335.369 1225.87 335.333C1225.43 335.298 1224.98 335.28 1224.53 335.28C1223.42 335.28 1222.44 335.441 1221.6 335.763C1220.76 336.068 1220.05 336.515 1219.48 337.106C1218.93 337.679 1218.5 338.377 1218.19 339.201C1217.89 340.024 1217.71 340.946 1217.66 341.967L1216.18 342.074C1216.18 340.248 1216.36 338.556 1216.72 336.999C1217.07 335.441 1217.61 334.071 1218.33 332.89C1219.06 331.708 1219.97 330.786 1221.07 330.124C1222.18 329.461 1223.46 329.13 1224.91 329.13C1225.3 329.13 1225.72 329.166 1226.17 329.237C1226.63 329.309 1226.98 329.389 1227.22 329.479Z"/>
</mask>
<path d="M745.509 319.623V358.725H738.769V319.623H745.509Z" fill="#797979"/>
<path d="M759.662 335.871V358.725H753.19V329.667H759.286L759.662 335.871ZM758.507 343.122L756.413 343.095C756.431 341.036 756.717 339.147 757.272 337.428C757.845 335.709 758.633 334.232 759.635 332.997C760.656 331.762 761.873 330.813 763.288 330.15C764.702 329.47 766.278 329.13 768.014 329.13C769.411 329.13 770.673 329.327 771.801 329.721C772.947 330.097 773.922 330.714 774.728 331.574C775.552 332.433 776.178 333.552 776.608 334.931C777.038 336.291 777.252 337.965 777.252 339.953V358.725H770.753V339.926C770.753 338.529 770.548 337.428 770.136 336.623C769.742 335.799 769.16 335.217 768.39 334.877C767.638 334.519 766.698 334.34 765.57 334.34C764.46 334.34 763.467 334.573 762.589 335.038C761.712 335.504 760.969 336.139 760.36 336.945C759.77 337.75 759.313 338.681 758.991 339.738C758.668 340.794 758.507 341.922 758.507 343.122Z" fill="#797979"/>
<path d="M797.179 329.667V334.394H780.797V329.667H797.179ZM785.524 322.55H791.996V350.695C791.996 351.59 792.121 352.279 792.372 352.763C792.641 353.228 793.008 353.542 793.473 353.703C793.939 353.864 794.485 353.944 795.111 353.944C795.559 353.944 795.989 353.917 796.4 353.864C796.812 353.81 797.143 353.756 797.394 353.703L797.421 358.644C796.884 358.805 796.257 358.948 795.541 359.074C794.843 359.199 794.037 359.262 793.124 359.262C791.638 359.262 790.322 359.002 789.176 358.483C788.03 357.946 787.135 357.077 786.491 355.878C785.846 354.678 785.524 353.085 785.524 351.098V322.55Z" fill="#797979"/>
<path d="M814.984 359.262C812.836 359.262 810.893 358.913 809.157 358.214C807.438 357.498 805.97 356.505 804.752 355.233C803.553 353.962 802.631 352.467 801.986 350.749C801.342 349.03 801.02 347.177 801.02 345.189V344.115C801.02 341.841 801.351 339.783 802.013 337.938C802.676 336.094 803.598 334.519 804.779 333.212C805.961 331.887 807.357 330.875 808.969 330.177C810.58 329.479 812.326 329.13 814.206 329.13C816.282 329.13 818.1 329.479 819.657 330.177C821.215 330.875 822.504 331.86 823.524 333.131C824.563 334.385 825.333 335.88 825.834 337.616C826.353 339.353 826.613 341.269 826.613 343.363V346.129H804.162V341.483H820.221V340.973C820.185 339.809 819.953 338.717 819.523 337.697C819.111 336.676 818.476 335.853 817.616 335.226C816.757 334.599 815.611 334.286 814.179 334.286C813.104 334.286 812.147 334.519 811.305 334.984C810.482 335.432 809.792 336.085 809.237 336.945C808.682 337.804 808.253 338.843 807.948 340.06C807.662 341.26 807.519 342.611 807.519 344.115V345.189C807.519 346.461 807.689 347.642 808.029 348.734C808.387 349.809 808.906 350.749 809.586 351.554C810.267 352.36 811.09 352.995 812.057 353.461C813.024 353.909 814.125 354.132 815.36 354.132C816.918 354.132 818.306 353.819 819.523 353.192C820.74 352.566 821.797 351.68 822.692 350.534L826.103 353.837C825.476 354.75 824.661 355.627 823.659 356.469C822.656 357.292 821.43 357.964 819.979 358.483C818.547 359.002 816.882 359.262 814.984 359.262Z" fill="#797979"/>
<path d="M838.161 335.199V358.725H831.688V329.667H837.865L838.161 335.199ZM847.05 329.479L846.996 335.495C846.602 335.423 846.173 335.369 845.707 335.333C845.259 335.298 844.812 335.28 844.364 335.28C843.254 335.28 842.278 335.441 841.437 335.763C840.596 336.068 839.888 336.515 839.315 337.106C838.76 337.679 838.331 338.377 838.026 339.201C837.722 340.024 837.543 340.946 837.489 341.967L836.012 342.074C836.012 340.248 836.191 338.556 836.549 336.999C836.907 335.441 837.444 334.071 838.161 332.89C838.895 331.708 839.808 330.786 840.9 330.124C842.01 329.461 843.29 329.13 844.74 329.13C845.134 329.13 845.555 329.166 846.002 329.237C846.468 329.309 846.817 329.389 847.05 329.479Z" fill="#797979"/>
<path d="M857.523 335.871V358.725H851.051V329.667H857.147L857.523 335.871ZM856.369 343.122L854.274 343.095C854.292 341.036 854.578 339.147 855.133 337.428C855.706 335.709 856.494 334.232 857.497 332.997C858.517 331.762 859.735 330.813 861.149 330.15C862.563 329.47 864.139 329.13 865.875 329.13C867.272 329.13 868.534 329.327 869.662 329.721C870.808 330.097 871.784 330.714 872.589 331.574C873.413 332.433 874.04 333.552 874.469 334.931C874.899 336.291 875.114 337.965 875.114 339.953V358.725H868.615V339.926C868.615 338.529 868.409 337.428 867.997 336.623C867.603 335.799 867.021 335.217 866.251 334.877C865.5 334.519 864.56 334.34 863.432 334.34C862.322 334.34 861.328 334.573 860.451 335.038C859.573 335.504 858.83 336.139 858.222 336.945C857.631 337.75 857.174 338.681 856.852 339.738C856.53 340.794 856.369 341.922 856.369 343.122Z" fill="#797979"/>
<path d="M898.102 352.897V339.04C898.102 338.001 897.914 337.106 897.538 336.354C897.162 335.602 896.589 335.02 895.819 334.608C895.067 334.197 894.118 333.991 892.973 333.991C891.916 333.991 891.003 334.17 890.233 334.528C889.464 334.886 888.864 335.369 888.434 335.978C888.004 336.587 887.79 337.276 887.79 338.046H881.344C881.344 336.9 881.622 335.79 882.177 334.716C882.732 333.642 883.537 332.684 884.594 331.842C885.65 331.001 886.912 330.338 888.38 329.855C889.848 329.372 891.496 329.13 893.322 329.13C895.506 329.13 897.44 329.497 899.123 330.231C900.823 330.965 902.157 332.075 903.124 333.561C904.109 335.029 904.601 336.873 904.601 339.093V352.011C904.601 353.336 904.691 354.526 904.87 355.583C905.067 356.621 905.344 357.525 905.702 358.295V358.725H899.069C898.764 358.026 898.523 357.14 898.344 356.066C898.183 354.974 898.102 353.917 898.102 352.897ZM899.042 341.054L899.096 345.055H894.45C893.25 345.055 892.194 345.172 891.281 345.404C890.368 345.619 889.607 345.941 888.998 346.371C888.389 346.801 887.933 347.32 887.628 347.929C887.324 348.537 887.172 349.227 887.172 349.997C887.172 350.766 887.351 351.474 887.709 352.118C888.067 352.745 888.586 353.237 889.267 353.595C889.965 353.953 890.806 354.132 891.791 354.132C893.116 354.132 894.271 353.864 895.255 353.327C896.258 352.772 897.046 352.1 897.619 351.312C898.192 350.507 898.496 349.746 898.532 349.03L900.626 351.903C900.412 352.637 900.045 353.425 899.525 354.267C899.006 355.108 898.326 355.914 897.484 356.684C896.661 357.436 895.667 358.053 894.503 358.537C893.358 359.02 892.033 359.262 890.529 359.262C888.631 359.262 886.939 358.886 885.453 358.134C883.967 357.364 882.803 356.334 881.962 355.045C881.12 353.738 880.7 352.261 880.7 350.614C880.7 349.075 880.986 347.714 881.559 346.532C882.15 345.333 883.009 344.33 884.137 343.524C885.283 342.719 886.68 342.11 888.327 341.698C889.974 341.269 891.854 341.054 893.966 341.054H899.042Z" fill="#797979"/>
<path d="M918.297 317.475V358.725H911.798V317.475H918.297Z" fill="#797979"/>
<path d="M960.299 348.654C960.299 347.848 960.174 347.132 959.923 346.505C959.691 345.879 959.27 345.306 958.661 344.787C958.052 344.267 957.193 343.766 956.083 343.283C954.991 342.781 953.594 342.271 951.894 341.752C950.032 341.179 948.313 340.543 946.737 339.845C945.18 339.129 943.819 338.306 942.655 337.375C941.492 336.426 940.587 335.342 939.943 334.125C939.298 332.89 938.976 331.466 938.976 329.855C938.976 328.262 939.307 326.811 939.97 325.504C940.65 324.197 941.608 323.069 942.843 322.121C944.097 321.154 945.574 320.411 947.274 319.892C948.975 319.354 950.855 319.086 952.914 319.086C955.814 319.086 958.312 319.623 960.407 320.697C962.519 321.771 964.14 323.213 965.268 325.021C966.413 326.829 966.986 328.826 966.986 331.01H960.299C960.299 329.721 960.022 328.584 959.467 327.599C958.93 326.597 958.106 325.809 956.996 325.236C955.904 324.663 954.516 324.376 952.833 324.376C951.24 324.376 949.915 324.618 948.859 325.102C947.803 325.585 947.015 326.238 946.496 327.062C945.976 327.886 945.717 328.817 945.717 329.855C945.717 330.589 945.887 331.26 946.227 331.869C946.567 332.46 947.086 333.015 947.785 333.534C948.483 334.035 949.36 334.51 950.417 334.958C951.473 335.405 952.717 335.835 954.149 336.247C956.316 336.891 958.205 337.607 959.816 338.395C961.427 339.165 962.77 340.042 963.844 341.027C964.918 342.012 965.724 343.131 966.261 344.384C966.798 345.619 967.067 347.025 967.067 348.6C967.067 350.247 966.736 351.733 966.073 353.058C965.411 354.365 964.462 355.484 963.227 356.415C962.009 357.328 960.541 358.035 958.822 358.537C957.121 359.02 955.224 359.262 953.129 359.262C951.249 359.262 949.396 359.011 947.57 358.51C945.762 358.008 944.114 357.248 942.628 356.227C941.142 355.189 939.961 353.9 939.083 352.36C938.206 350.802 937.768 348.985 937.768 346.908H944.508C944.508 348.179 944.723 349.263 945.153 350.158C945.6 351.053 946.218 351.787 947.006 352.36C947.794 352.915 948.707 353.327 949.745 353.595C950.801 353.864 951.929 353.998 953.129 353.998C954.704 353.998 956.02 353.774 957.077 353.327C958.151 352.879 958.957 352.252 959.494 351.447C960.031 350.641 960.299 349.71 960.299 348.654Z" fill="#797979"/>
<path d="M985.194 359.262C983.046 359.262 981.103 358.913 979.367 358.214C977.648 357.498 976.18 356.505 974.962 355.233C973.763 353.962 972.841 352.467 972.196 350.749C971.552 349.03 971.229 347.177 971.229 345.189V344.115C971.229 341.841 971.561 339.783 972.223 337.938C972.886 336.094 973.808 334.519 974.989 333.212C976.171 331.887 977.567 330.875 979.179 330.177C980.79 329.479 982.536 329.13 984.416 329.13C986.492 329.13 988.31 329.479 989.867 330.177C991.425 330.875 992.714 331.86 993.734 333.131C994.773 334.385 995.543 335.88 996.044 337.616C996.563 339.353 996.823 341.269 996.823 343.363V346.129H974.372V341.483H990.431V340.973C990.395 339.809 990.163 338.717 989.733 337.697C989.321 336.676 988.686 335.853 987.826 335.226C986.967 334.599 985.821 334.286 984.389 334.286C983.314 334.286 982.357 334.519 981.515 334.984C980.692 335.432 980.002 336.085 979.447 336.945C978.892 337.804 978.463 338.843 978.158 340.06C977.872 341.26 977.729 342.611 977.729 344.115V345.189C977.729 346.461 977.899 347.642 978.239 348.734C978.597 349.809 979.116 350.749 979.796 351.554C980.477 352.36 981.3 352.995 982.267 353.461C983.234 353.909 984.335 354.132 985.57 354.132C987.128 354.132 988.515 353.819 989.733 353.192C990.95 352.566 992.007 351.68 992.902 350.534L996.312 353.837C995.686 354.75 994.871 355.627 993.869 356.469C992.866 357.292 991.64 357.964 990.189 358.483C988.757 359.002 987.092 359.262 985.194 359.262Z" fill="#797979"/>
<path d="M1008.37 335.199V358.725H1001.9V329.667H1008.08L1008.37 335.199ZM1017.26 329.479L1017.21 335.495C1016.81 335.423 1016.38 335.369 1015.92 335.333C1015.47 335.298 1015.02 335.28 1014.57 335.28C1013.46 335.28 1012.49 335.441 1011.65 335.763C1010.81 336.068 1010.1 336.515 1009.53 337.106C1008.97 337.679 1008.54 338.377 1008.24 339.201C1007.93 340.024 1007.75 340.946 1007.7 341.967L1006.22 342.074C1006.22 340.248 1006.4 338.556 1006.76 336.999C1007.12 335.441 1007.65 334.071 1008.37 332.89C1009.1 331.708 1010.02 330.786 1011.11 330.124C1012.22 329.461 1013.5 329.13 1014.95 329.13C1015.34 329.13 1015.76 329.166 1016.21 329.237C1016.68 329.309 1017.03 329.389 1017.26 329.479Z" fill="#797979"/>
<path d="M1031.25 353.595L1038.37 329.667H1045.08L1034.98 358.725H1030.79L1031.25 353.595ZM1025.8 329.667L1033.05 353.703L1033.4 358.725H1029.21L1019.06 329.667H1025.8Z" fill="#797979"/>
<path d="M1061.52 359.262C1059.37 359.262 1057.43 358.913 1055.69 358.214C1053.97 357.498 1052.5 356.505 1051.29 355.233C1050.09 353.962 1049.16 352.467 1048.52 350.749C1047.88 349.03 1047.55 347.177 1047.55 345.189V344.115C1047.55 341.841 1047.88 339.783 1048.55 337.938C1049.21 336.094 1050.13 334.519 1051.31 333.212C1052.49 331.887 1053.89 330.875 1055.5 330.177C1057.11 329.479 1058.86 329.13 1060.74 329.13C1062.82 329.13 1064.63 329.479 1066.19 330.177C1067.75 330.875 1069.04 331.86 1070.06 333.131C1071.1 334.385 1071.87 335.88 1072.37 337.616C1072.89 339.353 1073.15 341.269 1073.15 343.363V346.129H1050.69V341.483H1066.75V340.973C1066.72 339.809 1066.49 338.717 1066.06 337.697C1065.64 336.676 1065.01 335.853 1064.15 335.226C1063.29 334.599 1062.14 334.286 1060.71 334.286C1059.64 334.286 1058.68 334.519 1057.84 334.984C1057.01 335.432 1056.33 336.085 1055.77 336.945C1055.22 337.804 1054.79 338.843 1054.48 340.06C1054.19 341.26 1054.05 342.611 1054.05 344.115V345.189C1054.05 346.461 1054.22 347.642 1054.56 348.734C1054.92 349.809 1055.44 350.749 1056.12 351.554C1056.8 352.36 1057.62 352.995 1058.59 353.461C1059.56 353.909 1060.66 354.132 1061.89 354.132C1063.45 354.132 1064.84 353.819 1066.06 353.192C1067.27 352.566 1068.33 351.68 1069.23 350.534L1072.64 353.837C1072.01 354.75 1071.19 355.627 1070.19 356.469C1069.19 357.292 1067.96 357.964 1066.51 358.483C1065.08 359.002 1063.42 359.262 1061.52 359.262Z" fill="#797979"/>
<path d="M1084.69 335.199V358.725H1078.22V329.667H1084.4L1084.69 335.199ZM1093.58 329.479L1093.53 335.495C1093.14 335.423 1092.71 335.369 1092.24 335.333C1091.79 335.298 1091.35 335.28 1090.9 335.28C1089.79 335.28 1088.81 335.441 1087.97 335.763C1087.13 336.068 1086.42 336.515 1085.85 337.106C1085.29 337.679 1084.86 338.377 1084.56 339.201C1084.26 340.024 1084.08 340.946 1084.02 341.967L1082.55 342.074C1082.55 340.248 1082.72 338.556 1083.08 336.999C1083.44 335.441 1083.98 334.071 1084.69 332.89C1085.43 331.708 1086.34 330.786 1087.43 330.124C1088.54 329.461 1089.82 329.13 1091.27 329.13C1091.67 329.13 1092.09 329.166 1092.54 329.237C1093 329.309 1093.35 329.389 1093.58 329.479Z" fill="#797979"/>
<path d="M1137.57 353.38V358.725H1116.81V353.38H1137.57ZM1118.72 319.623V358.725H1111.98V319.623H1118.72ZM1134.86 335.951V341.215H1116.81V335.951H1134.86ZM1137.44 319.623V324.994H1116.81V319.623H1137.44Z" fill="#797979"/>
<path d="M1148.93 335.199V358.725H1142.46V329.667H1148.64L1148.93 335.199ZM1157.82 329.479L1157.77 335.495C1157.37 335.423 1156.94 335.369 1156.48 335.333C1156.03 335.298 1155.58 335.28 1155.14 335.28C1154.03 335.28 1153.05 335.441 1152.21 335.763C1151.37 336.068 1150.66 336.515 1150.09 337.106C1149.53 337.679 1149.1 338.377 1148.8 339.201C1148.49 340.024 1148.31 340.946 1148.26 341.967L1146.78 342.074C1146.78 340.248 1146.96 338.556 1147.32 336.999C1147.68 335.441 1148.22 334.071 1148.93 332.89C1149.67 331.708 1150.58 330.786 1151.67 330.124C1152.78 329.461 1154.06 329.13 1155.51 329.13C1155.91 329.13 1156.33 329.166 1156.77 329.237C1157.24 329.309 1157.59 329.389 1157.82 329.479Z" fill="#797979"/>
<path d="M1168.38 335.199V358.725H1161.9V329.667H1168.08L1168.38 335.199ZM1177.26 329.479L1177.21 335.495C1176.82 335.423 1176.39 335.369 1175.92 335.333C1175.47 335.298 1175.03 335.28 1174.58 335.28C1173.47 335.28 1172.49 335.441 1171.65 335.763C1170.81 336.068 1170.1 336.515 1169.53 337.106C1168.98 337.679 1168.55 338.377 1168.24 339.201C1167.94 340.024 1167.76 340.946 1167.7 341.967L1166.23 342.074C1166.23 340.248 1166.41 338.556 1166.76 336.999C1167.12 335.441 1167.66 334.071 1168.38 332.89C1169.11 331.708 1170.02 330.786 1171.11 330.124C1172.22 329.461 1173.5 329.13 1174.96 329.13C1175.35 329.13 1175.77 329.166 1176.22 329.237C1176.68 329.309 1177.03 329.389 1177.26 329.479Z" fill="#797979"/>
<path d="M1179.39 344.518V343.9C1179.39 341.806 1179.69 339.863 1180.3 338.073C1180.91 336.264 1181.79 334.698 1182.93 333.373C1184.09 332.03 1185.51 330.992 1187.17 330.258C1188.86 329.506 1190.76 329.13 1192.87 329.13C1195 329.13 1196.9 329.506 1198.56 330.258C1200.24 330.992 1201.67 332.03 1202.83 333.373C1203.99 334.698 1204.88 336.264 1205.49 338.073C1206.1 339.863 1206.4 341.806 1206.4 343.9V344.518C1206.4 346.613 1206.1 348.555 1205.49 350.346C1204.88 352.136 1203.99 353.703 1202.83 355.045C1201.67 356.37 1200.25 357.409 1198.59 358.161C1196.92 358.895 1195.03 359.262 1192.92 359.262C1190.79 359.262 1188.88 358.895 1187.2 358.161C1185.54 357.409 1184.12 356.37 1182.96 355.045C1181.79 353.703 1180.91 352.136 1180.3 350.346C1179.69 348.555 1179.39 346.613 1179.39 344.518ZM1185.86 343.9V344.518C1185.86 345.825 1185.99 347.06 1186.26 348.224C1186.53 349.388 1186.95 350.408 1187.52 351.286C1188.1 352.163 1188.83 352.852 1189.73 353.354C1190.62 353.855 1191.69 354.105 1192.92 354.105C1194.12 354.105 1195.16 353.855 1196.04 353.354C1196.93 352.852 1197.67 352.163 1198.24 351.286C1198.81 350.408 1199.23 349.388 1199.5 348.224C1199.79 347.06 1199.93 345.825 1199.93 344.518V343.9C1199.93 342.611 1199.79 341.394 1199.5 340.248C1199.23 339.084 1198.8 338.055 1198.21 337.16C1197.64 336.264 1196.9 335.566 1196.01 335.065C1195.13 334.546 1194.09 334.286 1192.87 334.286C1191.65 334.286 1190.59 334.546 1189.7 335.065C1188.82 335.566 1188.1 336.264 1187.52 337.16C1186.95 338.055 1186.53 339.084 1186.26 340.248C1185.99 341.394 1185.86 342.611 1185.86 343.9Z" fill="#797979"/>
<path d="M1218.33 335.199V358.725H1211.85V329.667H1218.03L1218.33 335.199ZM1227.22 329.479L1227.16 335.495C1226.77 335.423 1226.34 335.369 1225.87 335.333C1225.43 335.298 1224.98 335.28 1224.53 335.28C1223.42 335.28 1222.44 335.441 1221.6 335.763C1220.76 336.068 1220.05 336.515 1219.48 337.106C1218.93 337.679 1218.5 338.377 1218.19 339.201C1217.89 340.024 1217.71 340.946 1217.66 341.967L1216.18 342.074C1216.18 340.248 1216.36 338.556 1216.72 336.999C1217.07 335.441 1217.61 334.071 1218.33 332.89C1219.06 331.708 1219.97 330.786 1221.07 330.124C1222.18 329.461 1223.46 329.13 1224.91 329.13C1225.3 329.13 1225.72 329.166 1226.17 329.237C1226.63 329.309 1226.98 329.389 1227.22 329.479Z" fill="#797979"/>
<path d="M745.509 319.623V358.725H738.769V319.623H745.509Z" stroke="white" stroke-width="20" stroke-linejoin="round" mask="url(#path-8-outside-2_1711_772)"/>
<path d="M759.662 335.871V358.725H753.19V329.667H759.286L759.662 335.871ZM758.507 343.122L756.413 343.095C756.431 341.036 756.717 339.147 757.272 337.428C757.845 335.709 758.633 334.232 759.635 332.997C760.656 331.762 761.873 330.813 763.288 330.15C764.702 329.47 766.278 329.13 768.014 329.13C769.411 329.13 770.673 329.327 771.801 329.721C772.947 330.097 773.922 330.714 774.728 331.574C775.552 332.433 776.178 333.552 776.608 334.931C777.038 336.291 777.252 337.965 777.252 339.953V358.725H770.753V339.926C770.753 338.529 770.548 337.428 770.136 336.623C769.742 335.799 769.16 335.217 768.39 334.877C767.638 334.519 766.698 334.34 765.57 334.34C764.46 334.34 763.467 334.573 762.589 335.038C761.712 335.504 760.969 336.139 760.36 336.945C759.77 337.75 759.313 338.681 758.991 339.738C758.668 340.794 758.507 341.922 758.507 343.122Z" stroke="white" stroke-width="20" stroke-linejoin="round" mask="url(#path-8-outside-2_1711_772)"/>
<path d="M797.179 329.667V334.394H780.797V329.667H797.179ZM785.524 322.55H791.996V350.695C791.996 351.59 792.121 352.279 792.372 352.763C792.641 353.228 793.008 353.542 793.473 353.703C793.939 353.864 794.485 353.944 795.111 353.944C795.559 353.944 795.989 353.917 796.4 353.864C796.812 353.81 797.143 353.756 797.394 353.703L797.421 358.644C796.884 358.805 796.257 358.948 795.541 359.074C794.843 359.199 794.037 359.262 793.124 359.262C791.638 359.262 790.322 359.002 789.176 358.483C788.03 357.946 787.135 357.077 786.491 355.878C785.846 354.678 785.524 353.085 785.524 351.098V322.55Z" stroke="white" stroke-width="20" stroke-linejoin="round" mask="url(#path-8-outside-2_1711_772)"/>
<path d="M814.984 359.262C812.836 359.262 810.893 358.913 809.157 358.214C807.438 357.498 805.97 356.505 804.752 355.233C803.553 353.962 802.631 352.467 801.986 350.749C801.342 349.03 801.02 347.177 801.02 345.189V344.115C801.02 341.841 801.351 339.783 802.013 337.938C802.676 336.094 803.598 334.519 804.779 333.212C805.961 331.887 807.357 330.875 808.969 330.177C810.58 329.479 812.326 329.13 814.206 329.13C816.282 329.13 818.1 329.479 819.657 330.177C821.215 330.875 822.504 331.86 823.524 333.131C824.563 334.385 825.333 335.88 825.834 337.616C826.353 339.353 826.613 341.269 826.613 343.363V346.129H804.162V341.483H820.221V340.973C820.185 339.809 819.953 338.717 819.523 337.697C819.111 336.676 818.476 335.853 817.616 335.226C816.757 334.599 815.611 334.286 814.179 334.286C813.104 334.286 812.147 334.519 811.305 334.984C810.482 335.432 809.792 336.085 809.237 336.945C808.682 337.804 808.253 338.843 807.948 340.06C807.662 341.26 807.519 342.611 807.519 344.115V345.189C807.519 346.461 807.689 347.642 808.029 348.734C808.387 349.809 808.906 350.749 809.586 351.554C810.267 352.36 811.09 352.995 812.057 353.461C813.024 353.909 814.125 354.132 815.36 354.132C816.918 354.132 818.306 353.819 819.523 353.192C820.74 352.566 821.797 351.68 822.692 350.534L826.103 353.837C825.476 354.75 824.661 355.627 823.659 356.469C822.656 357.292 821.43 357.964 819.979 358.483C818.547 359.002 816.882 359.262 814.984 359.262Z" stroke="white" stroke-width="20" stroke-linejoin="round" mask="url(#path-8-outside-2_1711_772)"/>
<path d="M838.161 335.199V358.725H831.688V329.667H837.865L838.161 335.199ZM847.05 329.479L846.996 335.495C846.602 335.423 846.173 335.369 845.707 335.333C845.259 335.298 844.812 335.28 844.364 335.28C843.254 335.28 842.278 335.441 841.437 335.763C840.596 336.068 839.888 336.515 839.315 337.106C838.76 337.679 838.331 338.377 838.026 339.201C837.722 340.024 837.543 340.946 837.489 341.967L836.012 342.074C836.012 340.248 836.191 338.556 836.549 336.999C836.907 335.441 837.444 334.071 838.161 332.89C838.895 331.708 839.808 330.786 840.9 330.124C842.01 329.461 843.29 329.13 844.74 329.13C845.134 329.13 845.555 329.166 846.002 329.237C846.468 329.309 846.817 329.389 847.05 329.479Z" stroke="white" stroke-width="20" stroke-linejoin="round" mask="url(#path-8-outside-2_1711_772)"/>
<path d="M857.523 335.871V358.725H851.051V329.667H857.147L857.523 335.871ZM856.369 343.122L854.274 343.095C854.292 341.036 854.578 339.147 855.133 337.428C855.706 335.709 856.494 334.232 857.497 332.997C858.517 331.762 859.735 330.813 861.149 330.15C862.563 329.47 864.139 329.13 865.875 329.13C867.272 329.13 868.534 329.327 869.662 329.721C870.808 330.097 871.784 330.714 872.589 331.574C873.413 332.433 874.04 333.552 874.469 334.931C874.899 336.291 875.114 337.965 875.114 339.953V358.725H868.615V339.926C868.615 338.529 868.409 337.428 867.997 336.623C867.603 335.799 867.021 335.217 866.251 334.877C865.5 334.519 864.56 334.34 863.432 334.34C862.322 334.34 861.328 334.573 860.451 335.038C859.573 335.504 858.83 336.139 858.222 336.945C857.631 337.75 857.174 338.681 856.852 339.738C856.53 340.794 856.369 341.922 856.369 343.122Z" stroke="white" stroke-width="20" stroke-linejoin="round" mask="url(#path-8-outside-2_1711_772)"/>
<path d="M898.102 352.897V339.04C898.102 338.001 897.914 337.106 897.538 336.354C897.162 335.602 896.589 335.02 895.819 334.608C895.067 334.197 894.118 333.991 892.973 333.991C891.916 333.991 891.003 334.17 890.233 334.528C889.464 334.886 888.864 335.369 888.434 335.978C888.004 336.587 887.79 337.276 887.79 338.046H881.344C881.344 336.9 881.622 335.79 882.177 334.716C882.732 333.642 883.537 332.684 884.594 331.842C885.65 331.001 886.912 330.338 888.38 329.855C889.848 329.372 891.496 329.13 893.322 329.13C895.506 329.13 897.44 329.497 899.123 330.231C900.823 330.965 902.157 332.075 903.124 333.561C904.109 335.029 904.601 336.873 904.601 339.093V352.011C904.601 353.336 904.691 354.526 904.87 355.583C905.067 356.621 905.344 357.525 905.702 358.295V358.725H899.069C898.764 358.026 898.523 357.14 898.344 356.066C898.183 354.974 898.102 353.917 898.102 352.897ZM899.042 341.054L899.096 345.055H894.45C893.25 345.055 892.194 345.172 891.281 345.404C890.368 345.619 889.607 345.941 888.998 346.371C888.389 346.801 887.933 347.32 887.628 347.929C887.324 348.537 887.172 349.227 887.172 349.997C887.172 350.766 887.351 351.474 887.709 352.118C888.067 352.745 888.586 353.237 889.267 353.595C889.965 353.953 890.806 354.132 891.791 354.132C893.116 354.132 894.271 353.864 895.255 353.327C896.258 352.772 897.046 352.1 897.619 351.312C898.192 350.507 898.496 349.746 898.532 349.03L900.626 351.903C900.412 352.637 900.045 353.425 899.525 354.267C899.006 355.108 898.326 355.914 897.484 356.684C896.661 357.436 895.667 358.053 894.503 358.537C893.358 359.02 892.033 359.262 890.529 359.262C888.631 359.262 886.939 358.886 885.453 358.134C883.967 357.364 882.803 356.334 881.962 355.045C881.12 353.738 880.7 352.261 880.7 350.614C880.7 349.075 880.986 347.714 881.559 346.532C882.15 345.333 883.009 344.33 884.137 343.524C885.283 342.719 886.68 342.11 888.327 341.698C889.974 341.269 891.854 341.054 893.966 341.054H899.042Z" stroke="white" stroke-width="20" stroke-linejoin="round" mask="url(#path-8-outside-2_1711_772)"/>
<path d="M918.297 317.475V358.725H911.798V317.475H918.297Z" stroke="white" stroke-width="20" stroke-linejoin="round" mask="url(#path-8-outside-2_1711_772)"/>
<path d="M960.299 348.654C960.299 347.848 960.174 347.132 959.923 346.505C959.691 345.879 959.27 345.306 958.661 344.787C958.052 344.267 957.193 343.766 956.083 343.283C954.991 342.781 953.594 342.271 951.894 341.752C950.032 341.179 948.313 340.543 946.737 339.845C945.18 339.129 943.819 338.306 942.655 337.375C941.492 336.426 940.587 335.342 939.943 334.125C939.298 332.89 938.976 331.466 938.976 329.855C938.976 328.262 939.307 326.811 939.97 325.504C940.65 324.197 941.608 323.069 942.843 322.121C944.097 321.154 945.574 320.411 947.274 319.892C948.975 319.354 950.855 319.086 952.914 319.086C955.814 319.086 958.312 319.623 960.407 320.697C962.519 321.771 964.14 323.213 965.268 325.021C966.413 326.829 966.986 328.826 966.986 331.01H960.299C960.299 329.721 960.022 328.584 959.467 327.599C958.93 326.597 958.106 325.809 956.996 325.236C955.904 324.663 954.516 324.376 952.833 324.376C951.24 324.376 949.915 324.618 948.859 325.102C947.803 325.585 947.015 326.238 946.496 327.062C945.976 327.886 945.717 328.817 945.717 329.855C945.717 330.589 945.887 331.26 946.227 331.869C946.567 332.46 947.086 333.015 947.785 333.534C948.483 334.035 949.36 334.51 950.417 334.958C951.473 335.405 952.717 335.835 954.149 336.247C956.316 336.891 958.205 337.607 959.816 338.395C961.427 339.165 962.77 340.042 963.844 341.027C964.918 342.012 965.724 343.131 966.261 344.384C966.798 345.619 967.067 347.025 967.067 348.6C967.067 350.247 966.736 351.733 966.073 353.058C965.411 354.365 964.462 355.484 963.227 356.415C962.009 357.328 960.541 358.035 958.822 358.537C957.121 359.02 955.224 359.262 953.129 359.262C951.249 359.262 949.396 359.011 947.57 358.51C945.762 358.008 944.114 357.248 942.628 356.227C941.142 355.189 939.961 353.9 939.083 352.36C938.206 350.802 937.768 348.985 937.768 346.908H944.508C944.508 348.179 944.723 349.263 945.153 350.158C945.6 351.053 946.218 351.787 947.006 352.36C947.794 352.915 948.707 353.327 949.745 353.595C950.801 353.864 951.929 353.998 953.129 353.998C954.704 353.998 956.02 353.774 957.077 353.327C958.151 352.879 958.957 352.252 959.494 351.447C960.031 350.641 960.299 349.71 960.299 348.654Z" stroke="white" stroke-width="20" stroke-linejoin="round" mask="url(#path-8-outside-2_1711_772)"/>
<path d="M985.194 359.262C983.046 359.262 981.103 358.913 979.367 358.214C977.648 357.498 976.18 356.505 974.962 355.233C973.763 353.962 972.841 352.467 972.196 350.749C971.552 349.03 971.229 347.177 971.229 345.189V344.115C971.229 341.841 971.561 339.783 972.223 337.938C972.886 336.094 973.808 334.519 974.989 333.212C976.171 331.887 977.567 330.875 979.179 330.177C980.79 329.479 982.536 329.13 984.416 329.13C986.492 329.13 988.31 329.479 989.867 330.177C991.425 330.875 992.714 331.86 993.734 333.131C994.773 334.385 995.543 335.88 996.044 337.616C996.563 339.353 996.823 341.269 996.823 343.363V346.129H974.372V341.483H990.431V340.973C990.395 339.809 990.163 338.717 989.733 337.697C989.321 336.676 988.686 335.853 987.826 335.226C986.967 334.599 985.821 334.286 984.389 334.286C983.314 334.286 982.357 334.519 981.515 334.984C980.692 335.432 980.002 336.085 979.447 336.945C978.892 337.804 978.463 338.843 978.158 340.06C977.872 341.26 977.729 342.611 977.729 344.115V345.189C977.729 346.461 977.899 347.642 978.239 348.734C978.597 349.809 979.116 350.749 979.796 351.554C980.477 352.36 981.3 352.995 982.267 353.461C983.234 353.909 984.335 354.132 985.57 354.132C987.128 354.132 988.515 353.819 989.733 353.192C990.95 352.566 992.007 351.68 992.902 350.534L996.312 353.837C995.686 354.75 994.871 355.627 993.869 356.469C992.866 357.292 991.64 357.964 990.189 358.483C988.757 359.002 987.092 359.262 985.194 359.262Z" stroke="white" stroke-width="20" stroke-linejoin="round" mask="url(#path-8-outside-2_1711_772)"/>
<path d="M1008.37 335.199V358.725H1001.9V329.667H1008.08L1008.37 335.199ZM1017.26 329.479L1017.21 335.495C1016.81 335.423 1016.38 335.369 1015.92 335.333C1015.47 335.298 1015.02 335.28 1014.57 335.28C1013.46 335.28 1012.49 335.441 1011.65 335.763C1010.81 336.068 1010.1 336.515 1009.53 337.106C1008.97 337.679 1008.54 338.377 1008.24 339.201C1007.93 340.024 1007.75 340.946 1007.7 341.967L1006.22 342.074C1006.22 340.248 1006.4 338.556 1006.76 336.999C1007.12 335.441 1007.65 334.071 1008.37 332.89C1009.1 331.708 1010.02 330.786 1011.11 330.124C1012.22 329.461 1013.5 329.13 1014.95 329.13C1015.34 329.13 1015.76 329.166 1016.21 329.237C1016.68 329.309 1017.03 329.389 1017.26 329.479Z" stroke="white" stroke-width="20" stroke-linejoin="round" mask="url(#path-8-outside-2_1711_772)"/>
<path d="M1031.25 353.595L1038.37 329.667H1045.08L1034.98 358.725H1030.79L1031.25 353.595ZM1025.8 329.667L1033.05 353.703L1033.4 358.725H1029.21L1019.06 329.667H1025.8Z" stroke="white" stroke-width="20" stroke-linejoin="round" mask="url(#path-8-outside-2_1711_772)"/>
<path d="M1061.52 359.262C1059.37 359.262 1057.43 358.913 1055.69 358.214C1053.97 357.498 1052.5 356.505 1051.29 355.233C1050.09 353.962 1049.16 352.467 1048.52 350.749C1047.88 349.03 1047.55 347.177 1047.55 345.189V344.115C1047.55 341.841 1047.88 339.783 1048.55 337.938C1049.21 336.094 1050.13 334.519 1051.31 333.212C1052.49 331.887 1053.89 330.875 1055.5 330.177C1057.11 329.479 1058.86 329.13 1060.74 329.13C1062.82 329.13 1064.63 329.479 1066.19 330.177C1067.75 330.875 1069.04 331.86 1070.06 333.131C1071.1 334.385 1071.87 335.88 1072.37 337.616C1072.89 339.353 1073.15 341.269 1073.15 343.363V346.129H1050.69V341.483H1066.75V340.973C1066.72 339.809 1066.49 338.717 1066.06 337.697C1065.64 336.676 1065.01 335.853 1064.15 335.226C1063.29 334.599 1062.14 334.286 1060.71 334.286C1059.64 334.286 1058.68 334.519 1057.84 334.984C1057.01 335.432 1056.33 336.085 1055.77 336.945C1055.22 337.804 1054.79 338.843 1054.48 340.06C1054.19 341.26 1054.05 342.611 1054.05 344.115V345.189C1054.05 346.461 1054.22 347.642 1054.56 348.734C1054.92 349.809 1055.44 350.749 1056.12 351.554C1056.8 352.36 1057.62 352.995 1058.59 353.461C1059.56 353.909 1060.66 354.132 1061.89 354.132C1063.45 354.132 1064.84 353.819 1066.06 353.192C1067.27 352.566 1068.33 351.68 1069.23 350.534L1072.64 353.837C1072.01 354.75 1071.19 355.627 1070.19 356.469C1069.19 357.292 1067.96 357.964 1066.51 358.483C1065.08 359.002 1063.42 359.262 1061.52 359.262Z" stroke="white" stroke-width="20" stroke-linejoin="round" mask="url(#path-8-outside-2_1711_772)"/>
<path d="M1084.69 335.199V358.725H1078.22V329.667H1084.4L1084.69 335.199ZM1093.58 329.479L1093.53 335.495C1093.14 335.423 1092.71 335.369 1092.24 335.333C1091.79 335.298 1091.35 335.28 1090.9 335.28C1089.79 335.28 1088.81 335.441 1087.97 335.763C1087.13 336.068 1086.42 336.515 1085.85 337.106C1085.29 337.679 1084.86 338.377 1084.56 339.201C1084.26 340.024 1084.08 340.946 1084.02 341.967L1082.55 342.074C1082.55 340.248 1082.72 338.556 1083.08 336.999C1083.44 335.441 1083.98 334.071 1084.69 332.89C1085.43 331.708 1086.34 330.786 1087.43 330.124C1088.54 329.461 1089.82 329.13 1091.27 329.13C1091.67 329.13 1092.09 329.166 1092.54 329.237C1093 329.309 1093.35 329.389 1093.58 329.479Z" stroke="white" stroke-width="20" stroke-linejoin="round" mask="url(#path-8-outside-2_1711_772)"/>
<path d="M1137.57 353.38V358.725H1116.81V353.38H1137.57ZM1118.72 319.623V358.725H1111.98V319.623H1118.72ZM1134.86 335.951V341.215H1116.81V335.951H1134.86ZM1137.44 319.623V324.994H1116.81V319.623H1137.44Z" stroke="white" stroke-width="20" stroke-linejoin="round" mask="url(#path-8-outside-2_1711_772)"/>
<path d="M1148.93 335.199V358.725H1142.46V329.667H1148.64L1148.93 335.199ZM1157.82 329.479L1157.77 335.495C1157.37 335.423 1156.94 335.369 1156.48 335.333C1156.03 335.298 1155.58 335.28 1155.14 335.28C1154.03 335.28 1153.05 335.441 1152.21 335.763C1151.37 336.068 1150.66 336.515 1150.09 337.106C1149.53 337.679 1149.1 338.377 1148.8 339.201C1148.49 340.024 1148.31 340.946 1148.26 341.967L1146.78 342.074C1146.78 340.248 1146.96 338.556 1147.32 336.999C1147.68 335.441 1148.22 334.071 1148.93 332.89C1149.67 331.708 1150.58 330.786 1151.67 330.124C1152.78 329.461 1154.06 329.13 1155.51 329.13C1155.91 329.13 1156.33 329.166 1156.77 329.237C1157.24 329.309 1157.59 329.389 1157.82 329.479Z" stroke="white" stroke-width="20" stroke-linejoin="round" mask="url(#path-8-outside-2_1711_772)"/>
<path d="M1168.38 335.199V358.725H1161.9V329.667H1168.08L1168.38 335.199ZM1177.26 329.479L1177.21 335.495C1176.82 335.423 1176.39 335.369 1175.92 335.333C1175.47 335.298 1175.03 335.28 1174.58 335.28C1173.47 335.28 1172.49 335.441 1171.65 335.763C1170.81 336.068 1170.1 336.515 1169.53 337.106C1168.98 337.679 1168.55 338.377 1168.24 339.201C1167.94 340.024 1167.76 340.946 1167.7 341.967L1166.23 342.074C1166.23 340.248 1166.41 338.556 1166.76 336.999C1167.12 335.441 1167.66 334.071 1168.38 332.89C1169.11 331.708 1170.02 330.786 1171.11 330.124C1172.22 329.461 1173.5 329.13 1174.96 329.13C1175.35 329.13 1175.77 329.166 1176.22 329.237C1176.68 329.309 1177.03 329.389 1177.26 329.479Z" stroke="white" stroke-width="20" stroke-linejoin="round" mask="url(#path-8-outside-2_1711_772)"/>
<path d="M1179.39 344.518V343.9C1179.39 341.806 1179.69 339.863 1180.3 338.073C1180.91 336.264 1181.79 334.698 1182.93 333.373C1184.09 332.03 1185.51 330.992 1187.17 330.258C1188.86 329.506 1190.76 329.13 1192.87 329.13C1195 329.13 1196.9 329.506 1198.56 330.258C1200.24 330.992 1201.67 332.03 1202.83 333.373C1203.99 334.698 1204.88 336.264 1205.49 338.073C1206.1 339.863 1206.4 341.806 1206.4 343.9V344.518C1206.4 346.613 1206.1 348.555 1205.49 350.346C1204.88 352.136 1203.99 353.703 1202.83 355.045C1201.67 356.37 1200.25 357.409 1198.59 358.161C1196.92 358.895 1195.03 359.262 1192.92 359.262C1190.79 359.262 1188.88 358.895 1187.2 358.161C1185.54 357.409 1184.12 356.37 1182.96 355.045C1181.79 353.703 1180.91 352.136 1180.3 350.346C1179.69 348.555 1179.39 346.613 1179.39 344.518ZM1185.86 343.9V344.518C1185.86 345.825 1185.99 347.06 1186.26 348.224C1186.53 349.388 1186.95 350.408 1187.52 351.286C1188.1 352.163 1188.83 352.852 1189.73 353.354C1190.62 353.855 1191.69 354.105 1192.92 354.105C1194.12 354.105 1195.16 353.855 1196.04 353.354C1196.93 352.852 1197.67 352.163 1198.24 351.286C1198.81 350.408 1199.23 349.388 1199.5 348.224C1199.79 347.06 1199.93 345.825 1199.93 344.518V343.9C1199.93 342.611 1199.79 341.394 1199.5 340.248C1199.23 339.084 1198.8 338.055 1198.21 337.16C1197.64 336.264 1196.9 335.566 1196.01 335.065C1195.13 334.546 1194.09 334.286 1192.87 334.286C1191.65 334.286 1190.59 334.546 1189.7 335.065C1188.82 335.566 1188.1 336.264 1187.52 337.16C1186.95 338.055 1186.53 339.084 1186.26 340.248C1185.99 341.394 1185.86 342.611 1185.86 343.9Z" stroke="white" stroke-width="20" stroke-linejoin="round" mask="url(#path-8-outside-2_1711_772)"/>
<path d="M1218.33 335.199V358.725H1211.85V329.667H1218.03L1218.33 335.199ZM1227.22 329.479L1227.16 335.495C1226.77 335.423 1226.34 335.369 1225.87 335.333C1225.43 335.298 1224.98 335.28 1224.53 335.28C1223.42 335.28 1222.44 335.441 1221.6 335.763C1220.76 336.068 1220.05 336.515 1219.48 337.106C1218.93 337.679 1218.5 338.377 1218.19 339.201C1217.89 340.024 1217.71 340.946 1217.66 341.967L1216.18 342.074C1216.18 340.248 1216.36 338.556 1216.72 336.999C1217.07 335.441 1217.61 334.071 1218.33 332.89C1219.06 331.708 1219.97 330.786 1221.07 330.124C1222.18 329.461 1223.46 329.13 1224.91 329.13C1225.3 329.13 1225.72 329.166 1226.17 329.237C1226.63 329.309 1226.98 329.389 1227.22 329.479Z" stroke="white" stroke-width="20" stroke-linejoin="round" mask="url(#path-8-outside-2_1711_772)"/>
<rect x="605.37" y="448.695" width="395.958" height="530.804" fill="white" stroke="#383838" stroke-width="5"/>
<rect x="592.419" y="443.695" width="421.861" height="117.951" rx="17.5" fill="white" stroke="#383838" stroke-width="5"/>
<mask id="mask0_1711_772" style="mask-type:alpha" maskUnits="userSpaceOnUse" x="594" y="446" width="418" height="114">
<rect x="594.919" y="446.195" width="416.861" height="112.951" rx="15" fill="white"/>
</mask>
<g mask="url(#mask0_1711_772)">
<rect x="563.479" y="538.96" width="472.492" height="40.8765" fill="#C6C6C6"/>
</g>
<circle cx="626.244" cy="502.67" r="10.3199" fill="#383838"/>
<circle cx="654.425" cy="502.67" r="10.3199" fill="#383838"/>
<circle cx="682.606" cy="502.67" r="10.3199" fill="#383838"/>
<circle cx="977.764" cy="502.67" r="10.3199" fill="#383838"/>
<path d="M950.634 561.646H953.134V559.146V548.96C953.134 542.056 947.537 536.46 940.634 536.46H797.896C790.992 536.46 785.396 542.056 785.396 548.96V559.146V561.646H787.896H950.634Z" fill="white" stroke="#383838" stroke-width="5"/>
<line x1="871.986" y1="503.17" x2="805.849" y2="503.17" stroke="#383838" stroke-width="5" stroke-linecap="round"/>
<line x1="948.134" y1="503.17" x2="881.997" y2="503.17" stroke="#383838" stroke-width="5" stroke-linecap="round"/>
<rect x="592.419" y="584.646" width="421.861" height="117.951" rx="17.5" fill="white" stroke="#383838" stroke-width="5"/>
<mask id="mask1_1711_772" style="mask-type:alpha" maskUnits="userSpaceOnUse" x="594" y="587" width="418" height="114">
<rect x="594.919" y="587.146" width="416.861" height="112.951" rx="15" fill="white"/>
</mask>
<g mask="url(#mask1_1711_772)">
<rect x="563.479" y="679.911" width="472.492" height="40.8765" fill="#C6C6C6"/>
</g>
<circle cx="626.244" cy="643.621" r="10.3199" fill="#383838"/>
<circle cx="654.425" cy="643.621" r="10.3199" fill="#383838"/>
<circle cx="682.606" cy="643.621" r="10.3199" fill="#383838"/>
<circle cx="977.764" cy="643.621" r="10.3199" fill="#383838"/>
<path d="M950.634 702.597H953.134V700.097V689.911C953.134 683.007 947.537 677.411 940.634 677.411H797.896C790.992 677.411 785.396 683.007 785.396 689.911V700.097V702.597H787.896H950.634Z" fill="white" stroke="#383838" stroke-width="5"/>
<line x1="871.986" y1="644.121" x2="805.849" y2="644.121" stroke="#383838" stroke-width="5" stroke-linecap="round"/>
<line x1="948.134" y1="644.121" x2="881.997" y2="644.121" stroke="#383838" stroke-width="5" stroke-linecap="round"/>
<rect x="592.419" y="725.597" width="421.861" height="117.951" rx="17.5" fill="white" stroke="#383838" stroke-width="5"/>
<mask id="mask2_1711_772" style="mask-type:alpha" maskUnits="userSpaceOnUse" x="594" y="728" width="418" height="114">
<rect x="594.919" y="728.097" width="416.861" height="112.951" rx="15" fill="white"/>
</mask>
<g mask="url(#mask2_1711_772)">
<rect x="563.479" y="820.862" width="472.492" height="40.8765" fill="#C6C6C6"/>
</g>
<circle cx="626.244" cy="784.572" r="10.3199" fill="#383838"/>
<circle cx="654.425" cy="784.572" r="10.3199" fill="#383838"/>
<circle cx="682.606" cy="784.572" r="10.3199" fill="#383838"/>
<circle cx="977.764" cy="784.572" r="10.3199" fill="#383838"/>
<path d="M950.634 843.548H953.134V841.048V830.862C953.134 823.958 947.537 818.362 940.634 818.362H797.896C790.992 818.362 785.396 823.958 785.396 830.862V841.048V843.548H787.896H950.634Z" fill="white" stroke="#383838" stroke-width="5"/>
<line x1="871.986" y1="785.073" x2="805.849" y2="785.073" stroke="#383838" stroke-width="5" stroke-linecap="round"/>
<line x1="948.134" y1="785.073" x2="881.997" y2="785.073" stroke="#383838" stroke-width="5" stroke-linecap="round"/>
<rect x="592.419" y="866.548" width="421.861" height="117.951" rx="17.5" fill="white" stroke="#383838" stroke-width="5"/>
<mask id="mask3_1711_772" style="mask-type:alpha" maskUnits="userSpaceOnUse" x="594" y="869" width="418" height="113">
<rect x="594.919" y="869.048" width="416.861" height="112.951" rx="15" fill="white"/>
</mask>
<g mask="url(#mask3_1711_772)">
<rect x="563.479" y="961.813" width="472.492" height="40.8765" fill="#C6C6C6"/>
</g>
<circle cx="626.244" cy="925.523" r="10.3199" fill="#383838"/>
<circle cx="654.425" cy="925.523" r="10.3199" fill="#383838"/>
<circle cx="682.606" cy="925.523" r="10.3199" fill="#383838"/>
<circle cx="977.764" cy="925.523" r="10.3199" fill="#383838"/>
<path d="M950.634 984.499H953.134V981.999V971.813C953.134 964.909 947.537 959.313 940.634 959.313H797.896C790.992 959.313 785.396 964.909 785.396 971.813V981.999V984.499H787.896H950.634Z" fill="white" stroke="#383838" stroke-width="5"/>
<line x1="871.986" y1="926.024" x2="805.849" y2="926.024" stroke="#383838" stroke-width="5" stroke-linecap="round"/>
<line x1="948.134" y1="926.024" x2="881.997" y2="926.024" stroke="#383838" stroke-width="5" stroke-linecap="round"/>
<path d="M1015.34 783.453C1036.53 783.105 1078.9 795.329 1078.9 847.008C1078.9 911.607 1143.68 910.563 1143.68 847.008C1143.68 783.453 1208.81 780.033 1208.81 847.008" stroke="#383838" stroke-width="5"/>
<path d="M1230.84 897.567H1233.34V895.067V869.213C1233.34 855.669 1222.36 844.689 1208.81 844.689C1195.27 844.689 1184.29 855.669 1184.29 869.213V895.067V897.567H1186.79H1230.84Z" fill="white" stroke="#383838" stroke-width="5"/>
<rect x="1193.83" y="895.067" width="8.21908" height="29.4779" rx="4.10954" fill="#383838"/>
<rect x="1215.58" y="895.067" width="8.21908" height="29.4779" rx="4.10954" fill="#383838"/>
<rect x="1186.79" y="878.085" width="44.0479" height="8.18217" fill="#383838"/>
<rect x="55.4307" y="982" width="406.124" height="11.9253" rx="5.96267" fill="#383838"/>
<rect x="478.647" y="982" width="627.906" height="11.9253" rx="5.96267" fill="#383838"/>
<rect x="1138.9" y="982" width="84.8997" height="11.9253" rx="5.96267" fill="#383838"/>
<rect x="1313.07" y="982" width="496.621" height="11.9253" rx="5.96267" fill="#383838"/>
<rect x="1238.73" y="982" width="49.6511" height="11.9253" rx="5.96267" fill="#383838"/>
<rect x="1287.09" y="754.067" width="95.6223" height="95.6223" rx="12.5" fill="white" stroke="#383838" stroke-width="5"/>
<circle cx="1334.9" cy="801.877" r="28.6198" fill="white" stroke="#363636" stroke-width="5"/>
<circle cx="1323.73" cy="801.877" r="3.96126" fill="#363636"/>
<circle cx="1346.07" cy="801.877" r="3.96126" fill="#363636"/>
<rect x="1333.54" y="775.757" width="2.71557" height="10.4887" fill="#363636"/>
<rect x="1333.54" y="817.508" width="2.71557" height="10.4887" fill="#363636"/>
<mask id="path-66-outside-3_1711_772" maskUnits="userSpaceOnUse" x="48.4326" y="311.601" width="330" height="151" fill="black">
<rect fill="white" x="48.4326" y="311.601" width="330" height="151"/>
<path fill-rule="evenodd" clip-rule="evenodd" d="M223.452 321.601C199.205 321.601 178.658 337.443 171.597 359.34C166.144 356.055 159.756 354.165 152.926 354.165C132.914 354.165 116.692 370.387 116.692 390.399L116.692 390.514C110.511 385.054 102.388 381.74 93.4915 381.74C74.129 381.74 58.4326 397.436 58.4326 416.799C58.4326 435.323 72.7985 450.491 90.9967 451.77V451.857H93.3229C93.3791 451.858 93.4353 451.858 93.4915 451.858C93.5477 451.858 93.6039 451.858 93.6601 451.857H334.865C334.898 451.857 334.932 451.858 334.965 451.858C352.95 451.858 367.53 437.278 367.53 419.293C367.53 401.309 352.95 386.729 334.965 386.729C331.376 386.729 327.923 387.31 324.694 388.382C324.859 386.911 324.944 385.416 324.944 383.9C324.944 361.924 307.128 344.108 285.152 344.108C279.661 344.108 274.43 345.221 269.671 347.232C260.045 331.84 242.944 321.601 223.452 321.601Z"/>
</mask>
<path fill-rule="evenodd" clip-rule="evenodd" d="M223.452 321.601C199.205 321.601 178.658 337.443 171.597 359.34C166.144 356.055 159.756 354.165 152.926 354.165C132.914 354.165 116.692 370.387 116.692 390.399L116.692 390.514C110.511 385.054 102.388 381.74 93.4915 381.74C74.129 381.74 58.4326 397.436 58.4326 416.799C58.4326 435.323 72.7985 450.491 90.9967 451.77V451.857H93.3229C93.3791 451.858 93.4353 451.858 93.4915 451.858C93.5477 451.858 93.6039 451.858 93.6601 451.857H334.865C334.898 451.857 334.932 451.858 334.965 451.858C352.95 451.858 367.53 437.278 367.53 419.293C367.53 401.309 352.95 386.729 334.965 386.729C331.376 386.729 327.923 387.31 324.694 388.382C324.859 386.911 324.944 385.416 324.944 383.9C324.944 361.924 307.128 344.108 285.152 344.108C279.661 344.108 274.43 345.221 269.671 347.232C260.045 331.84 242.944 321.601 223.452 321.601Z" fill="white"/>
<path d="M171.597 359.34L166.437 367.906C169.052 369.482 172.244 369.776 175.104 368.705C177.964 367.634 180.177 365.315 181.115 362.409L171.597 359.34ZM116.692 390.399H106.692C106.692 390.404 106.692 390.409 106.692 390.414L116.692 390.399ZM116.692 390.514L110.072 398.009C113.021 400.614 117.224 401.247 120.81 399.627C124.396 398.007 126.698 394.434 126.692 390.499L116.692 390.514ZM90.9967 451.77H100.997C100.997 446.52 96.9358 442.163 91.698 441.795L90.9967 451.77ZM90.9967 451.857H80.9967C80.9967 457.38 85.4739 461.857 90.9967 461.857V451.857ZM93.3229 451.857L93.3691 441.857C93.3537 441.857 93.3383 441.857 93.3229 441.857L93.3229 451.857ZM93.6601 451.857V441.857C93.6447 441.857 93.6293 441.857 93.6139 441.857L93.6601 451.857ZM334.865 451.857L334.896 441.857C334.886 441.857 334.875 441.857 334.865 441.857L334.865 451.857ZM324.694 388.382L314.756 387.268C314.377 390.657 315.75 394.006 318.399 396.152C321.049 398.299 324.61 398.947 327.846 397.873L324.694 388.382ZM269.671 347.232L261.192 352.534C263.797 356.699 269.04 358.355 273.565 356.443L269.671 347.232ZM181.115 362.409C186.883 344.521 203.671 331.601 223.452 331.601V311.601C194.739 311.601 170.434 330.364 162.08 356.271L181.115 362.409ZM152.926 364.165C157.887 364.165 162.498 365.533 166.437 367.906L176.758 350.775C169.791 346.577 161.625 344.165 152.926 344.165V364.165ZM126.692 390.399C126.692 375.91 138.437 364.165 152.926 364.165V344.165C127.391 344.165 106.692 364.865 106.692 390.399H126.692ZM126.692 390.499L126.692 390.383L106.692 390.414L106.692 390.53L126.692 390.499ZM93.4915 391.74C99.8573 391.74 105.647 394.101 110.072 398.009L123.313 383.02C115.374 376.007 104.919 371.74 93.4915 371.74V391.74ZM68.4326 416.799C68.4326 402.959 79.6519 391.74 93.4915 391.74V371.74C68.6062 371.74 48.4326 391.914 48.4326 416.799H68.4326ZM91.698 441.795C78.7005 440.881 68.4326 430.035 68.4326 416.799H48.4326C48.4326 440.61 66.8965 460.101 90.2954 461.746L91.698 441.795ZM100.997 451.857V451.77H80.9967V451.857H100.997ZM93.3229 441.857H90.9967V461.857H93.3229V441.857ZM93.4915 441.858C93.4516 441.858 93.4108 441.858 93.3691 441.857L93.2768 461.857C93.3474 461.858 93.419 461.858 93.4915 461.858V441.858ZM93.6139 441.857C93.5722 441.858 93.5315 441.858 93.4915 441.858V461.858C93.564 461.858 93.6356 461.858 93.7063 461.857L93.6139 441.857ZM334.865 441.857H93.6601V461.857H334.865V441.857ZM334.965 441.858C334.941 441.858 334.918 441.858 334.896 441.857L334.833 461.857C334.878 461.857 334.923 461.858 334.965 461.858V441.858ZM357.53 419.293C357.53 431.755 347.427 441.858 334.965 441.858V461.858C358.473 461.858 377.53 442.801 377.53 419.293H357.53ZM334.965 396.729C347.427 396.729 357.53 406.832 357.53 419.293H377.53C377.53 395.786 358.473 376.729 334.965 376.729V396.729ZM327.846 397.873C330.071 397.133 332.461 396.729 334.965 396.729V376.729C330.292 376.729 325.775 377.486 321.542 378.892L327.846 397.873ZM314.944 383.9C314.944 385.043 314.88 386.166 314.756 387.268L334.632 389.496C334.838 387.656 334.944 385.788 334.944 383.9H314.944ZM285.152 354.108C301.606 354.108 314.944 367.447 314.944 383.9H334.944C334.944 356.401 312.651 334.108 285.152 334.108V354.108ZM273.565 356.443C277.113 354.943 281.022 354.108 285.152 354.108V334.108C278.299 334.108 271.746 335.498 265.778 338.021L273.565 356.443ZM223.452 331.601C239.355 331.601 253.318 339.941 261.192 352.534L278.15 341.93C266.773 323.738 246.534 311.601 223.452 311.601V331.601Z" fill="#383838" mask="url(#path-66-outside-3_1711_772)"/>
<mask id="path-68-outside-4_1711_772" maskUnits="userSpaceOnUse" x="1490.9" y="555.257" width="330" height="151" fill="black">
<rect fill="white" x="1490.9" y="555.257" width="330" height="151"/>
<path fill-rule="evenodd" clip-rule="evenodd" d="M1665.92 565.257C1641.68 565.257 1621.13 581.099 1614.07 602.996C1608.61 599.711 1602.23 597.821 1595.4 597.821C1575.39 597.821 1559.16 614.043 1559.16 634.055L1559.16 634.17C1552.98 628.71 1544.86 625.396 1535.96 625.396C1516.6 625.396 1500.9 641.092 1500.9 660.455C1500.9 678.979 1515.27 694.147 1533.47 695.426V695.513H1535.79C1535.85 695.514 1535.91 695.514 1535.96 695.514C1536.02 695.514 1536.07 695.514 1536.13 695.513H1777.34C1777.37 695.514 1777.4 695.514 1777.44 695.514C1795.42 695.514 1810 680.934 1810 662.949C1810 644.965 1795.42 630.385 1777.44 630.385C1773.85 630.385 1770.39 630.966 1767.16 632.038C1767.33 630.567 1767.41 629.072 1767.41 627.556C1767.41 605.58 1749.6 587.764 1727.62 587.764C1722.13 587.764 1716.9 588.877 1712.14 590.888C1702.52 575.496 1685.41 565.257 1665.92 565.257Z"/>
</mask>
<path fill-rule="evenodd" clip-rule="evenodd" d="M1665.92 565.257C1641.68 565.257 1621.13 581.099 1614.07 602.996C1608.61 599.711 1602.23 597.821 1595.4 597.821C1575.39 597.821 1559.16 614.043 1559.16 634.055L1559.16 634.17C1552.98 628.71 1544.86 625.396 1535.96 625.396C1516.6 625.396 1500.9 641.092 1500.9 660.455C1500.9 678.979 1515.27 694.147 1533.47 695.426V695.513H1535.79C1535.85 695.514 1535.91 695.514 1535.96 695.514C1536.02 695.514 1536.07 695.514 1536.13 695.513H1777.34C1777.37 695.514 1777.4 695.514 1777.44 695.514C1795.42 695.514 1810 680.934 1810 662.949C1810 644.965 1795.42 630.385 1777.44 630.385C1773.85 630.385 1770.39 630.966 1767.16 632.038C1767.33 630.567 1767.41 629.072 1767.41 627.556C1767.41 605.58 1749.6 587.764 1727.62 587.764C1722.13 587.764 1716.9 588.877 1712.14 590.888C1702.52 575.496 1685.41 565.257 1665.92 565.257Z" fill="white"/>
<path d="M1614.07 602.996L1608.91 611.562C1611.52 613.138 1614.72 613.432 1617.57 612.361C1620.43 611.29 1622.65 608.971 1623.59 606.065L1614.07 602.996ZM1559.16 634.055H1549.16C1549.16 634.06 1549.16 634.065 1549.16 634.07L1559.16 634.055ZM1559.16 634.17L1552.54 641.665C1555.49 644.27 1559.69 644.903 1563.28 643.283C1566.87 641.663 1569.17 638.09 1569.16 634.155L1559.16 634.17ZM1533.47 695.426H1543.47C1543.47 690.176 1539.41 685.819 1534.17 685.451L1533.47 695.426ZM1533.47 695.513H1523.47C1523.47 701.036 1527.94 705.513 1533.47 705.513V695.513ZM1535.79 695.513L1535.84 685.514C1535.82 685.513 1535.81 685.513 1535.79 685.513L1535.79 695.513ZM1536.13 695.513V685.513C1536.12 685.513 1536.1 685.513 1536.08 685.514L1536.13 695.513ZM1777.34 695.513L1777.37 685.513C1777.36 685.513 1777.35 685.513 1777.34 685.513L1777.34 695.513ZM1767.16 632.038L1757.23 630.924C1756.85 634.313 1758.22 637.662 1760.87 639.808C1763.52 641.955 1767.08 642.603 1770.32 641.529L1767.16 632.038ZM1712.14 590.888L1703.66 596.19C1706.27 600.355 1711.51 602.011 1716.04 600.099L1712.14 590.888ZM1623.59 606.065C1629.35 588.177 1646.14 575.257 1665.92 575.257V555.257C1637.21 555.257 1612.9 574.02 1604.55 599.927L1623.59 606.065ZM1595.4 607.821C1600.36 607.821 1604.97 609.189 1608.91 611.562L1619.23 594.431C1612.26 590.233 1604.1 587.821 1595.4 587.821V607.821ZM1569.16 634.055C1569.16 619.566 1580.91 607.821 1595.4 607.821V587.821C1569.86 587.821 1549.16 608.521 1549.16 634.055H1569.16ZM1569.16 634.155L1569.16 634.039L1549.16 634.07L1549.16 634.186L1569.16 634.155ZM1535.96 635.396C1542.33 635.396 1548.12 637.757 1552.54 641.665L1565.78 626.676C1557.84 619.663 1547.39 615.396 1535.96 615.396V635.396ZM1510.9 660.455C1510.9 646.615 1522.12 635.396 1535.96 635.396V615.396C1511.08 615.396 1490.9 635.57 1490.9 660.455H1510.9ZM1534.17 685.451C1521.17 684.537 1510.9 673.691 1510.9 660.455H1490.9C1490.9 684.266 1509.37 703.757 1532.77 705.402L1534.17 685.451ZM1543.47 695.513V695.426H1523.47V695.513H1543.47ZM1535.79 685.513H1533.47V705.513H1535.79V685.513ZM1535.96 685.514C1535.92 685.514 1535.88 685.514 1535.84 685.514L1535.75 705.513C1535.82 705.514 1535.89 705.514 1535.96 705.514V685.514ZM1536.08 685.514C1536.04 685.514 1536 685.514 1535.96 685.514V705.514C1536.03 705.514 1536.11 705.514 1536.18 705.513L1536.08 685.514ZM1777.34 685.513H1536.13V705.513H1777.34V685.513ZM1777.44 685.514C1777.41 685.514 1777.39 685.514 1777.37 685.513L1777.3 705.513C1777.35 705.513 1777.39 705.514 1777.44 705.514V685.514ZM1800 662.949C1800 675.411 1789.9 685.514 1777.44 685.514V705.514C1800.94 705.514 1820 686.457 1820 662.949H1800ZM1777.44 640.385C1789.9 640.385 1800 650.488 1800 662.949H1820C1820 639.442 1800.94 620.385 1777.44 620.385V640.385ZM1770.32 641.529C1772.54 640.789 1774.93 640.385 1777.44 640.385V620.385C1772.76 620.385 1768.25 621.142 1764.01 622.548L1770.32 641.529ZM1757.41 627.556C1757.41 628.699 1757.35 629.822 1757.23 630.924L1777.1 633.152C1777.31 631.312 1777.41 629.444 1777.41 627.556H1757.41ZM1727.62 597.764C1744.08 597.764 1757.41 611.103 1757.41 627.556H1777.41C1777.41 600.057 1755.12 577.764 1727.62 577.764V597.764ZM1716.04 600.099C1719.58 598.599 1723.49 597.764 1727.62 597.764V577.764C1720.77 577.764 1714.22 579.154 1708.25 581.677L1716.04 600.099ZM1665.92 575.257C1681.83 575.257 1695.79 583.597 1703.66 596.19L1720.62 585.586C1709.24 567.394 1689 555.257 1665.92 555.257V575.257Z" fill="#383838" mask="url(#path-68-outside-4_1711_772)"/>
<mask id="path-70-outside-5_1711_772" maskUnits="userSpaceOnUse" x="1317.7" y="186.876" width="330" height="151" fill="black">
<rect fill="white" x="1317.7" y="186.876" width="330" height="151"/>
<path fill-rule="evenodd" clip-rule="evenodd" d="M1492.72 196.876C1468.47 196.876 1447.92 212.717 1440.86 234.615C1435.41 231.33 1429.02 229.44 1422.19 229.44C1402.18 229.44 1385.96 245.662 1385.96 265.673L1385.96 265.789C1379.77 260.328 1371.65 257.015 1362.76 257.015C1343.39 257.015 1327.7 272.711 1327.7 292.074C1327.7 310.597 1342.06 325.766 1360.26 327.045V327.132H1362.59C1362.64 327.132 1362.7 327.132 1362.76 327.132C1362.81 327.132 1362.87 327.132 1362.92 327.132H1604.13C1604.16 327.132 1604.2 327.132 1604.23 327.132C1622.21 327.132 1636.79 312.553 1636.79 294.568C1636.79 276.583 1622.21 262.004 1604.23 262.004C1600.64 262.004 1597.19 262.584 1593.96 263.657C1594.12 262.186 1594.21 260.69 1594.21 259.175C1594.21 237.198 1576.39 219.383 1554.42 219.383C1548.92 219.383 1543.69 220.495 1538.93 222.507C1529.31 207.114 1512.21 196.876 1492.72 196.876Z"/>
</mask>
<path fill-rule="evenodd" clip-rule="evenodd" d="M1492.72 196.876C1468.47 196.876 1447.92 212.717 1440.86 234.615C1435.41 231.33 1429.02 229.44 1422.19 229.44C1402.18 229.44 1385.96 245.662 1385.96 265.673L1385.96 265.789C1379.77 260.328 1371.65 257.015 1362.76 257.015C1343.39 257.015 1327.7 272.711 1327.7 292.074C1327.7 310.597 1342.06 325.766 1360.26 327.045V327.132H1362.59C1362.64 327.132 1362.7 327.132 1362.76 327.132C1362.81 327.132 1362.87 327.132 1362.92 327.132H1604.13C1604.16 327.132 1604.2 327.132 1604.23 327.132C1622.21 327.132 1636.79 312.553 1636.79 294.568C1636.79 276.583 1622.21 262.004 1604.23 262.004C1600.64 262.004 1597.19 262.584 1593.96 263.657C1594.12 262.186 1594.21 260.69 1594.21 259.175C1594.21 237.198 1576.39 219.383 1554.42 219.383C1548.92 219.383 1543.69 220.495 1538.93 222.507C1529.31 207.114 1512.21 196.876 1492.72 196.876Z" fill="white"/>
<path d="M1440.86 234.615L1435.7 243.18C1438.32 244.756 1441.51 245.051 1444.37 243.98C1447.23 242.909 1449.44 240.59 1450.38 237.684L1440.86 234.615ZM1385.96 265.673H1375.96C1375.96 265.678 1375.96 265.684 1375.96 265.689L1385.96 265.673ZM1385.96 265.789L1379.34 273.284C1382.28 275.889 1386.49 276.522 1390.07 274.902C1393.66 273.281 1395.96 269.709 1395.96 265.773L1385.96 265.789ZM1360.26 327.045H1370.26C1370.26 321.794 1366.2 317.438 1360.96 317.07L1360.26 327.045ZM1360.26 327.132H1350.26C1350.26 332.655 1354.74 337.132 1360.26 337.132V327.132ZM1362.59 327.132L1362.63 317.132C1362.62 317.132 1362.6 317.132 1362.59 317.132L1362.59 327.132ZM1362.92 327.132V317.132C1362.91 317.132 1362.89 317.132 1362.88 317.132L1362.92 327.132ZM1604.13 327.132L1604.16 317.132C1604.15 317.132 1604.14 317.132 1604.13 317.132L1604.13 327.132ZM1593.96 263.657L1584.02 262.543C1583.64 265.932 1585.01 269.28 1587.66 271.427C1590.31 273.574 1593.87 274.222 1597.11 273.147L1593.96 263.657ZM1538.93 222.507L1530.46 227.809C1533.06 231.974 1538.3 233.63 1542.83 231.718L1538.93 222.507ZM1450.38 237.684C1456.15 219.796 1472.94 206.876 1492.72 206.876V186.876C1464 186.876 1439.7 205.638 1431.34 231.546L1450.38 237.684ZM1422.19 239.44C1427.15 239.44 1431.76 240.807 1435.7 243.18L1446.02 226.049C1439.05 221.852 1430.89 219.44 1422.19 219.44V239.44ZM1395.96 265.673C1395.96 251.185 1407.7 239.44 1422.19 239.44V219.44C1396.66 219.44 1375.96 240.139 1375.96 265.673H1395.96ZM1395.96 265.773L1395.96 265.658L1375.96 265.689L1375.96 265.804L1395.96 265.773ZM1362.76 267.015C1369.12 267.015 1374.91 269.375 1379.34 273.284L1392.58 258.294C1384.64 251.282 1374.18 247.015 1362.76 247.015V267.015ZM1337.7 292.074C1337.7 278.234 1348.92 267.015 1362.76 267.015V247.015C1337.87 247.015 1317.7 267.188 1317.7 292.074H1337.7ZM1360.96 317.07C1347.96 316.156 1337.7 305.309 1337.7 292.074H1317.7C1317.7 315.885 1336.16 335.375 1359.56 337.02L1360.96 317.07ZM1370.26 327.132V327.045H1350.26V327.132H1370.26ZM1362.59 317.132H1360.26V337.132H1362.59V317.132ZM1362.76 317.132C1362.72 317.132 1362.67 317.132 1362.63 317.132L1362.54 337.132C1362.61 337.132 1362.68 337.132 1362.76 337.132V317.132ZM1362.88 317.132C1362.84 317.132 1362.8 317.132 1362.76 317.132V337.132C1362.83 337.132 1362.9 337.132 1362.97 337.132L1362.88 317.132ZM1604.13 317.132H1362.92V337.132H1604.13V317.132ZM1604.23 317.132C1604.2 317.132 1604.18 317.132 1604.16 317.132L1604.1 337.132C1604.14 337.132 1604.19 337.132 1604.23 337.132V317.132ZM1626.79 294.568C1626.79 307.03 1616.69 317.132 1604.23 317.132V337.132C1627.74 337.132 1646.79 318.076 1646.79 294.568H1626.79ZM1604.23 272.004C1616.69 272.004 1626.79 282.106 1626.79 294.568H1646.79C1646.79 271.061 1627.74 252.004 1604.23 252.004V272.004ZM1597.11 273.147C1599.33 272.408 1601.72 272.004 1604.23 272.004V252.004C1599.56 252.004 1595.04 252.761 1590.81 254.167L1597.11 273.147ZM1584.21 259.175C1584.21 260.317 1584.14 261.441 1584.02 262.543L1603.9 264.771C1604.1 262.93 1604.21 261.063 1604.21 259.175H1584.21ZM1554.42 229.383C1570.87 229.383 1584.21 242.721 1584.21 259.175H1604.21C1604.21 231.676 1581.91 209.383 1554.42 209.383V229.383ZM1542.83 231.718C1546.38 230.218 1550.29 229.383 1554.42 229.383V209.383C1547.56 209.383 1541.01 210.773 1535.04 213.296L1542.83 231.718ZM1492.72 206.876C1508.62 206.876 1522.58 215.216 1530.46 227.809L1547.41 217.205C1536.04 199.012 1515.8 186.876 1492.72 186.876V206.876Z" fill="#383838" mask="url(#path-70-outside-5_1711_772)"/>
</g>
<defs>
<clipPath id="clip0_1711_772">
<rect width="1920" height="1067" fill="white"/>
</clipPath>
</defs>
</svg>
