<svg width="101" height="24" viewBox="0 0 101 24" fill="none" xmlns="http://www.w3.org/2000/svg">
<path d="M6.59227 12.0616L3.89227 8.23657L2.39227 9.64657V12.0616H1.07227V1.11157H2.39227V8.31157L6.41227 4.24657H7.86727L4.74727 7.48657L8.01727 12.0616H6.59227Z" fill="#DB162F"/>
<path d="M10.6445 1.11157H11.9645V10.0366C11.9645 10.3266 12.0395 10.5566 12.1895 10.7266C12.3495 10.8866 12.5695 10.9666 12.8495 10.9666C12.9595 10.9666 13.0895 10.9516 13.2395 10.9216C13.3895 10.8816 13.5295 10.8366 13.6595 10.7866L13.8695 11.8516C13.6495 11.9416 13.3895 12.0166 13.0895 12.0766C12.7895 12.1366 12.5245 12.1666 12.2945 12.1666C11.7845 12.1666 11.3795 12.0216 11.0795 11.7316C10.7895 11.4416 10.6445 11.0366 10.6445 10.5166V1.11157Z" fill="#DB162F"/>
<path d="M16.3184 12.0616V4.23157H17.6384V12.0616H16.3184ZM16.3184 2.76157V1.11157H17.6384V2.76157H16.3184Z" fill="#DB162F"/>
<path d="M26.7221 12.0616L24.0221 8.23657L22.5221 9.64657V12.0616H21.2021V1.11157H22.5221V8.31157L26.5421 4.24657H27.9971L24.8771 7.48657L28.1471 12.0616H26.7221Z" fill="#DB162F"/>
<path d="M33.4457 12.2116C32.8157 12.2116 32.1957 12.1166 31.5857 11.9266C30.9757 11.7266 30.4507 11.4416 30.0107 11.0716L30.5807 10.1866C31.0407 10.5366 31.5007 10.8016 31.9607 10.9816C32.4207 11.1516 32.9057 11.2366 33.4157 11.2366C33.9857 11.2366 34.4357 11.1266 34.7657 10.9066C35.1057 10.6766 35.2757 10.3566 35.2757 9.94656C35.2757 9.75656 35.2307 9.59656 35.1407 9.46656C35.0507 9.32656 34.9157 9.20656 34.7357 9.10656C34.5557 9.00656 34.3257 8.91656 34.0457 8.83656C33.7657 8.75656 33.4407 8.67156 33.0707 8.58156C32.6007 8.46156 32.1957 8.34656 31.8557 8.23656C31.5157 8.12656 31.2357 7.99656 31.0157 7.84656C30.7957 7.69656 30.6357 7.51656 30.5357 7.30656C30.4357 7.09656 30.3857 6.83656 30.3857 6.52656C30.3857 6.13656 30.4607 5.79156 30.6107 5.49156C30.7707 5.18156 30.9857 4.92656 31.2557 4.72656C31.5257 4.51656 31.8407 4.36156 32.2007 4.26156C32.5707 4.15156 32.9657 4.09656 33.3857 4.09656C33.9757 4.09656 34.5257 4.19156 35.0357 4.38156C35.5457 4.57156 35.9757 4.82156 36.3257 5.13156L35.7257 5.92656C35.3957 5.63656 35.0257 5.42156 34.6157 5.28156C34.2057 5.13156 33.7857 5.05656 33.3557 5.05656C32.8757 5.05656 32.4657 5.16156 32.1257 5.37156C31.7957 5.57156 31.6307 5.89656 31.6307 6.34656C31.6307 6.52656 31.6607 6.67656 31.7207 6.79656C31.7907 6.91656 31.9007 7.02156 32.0507 7.11156C32.2007 7.20156 32.3907 7.28156 32.6207 7.35156C32.8607 7.42156 33.1457 7.49656 33.4757 7.57656C33.9957 7.69656 34.4457 7.82156 34.8257 7.95156C35.2157 8.07156 35.5357 8.21656 35.7857 8.38656C36.0457 8.55656 36.2357 8.75656 36.3557 8.98656C36.4857 9.21656 36.5507 9.49656 36.5507 9.82656C36.5507 10.5566 36.2707 11.1366 35.7107 11.5666C35.1507 11.9966 34.3957 12.2116 33.4457 12.2116Z" fill="#DB162F"/>
<path d="M43.7834 12.2116C43.1334 12.2116 42.5584 12.0516 42.0584 11.7316C41.5684 11.4116 41.1784 11.0066 40.8884 10.5166V15.2566H39.5684V4.23156H40.7384V5.70156C41.0484 5.22156 41.4484 4.83656 41.9384 4.54656C42.4384 4.24656 42.9884 4.09656 43.5884 4.09656C44.1284 4.09656 44.6234 4.20656 45.0734 4.42656C45.5234 4.64656 45.9134 4.94656 46.2434 5.32656C46.5734 5.69656 46.8284 6.12656 47.0084 6.61656C47.1984 7.10656 47.2934 7.61656 47.2934 8.14656C47.2934 8.70656 47.2084 9.23656 47.0384 9.73656C46.8684 10.2266 46.6284 10.6566 46.3184 11.0266C46.0084 11.3866 45.6384 11.6766 45.2084 11.8966C44.7784 12.1066 44.3034 12.2116 43.7834 12.2116ZM43.3784 11.0716C43.7684 11.0716 44.1184 10.9916 44.4284 10.8316C44.7484 10.6616 45.0184 10.4416 45.2384 10.1716C45.4684 9.89156 45.6434 9.57656 45.7634 9.22656C45.8834 8.87656 45.9434 8.51656 45.9434 8.14656C45.9434 7.75656 45.8734 7.38656 45.7334 7.03656C45.5934 6.67656 45.4034 6.36656 45.1634 6.10656C44.9234 5.83656 44.6384 5.62656 44.3084 5.47656C43.9884 5.31656 43.6384 5.23656 43.2584 5.23656C43.0184 5.23656 42.7684 5.28656 42.5084 5.38656C42.2584 5.47656 42.0184 5.60156 41.7884 5.76156C41.5684 5.91156 41.3734 6.09656 41.2034 6.31656C41.0434 6.52656 40.9384 6.75156 40.8884 6.99156V9.22656C40.9984 9.48656 41.1384 9.73156 41.3084 9.96156C41.4784 10.1816 41.6734 10.3766 41.8934 10.5466C42.1134 10.7066 42.3484 10.8366 42.5984 10.9366C42.8484 11.0266 43.1084 11.0716 43.3784 11.0716Z" fill="#DB162F"/>
<path d="M50.4004 1.11157H51.7204V10.0366C51.7204 10.3266 51.7954 10.5566 51.9454 10.7266C52.1054 10.8866 52.3254 10.9666 52.6054 10.9666C52.7154 10.9666 52.8454 10.9516 52.9954 10.9216C53.1454 10.8816 53.2854 10.8366 53.4154 10.7866L53.6254 11.8516C53.4054 11.9416 53.1454 12.0166 52.8454 12.0766C52.5454 12.1366 52.2804 12.1666 52.0504 12.1666C51.5404 12.1666 51.1354 12.0216 50.8354 11.7316C50.5454 11.4416 50.4004 11.0366 50.4004 10.5166V1.11157Z" fill="#DB162F"/>
<path d="M6.59227 12.0616L6.38802 12.2057C6.43487 12.2721 6.51103 12.3116 6.59227 12.3116V12.0616ZM3.89227 8.23657L4.09651 8.0924C4.05477 8.03327 3.98944 7.99513 3.91743 7.98784C3.84542 7.98056 3.77378 8.00484 3.72104 8.05442L3.89227 8.23657ZM2.39227 9.64657L2.22104 9.46442C2.17077 9.51166 2.14227 9.57759 2.14227 9.64657H2.39227ZM2.39227 12.0616V12.3116C2.53034 12.3116 2.64227 12.1996 2.64227 12.0616H2.39227ZM1.07227 12.0616H0.822266C0.822266 12.1996 0.934194 12.3116 1.07227 12.3116V12.0616ZM1.07227 1.11157V0.861572C0.934194 0.861572 0.822266 0.973501 0.822266 1.11157H1.07227ZM2.39227 1.11157H2.64227C2.64227 0.973501 2.53034 0.861572 2.39227 0.861572V1.11157ZM2.39227 8.31157H2.14227C2.14227 8.41294 2.20348 8.50428 2.29724 8.54281C2.391 8.58134 2.49874 8.55944 2.57002 8.48736L2.39227 8.31157ZM6.41227 4.24657V3.99657C6.34548 3.99657 6.28147 4.02329 6.23451 4.07078L6.41227 4.24657ZM7.86727 4.24657L8.04735 4.41998C8.11689 4.34776 8.13656 4.24099 8.09732 4.14873C8.05808 4.05647 7.96752 3.99657 7.86727 3.99657V4.24657ZM4.74727 7.48657L4.56719 7.31316C4.48363 7.39993 4.47383 7.53395 4.54388 7.63194L4.74727 7.48657ZM8.01727 12.0616V12.3116C8.11093 12.3116 8.19673 12.2592 8.23958 12.1759C8.28242 12.0926 8.27512 11.9924 8.22065 11.9162L8.01727 12.0616ZM10.6443 1.11157V0.861572C10.5062 0.861572 10.3943 0.973501 10.3943 1.11157H10.6443ZM11.9643 1.11157H12.2143C12.2143 0.973501 12.1023 0.861572 11.9643 0.861572V1.11157ZM12.1893 10.7266L12.0018 10.892C12.0052 10.8959 12.0088 10.8997 12.0125 10.9033L12.1893 10.7266ZM13.2393 10.9216L13.2883 11.1667C13.2935 11.1657 13.2986 11.1645 13.3037 11.1631L13.2393 10.9216ZM13.6593 10.7866L13.9045 10.7382C13.8903 10.6658 13.8447 10.6034 13.7801 10.5677C13.7155 10.532 13.6384 10.5267 13.5695 10.5532L13.6593 10.7866ZM13.8693 11.8516L13.9639 12.083C14.0745 12.0377 14.1377 11.9205 14.1145 11.8032L13.8693 11.8516ZM13.0893 12.0766L13.1383 12.3217L13.0893 12.0766ZM11.0793 11.7316L10.9025 11.9084L10.9055 11.9113L11.0793 11.7316ZM16.3184 12.0616H16.0684C16.0684 12.1996 16.1803 12.3116 16.3184 12.3116V12.0616ZM16.3184 4.23157V3.98157C16.1803 3.98157 16.0684 4.0935 16.0684 4.23157H16.3184ZM17.6384 4.23157H17.8884C17.8884 4.0935 17.7764 3.98157 17.6384 3.98157V4.23157ZM17.6384 12.0616V12.3116C17.7764 12.3116 17.8884 12.1996 17.8884 12.0616H17.6384ZM16.3184 2.76157H16.0684C16.0684 2.89964 16.1803 3.01157 16.3184 3.01157V2.76157ZM16.3184 1.11157V0.861572C16.1803 0.861572 16.0684 0.973501 16.0684 1.11157H16.3184ZM17.6384 1.11157H17.8884C17.8884 0.973501 17.7764 0.861572 17.6384 0.861572V1.11157ZM17.6384 2.76157V3.01157C17.7764 3.01157 17.8884 2.89964 17.8884 2.76157H17.6384ZM26.7221 12.0616L26.5179 12.2057C26.5648 12.2721 26.6409 12.3116 26.7221 12.3116V12.0616ZM24.0221 8.23657L24.2264 8.0924C24.1846 8.03327 24.1193 7.99513 24.0473 7.98784C23.9753 7.98056 23.9037 8.00484 23.8509 8.05442L24.0221 8.23657ZM22.5221 9.64657L22.3509 9.46442C22.3007 9.51166 22.2721 9.57759 22.2721 9.64657H22.5221ZM22.5221 12.0616V12.3116C22.6602 12.3116 22.7721 12.1996 22.7721 12.0616H22.5221ZM21.2021 12.0616H20.9521C20.9521 12.1996 21.0641 12.3116 21.2021 12.3116V12.0616ZM21.2021 1.11157V0.861572C21.0641 0.861572 20.9521 0.973501 20.9521 1.11157H21.2021ZM22.5221 1.11157H22.7721C22.7721 0.973501 22.6602 0.861572 22.5221 0.861572V1.11157ZM22.5221 8.31157H22.2721C22.2721 8.41294 22.3334 8.50428 22.4271 8.54281C22.5209 8.58134 22.6286 8.55944 22.6999 8.48736L22.5221 8.31157ZM26.5421 4.24657V3.99657C26.4754 3.99657 26.4114 4.02329 26.3644 4.07078L26.5421 4.24657ZM27.9971 4.24657L28.1772 4.41998C28.2468 4.34776 28.2664 4.24099 28.2272 4.14873C28.188 4.05647 28.0974 3.99657 27.9971 3.99657V4.24657ZM24.8771 7.48657L24.6971 7.31316C24.6135 7.39993 24.6037 7.53395 24.6738 7.63194L24.8771 7.48657ZM28.1471 12.0616V12.3116C28.2408 12.3116 28.3266 12.2592 28.3695 12.1759C28.4123 12.0926 28.405 11.9924 28.3505 11.9162L28.1471 12.0616ZM31.5859 11.9266L31.508 12.1642L31.5116 12.1653L31.5859 11.9266ZM30.0109 11.0716L29.8007 10.9362C29.7326 11.042 29.7537 11.1819 29.85 11.2629L30.0109 11.0716ZM30.5809 10.1866L30.7323 9.98762C30.6768 9.94541 30.6062 9.92828 30.5376 9.94035C30.4689 9.95242 30.4085 9.99261 30.3707 10.0512L30.5809 10.1866ZM31.9609 10.9816L31.8698 11.2144L31.8742 11.2161L31.9609 10.9816ZM34.7659 10.9066L34.9046 11.1146L34.906 11.1136L34.7659 10.9066ZM35.1409 9.46657L34.9305 9.60184L34.9354 9.60888L35.1409 9.46657ZM34.7359 9.10657L34.6145 9.32511L34.7359 9.10657ZM34.0459 8.83657L33.9772 9.07695L34.0459 8.83657ZM33.0709 8.58157L33.009 8.82382L33.0118 8.82449L33.0709 8.58157ZM31.8559 8.23657L31.9329 7.99871L31.8559 8.23657ZM31.0159 7.84657L31.1567 7.64002L31.0159 7.84657ZM30.5359 7.30657L30.3102 7.41406L30.5359 7.30657ZM30.6109 5.49157L30.3887 5.3769L30.3873 5.37977L30.6109 5.49157ZM31.2559 4.72657L31.4047 4.92752L31.4094 4.92391L31.2559 4.72657ZM32.2009 4.26157L32.2678 4.50249L32.2721 4.50121L32.2009 4.26157ZM36.3259 5.13157L36.5254 5.28217C36.604 5.17802 36.5893 5.03094 36.4917 4.94443L36.3259 5.13157ZM35.7259 5.92657L35.5609 6.11436C35.6131 6.16026 35.6821 6.18234 35.7513 6.17528C35.8204 6.16823 35.8836 6.13268 35.9254 6.07717L35.7259 5.92657ZM34.6159 5.28157L34.53 5.51641L34.5351 5.51816L34.6159 5.28157ZM32.1259 5.37157L32.2555 5.58538L32.2573 5.58427L32.1259 5.37157ZM31.7209 6.79657L31.4973 6.90838C31.4997 6.91318 31.5022 6.9179 31.505 6.92254L31.7209 6.79657ZM32.6209 7.35157L32.5481 7.59076L32.5509 7.59157L32.6209 7.35157ZM33.4759 7.57657L33.417 7.81955L33.4197 7.82017L33.4759 7.57657ZM34.8259 7.95157L34.7449 8.18823L34.7524 8.19052L34.8259 7.95157ZM35.7859 8.38657L35.6453 8.59334L35.6491 8.59581L35.7859 8.38657ZM36.3559 8.98657L36.1341 9.10228L36.1383 9.10959L36.3559 8.98657ZM35.7109 11.5666L35.8632 11.7649L35.7109 11.5666ZM42.0584 11.7316L41.9217 11.9409L41.9236 11.9421L42.0584 11.7316ZM40.8884 10.5166L41.1035 10.3892C41.0461 10.2923 40.931 10.2457 40.8224 10.2754C40.7137 10.3052 40.6384 10.4039 40.6384 10.5166H40.8884ZM40.8884 15.2566V15.5066C41.0264 15.5066 41.1384 15.3946 41.1384 15.2566H40.8884ZM39.5684 15.2566H39.3184C39.3184 15.3946 39.4303 15.5066 39.5684 15.5066V15.2566ZM39.5684 4.23157V3.98157C39.4303 3.98157 39.3184 4.0935 39.3184 4.23157H39.5684ZM40.7384 4.23157H40.9884C40.9884 4.0935 40.8764 3.98157 40.7384 3.98157V4.23157ZM40.7384 5.70157H40.4884C40.4884 5.81241 40.5613 5.91002 40.6677 5.94137C40.774 5.97271 40.8882 5.93031 40.9484 5.8372L40.7384 5.70157ZM41.9384 4.54657L42.0657 4.76172L42.067 4.76095L41.9384 4.54657ZM45.0734 4.42657L44.9636 4.65117L45.0734 4.42657ZM46.2434 5.32657L46.0546 5.49051L46.0568 5.49298L46.2434 5.32657ZM47.0084 6.61657L46.7737 6.70279L46.7753 6.70695L47.0084 6.61657ZM47.0384 9.73657L47.2746 9.81852L47.2751 9.81705L47.0384 9.73657ZM46.3184 11.0266L46.5078 11.1897L46.51 11.1871L46.3184 11.0266ZM45.2084 11.8966L45.3181 12.1213L45.3222 12.1191L45.2084 11.8966ZM44.4284 10.8316L44.543 11.0537L44.5456 11.0524L44.4284 10.8316ZM45.2384 10.1716L45.0452 10.0129L45.0446 10.0137L45.2384 10.1716ZM45.7334 7.03657L45.5003 7.12719L45.5012 7.12942L45.7334 7.03657ZM45.1634 6.10657L44.9765 6.27269L44.9797 6.27614L45.1634 6.10657ZM44.3084 5.47657L44.1965 5.70033L44.2049 5.70416L44.3084 5.47657ZM42.5084 5.38657L42.5931 5.62185L42.5981 5.61991L42.5084 5.38657ZM41.7884 5.76157L41.9292 5.96814L41.9311 5.9668L41.7884 5.76157ZM41.2034 6.31657L41.0055 6.16371L41.0045 6.16506L41.2034 6.31657ZM40.8884 6.99157L40.6436 6.94058C40.6401 6.95735 40.6384 6.97444 40.6384 6.99157H40.8884ZM40.8884 9.22657H40.6384C40.6384 9.26004 40.6451 9.29316 40.6581 9.32398L40.8884 9.22657ZM41.3084 9.96157L41.1073 10.1102L41.1105 10.1144L41.3084 9.96157ZM41.8934 10.5466L41.7404 10.7445L41.7463 10.7488L41.8934 10.5466ZM42.5984 10.9366L42.5055 11.1688L42.5137 11.1718L42.5984 10.9366ZM50.4001 1.11157V0.861572C50.262 0.861572 50.1501 0.973501 50.1501 1.11157H50.4001ZM51.7201 1.11157H51.9701C51.9701 0.973501 51.8582 0.861572 51.7201 0.861572V1.11157ZM51.9451 10.7266L51.7577 10.892C51.7611 10.8959 51.7647 10.8997 51.7683 10.9033L51.9451 10.7266ZM52.9951 10.9216L53.0441 11.1667C53.0493 11.1657 53.0544 11.1645 53.0595 11.1631L52.9951 10.9216ZM53.4151 10.7866L53.6604 10.7382C53.6461 10.6658 53.6006 10.6034 53.536 10.5677C53.4713 10.532 53.3943 10.5267 53.3254 10.5532L53.4151 10.7866ZM53.6251 11.8516L53.7198 12.083C53.8304 12.0377 53.8935 11.9205 53.8704 11.8032L53.6251 11.8516ZM52.8451 12.0766L52.8941 12.3217L52.8451 12.0766ZM50.8351 11.7316L50.6583 11.9084L50.6614 11.9113L50.8351 11.7316ZM6.79651 11.9174L4.09651 8.0924L3.68802 8.38074L6.38802 12.2057L6.79651 11.9174ZM3.72104 8.05442L2.22104 9.46442L2.56349 9.82873L4.06349 8.41873L3.72104 8.05442ZM2.14227 9.64657V12.0616H2.64227V9.64657H2.14227ZM2.39227 11.8116H1.07227V12.3116H2.39227V11.8116ZM1.32227 12.0616V1.11157H0.822266V12.0616H1.32227ZM1.07227 1.36157H2.39227V0.861572H1.07227V1.36157ZM2.14227 1.11157V8.31157H2.64227V1.11157H2.14227ZM2.57002 8.48736L6.59002 4.42236L6.23451 4.07078L2.21451 8.13578L2.57002 8.48736ZM6.41227 4.49657H7.86727V3.99657H6.41227V4.49657ZM7.68719 4.07316L4.56719 7.31316L4.92735 7.65998L8.04735 4.41998L7.68719 4.07316ZM4.54388 7.63194L7.81388 12.2069L8.22065 11.9162L4.95065 7.3412L4.54388 7.63194ZM8.01727 11.8116H6.59227V12.3116H8.01727V11.8116ZM10.6443 1.36157H11.9643V0.861572H10.6443V1.36157ZM11.7143 1.11157V10.0366H12.2143V1.11157H11.7143ZM11.7143 10.0366C11.7143 10.37 11.8013 10.6647 12.0018 10.892L12.3767 10.5612C12.2773 10.4484 12.2143 10.2832 12.2143 10.0366H11.7143ZM12.0125 10.9033C12.23 11.1208 12.5196 11.2166 12.8493 11.2166V10.7166C12.6189 10.7166 12.4685 10.6523 12.366 10.5498L12.0125 10.9033ZM12.8493 11.2166C12.9807 11.2166 13.1279 11.1988 13.2883 11.1667L13.1902 10.6764C13.0506 10.7043 12.9378 10.7166 12.8493 10.7166V11.2166ZM13.3037 11.1631C13.4613 11.1211 13.6098 11.0734 13.749 11.0199L13.5695 10.5532C13.4487 10.5997 13.3172 10.642 13.1748 10.68L13.3037 11.1631ZM13.414 10.8349L13.624 11.8999L14.1145 11.8032L13.9045 10.7382L13.414 10.8349ZM13.7746 11.6202C13.5728 11.7027 13.3288 11.7737 13.0402 11.8314L13.1383 12.3217C13.4497 12.2594 13.7257 12.1804 13.9639 12.083L13.7746 11.6202ZM13.0402 11.8314C12.7514 11.8892 12.5034 11.9166 12.2943 11.9166V12.4166C12.5451 12.4166 12.8271 12.384 13.1383 12.3217L13.0402 11.8314ZM12.2943 11.9166C11.8338 11.9166 11.4965 11.7872 11.253 11.5518L10.9055 11.9113C11.262 12.256 11.7347 12.4166 12.2943 12.4166V11.9166ZM11.256 11.5548C11.0247 11.3234 10.8943 10.9889 10.8943 10.5166H10.3943C10.3943 11.0842 10.5539 11.5597 10.9025 11.9083L11.256 11.5548ZM10.8943 10.5166V1.11157H10.3943V10.5166H10.8943ZM16.5684 12.0616V4.23157H16.0684V12.0616H16.5684ZM16.3184 4.48157H17.6384V3.98157H16.3184V4.48157ZM17.3884 4.23157V12.0616H17.8884V4.23157H17.3884ZM17.6384 11.8116H16.3184V12.3116H17.6384V11.8116ZM16.5684 2.76157V1.11157H16.0684V2.76157H16.5684ZM16.3184 1.36157H17.6384V0.861572H16.3184V1.36157ZM17.3884 1.11157V2.76157H17.8884V1.11157H17.3884ZM17.6384 2.51157H16.3184V3.01157H17.6384V2.51157ZM26.9264 11.9174L24.2264 8.0924L23.8179 8.38074L26.5179 12.2057L26.9264 11.9174ZM23.8509 8.05442L22.3509 9.46442L22.6934 9.82873L24.1934 8.41873L23.8509 8.05442ZM22.2721 9.64657V12.0616H22.7721V9.64657H22.2721ZM22.5221 11.8116H21.2021V12.3116H22.5221V11.8116ZM21.4521 12.0616V1.11157H20.9521V12.0616H21.4521ZM21.2021 1.36157H22.5221V0.861572H21.2021V1.36157ZM22.2721 1.11157V8.31157H22.7721V1.11157H22.2721ZM22.6999 8.48736L26.7199 4.42236L26.3644 4.07078L22.3444 8.13578L22.6999 8.48736ZM26.5421 4.49657H27.9971V3.99657H26.5421V4.49657ZM27.8171 4.07316L24.6971 7.31316L25.0572 7.65998L28.1772 4.41998L27.8171 4.07316ZM24.6738 7.63194L27.9438 12.2069L28.3505 11.9162L25.0805 7.3412L24.6738 7.63194ZM28.1471 11.8116H26.7221V12.3116H28.1471V11.8116ZM33.4459 11.9616C32.8415 11.9616 32.2465 11.8705 31.6602 11.6879L31.5116 12.1653C32.1453 12.3627 32.7903 12.4616 33.4459 12.4616V11.9616ZM31.6638 11.689C31.0806 11.4978 30.5846 11.2274 30.1718 10.8802L29.85 11.2629C30.3172 11.6557 30.8712 11.9553 31.508 12.1641L31.6638 11.689ZM30.2211 11.2069L30.7911 10.3219L30.3707 10.0512L29.8007 10.9362L30.2211 11.2069ZM30.4295 10.3855C30.9049 10.7472 31.3849 11.0247 31.8698 11.2144L32.052 10.7488C31.6169 10.5785 31.1769 10.3259 30.7323 9.98762L30.4295 10.3855ZM31.8742 11.2161C32.3631 11.3967 32.8775 11.4866 33.4159 11.4866V10.9866C32.9343 10.9866 32.4787 10.9064 32.0476 10.7471L31.8742 11.2161ZM33.4159 11.4866C34.0147 11.4866 34.5192 11.3715 34.9046 11.1146L34.6272 10.6986C34.3526 10.8816 33.9571 10.9866 33.4159 10.9866V11.4866ZM34.906 11.1136C35.3146 10.8372 35.5259 10.4397 35.5259 9.94657H35.0259C35.0259 10.2735 34.8972 10.5159 34.6258 10.6995L34.906 11.1136ZM35.5259 9.94657C35.5259 9.71617 35.4708 9.50392 35.3464 9.32427L34.9354 9.60888C34.991 9.68923 35.0259 9.79698 35.0259 9.94657H35.5259ZM35.3512 9.33138C35.2342 9.1494 35.0649 9.00338 34.8573 8.88803L34.6145 9.32511C34.7669 9.40977 34.8676 9.50374 34.9306 9.60176L35.3512 9.33138ZM34.8573 8.88803C34.6553 8.77583 34.406 8.67946 34.1146 8.59619L33.9772 9.07695C34.2458 9.15368 34.4565 9.23732 34.6145 9.32511L34.8573 8.88803ZM34.1146 8.59619C33.8306 8.51506 33.5023 8.42922 33.13 8.33866L33.0118 8.82449C33.3795 8.91393 33.7012 8.99809 33.9772 9.07695L34.1146 8.59619ZM33.1327 8.33934C32.6662 8.22022 32.2665 8.10664 31.9329 7.99871L31.7789 8.47443C32.1253 8.5865 32.5356 8.70293 33.0091 8.8238L33.1327 8.33934ZM31.9329 7.99871C31.6083 7.89371 31.3516 7.7729 31.1567 7.64002L30.8751 8.05313C31.1202 8.22025 31.4235 8.35943 31.7789 8.47443L31.9329 7.99871ZM31.1567 7.64002C30.9679 7.51128 30.84 7.36364 30.7616 7.19909L30.3102 7.41406C30.4318 7.66951 30.6239 7.88187 30.8751 8.05313L31.1567 7.64002ZM30.7616 7.19909C30.682 7.0319 30.6359 6.81118 30.6359 6.52657H30.1359C30.1359 6.86197 30.1898 7.16125 30.3102 7.41406L30.7616 7.19909ZM30.6359 6.52657C30.6359 6.16907 30.7045 5.86343 30.8345 5.60338L30.3873 5.37977C30.2173 5.71972 30.1359 6.10407 30.1359 6.52657H30.6359ZM30.8331 5.60623C30.9762 5.32887 31.1666 5.10382 31.4047 4.92746L31.1071 4.52568C30.8052 4.74932 30.5656 5.03428 30.3887 5.37691L30.8331 5.60623ZM31.4094 4.92391C31.6514 4.73571 31.9363 4.59453 32.2678 4.50245L32.134 4.02069C31.7455 4.12861 31.4004 4.29743 31.1024 4.52923L31.4094 4.92391ZM32.2721 4.50121C32.6171 4.39866 32.9879 4.34657 33.3859 4.34657V3.84657C32.9439 3.84657 32.5247 3.90449 32.1297 4.02194L32.2721 4.50121ZM33.3859 4.34657C33.9486 4.34657 34.4688 4.43709 34.9486 4.61584L35.1232 4.1473C34.583 3.94606 34.0032 3.84657 33.3859 3.84657V4.34657ZM34.9486 4.61584C35.4344 4.79683 35.8366 5.03218 36.1601 5.31872L36.4917 4.94443C36.1152 4.61097 35.6574 4.34631 35.1232 4.1473L34.9486 4.61584ZM36.1263 4.98097L35.5264 5.77597L35.9254 6.07717L36.5254 5.28217L36.1263 4.98097ZM35.8909 5.73878C35.5367 5.42746 35.1381 5.19572 34.6967 5.04498L34.5351 5.51816C34.9137 5.64742 35.2551 5.84568 35.5609 6.11436L35.8909 5.73878ZM34.7018 5.04679C34.2647 4.88688 33.8157 4.80657 33.3559 4.80657V5.30657C33.7561 5.30657 34.1471 5.37626 34.53 5.51635L34.7018 5.04679ZM33.3559 4.80657C32.8389 4.80657 32.3813 4.91998 31.9945 5.15887L32.2573 5.58427C32.5505 5.40316 32.9129 5.30657 33.3559 5.30657V4.80657ZM31.9963 5.15777C31.578 5.41131 31.3809 5.8263 31.3809 6.34657H31.8809C31.8809 5.96684 32.0138 5.73183 32.2555 5.58537L31.9963 5.15777ZM31.3809 6.34657C31.3809 6.55273 31.415 6.74389 31.4973 6.90838L31.9445 6.68477C31.9067 6.60926 31.8809 6.50041 31.8809 6.34657H31.3809ZM31.505 6.92254C31.601 7.08713 31.7454 7.2198 31.9223 7.32595L32.1795 6.8972C32.0564 6.82334 31.9808 6.74601 31.9368 6.6706L31.505 6.92254ZM31.9223 7.32595C32.095 7.42955 32.3053 7.51684 32.5481 7.59074L32.6937 7.1124C32.4765 7.04631 32.3068 6.97359 32.1795 6.8972L31.9223 7.32595ZM32.5509 7.59157C32.7956 7.66295 33.0845 7.73893 33.417 7.81953L33.5348 7.33361C33.2073 7.25422 32.9262 7.1802 32.6909 7.11157L32.5509 7.59157ZM33.4197 7.82017C33.9339 7.93883 34.3752 8.06162 34.745 8.18811L34.9068 7.71503C34.5166 7.58153 34.0579 7.45432 33.5321 7.33297L33.4197 7.82017ZM34.7524 8.19052C35.1263 8.30557 35.4217 8.44125 35.6453 8.5933L35.9265 8.17984C35.6501 7.99189 35.3055 7.83758 34.8994 7.71263L34.7524 8.19052ZM35.6491 8.59581C35.8803 8.74701 36.0376 8.917 36.1343 9.10221L36.5775 8.87093C36.4342 8.59614 36.2115 8.36613 35.9227 8.17733L35.6491 8.59581ZM36.1383 9.10959C36.2424 9.2938 36.3009 9.52909 36.3009 9.82657H36.8009C36.8009 9.46406 36.7294 9.13934 36.5735 8.86356L36.1383 9.10959ZM36.3009 9.82657C36.3009 10.482 36.0546 10.9874 35.5586 11.3683L35.8632 11.7649C36.4872 11.2857 36.8009 10.6312 36.8009 9.82657H36.3009ZM35.5586 11.3683C35.0552 11.7548 34.3597 11.9616 33.4459 11.9616V12.4616C34.4321 12.4616 35.2466 12.2383 35.8632 11.7649L35.5586 11.3683ZM43.7834 11.9616C43.1764 11.9616 42.6491 11.8128 42.1931 11.521L41.9236 11.9421C42.4676 12.2903 43.0903 12.4616 43.7834 12.4616V11.9616ZM42.1951 11.5223C41.7362 11.2226 41.3734 10.8453 41.1035 10.3892L40.6732 10.6439C40.9833 11.1678 41.4005 11.6005 41.9217 11.9409L42.1951 11.5223ZM40.6384 10.5166V15.2566H41.1384V10.5166H40.6384ZM40.8884 15.0066H39.5684V15.5066H40.8884V15.0066ZM39.8184 15.2566V4.23157H39.3184V15.2566H39.8184ZM39.5684 4.48157H40.7384V3.98157H39.5684V4.48157ZM40.4884 4.23157V5.70157H40.9884V4.23157H40.4884ZM40.9484 5.8372C41.2374 5.38964 41.6092 5.03191 42.0657 4.76172L41.811 4.33143C41.2876 4.64124 40.8593 5.05351 40.5283 5.56594L40.9484 5.8372ZM42.067 4.76095C42.527 4.48496 43.0323 4.34657 43.5884 4.34657V3.84657C42.9444 3.84657 42.3498 4.00819 41.8097 4.3322L42.067 4.76095ZM43.5884 4.34657C44.0933 4.34657 44.5504 4.44917 44.9636 4.65117L45.1832 4.20198C44.6964 3.96398 44.1634 3.84657 43.5884 3.84657V4.34657ZM44.9636 4.65117C45.3833 4.85637 45.7465 5.13568 46.0546 5.49049L46.4321 5.16265C46.0802 4.75746 45.6634 4.43677 45.1832 4.20198L44.9636 4.65117ZM46.0568 5.49298C46.3648 5.83828 46.604 6.24071 46.7737 6.70278L47.243 6.53037C47.0528 6.01243 46.782 5.55487 46.4299 5.16017L46.0568 5.49298ZM46.7753 6.70695C46.954 7.16788 47.0434 7.64722 47.0434 8.14657H47.5434C47.5434 7.58593 47.4427 7.04526 47.2414 6.52619L46.7753 6.70695ZM47.0434 8.14657C47.0434 8.68086 46.9623 9.18354 46.8017 9.6561L47.2751 9.81705C47.4544 9.2896 47.5434 8.73228 47.5434 8.14657H47.0434ZM46.8022 9.65463C46.6414 10.1181 46.4158 10.521 46.1267 10.866L46.51 11.1871C46.8409 10.7922 47.0953 10.3351 47.2745 9.81852L46.8022 9.65463ZM46.1289 10.8634C45.8404 11.1985 45.4962 11.4685 45.0945 11.674L45.3222 12.1191C45.7805 11.8847 46.1763 11.5746 46.5078 11.1897L46.1289 10.8634ZM45.0986 11.6719C44.7057 11.8638 44.2687 11.9616 43.7834 11.9616V12.4616C44.338 12.4616 44.851 12.3493 45.3181 12.1212L45.0986 11.6719ZM43.3784 11.3216C43.8035 11.3216 44.1936 11.2341 44.543 11.0537L44.3137 10.6094C44.0432 10.7491 43.7332 10.8216 43.3784 10.8216V11.3216ZM44.5456 11.0524C44.8939 10.8674 45.1903 10.6264 45.4322 10.3295L45.0446 10.0137C44.8465 10.2568 44.6028 10.4558 44.3111 10.6108L44.5456 11.0524ZM45.4315 10.3303C45.6809 10.0267 45.8704 9.68529 45.9998 9.30765L45.5269 9.14549C45.4163 9.46785 45.2558 9.75645 45.0452 10.0129L45.4315 10.3303ZM45.9998 9.30765C46.1288 8.93156 46.1934 8.54416 46.1934 8.14657H45.6934C45.6934 8.48898 45.6379 8.82159 45.5269 9.14549L45.9998 9.30765ZM46.1934 8.14657C46.1934 7.72589 46.1177 7.32428 45.9655 6.94372L45.5012 7.12942C45.629 7.44887 45.6934 7.78726 45.6934 8.14657H46.1934ZM45.9664 6.94596C45.8161 6.55947 45.6102 6.22203 45.3471 5.937L44.9797 6.27614C45.1966 6.51112 45.3707 6.79367 45.5004 7.12718L45.9664 6.94596ZM45.3502 5.94048C45.0869 5.64429 44.7735 5.41338 44.4118 5.24898L44.2049 5.70416C44.5032 5.83977 44.7598 6.02886 44.9765 6.27266L45.3502 5.94048ZM44.4202 5.25297C44.0633 5.07454 43.6747 4.98657 43.2584 4.98657V5.48657C43.602 5.48657 43.9134 5.55861 44.1966 5.70018L44.4202 5.25297ZM43.2584 4.98657C42.9832 4.98657 42.7027 5.04396 42.4186 5.15324L42.5981 5.61991C42.834 5.52918 43.0535 5.48657 43.2584 5.48657V4.98657ZM42.4237 5.15135C42.152 5.24916 41.8926 5.38453 41.6456 5.55635L41.9311 5.9668C42.1441 5.81862 42.3647 5.70399 42.593 5.62179L42.4237 5.15135ZM41.6475 5.55502C41.4049 5.72045 41.1909 5.92385 41.0055 6.16371L41.4012 6.46943C41.5558 6.26929 41.7318 6.10269 41.9292 5.96813L41.6475 5.55502ZM41.0045 6.16506C40.8237 6.4024 40.7018 6.66132 40.6436 6.94058L41.1331 7.04256C41.1749 6.84183 41.263 6.65074 41.4022 6.46808L41.0045 6.16506ZM40.6384 6.99157V9.22657H41.1384V6.99157H40.6384ZM40.6581 9.32398C40.7759 9.60237 40.9258 9.86453 41.1073 10.1102L41.5094 9.81297C41.351 9.59862 41.2208 9.37077 41.1186 9.12916L40.6581 9.32398ZM41.1105 10.1144C41.2936 10.3513 41.5037 10.5614 41.7405 10.7444L42.0462 10.3488C41.8431 10.1918 41.6632 10.0119 41.5062 9.80871L41.1105 10.1144ZM41.7463 10.7488C41.9829 10.9208 42.2361 11.0609 42.5055 11.1687L42.6912 10.7045C42.4606 10.6122 42.2438 10.4923 42.0404 10.3444L41.7463 10.7488ZM42.5137 11.1718C42.7913 11.2717 43.08 11.3216 43.3784 11.3216V10.8216C43.1368 10.8216 42.9054 10.7814 42.683 10.7014L42.5137 11.1718ZM50.4001 1.36157H51.7201V0.861572H50.4001V1.36157ZM51.4701 1.11157V10.0366H51.9701V1.11157H51.4701ZM51.4701 10.0366C51.4701 10.37 51.5571 10.6647 51.7577 10.892L52.1326 10.5612C52.0331 10.4484 51.9701 10.2832 51.9701 10.0366H51.4701ZM51.7683 10.9033C51.9858 11.1208 52.2755 11.2166 52.6051 11.2166V10.7166C52.3747 10.7166 52.2244 10.6523 52.1219 10.5498L51.7683 10.9033ZM52.6051 11.2166C52.7366 11.2166 52.8838 11.1988 53.0441 11.1667L52.9461 10.6764C52.8065 10.7043 52.6937 10.7166 52.6051 10.7166V11.2166ZM53.0595 11.1631C53.2172 11.1211 53.3657 11.0734 53.5049 11.0199L53.3254 10.5532C53.2045 10.5997 53.0731 10.642 52.9307 10.68L53.0595 11.1631ZM53.1698 10.8349L53.3798 11.8999L53.8704 11.8032L53.6604 10.7382L53.1698 10.8349ZM53.5305 11.6202C53.3287 11.7027 53.0847 11.7737 52.7961 11.8314L52.8941 12.3217C53.2056 12.2594 53.4815 12.1804 53.7198 12.083L53.5305 11.6202ZM52.7961 11.8314C52.5073 11.8892 52.2593 11.9166 52.0501 11.9166V12.4166C52.3009 12.4166 52.5829 12.384 52.8941 12.3217L52.7961 11.8314ZM52.0501 11.9166C51.5897 11.9166 51.2523 11.7872 51.0089 11.5518L50.6614 11.9113C51.0179 12.256 51.4905 12.4166 52.0501 12.4166V11.9166ZM51.0119 11.5548C50.7805 11.3234 50.6501 10.9889 50.6501 10.5166H50.1501C50.1501 11.0842 50.3097 11.5597 50.6583 11.9083L51.0119 11.5548ZM50.6501 10.5166V1.11157H50.1501V10.5166H50.6501Z" fill="#DB162F"/>
<path d="M66.6689 8.13156C66.6689 7.58156 66.7639 7.06156 66.9539 6.57156C67.1439 6.08156 67.4139 5.65656 67.7639 5.29656C68.1139 4.92656 68.5289 4.63656 69.0089 4.42656C69.4989 4.20656 70.0439 4.09656 70.6439 4.09656C71.4239 4.09656 72.0939 4.27156 72.6539 4.62156C73.2239 4.96156 73.6539 5.42156 73.9439 6.00156L72.6539 6.40656C72.4539 6.03656 72.1739 5.75156 71.8139 5.55156C71.4539 5.34156 71.0539 5.23656 70.6139 5.23656C70.2539 5.23656 69.9139 5.31156 69.5939 5.46156C69.2739 5.60156 68.9989 5.80156 68.7689 6.06156C68.5389 6.32156 68.3539 6.62656 68.2139 6.97656C68.0839 7.32656 68.0189 7.71156 68.0189 8.13156C68.0189 8.54156 68.0889 8.92656 68.2289 9.28656C68.3689 9.64656 68.5539 9.96156 68.7839 10.2316C69.0239 10.4916 69.2989 10.6966 69.6089 10.8466C69.9289 10.9966 70.2689 11.0716 70.6289 11.0716C70.8589 11.0716 71.0839 11.0416 71.3039 10.9816C71.5339 10.9116 71.7389 10.8216 71.9189 10.7116C72.1089 10.6016 72.2739 10.4766 72.4139 10.3366C72.5539 10.1866 72.6539 10.0266 72.7139 9.85656L74.0039 10.2466C73.8839 10.5366 73.7139 10.8016 73.4939 11.0416C73.2839 11.2816 73.0339 11.4866 72.7439 11.6566C72.4539 11.8266 72.1289 11.9616 71.7689 12.0616C71.4189 12.1616 71.0489 12.2116 70.6589 12.2116C70.0689 12.2116 69.5289 12.1016 69.0389 11.8816C68.5489 11.6616 68.1289 11.3666 67.7789 10.9966C67.4289 10.6266 67.1539 10.1966 66.9539 9.70656C66.7639 9.20656 66.6689 8.68156 66.6689 8.13156Z" fill="#012252"/>
<path d="M80.3317 12.2116C79.7417 12.2116 79.2017 12.1016 78.7117 11.8816C78.2317 11.6616 77.8167 11.3666 77.4667 10.9966C77.1267 10.6266 76.8617 10.1966 76.6717 9.70656C76.4817 9.21656 76.3867 8.70156 76.3867 8.16156C76.3867 7.61156 76.4817 7.09156 76.6717 6.60156C76.8717 6.11156 77.1417 5.68156 77.4817 5.31156C77.8317 4.94156 78.2467 4.64656 78.7267 4.42656C79.2167 4.20656 79.7517 4.09656 80.3317 4.09656C80.9117 4.09656 81.4467 4.20656 81.9367 4.42656C82.4267 4.64656 82.8417 4.94156 83.1817 5.31156C83.5317 5.68156 83.8017 6.11156 83.9917 6.60156C84.1917 7.09156 84.2917 7.61156 84.2917 8.16156C84.2917 8.70156 84.1967 9.21656 84.0067 9.70656C83.8167 10.1966 83.5467 10.6266 83.1967 10.9966C82.8467 11.3666 82.4267 11.6616 81.9367 11.8816C81.4567 12.1016 80.9217 12.2116 80.3317 12.2116ZM77.7367 8.17656C77.7367 8.58656 77.8017 8.96656 77.9317 9.31656C78.0717 9.66656 78.2567 9.97156 78.4867 10.2316C78.7267 10.4916 79.0017 10.6966 79.3117 10.8466C79.6317 10.9966 79.9717 11.0716 80.3317 11.0716C80.6917 11.0716 81.0267 10.9966 81.3367 10.8466C81.6567 10.6966 81.9367 10.4916 82.1767 10.2316C82.4167 9.96156 82.6017 9.65156 82.7317 9.30156C82.8717 8.94156 82.9417 8.55656 82.9417 8.14656C82.9417 7.74656 82.8717 7.37156 82.7317 7.02156C82.6017 6.66156 82.4167 6.35156 82.1767 6.09156C81.9367 5.82156 81.6567 5.61156 81.3367 5.46156C81.0267 5.31156 80.6917 5.23656 80.3317 5.23656C79.9717 5.23656 79.6317 5.31656 79.3117 5.47656C79.0017 5.62656 78.7267 5.83656 78.4867 6.10656C78.2567 6.36656 78.0717 6.67656 77.9317 7.03656C77.8017 7.38656 77.7367 7.76656 77.7367 8.17656Z" fill="#012252"/>
<path d="M99.1517 12.0616H97.8317V7.68156C97.8317 6.86156 97.6967 6.25656 97.4267 5.86656C97.1667 5.47656 96.7767 5.28156 96.2567 5.28156C95.7167 5.28156 95.2317 5.47656 94.8017 5.86656C94.3817 6.24656 94.0817 6.74156 93.9017 7.35156V12.0616H92.5817V7.68156C92.5817 6.84156 92.4517 6.23156 92.1917 5.85156C91.9317 5.47156 91.5417 5.28156 91.0217 5.28156C90.4917 5.28156 90.0117 5.47156 89.5817 5.85156C89.1517 6.22156 88.8467 6.71656 88.6667 7.33656V12.0616H87.3467V4.23156H88.5467V5.91156C88.8667 5.33156 89.2817 4.88656 89.7917 4.57656C90.3017 4.25656 90.8767 4.09656 91.5167 4.09656C92.1767 4.09656 92.6967 4.27656 93.0767 4.63656C93.4667 4.98656 93.7067 5.44156 93.7967 6.00156C94.4967 4.73156 95.4917 4.09656 96.7817 4.09656C97.2317 4.09656 97.6067 4.18156 97.9067 4.35156C98.2167 4.51156 98.4617 4.74156 98.6417 5.04156C98.8217 5.33156 98.9517 5.67656 99.0317 6.07656C99.1117 6.47656 99.1517 6.91156 99.1517 7.38156V12.0616Z" fill="#012252"/>
<path d="M66.9539 6.57156L66.7209 6.48118L66.9539 6.57156ZM67.7639 5.29656L67.9432 5.47084L67.9456 5.46836L67.7639 5.29656ZM69.0089 4.42656L69.1092 4.65561L69.1113 4.65463L69.0089 4.42656ZM72.6539 4.62156L72.5214 4.8336L72.5259 4.83626L72.6539 4.62156ZM73.9439 6.00156L74.0188 6.24008C74.0887 6.21814 74.1454 6.16667 74.1741 6.09925C74.2027 6.03184 74.2003 5.95526 74.1676 5.88975L73.9439 6.00156ZM72.6539 6.40656L72.434 6.52544C72.491 6.63077 72.6146 6.68095 72.7288 6.64508L72.6539 6.40656ZM71.8139 5.55156L71.6879 5.76755L71.6925 5.7701L71.8139 5.55156ZM69.5939 5.46156L69.6942 5.69067L69.7001 5.68792L69.5939 5.46156ZM68.7689 6.06156L68.9562 6.2272L68.7689 6.06156ZM68.2139 6.97656L67.9818 6.88368L67.9796 6.88951L68.2139 6.97656ZM68.2289 9.28656L67.9959 9.37717L68.2289 9.28656ZM68.7839 10.2316L68.5935 10.3938L68.6002 10.4011L68.7839 10.2316ZM69.6089 10.8466L69.5 11.0716L69.5028 11.0729L69.6089 10.8466ZM71.3039 10.9816L71.3698 11.2229L71.3767 11.2207L71.3039 10.9816ZM71.9189 10.7116L71.7937 10.4951L71.7886 10.4982L71.9189 10.7116ZM72.4139 10.3366L72.5908 10.5134L72.5967 10.5071L72.4139 10.3366ZM72.7139 9.85656L72.7863 9.61725C72.6584 9.57858 72.5227 9.64734 72.4782 9.77335L72.7139 9.85656ZM74.0039 10.2466L74.2349 10.3421C74.2619 10.2769 74.2601 10.2033 74.2299 10.1395C74.1997 10.0757 74.1439 10.0277 74.0763 10.0073L74.0039 10.2466ZM73.4939 11.0416L73.3096 10.8726L73.3058 10.8769L73.4939 11.0416ZM72.7439 11.6566L72.6175 11.4409L72.7439 11.6566ZM71.7689 12.0616L71.702 11.8207L71.7003 11.8212L71.7689 12.0616ZM69.0389 11.8816L68.9365 12.1096L69.0389 11.8816ZM67.7789 10.9966L67.9606 10.8248L67.7789 10.9966ZM66.9539 9.70656L66.7202 9.79539L66.7225 9.80103L66.9539 9.70656ZM78.7117 11.8816L78.6076 12.1088L78.6093 12.1096L78.7117 11.8816ZM77.4667 10.9966L77.2826 11.1657L77.2851 11.1684L77.4667 10.9966ZM76.6717 9.70656L76.9048 9.61618L76.6717 9.70656ZM76.6717 6.60156L76.4402 6.50707L76.4386 6.51118L76.6717 6.60156ZM77.4817 5.31156L77.3001 5.13974L77.2976 5.1424L77.4817 5.31156ZM78.7267 4.42656L78.6243 4.19848L78.6226 4.19929L78.7267 4.42656ZM81.9367 4.42656L81.8343 4.65463L81.9367 4.42656ZM83.1817 5.31156L82.9976 5.48073L83.0001 5.48336L83.1817 5.31156ZM83.9917 6.60156L83.7586 6.69195L83.7603 6.69603L83.9917 6.60156ZM84.0067 9.70656L84.2398 9.79694L84.0067 9.70656ZM83.1967 10.9966L83.0151 10.8248L83.1967 10.9966ZM81.9367 11.8816L81.8343 11.6535L81.8326 11.6543L81.9367 11.8816ZM77.9317 9.31656L77.6973 9.40363L77.6996 9.40941L77.9317 9.31656ZM78.4867 10.2316L78.2994 10.3972L78.303 10.4011L78.4867 10.2316ZM79.3117 10.8466L79.2028 11.0716L79.2056 11.0729L79.3117 10.8466ZM81.3367 10.8466L81.2306 10.6202L81.2278 10.6215L81.3367 10.8466ZM82.1767 10.2316L82.3605 10.4012L82.3636 10.3976L82.1767 10.2316ZM82.7317 9.30156L82.4987 9.21094L82.4974 9.21451L82.7317 9.30156ZM82.7317 7.02156L82.4964 7.10652L82.4996 7.11441L82.7317 7.02156ZM82.1767 6.09156L81.9898 6.25768L81.993 6.26113L82.1767 6.09156ZM81.3367 5.46156L81.2278 5.68661L81.2306 5.68792L81.3367 5.46156ZM79.3117 5.47656L79.4206 5.70162L79.4235 5.70016L79.3117 5.47656ZM78.4867 6.10656L78.2999 5.94047L78.2995 5.94091L78.4867 6.10656ZM77.9317 7.03656L77.6987 6.94594L77.6974 6.94951L77.9317 7.03656ZM99.1516 12.0616V12.3116C99.2896 12.3116 99.4016 12.1996 99.4016 12.0616H99.1516ZM97.8316 12.0616H97.5816C97.5816 12.1996 97.6935 12.3116 97.8316 12.3116V12.0616ZM97.4266 5.86656L97.2185 6.00525L97.221 6.00886L97.4266 5.86656ZM94.8016 5.86656L94.9693 6.05194L94.9695 6.05174L94.8016 5.86656ZM93.9016 7.35156L93.6618 7.2808C93.655 7.30378 93.6516 7.32761 93.6516 7.35156H93.9016ZM93.9016 12.0616V12.3116C94.0396 12.3116 94.1516 12.1996 94.1516 12.0616H93.9016ZM92.5816 12.0616H92.3316C92.3316 12.1996 92.4435 12.3116 92.5816 12.3116V12.0616ZM92.1916 5.85156L92.3979 5.71039L92.1916 5.85156ZM89.5816 5.85156L89.7446 6.04108L89.7471 6.03889L89.5816 5.85156ZM88.6666 7.33656L88.4265 7.26685C88.4199 7.28951 88.4166 7.31297 88.4166 7.33656H88.6666ZM88.6666 12.0616V12.3116C88.8046 12.3116 88.9166 12.1996 88.9166 12.0616H88.6666ZM87.3466 12.0616H87.0966C87.0966 12.1996 87.2085 12.3116 87.3466 12.3116V12.0616ZM87.3466 4.23156V3.98156C87.2085 3.98156 87.0966 4.09349 87.0966 4.23156H87.3466ZM88.5466 4.23156H88.7966C88.7966 4.09349 88.6846 3.98156 88.5466 3.98156V4.23156ZM88.5466 5.91156H88.2966C88.2966 6.02561 88.3738 6.12521 88.4842 6.15366C88.5947 6.1821 88.7104 6.13219 88.7655 6.03233L88.5466 5.91156ZM89.7916 4.57656L89.9214 4.79021L89.9244 4.78832L89.7916 4.57656ZM93.0766 4.63656L92.9046 4.81811L92.9096 4.82262L93.0766 4.63656ZM93.7966 6.00156L93.5497 6.04123C93.5667 6.14658 93.6486 6.22958 93.7537 6.24786C93.8589 6.26614 93.964 6.21569 94.0155 6.12224L93.7966 6.00156ZM97.9066 4.35156L97.7832 4.56923L97.7919 4.57371L97.9066 4.35156ZM98.6416 5.04156L98.4272 5.1702L98.4292 5.1734L98.6416 5.04156ZM66.9189 8.13156C66.9189 7.61101 67.0087 7.12179 67.187 6.66194L66.7209 6.48118C66.5192 7.00133 66.4189 7.5521 66.4189 8.13156H66.9189ZM67.187 6.66194C67.3655 6.20174 67.6177 5.80564 67.9432 5.47083L67.5847 5.12229C67.2102 5.50747 66.9224 5.96137 66.7209 6.48118L67.187 6.66194ZM67.9456 5.46836C68.2719 5.12341 68.6589 4.85256 69.1091 4.6556L68.9087 4.19752C68.3989 4.42055 67.956 4.72971 67.5823 5.12476L67.9456 5.46836ZM69.1113 4.65463C69.5656 4.45069 70.0751 4.34656 70.6439 4.34656V3.84656C70.0128 3.84656 69.4323 3.96242 68.9065 4.19849L69.1113 4.65463ZM70.6439 4.34656C71.3857 4.34656 72.0079 4.51258 72.5214 4.83356L72.7864 4.40956C72.18 4.03053 71.4622 3.84656 70.6439 3.84656V4.34656ZM72.5259 4.83626C73.0559 5.1524 73.4522 5.57713 73.7203 6.11336L74.1676 5.88975C73.8557 5.26598 73.392 4.77071 72.782 4.40685L72.5259 4.83626ZM73.8691 5.76304L72.5791 6.16804L72.7288 6.64508L74.0188 6.24008L73.8691 5.76304ZM72.8739 6.28768C72.6517 5.87669 72.338 5.55668 71.9354 5.33302L71.6925 5.7701C72.0099 5.94643 72.2562 6.19642 72.434 6.52544L72.8739 6.28768ZM71.9399 5.33561C71.5395 5.10205 71.0956 4.98656 70.6139 4.98656V5.48656C71.0122 5.48656 71.3684 5.58106 71.688 5.7675L71.9399 5.33561ZM70.6139 4.98656C70.218 4.98656 69.8417 5.06933 69.4878 5.23519L69.7001 5.68792C69.9862 5.55379 70.2899 5.48656 70.6139 5.48656V4.98656ZM69.4937 5.23252C69.1407 5.38698 68.8359 5.60854 68.5817 5.89591L68.9562 6.2272C69.162 5.99458 69.4072 5.81613 69.6941 5.6906L69.4937 5.23252ZM68.5817 5.89591C68.3311 6.1792 68.1316 6.50934 67.9818 6.88371L68.4461 7.06941C68.5763 6.74378 68.7468 6.46392 68.9562 6.2272L68.5817 5.89591ZM67.9796 6.88951C67.838 7.27062 67.7689 7.68553 67.7689 8.13156H68.2689C68.2689 7.73759 68.3299 7.38249 68.4483 7.0636L67.9796 6.88951ZM67.7689 8.13156C67.7689 8.57063 67.844 8.98654 67.9959 9.37717L68.4619 9.19595C68.3339 8.86658 68.2689 8.51249 68.2689 8.13156H67.7689ZM67.9959 9.37717C68.1452 9.76091 68.344 10.1006 68.5936 10.3937L68.9743 10.0694C68.7639 9.82254 68.5927 9.53221 68.4619 9.19595L67.9959 9.37717ZM68.6002 10.4011C68.8609 10.6835 69.1611 10.9076 69.5001 11.0716L69.7178 10.6215C69.4368 10.4855 69.187 10.2996 68.9676 10.062L68.6002 10.4011ZM69.5028 11.0729C69.8567 11.2388 70.233 11.3216 70.6289 11.3216V10.8216C70.3049 10.8216 70.0012 10.7543 69.7151 10.6202L69.5028 11.0729ZM70.6289 11.3216C70.881 11.3216 71.1281 11.2886 71.3697 11.2227L71.2382 10.7404C71.0398 10.7945 70.8369 10.8216 70.6289 10.8216V11.3216ZM71.3767 11.2207C71.6242 11.1454 71.849 11.0473 72.0493 10.9249L71.7886 10.4982C71.6289 10.5958 71.4437 10.6777 71.2312 10.7424L71.3767 11.2207ZM72.0442 10.9279C72.251 10.8082 72.4338 10.6703 72.5907 10.5133L72.2372 10.1598C72.1141 10.2828 71.9669 10.3949 71.7937 10.4952L72.0442 10.9279ZM72.5967 10.5071C72.757 10.3354 72.8768 10.1464 72.9497 9.93976L72.4782 9.77335C72.4311 9.9067 72.3509 10.0377 72.2312 10.166L72.5967 10.5071ZM72.6416 10.0959L73.9316 10.4859L74.0763 10.0073L72.7863 9.61725L72.6416 10.0959ZM73.7729 10.151C73.6645 10.413 73.5107 10.6533 73.3097 10.8726L73.6782 11.2105C73.9172 10.9498 74.1034 10.6601 74.2349 10.3421L73.7729 10.151ZM73.3058 10.8769C73.1144 11.0956 72.8856 11.2837 72.6175 11.4409L72.8704 11.8722C73.1823 11.6894 73.4535 11.4675 73.6821 11.2062L73.3058 10.8769ZM72.6175 11.4409C72.3481 11.5988 72.0435 11.7258 71.702 11.8207L71.8359 12.3024C72.2144 12.1973 72.5598 12.0543 72.8704 11.8722L72.6175 11.4409ZM71.7003 11.8212C71.3741 11.9144 71.0274 11.9616 70.6589 11.9616V12.4616C71.0705 12.4616 71.4638 12.4088 71.8376 12.3019L71.7003 11.8212ZM70.6589 11.9616C70.1007 11.9616 69.5961 11.8577 69.1413 11.6535L68.9365 12.1096C69.4618 12.3455 70.0372 12.4616 70.6589 12.4616V11.9616ZM69.1413 11.6535C68.6795 11.4461 68.2869 11.1697 67.9606 10.8248L67.5973 11.1684C67.971 11.5634 68.4184 11.877 68.9365 12.1096L69.1413 11.6535ZM67.9606 10.8248C67.6326 10.4781 67.3742 10.0746 67.1854 9.61208L66.7225 9.80103C66.9337 10.3185 67.2252 10.775 67.5973 11.1684L67.9606 10.8248ZM67.1876 9.61775C67.0087 9.14692 66.9189 8.65208 66.9189 8.13156H66.4189C66.4189 8.71103 66.5192 9.26619 66.7202 9.79536L67.1876 9.61775ZM80.3317 11.9616C79.7735 11.9616 79.2689 11.8577 78.8141 11.6535L78.6093 12.1096C79.1346 12.3455 79.7099 12.4616 80.3317 12.4616V11.9616ZM78.8159 11.6543C78.3639 11.4471 77.9755 11.1706 77.6483 10.8248L77.2851 11.1684C77.6579 11.5625 78.0995 11.876 78.6076 12.1088L78.8159 11.6543ZM77.6508 10.8274C77.3329 10.4814 77.0841 10.0784 76.9048 9.61618L76.4386 9.79694C76.6394 10.3147 76.9206 10.7717 77.2826 11.1657L77.6508 10.8274ZM76.9048 9.61618C76.7263 9.1558 76.6367 8.67151 76.6367 8.16156H76.1367C76.1367 8.73161 76.2371 9.27732 76.4386 9.79694L76.9048 9.61618ZM76.6367 8.16156C76.6367 7.64101 76.7265 7.15179 76.9048 6.69194L76.4386 6.51118C76.2369 7.03133 76.1367 7.5821 76.1367 8.16156H76.6367ZM76.9032 6.69603C77.0926 6.23206 77.347 5.82769 77.6658 5.48071L77.2976 5.1424C76.9365 5.53543 76.6509 5.99105 76.4403 6.50708L76.9032 6.69603ZM77.6633 5.48336C77.9905 5.1375 78.3789 4.86097 78.8309 4.65382L78.6226 4.19929C78.1145 4.43215 77.6729 4.74562 77.3001 5.13976L77.6633 5.48336ZM78.8291 4.65463C79.2844 4.45021 79.7842 4.34656 80.3317 4.34656V3.84656C79.7193 3.84656 79.149 3.96291 78.6243 4.19849L78.8291 4.65463ZM80.3317 4.34656C80.8793 4.34656 81.379 4.45021 81.8343 4.65463L82.0391 4.19849C81.5144 3.96291 80.9442 3.84656 80.3317 3.84656V4.34656ZM81.8343 4.65463C82.2955 4.8617 82.6821 5.13738 82.9976 5.48071L83.3658 5.1424C83.0013 4.74574 82.5579 4.43141 82.0391 4.19849L81.8343 4.65463ZM83.0001 5.48336C83.3271 5.82906 83.58 6.23118 83.7586 6.69194L84.2248 6.51118C84.0235 5.99194 83.7363 5.53406 83.3633 5.13976L83.0001 5.48336ZM83.7603 6.69603C83.9475 7.15486 84.0417 7.64266 84.0417 8.16156H84.5417C84.5417 7.58046 84.4359 7.02825 84.2232 6.50708L83.7603 6.69603ZM84.0417 8.16156C84.0417 8.67151 83.9521 9.1558 83.7736 9.61618L84.2398 9.79694C84.4413 9.27732 84.5417 8.73161 84.5417 8.16156H84.0417ZM83.7736 9.61618C83.595 10.0769 83.3421 10.4791 83.0151 10.8248L83.3783 11.1684C83.7513 10.7741 84.0385 10.3162 84.2398 9.79694L83.7736 9.61618ZM83.0151 10.8248C82.6888 11.1697 82.2961 11.4461 81.8343 11.6535L82.0391 12.1096C82.5573 11.877 83.0047 11.5634 83.3783 11.1684L83.0151 10.8248ZM81.8326 11.6543C81.3889 11.8576 80.89 11.9616 80.3317 11.9616V12.4616C80.9534 12.4616 81.5246 12.3455 82.0409 12.1088L81.8326 11.6543ZM77.4867 8.17656C77.4867 8.61336 77.556 9.02314 77.6974 9.4036L78.1661 9.22951C78.0474 8.90997 77.9867 8.55976 77.9867 8.17656H77.4867ZM77.6996 9.40941C77.8493 9.78378 78.0489 10.1139 78.2995 10.3972L78.674 10.0659C78.4646 9.8292 78.2941 9.54934 78.1638 9.22371L77.6996 9.40941ZM78.303 10.4011C78.5637 10.6835 78.8639 10.9076 79.2028 11.0716L79.4206 10.6215C79.1396 10.4855 78.8898 10.2996 78.6704 10.062L78.303 10.4011ZM79.2056 11.0729C79.5595 11.2388 79.9358 11.3216 80.3317 11.3216V10.8216C80.0077 10.8216 79.704 10.7543 79.4178 10.6202L79.2056 11.0729ZM80.3317 11.3216C80.7277 11.3216 81.1001 11.2388 81.4456 11.0716L81.2278 10.6215C80.9533 10.7543 80.6558 10.8216 80.3317 10.8216V11.3216ZM81.4428 11.0729C81.7922 10.9092 82.0985 10.6849 82.3604 10.4011L81.993 10.062C81.7749 10.2982 81.5213 10.4839 81.2306 10.6202L81.4428 11.0729ZM82.3636 10.3976C82.6249 10.1037 82.8256 9.76668 82.9661 9.3886L82.4974 9.21451C82.3778 9.53644 82.2086 9.81942 81.9899 10.0655L82.3636 10.3976ZM82.9647 9.39217C83.1166 9.00154 83.1917 8.58563 83.1917 8.14656H82.6917C82.6917 8.52749 82.6268 8.88158 82.4987 9.21095L82.9647 9.39217ZM83.1917 8.14656C83.1917 7.71672 83.1164 7.31001 82.9638 6.92871L82.4996 7.11441C82.6271 7.4331 82.6917 7.77639 82.6917 8.14656H83.1917ZM82.9669 6.93665C82.8265 6.54787 82.6248 6.20844 82.3604 5.92199L81.993 6.26113C82.2086 6.49468 82.377 6.77525 82.4966 7.10647L82.9669 6.93665ZM82.3636 5.92547C82.1015 5.63068 81.7942 5.39992 81.4428 5.23519L81.2306 5.68792C81.5192 5.8232 81.7719 6.01243 81.9899 6.25765L82.3636 5.92547ZM81.4456 5.23652C81.1001 5.06934 80.7277 4.98656 80.3317 4.98656V5.48656C80.6558 5.48656 80.9533 5.55377 81.2278 5.6866L81.4456 5.23652ZM80.3317 4.98656C79.9332 4.98656 79.5549 5.07548 79.1999 5.25295L79.4235 5.70016C79.7086 5.55763 80.0103 5.48656 80.3317 5.48656V4.98656ZM79.2028 5.25152C78.8618 5.41654 78.5606 5.6471 78.2999 5.94047L78.6736 6.27265C78.8928 6.02601 79.1417 5.83657 79.4206 5.7016L79.2028 5.25152ZM78.2995 5.94091C78.0478 6.22538 77.8482 6.56152 77.6987 6.94595L78.1647 7.12717C78.2952 6.7916 78.4656 6.50774 78.674 6.2722L78.2995 5.94091ZM77.6974 6.94951C77.556 7.32997 77.4867 7.73976 77.4867 8.17656H77.9867C77.9867 7.79336 78.0474 7.44314 78.1661 7.1236L77.6974 6.94951ZM99.1516 11.8116H97.8316V12.3116H99.1516V11.8116ZM98.0816 12.0616V7.68156H97.5816V12.0616H98.0816ZM98.0816 7.68156C98.0816 6.84361 97.9454 6.17675 97.6321 5.72426L97.221 6.00886C97.4477 6.33636 97.5816 6.87951 97.5816 7.68156H98.0816ZM97.6346 5.72788C97.3225 5.25983 96.8494 5.03156 96.2566 5.03156V5.53156C96.7037 5.53156 97.0106 5.69328 97.2186 6.00523L97.6346 5.72788ZM96.2566 5.03156C95.6496 5.03156 95.1058 5.25307 94.6336 5.68138L94.9695 6.05174C95.3573 5.70004 95.7836 5.53156 96.2566 5.53156V5.03156ZM94.6338 5.68117C94.1757 6.0957 93.8532 6.63226 93.6618 7.2808L94.1413 7.42231C94.31 6.85086 94.5875 6.39741 94.9693 6.05194L94.6338 5.68117ZM93.6516 7.35156V12.0616H94.1516V7.35156H93.6516ZM93.9016 11.8116H92.5816V12.3116H93.9016V11.8116ZM92.8316 12.0616V7.68156H92.3316V12.0616H92.8316ZM92.8316 7.68156C92.8316 6.82712 92.7015 6.15409 92.3979 5.71039L91.9852 5.99273C92.2016 6.30902 92.3316 6.85599 92.3316 7.68156H92.8316ZM92.3979 5.71039C92.0847 5.25262 91.6116 5.03156 91.0216 5.03156V5.53156C91.4715 5.53156 91.7784 5.69049 91.9852 5.99273L92.3979 5.71039ZM91.0216 5.03156C90.4253 5.03156 89.8876 5.24746 89.416 5.66423L89.7471 6.03889C90.1355 5.69565 90.5578 5.53156 91.0216 5.53156V5.03156ZM89.4185 5.66205C88.9469 6.06789 88.6181 6.60691 88.4265 7.26685L88.9066 7.40626C89.0751 6.8262 89.3563 6.37523 89.7446 6.04106L89.4185 5.66205ZM88.4166 7.33656V12.0616H88.9166V7.33656H88.4166ZM88.6666 11.8116H87.3466V12.3116H88.6666V11.8116ZM87.5966 12.0616V4.23156H87.0966V12.0616H87.5966ZM87.3466 4.48156H88.5466V3.98156H87.3466V4.48156ZM88.2966 4.23156V5.91156H88.7966V4.23156H88.2966ZM88.7655 6.03233C89.0668 5.48622 89.4527 5.07511 89.9214 4.79019L89.6617 4.36293C89.1105 4.698 88.6664 5.17689 88.3277 5.79079L88.7655 6.03233ZM89.9244 4.78832C90.3921 4.4949 90.9205 4.34656 91.5166 4.34656V3.84656C90.8327 3.84656 90.211 4.01821 89.6587 4.36479L89.9244 4.78832ZM91.5166 4.34656C92.13 4.34656 92.5823 4.51272 92.9046 4.81805L93.2485 4.45507C92.8108 4.0404 92.2231 3.84656 91.5166 3.84656V4.34656ZM92.9096 4.82262C93.2534 5.13116 93.468 5.53274 93.5497 6.04123L94.0434 5.96189C93.9451 5.35037 93.6797 4.84196 93.2435 4.4505L92.9096 4.82262ZM94.0155 6.12224C94.6782 4.91997 95.5956 4.34656 96.7816 4.34656V3.84656C95.3875 3.84656 94.315 4.54314 93.5776 5.88088L94.0155 6.12224ZM96.7816 4.34656C97.2012 4.34656 97.5307 4.4259 97.7833 4.56906L98.0298 4.13405C97.6825 3.93722 97.262 3.84656 96.7816 3.84656V4.34656ZM97.7919 4.57371C98.0605 4.71234 98.271 4.9099 98.4272 5.17018L98.8559 4.91293C98.6521 4.57322 98.3726 4.31077 98.0212 4.1294L97.7919 4.57371ZM98.4292 5.1734C98.5906 5.43355 98.7112 5.74935 98.7864 6.12559L99.2767 6.02753C99.192 5.60377 99.0525 5.22956 98.854 4.90972L98.4292 5.1734ZM98.7864 6.12559C98.8627 6.50722 98.9016 6.92559 98.9016 7.38156H99.4016C99.4016 6.89752 99.3604 6.44589 99.2767 6.02753L98.7864 6.12559ZM98.9016 7.38156V12.0616H99.4016V7.38156H98.9016Z" fill="#012252"/>
<path d="M59.958 12.0616C61.9855 12.0616 63.629 10.4181 63.629 8.39067C63.629 6.36326 61.9855 4.71973 59.958 4.71973C57.9306 4.71973 56.2871 6.36326 56.2871 8.39067C56.2871 10.4181 57.9306 12.0616 59.958 12.0616Z" fill="#DB162F"/>
<path d="M68.6916 23.6087C68.4243 23.6087 68.1775 23.5676 67.9513 23.4853C67.7251 23.3962 67.5297 23.2797 67.3652 23.1357C67.2007 22.9849 67.0705 22.8101 66.9745 22.6113C66.8854 22.4057 66.8408 22.1898 66.8408 21.9636C66.8408 21.71 66.8957 21.4803 67.0053 21.2747C67.115 21.0622 67.2692 20.884 67.468 20.74C67.6737 20.5892 67.9136 20.4761 68.1878 20.4007C68.4688 20.3185 68.7738 20.2773 69.1029 20.2773C69.3633 20.2773 69.6273 20.3013 69.8946 20.3493C70.1619 20.3973 70.3984 20.4624 70.604 20.5447V20.1128C70.604 19.6741 70.4807 19.3314 70.2339 19.0846C69.9871 18.831 69.6375 18.7042 69.1851 18.7042C68.6436 18.7042 68.0747 18.9132 67.4783 19.3314L67.1801 18.7453C67.5297 18.5122 67.8759 18.3374 68.2186 18.2209C68.5613 18.1044 68.9178 18.0461 69.2879 18.0461C69.9734 18.0461 70.5149 18.2346 70.9125 18.6116C71.3101 18.9886 71.5089 19.5199 71.5089 20.2054V22.3954C71.5089 22.6079 71.6048 22.7176 71.7968 22.7245V23.5059C71.7282 23.5196 71.6631 23.5299 71.6014 23.5367C71.5397 23.5436 71.4814 23.547 71.4266 23.547C71.2758 23.547 71.1284 23.5059 70.9845 23.4236C70.8405 23.3414 70.7617 23.2009 70.748 23.0021L70.7274 22.6216C70.604 22.7861 70.4635 22.9301 70.3059 23.0535C70.1482 23.1769 69.9803 23.2797 69.802 23.3619C69.6238 23.4442 69.4387 23.5059 69.2468 23.547C69.0617 23.5881 68.8767 23.6087 68.6916 23.6087ZM68.9178 22.9301C69.2057 22.9301 69.4867 22.8684 69.7609 22.745C70.0351 22.6216 70.251 22.4708 70.4087 22.2926C70.5389 22.1418 70.604 22.0013 70.604 21.871V21.0793C70.3915 20.9971 70.1653 20.9354 69.9254 20.8942C69.6924 20.8463 69.4662 20.8223 69.2468 20.8223C68.7807 20.8223 68.4071 20.9182 68.1261 21.1102C67.845 21.2952 67.7045 21.5523 67.7045 21.8813C67.7045 22.0184 67.7319 22.1521 67.7868 22.2823C67.8416 22.4057 67.9204 22.5154 68.0233 22.6113C68.1261 22.7073 68.2529 22.7861 68.4037 22.8478C68.5545 22.9027 68.7259 22.9301 68.9178 22.9301Z" fill="#DB162F"/>
<path d="M76.2143 23.6087C75.8442 23.6087 75.5015 23.5333 75.1861 23.3825C74.8708 23.2317 74.6001 23.0295 74.3739 22.7759C74.1477 22.5222 73.9694 22.2275 73.8392 21.8916C73.7158 21.5557 73.6541 21.2027 73.6541 20.8326C73.6541 20.4555 73.7124 20.0991 73.8289 19.7632C73.9523 19.4205 74.1202 19.1223 74.3327 18.8687C74.5521 18.6151 74.8091 18.4163 75.1039 18.2723C75.4055 18.1215 75.7345 18.0461 76.091 18.0461C76.5228 18.0461 76.9067 18.1592 77.2425 18.3854C77.5853 18.6116 77.856 18.8858 78.0548 19.208V16H78.9596V22.3954C78.9596 22.6079 79.0556 22.7176 79.2475 22.7245V23.5059C79.1721 23.5196 79.1036 23.5299 79.0419 23.5367C78.9871 23.5436 78.9357 23.547 78.8877 23.547C78.682 23.547 78.5175 23.4956 78.3941 23.3928C78.2707 23.2831 78.2056 23.1529 78.1988 23.0021L78.1782 22.4982C77.9657 22.8478 77.6812 23.122 77.3248 23.3208C76.9752 23.5127 76.6051 23.6087 76.2143 23.6087ZM76.4303 22.8273C76.5948 22.8273 76.7627 22.7964 76.9341 22.7347C77.1123 22.673 77.2768 22.5874 77.4276 22.4777C77.5853 22.368 77.7189 22.2412 77.8286 22.0972C77.9451 21.9464 78.0206 21.7888 78.0548 21.6243V20.082C77.9931 19.9106 77.9006 19.7495 77.7772 19.5987C77.6538 19.4411 77.5133 19.3074 77.3556 19.1977C77.2048 19.0812 77.0403 18.9921 76.8621 18.9304C76.6907 18.8618 76.5194 18.8276 76.348 18.8276C76.0807 18.8276 75.8373 18.8858 75.618 19.0024C75.4055 19.112 75.2204 19.2628 75.0628 19.4548C74.9119 19.6398 74.7954 19.8558 74.7132 20.1025C74.6309 20.3424 74.5898 20.5892 74.5898 20.8428C74.5898 21.1102 74.6378 21.3672 74.7337 21.614C74.8297 21.8539 74.9599 22.063 75.1244 22.2412C75.289 22.4194 75.4809 22.5634 75.7002 22.673C75.9264 22.7759 76.1698 22.8273 76.4303 22.8273Z" fill="#DB162F"/>
<path d="M89.6001 23.5059H88.6953V20.5035C88.6953 19.9414 88.6027 19.5267 88.4177 19.2594C88.2394 18.9921 87.9721 18.8584 87.6157 18.8584C87.2455 18.8584 86.9131 18.9921 86.6183 19.2594C86.3304 19.5199 86.1248 19.8592 86.0014 20.2773V23.5059H85.0966V20.5035C85.0966 19.9277 85.0075 19.5096 84.8292 19.2491C84.651 18.9886 84.3837 18.8584 84.0272 18.8584C83.6639 18.8584 83.3349 18.9886 83.0402 19.2491C82.7454 19.5027 82.5363 19.8421 82.413 20.267V23.5059H81.5081V18.1387H82.3307V19.2903C82.5501 18.8927 82.8345 18.5876 83.1841 18.3751C83.5337 18.1558 83.9278 18.0461 84.3665 18.0461C84.819 18.0461 85.1754 18.1695 85.4359 18.4163C85.7032 18.6562 85.8677 18.9681 85.9294 19.3519C86.4092 18.4814 87.0913 18.0461 87.9755 18.0461C88.284 18.0461 88.5411 18.1044 88.7467 18.2209C88.9592 18.3306 89.1271 18.4883 89.2505 18.6939C89.3739 18.8927 89.463 19.1292 89.5178 19.4034C89.5727 19.6775 89.6001 19.9757 89.6001 20.2979V23.5059Z" fill="#DB162F"/>
<path d="M91.995 23.5059V18.1387H92.8998V23.5059H91.995ZM91.995 17.131V16H92.8998V17.131H91.995Z" fill="#DB162F"/>
<path d="M100 23.5059H99.0956V20.5035C99.0956 19.9277 99.0065 19.5096 98.8283 19.2491C98.6569 18.9886 98.393 18.8584 98.0366 18.8584C97.8515 18.8584 97.6664 18.8961 97.4814 18.9715C97.2963 19.0401 97.1215 19.136 96.957 19.2594C96.7925 19.3828 96.6485 19.5302 96.5251 19.7015C96.4017 19.8729 96.3092 20.0614 96.2475 20.267V23.5059H95.3427V18.1387H96.1653V19.2903C96.3778 18.9132 96.6828 18.6116 97.0804 18.3854C97.4848 18.1592 97.9235 18.0461 98.3965 18.0461C98.7049 18.0461 98.962 18.1044 99.1676 18.2209C99.3733 18.3306 99.5378 18.4883 99.6612 18.6939C99.7845 18.8927 99.8702 19.1292 99.9182 19.4034C99.973 19.6775 100 19.9757 100 20.2979V23.5059Z" fill="#DB162F"/>
<path d="M68.6916 23.6087C68.4243 23.6087 68.1775 23.5676 67.9513 23.4853C67.7251 23.3962 67.5297 23.2797 67.3652 23.1357C67.2007 22.9849 67.0705 22.8101 66.9745 22.6113C66.8854 22.4057 66.8408 22.1898 66.8408 21.9636C66.8408 21.71 66.8957 21.4803 67.0053 21.2747C67.115 21.0622 67.2692 20.884 67.468 20.74C67.6737 20.5892 67.9136 20.4761 68.1878 20.4007C68.4688 20.3185 68.7738 20.2773 69.1029 20.2773C69.3633 20.2773 69.6273 20.3013 69.8946 20.3493C70.1619 20.3973 70.3984 20.4624 70.604 20.5447V20.1128C70.604 19.6741 70.4807 19.3314 70.2339 19.0846C69.9871 18.831 69.6375 18.7042 69.1851 18.7042C68.6436 18.7042 68.0747 18.9132 67.4783 19.3314L67.1801 18.7453C67.5297 18.5122 67.8759 18.3374 68.2186 18.2209C68.5613 18.1044 68.9178 18.0461 69.2879 18.0461C69.9734 18.0461 70.5149 18.2346 70.9125 18.6116C71.3101 18.9886 71.5089 19.5199 71.5089 20.2054V22.3954C71.5089 22.6079 71.6048 22.7176 71.7968 22.7245V23.5059C71.7282 23.5196 71.6631 23.5299 71.6014 23.5367C71.5397 23.5436 71.4814 23.547 71.4266 23.547C71.2758 23.547 71.1284 23.5059 70.9845 23.4236C70.8405 23.3414 70.7617 23.2009 70.748 23.0021L70.7274 22.6216C70.604 22.7861 70.4635 22.9301 70.3059 23.0535C70.1482 23.1769 69.9803 23.2797 69.802 23.3619C69.6238 23.4442 69.4387 23.5059 69.2468 23.547C69.0617 23.5881 68.8767 23.6087 68.6916 23.6087ZM68.9178 22.9301C69.2057 22.9301 69.4867 22.8684 69.7609 22.745C70.0351 22.6216 70.251 22.4708 70.4087 22.2926C70.5389 22.1418 70.604 22.0013 70.604 21.871V21.0793C70.3915 20.9971 70.1653 20.9354 69.9254 20.8942C69.6924 20.8463 69.4662 20.8223 69.2468 20.8223C68.7807 20.8223 68.4071 20.9182 68.1261 21.1102C67.845 21.2952 67.7045 21.5523 67.7045 21.8813C67.7045 22.0184 67.7319 22.1521 67.7868 22.2823C67.8416 22.4057 67.9204 22.5154 68.0233 22.6113C68.1261 22.7073 68.2529 22.7861 68.4037 22.8478C68.5545 22.9027 68.7259 22.9301 68.9178 22.9301Z" stroke="#DB162F" stroke-width="0.5" stroke-linejoin="round"/>
<path d="M76.2143 23.6087C75.8442 23.6087 75.5015 23.5333 75.1861 23.3825C74.8708 23.2317 74.6001 23.0295 74.3739 22.7759C74.1477 22.5222 73.9694 22.2275 73.8392 21.8916C73.7158 21.5557 73.6541 21.2027 73.6541 20.8326C73.6541 20.4555 73.7124 20.0991 73.8289 19.7632C73.9523 19.4205 74.1202 19.1223 74.3327 18.8687C74.5521 18.6151 74.8091 18.4163 75.1039 18.2723C75.4055 18.1215 75.7345 18.0461 76.091 18.0461C76.5228 18.0461 76.9067 18.1592 77.2425 18.3854C77.5853 18.6116 77.856 18.8858 78.0548 19.208V16H78.9596V22.3954C78.9596 22.6079 79.0556 22.7176 79.2475 22.7245V23.5059C79.1721 23.5196 79.1036 23.5299 79.0419 23.5367C78.9871 23.5436 78.9357 23.547 78.8877 23.547C78.682 23.547 78.5175 23.4956 78.3941 23.3928C78.2707 23.2831 78.2056 23.1529 78.1988 23.0021L78.1782 22.4982C77.9657 22.8478 77.6812 23.122 77.3248 23.3208C76.9752 23.5127 76.6051 23.6087 76.2143 23.6087ZM76.4303 22.8273C76.5948 22.8273 76.7627 22.7964 76.9341 22.7347C77.1123 22.673 77.2768 22.5874 77.4276 22.4777C77.5853 22.368 77.7189 22.2412 77.8286 22.0972C77.9451 21.9464 78.0206 21.7888 78.0548 21.6243V20.082C77.9931 19.9106 77.9006 19.7495 77.7772 19.5987C77.6538 19.4411 77.5133 19.3074 77.3556 19.1977C77.2048 19.0812 77.0403 18.9921 76.8621 18.9304C76.6907 18.8618 76.5194 18.8276 76.348 18.8276C76.0807 18.8276 75.8373 18.8858 75.618 19.0024C75.4055 19.112 75.2204 19.2628 75.0628 19.4548C74.9119 19.6398 74.7954 19.8558 74.7132 20.1025C74.6309 20.3424 74.5898 20.5892 74.5898 20.8428C74.5898 21.1102 74.6378 21.3672 74.7337 21.614C74.8297 21.8539 74.9599 22.063 75.1244 22.2412C75.289 22.4194 75.4809 22.5634 75.7002 22.673C75.9264 22.7759 76.1698 22.8273 76.4303 22.8273Z" stroke="#DB162F" stroke-width="0.5" stroke-linejoin="round"/>
<path d="M89.6001 23.5059H88.6953V20.5035C88.6953 19.9414 88.6027 19.5267 88.4177 19.2594C88.2394 18.9921 87.9721 18.8584 87.6157 18.8584C87.2455 18.8584 86.9131 18.9921 86.6183 19.2594C86.3304 19.5199 86.1248 19.8592 86.0014 20.2773V23.5059H85.0966V20.5035C85.0966 19.9277 85.0075 19.5096 84.8292 19.2491C84.651 18.9886 84.3837 18.8584 84.0272 18.8584C83.6639 18.8584 83.3349 18.9886 83.0402 19.2491C82.7454 19.5027 82.5363 19.8421 82.413 20.267V23.5059H81.5081V18.1387H82.3307V19.2903C82.5501 18.8927 82.8345 18.5876 83.1841 18.3751C83.5337 18.1558 83.9278 18.0461 84.3665 18.0461C84.819 18.0461 85.1754 18.1695 85.4359 18.4163C85.7032 18.6562 85.8677 18.9681 85.9294 19.3519C86.4092 18.4814 87.0913 18.0461 87.9755 18.0461C88.284 18.0461 88.5411 18.1044 88.7467 18.2209C88.9592 18.3306 89.1271 18.4883 89.2505 18.6939C89.3739 18.8927 89.463 19.1292 89.5178 19.4034C89.5727 19.6775 89.6001 19.9757 89.6001 20.2979V23.5059Z" stroke="#DB162F" stroke-width="0.5" stroke-linejoin="round"/>
<path d="M91.995 23.5059V18.1387H92.8998V23.5059H91.995ZM91.995 17.131V16H92.8998V17.131H91.995Z" stroke="#DB162F" stroke-width="0.5" stroke-linejoin="round"/>
<path d="M100 23.5059H99.0956V20.5035C99.0956 19.9277 99.0065 19.5096 98.8283 19.2491C98.6569 18.9886 98.393 18.8584 98.0366 18.8584C97.8515 18.8584 97.6664 18.8961 97.4814 18.9715C97.2963 19.0401 97.1215 19.136 96.957 19.2594C96.7925 19.3828 96.6485 19.5302 96.5251 19.7015C96.4017 19.8729 96.3092 20.0614 96.2475 20.267V23.5059H95.3427V18.1387H96.1653V19.2903C96.3778 18.9132 96.6828 18.6116 97.0804 18.3854C97.4848 18.1592 97.9235 18.0461 98.3965 18.0461C98.7049 18.0461 98.962 18.1044 99.1676 18.2209C99.3733 18.3306 99.5378 18.4883 99.6612 18.6939C99.7845 18.8927 99.8702 19.1292 99.9182 19.4034C99.973 19.6775 100 19.9757 100 20.2979V23.5059Z" stroke="#DB162F" stroke-width="0.5" stroke-linejoin="round"/>
</svg>
