<svg width="460" height="460" viewBox="0 0 460 460" fill="none" xmlns="http://www.w3.org/2000/svg">
<path d="M145.725 149.492H113.31C106.458 149.492 106.458 136.355 113.31 136.355C120.161 136.356 149.116 136.355 149.116 136.355C154.408 136.774 156.153 138.669 157.627 144.258L161.469 160.142H306.412C311.968 160.142 313.452 163.447 311.968 169.404C310.485 175.361 288.815 249.516 288.815 249.516C287.693 252.996 286.683 254.537 283.258 255.536C279.833 256.535 182.087 255.536 174.435 255.536C166.784 255.536 166.849 267.162 174.435 267.162H284.689C290.863 267.162 290.832 279.542 284.689 279.542H166.857C161.489 279.542 155.984 271.614 155.984 262.945C155.984 254.276 158.641 250.392 166.786 244.88L165.161 238.144L145.725 149.492Z" fill="#DB162F"/>
<path fill-rule="evenodd" clip-rule="evenodd" d="M186.143 323.644C196.868 323.644 205.562 314.95 205.562 304.226C205.562 293.501 196.868 284.807 186.143 284.807C175.418 284.807 166.724 293.501 166.724 304.226C166.724 314.95 175.418 323.644 186.143 323.644ZM186.143 310.867C189.811 310.867 192.785 307.894 192.785 304.226C192.785 300.558 189.811 297.584 186.143 297.584C182.475 297.584 179.501 300.558 179.501 304.226C179.501 307.894 182.475 310.867 186.143 310.867Z" fill="#DB162F"/>
<path fill-rule="evenodd" clip-rule="evenodd" d="M270.737 323.644C281.461 323.644 290.155 314.95 290.155 304.226C290.155 293.501 281.461 284.807 270.737 284.807C260.012 284.807 251.318 293.501 251.318 304.226C251.318 314.95 260.012 323.644 270.737 323.644ZM270.737 310.867C274.405 310.867 277.378 307.894 277.378 304.226C277.378 300.558 274.405 297.584 270.737 297.584C267.069 297.584 264.095 300.558 264.095 304.226C264.095 307.894 267.069 310.867 270.737 310.867Z" fill="#DB162F"/>
</svg>
