<svg width="442" height="442" viewBox="0 0 442 442" fill="none" xmlns="http://www.w3.org/2000/svg">
<g clip-path="url(#clip0_779_209)">
<path d="M87.8803 125.235C89.2712 115.299 89.9667 110.332 92.3827 106.61C94.4228 103.467 97.3046 100.961 100.7 99.376C104.721 97.4993 109.737 97.4993 119.769 97.4993H317.593C327.499 97.4993 332.452 97.4993 336.441 99.341C339.81 100.896 342.68 103.358 344.73 106.451C347.157 110.114 347.911 115.01 349.418 124.801L387.267 370.699C390.945 394.594 392.784 406.542 389.156 415.813C386.107 423.606 380.505 430.136 373.266 434.336C364.655 439.331 352.567 439.331 328.39 439.331H112.398C88.5161 439.331 76.5752 439.331 68.0148 434.413C60.8167 430.277 55.2187 423.84 52.1208 416.138C48.4365 406.979 50.0921 395.153 53.4032 371.502L87.8803 125.235Z" fill="#DB162F"/>
<path d="M219.524 3.05071C173.434 3.05071 155.643 74.0635 154.202 111.788C154.202 122.14 171.819 122.071 171.819 111.788C170.177 79.1517 180.131 13.8628 219.524 13.8628C258.917 13.8628 269.897 79.1517 270.718 111.788C270.718 122.158 287.537 121.911 287.537 111.788C282.941 74.0635 265.614 3.05071 219.524 3.05071Z" fill="#AB1326"/>
<mask id="mask0_779_209" style="mask-type:alpha" maskUnits="userSpaceOnUse" x="50" y="97" width="342" height="343">
<path d="M87.8803 125.235C89.2712 115.299 89.9667 110.332 92.3827 106.61C94.4228 103.467 97.3046 100.961 100.7 99.376C104.721 97.4993 109.737 97.4993 119.769 97.4993H317.593C327.499 97.4993 332.452 97.4993 336.441 99.341C339.81 100.896 342.68 103.358 344.73 106.451C347.157 110.114 347.911 115.01 349.418 124.801L387.267 370.699C390.945 394.594 392.784 406.542 389.156 415.813C386.107 423.606 380.505 430.136 373.266 434.336C364.655 439.331 352.567 439.331 328.39 439.331H112.398C88.5161 439.331 76.5752 439.331 68.0148 434.413C60.8167 430.277 55.2187 423.84 52.1208 416.138C48.4365 406.979 50.0921 395.153 53.4032 371.502L87.8803 125.235Z" fill="#DB162F"/>
</mask>
<g mask="url(#mask0_779_209)">
<path d="M204.691 222.459C317.555 126.849 382.913 131.701 401.484 146.079C401.484 146.079 457.885 284.241 401.484 246.721C345.082 209.201 309.827 270.085 204.691 342.871C120.583 401.1 42.645 403.676 14.1895 397.685V270.085C30.6637 294.047 91.828 318.07 204.691 222.459Z" fill="url(#paint0_linear_779_209)"/>
</g>
<mask id="mask1_779_209" style="mask-type:alpha" maskUnits="userSpaceOnUse" x="50" y="97" width="342" height="343">
<path d="M87.8803 125.235C89.2712 115.299 89.9667 110.332 92.3827 106.61C94.4228 103.467 97.3046 100.961 100.7 99.376C104.721 97.4993 109.737 97.4993 119.769 97.4993H317.593C327.499 97.4993 332.452 97.4993 336.441 99.341C339.81 100.896 342.68 103.358 344.73 106.451C347.157 110.114 347.911 115.01 349.418 124.801L387.267 370.699C390.945 394.594 392.784 406.542 389.156 415.813C386.107 423.606 380.505 430.136 373.266 434.336C364.655 439.331 352.567 439.331 328.39 439.331H112.398C88.5161 439.331 76.5752 439.331 68.0148 434.413C60.8167 430.277 55.2187 423.84 52.1208 416.138C48.4365 406.979 50.0921 395.153 53.4032 371.502L87.8803 125.235Z" fill="#DB162F"/>
</mask>
<g mask="url(#mask1_779_209)">
<g filter="url(#filter0_i_779_209)">
<path d="M234.409 310.584C347.273 214.974 412.63 219.826 431.201 234.203C431.201 234.203 487.602 372.366 431.201 334.846C374.8 297.326 525.811 455.394 420.676 528.18C336.567 586.409 72.3628 491.8 43.9072 485.81V358.209C60.3815 382.172 121.546 406.194 234.409 310.584Z" fill="url(#paint1_linear_779_209)"/>
</g>
</g>
<path d="M288.689 278.049C293.327 271.025 287.742 261.763 279.365 262.587L115.584 278.704C107.119 279.537 103.493 289.887 109.587 295.821L158.252 343.206C159.482 344.404 160.383 345.898 160.868 347.544L180.068 412.698C182.472 420.857 193.318 422.48 198.005 415.382L288.689 278.049Z" fill="white"/>
<path d="M177.469 297.885L210.006 351.84L68.9776 436.885L67.3766 435.84C62.0196 432.114 54.987 425.409 51.5621 414.935C49.9079 409.8 49.6874 403.297 50.3105 395.031C50.6775 389.926 52.2827 377.913 52.7504 374.613L52.9757 372.958L177.469 297.885Z" fill="white"/>
<path d="M183.208 168.188C182.528 167.395 181.621 166.63 180.488 165.893C179.355 165.157 178.08 164.505 176.663 163.938C175.246 163.315 173.688 162.833 171.988 162.493C170.345 162.097 168.616 161.898 166.803 161.898C162.1 161.898 158.643 162.777 156.433 164.533C154.28 166.29 153.203 168.698 153.203 171.758C153.203 173.402 153.515 174.762 154.138 175.838C154.761 176.915 155.725 177.85 157.028 178.643C158.388 179.38 160.06 180.032 162.043 180.598C164.026 181.165 166.378 181.76 169.098 182.383C172.215 183.063 175.02 183.857 177.513 184.763C180.063 185.613 182.216 186.69 183.973 187.993C185.786 189.297 187.146 190.883 188.053 192.753C189.016 194.623 189.498 196.918 189.498 199.638C189.498 202.528 188.931 205.05 187.798 207.203C186.665 209.3 185.107 211.057 183.123 212.473C181.196 213.833 178.901 214.853 176.238 215.533C173.575 216.157 170.685 216.468 167.568 216.468C162.921 216.468 158.501 215.76 154.308 214.343C150.171 212.87 146.403 210.745 143.003 207.968L146.658 201.508C147.565 202.472 148.726 203.435 150.143 204.398C151.616 205.362 153.26 206.24 155.073 207.033C156.943 207.77 158.926 208.393 161.023 208.903C163.176 209.357 165.415 209.583 167.738 209.583C172.045 209.583 175.388 208.818 177.768 207.288C180.148 205.758 181.338 203.463 181.338 200.403C181.338 198.703 180.941 197.287 180.148 196.153C179.411 194.963 178.306 193.943 176.833 193.093C175.36 192.243 173.518 191.507 171.308 190.883C169.155 190.203 166.69 189.523 163.913 188.843C160.853 188.107 158.161 187.313 155.838 186.463C153.515 185.613 151.56 184.593 149.973 183.403C148.443 182.213 147.281 180.768 146.488 179.068C145.695 177.368 145.298 175.328 145.298 172.948C145.298 170.058 145.836 167.508 146.913 165.298C147.99 163.088 149.491 161.218 151.418 159.688C153.345 158.158 155.64 157.025 158.303 156.288C160.966 155.495 163.856 155.098 166.973 155.098C171.053 155.098 174.736 155.722 178.023 156.968C181.31 158.215 184.228 159.887 186.778 161.983L183.208 168.188ZM202.272 215.873V155.523H227.432C230.095 155.523 232.532 156.09 234.742 157.223C237.009 158.3 238.935 159.773 240.522 161.643C242.165 163.457 243.44 165.525 244.347 167.848C245.254 170.115 245.707 172.438 245.707 174.818C245.707 177.312 245.282 179.72 244.432 182.043C243.582 184.367 242.364 186.435 240.777 188.248C239.247 190.062 237.377 191.507 235.167 192.583C233.014 193.66 230.605 194.198 227.942 194.198H209.922V215.873H202.272ZM209.922 187.398H227.517C229.104 187.398 230.52 187.087 231.767 186.463C233.07 185.783 234.175 184.877 235.082 183.743C235.989 182.553 236.697 181.193 237.207 179.663C237.717 178.133 237.972 176.518 237.972 174.818C237.972 173.062 237.66 171.418 237.037 169.888C236.47 168.358 235.677 167.027 234.657 165.893C233.694 164.76 232.532 163.882 231.172 163.258C229.869 162.635 228.48 162.323 227.007 162.323H209.922V187.398ZM257.615 215.873V155.523H265.265V209.073H298.925V215.873H257.615Z" fill="white"/>
<path d="M183.208 168.188L180.741 170.303C181.427 171.105 182.46 171.522 183.511 171.424C184.561 171.326 185.499 170.724 186.025 169.809L183.208 168.188ZM180.488 165.893L178.717 168.618L178.717 168.618L180.488 165.893ZM176.663 163.938L175.354 166.913C175.388 166.928 175.422 166.942 175.456 166.956L176.663 163.938ZM171.988 162.493L171.226 165.653C171.267 165.663 171.309 165.672 171.351 165.68L171.988 162.493ZM156.433 164.533L154.411 161.989C154.4 161.998 154.389 162.006 154.379 162.015L156.433 164.533ZM154.138 175.838L151.326 177.467L151.326 177.467L154.138 175.838ZM157.028 178.643L155.338 181.419C155.385 181.448 155.432 181.475 155.48 181.501L157.028 178.643ZM162.043 180.598L162.936 177.473L162.936 177.473L162.043 180.598ZM169.098 182.383L168.372 185.551C168.383 185.554 168.394 185.556 168.405 185.559L169.098 182.383ZM177.513 184.763L176.402 187.818C176.43 187.828 176.458 187.837 176.485 187.847L177.513 184.763ZM183.973 187.993L182.037 190.603C182.05 190.613 182.063 190.623 182.076 190.632L183.973 187.993ZM188.053 192.753L185.129 194.171C185.14 194.195 185.152 194.218 185.164 194.242L188.053 192.753ZM187.798 207.203L190.657 208.749C190.663 208.738 190.669 208.728 190.674 208.717L187.798 207.203ZM183.123 212.473L184.997 215.128C185.002 215.125 185.007 215.121 185.012 215.118L183.123 212.473ZM176.238 215.533L176.979 218.698C177 218.693 177.021 218.688 177.042 218.682L176.238 215.533ZM154.308 214.343L153.218 217.405C153.234 217.411 153.251 217.417 153.268 217.422L154.308 214.343ZM143.003 207.968L140.175 206.368C139.395 207.746 139.721 209.484 140.947 210.486L143.003 207.968ZM146.658 201.508L149.025 199.281C148.317 198.529 147.294 198.158 146.269 198.282C145.243 198.405 144.338 199.009 143.83 199.908L146.658 201.508ZM150.143 204.398L148.316 207.086C148.332 207.097 148.348 207.108 148.365 207.118L150.143 204.398ZM155.073 207.033L153.771 210.011C153.807 210.027 153.845 210.042 153.882 210.057L155.073 207.033ZM161.023 208.903L160.255 212.061C160.288 212.069 160.321 212.077 160.354 212.084L161.023 208.903ZM180.148 196.153L177.385 197.864C177.417 197.916 177.451 197.967 177.486 198.017L180.148 196.153ZM176.833 193.093L175.209 195.908L175.209 195.908L176.833 193.093ZM171.308 190.883L170.329 193.982C170.361 193.993 170.394 194.002 170.426 194.011L171.308 190.883ZM163.913 188.843L164.686 185.687L164.674 185.684L163.913 188.843ZM155.838 186.463L154.722 189.515L154.722 189.515L155.838 186.463ZM149.973 183.403L147.978 185.969C147.993 185.98 148.008 185.992 148.023 186.003L149.973 183.403ZM146.488 179.068L149.433 177.694L149.433 177.694L146.488 179.068ZM146.913 165.298L149.835 166.722L149.835 166.722L146.913 165.298ZM151.418 159.688L153.439 162.233L153.439 162.233L151.418 159.688ZM158.303 156.288L159.17 159.421C159.19 159.415 159.211 159.409 159.231 159.403L158.303 156.288ZM178.023 156.968L176.871 160.007L176.871 160.007L178.023 156.968ZM186.778 161.983L189.595 163.604C190.387 162.228 190.069 160.481 188.842 159.473L186.778 161.983ZM185.676 166.073C184.745 164.987 183.581 164.027 182.259 163.168L178.717 168.618C179.662 169.233 180.312 169.803 180.741 170.303L185.676 166.073ZM182.259 163.168C180.927 162.302 179.459 161.556 177.87 160.921L175.456 166.956C176.7 167.454 177.783 168.011 178.717 168.618L182.259 163.168ZM177.972 160.964C176.316 160.235 174.529 159.687 172.626 159.306L171.351 165.68C172.847 165.979 174.177 166.395 175.354 166.913L177.972 160.964ZM172.751 159.334C170.84 158.873 168.855 158.648 166.803 158.648V165.148C168.378 165.148 169.849 165.32 171.226 165.653L172.751 159.334ZM166.803 158.648C161.814 158.648 157.469 159.558 154.411 161.989L158.455 167.077C159.817 165.995 162.386 165.148 166.803 165.148V158.648ZM154.379 162.015C151.386 164.456 149.953 167.834 149.953 171.758H156.453C156.453 169.562 157.174 168.123 158.488 167.052L154.379 162.015ZM149.953 171.758C149.953 173.795 150.338 175.761 151.326 177.467L156.951 174.21C156.692 173.762 156.453 173.008 156.453 171.758H149.953ZM151.326 177.467C152.276 179.109 153.675 180.407 155.338 181.419L158.718 175.867C157.775 175.293 157.247 174.721 156.951 174.21L151.326 177.467ZM155.48 181.501C157.104 182.38 159.01 183.112 161.15 183.723L162.936 177.473C161.11 176.952 159.672 176.379 158.576 175.786L155.48 181.501ZM161.15 183.723C163.204 184.31 165.614 184.919 168.372 185.551L169.824 179.215C167.142 178.601 164.849 178.02 162.936 177.473L161.15 183.723ZM168.405 185.559C171.408 186.214 174.07 186.969 176.402 187.818L178.624 181.709C175.97 180.744 173.022 179.913 169.791 179.208L168.405 185.559ZM176.485 187.847C178.781 188.612 180.611 189.545 182.037 190.603L185.91 185.383C183.822 183.834 181.345 182.615 178.541 181.68L176.485 187.847ZM182.076 190.632C183.485 191.645 184.475 192.823 185.129 194.171L190.978 191.335C189.818 188.943 188.088 186.949 185.87 185.354L182.076 190.632ZM185.164 194.242C185.831 195.536 186.248 197.289 186.248 199.638H192.748C192.748 196.547 192.202 193.71 190.942 191.265L185.164 194.242ZM186.248 199.638C186.248 202.1 185.768 204.083 184.922 205.69L190.674 208.717C192.095 206.017 192.748 202.957 192.748 199.638H186.248ZM184.939 205.658C184.047 207.309 182.824 208.693 181.234 209.829L185.012 215.118C187.389 213.42 189.283 211.291 190.657 208.749L184.939 205.658ZM181.249 209.818C179.695 210.915 177.776 211.786 175.434 212.384L177.042 218.682C180.027 217.92 182.698 216.751 184.997 215.128L181.249 209.818ZM175.498 212.369C173.108 212.928 170.469 213.218 167.568 213.218V219.718C170.9 219.718 174.042 219.385 176.979 218.698L175.498 212.369ZM167.568 213.218C163.257 213.218 159.19 212.562 155.348 211.264L153.268 217.422C157.813 218.958 162.586 219.718 167.568 219.718V213.218ZM155.399 211.282C151.612 209.933 148.171 207.992 145.059 205.451L140.947 210.486C144.636 213.498 148.731 215.807 153.218 217.405L155.399 211.282ZM145.832 209.569L149.487 203.109L143.83 199.908L140.175 206.368L145.832 209.569ZM144.292 203.736C145.4 204.913 146.757 206.026 148.316 207.086L151.971 201.711C150.696 200.844 149.73 200.03 149.025 199.281L144.292 203.736ZM148.365 207.118C150.006 208.192 151.812 209.154 153.771 210.011L156.376 204.056C154.708 203.326 153.227 202.531 151.922 201.678L148.365 207.118ZM153.882 210.057C155.899 210.852 158.025 211.519 160.255 212.061L161.791 205.745C159.828 205.268 157.987 204.688 156.264 204.009L153.882 210.057ZM160.354 212.084C162.739 212.586 165.202 212.833 167.738 212.833V206.333C165.627 206.333 163.614 206.127 161.693 205.723L160.354 212.084ZM167.738 212.833C172.366 212.833 176.415 212.022 179.526 210.022L176.011 204.554C174.362 205.615 171.724 206.333 167.738 206.333V212.833ZM179.526 210.022C182.923 207.838 184.588 204.462 184.588 200.403H178.088C178.088 202.465 177.373 203.678 176.011 204.554L179.526 210.022ZM184.588 200.403C184.588 198.191 184.066 196.083 182.811 194.29L177.486 198.017C177.817 198.49 178.088 199.216 178.088 200.403H184.588ZM182.912 194.443C181.837 192.708 180.296 191.339 178.457 190.278L175.209 195.908C176.317 196.547 176.986 197.219 177.385 197.864L182.912 194.443ZM178.457 190.278C176.685 189.256 174.576 188.428 172.19 187.755L170.426 194.011C172.461 194.585 174.034 195.231 175.209 195.908L178.457 190.278ZM172.287 187.784C170.051 187.078 167.515 186.379 164.686 185.687L163.14 192C165.865 192.667 168.259 193.329 170.329 193.982L172.287 187.784ZM164.674 185.684C161.704 184.969 159.135 184.209 156.955 183.411L154.722 189.515C157.188 190.418 160.003 191.245 163.152 192.003L164.674 185.684ZM156.955 183.411C154.859 182.645 153.202 181.762 151.923 180.803L148.023 186.003C149.918 187.424 152.17 188.582 154.722 189.515L156.955 183.411ZM151.968 180.838C150.831 179.953 150.001 178.911 149.433 177.694L143.543 180.443C144.562 182.625 146.055 184.473 147.978 185.969L151.968 180.838ZM149.433 177.694C148.887 176.524 148.548 174.977 148.548 172.948H142.048C142.048 175.68 142.503 178.213 143.543 180.443L149.433 177.694ZM148.548 172.948C148.548 170.465 149.009 168.417 149.835 166.722L143.991 163.875C142.664 166.6 142.048 169.651 142.048 172.948H148.548ZM149.835 166.722C150.699 164.949 151.893 163.462 153.439 162.233L149.397 157.143C147.09 158.975 145.281 161.228 143.991 163.875L149.835 166.722ZM153.439 162.233C154.985 161.006 156.875 160.055 159.17 159.421L157.437 153.156C154.405 153.995 151.705 155.31 149.397 157.143L153.439 162.233ZM159.231 159.403C161.559 158.71 164.133 158.348 166.973 158.348V151.848C163.58 151.848 160.374 152.28 157.375 153.174L159.231 159.403ZM166.973 158.348C170.722 158.348 174.006 158.921 176.871 160.007L179.176 153.93C175.467 152.523 171.385 151.848 166.973 151.848V158.348ZM176.871 160.007C179.848 161.136 182.454 162.636 184.714 164.494L188.842 159.473C186.002 157.138 182.772 155.293 179.176 153.93L176.871 160.007ZM183.961 160.363L180.391 166.568L186.025 169.809L189.595 163.604L183.961 160.363ZM202.272 215.873H199.022C199.022 217.668 200.477 219.123 202.272 219.123V215.873ZM202.272 155.523V152.273C200.477 152.273 199.022 153.728 199.022 155.523H202.272ZM234.742 157.223L233.259 160.115C233.288 160.13 233.318 160.145 233.348 160.159L234.742 157.223ZM240.522 161.643L238.044 163.746C238.067 163.773 238.09 163.8 238.114 163.826L240.522 161.643ZM244.347 167.848L241.319 169.03C241.323 169.038 241.326 169.047 241.33 169.055L244.347 167.848ZM244.432 182.043L241.38 180.927L241.38 180.927L244.432 182.043ZM240.777 188.248L238.331 186.108C238.318 186.123 238.306 186.138 238.293 186.152L240.777 188.248ZM235.167 192.583L233.744 189.662C233.734 189.666 233.724 189.671 233.714 189.676L235.167 192.583ZM209.922 194.198V190.948C208.127 190.948 206.672 192.403 206.672 194.198H209.922ZM209.922 215.873V219.123C211.717 219.123 213.172 217.668 213.172 215.873H209.922ZM209.922 187.398H206.672C206.672 189.193 208.127 190.648 209.922 190.648V187.398ZM231.767 186.463L233.221 189.37C233.237 189.362 233.254 189.353 233.27 189.345L231.767 186.463ZM235.082 183.743L237.62 185.774C237.636 185.754 237.652 185.733 237.667 185.713L235.082 183.743ZM237.207 179.663L240.29 180.691L240.29 180.691L237.207 179.663ZM237.037 169.888L233.989 171.017C234.001 171.05 234.014 171.082 234.027 171.115L237.037 169.888ZM234.657 165.893L232.181 167.998C232.201 168.022 232.221 168.045 232.241 168.067L234.657 165.893ZM231.172 163.258L229.77 166.19C229.786 166.198 229.802 166.205 229.818 166.213L231.172 163.258ZM209.922 162.323V159.073C208.127 159.073 206.672 160.528 206.672 162.323H209.922ZM205.522 215.873V155.523H199.022V215.873H205.522ZM202.272 158.773H227.432V152.273H202.272V158.773ZM227.432 158.773C229.618 158.773 231.541 159.234 233.259 160.115L236.225 154.331C233.523 152.946 230.573 152.273 227.432 152.273V158.773ZM233.348 160.159C235.208 161.043 236.762 162.236 238.044 163.746L243 159.541C241.108 157.311 238.809 155.557 236.137 154.288L233.348 160.159ZM238.114 163.826C239.486 165.34 240.554 167.068 241.319 169.03L247.375 166.667C246.327 163.982 244.844 161.573 242.93 159.461L238.114 163.826ZM241.33 169.055C242.087 170.948 242.457 172.862 242.457 174.818H248.957C248.957 172.014 248.421 169.282 247.365 166.641L241.33 169.055ZM242.457 174.818C242.457 176.934 242.098 178.964 241.38 180.927L247.484 183.16C248.466 180.476 248.957 177.69 248.957 174.818H242.457ZM241.38 180.927C240.664 182.885 239.647 184.604 238.331 186.108L243.223 190.388C245.08 188.266 246.501 185.849 247.484 183.16L241.38 180.927ZM238.293 186.152C237.066 187.607 235.562 188.776 233.744 189.662L236.59 195.505C239.193 194.237 241.428 192.516 243.261 190.344L238.293 186.152ZM233.714 189.676C232.058 190.504 230.155 190.948 227.942 190.948V197.448C231.056 197.448 233.97 196.816 236.621 195.49L233.714 189.676ZM227.942 190.948H209.922V197.448H227.942V190.948ZM206.672 194.198V215.873H213.172V194.198H206.672ZM209.922 212.623H202.272V219.123H209.922V212.623ZM209.922 190.648H227.517V184.148H209.922V190.648ZM227.517 190.648C229.538 190.648 231.464 190.249 233.221 189.37L230.314 183.556C229.577 183.925 228.669 184.148 227.517 184.148V190.648ZM233.27 189.345C234.969 188.459 236.428 187.264 237.62 185.774L232.544 181.713C231.923 182.489 231.172 183.108 230.264 183.582L233.27 189.345ZM237.667 185.713C238.807 184.217 239.676 182.534 240.29 180.691L234.124 178.636C233.718 179.853 233.171 180.889 232.497 181.774L237.667 185.713ZM240.29 180.691C240.917 178.812 241.222 176.849 241.222 174.818H234.722C234.722 176.188 234.518 177.455 234.124 178.636L240.29 180.691ZM241.222 174.818C241.222 172.668 240.839 170.606 240.047 168.662L234.027 171.115C234.482 172.231 234.722 173.455 234.722 174.818H241.222ZM240.085 168.76C239.385 166.871 238.386 165.179 237.073 163.719L232.241 168.067C232.968 168.875 233.555 169.845 233.989 171.017L240.085 168.76ZM237.133 163.788C235.861 162.291 234.315 161.124 232.526 160.304L229.818 166.213C230.749 166.639 231.527 167.229 232.181 167.998L237.133 163.788ZM232.574 160.326C230.824 159.489 228.956 159.073 227.007 159.073V165.573C228.005 165.573 228.913 165.781 229.77 166.19L232.574 160.326ZM227.007 159.073H209.922V165.573H227.007V159.073ZM206.672 162.323V187.398H213.172V162.323H206.672ZM257.615 215.873H254.365C254.365 217.668 255.82 219.123 257.615 219.123V215.873ZM257.615 155.523V152.273C255.82 152.273 254.365 153.728 254.365 155.523H257.615ZM265.265 155.523H268.515C268.515 153.728 267.06 152.273 265.265 152.273V155.523ZM265.265 209.073H262.015C262.015 210.868 263.47 212.323 265.265 212.323V209.073ZM298.925 209.073H302.175C302.175 207.278 300.72 205.823 298.925 205.823V209.073ZM298.925 215.873V219.123C300.72 219.123 302.175 217.668 302.175 215.873H298.925ZM260.865 215.873V155.523H254.365V215.873H260.865ZM257.615 158.773H265.265V152.273H257.615V158.773ZM262.015 155.523V209.073H268.515V155.523H262.015ZM265.265 212.323H298.925V205.823H265.265V212.323ZM295.675 209.073V215.873H302.175V209.073H295.675ZM298.925 212.623H257.615V219.123H298.925V212.623Z" fill="white"/>
</g>
<defs>
<filter id="filter0_i_779_209" x="43.9072" y="226.286" width="419.035" height="324.759" filterUnits="userSpaceOnUse" color-interpolation-filters="sRGB">
<feFlood flood-opacity="0" result="BackgroundImageFix"/>
<feBlend mode="normal" in="SourceGraphic" in2="BackgroundImageFix" result="shape"/>
<feColorMatrix in="SourceAlpha" type="matrix" values="0 0 0 0 0 0 0 0 0 0 0 0 0 0 0 0 0 0 127 0" result="hardAlpha"/>
<feOffset dx="4" dy="12"/>
<feGaussianBlur stdDeviation="2"/>
<feComposite in2="hardAlpha" operator="arithmetic" k2="-1" k3="1"/>
<feColorMatrix type="matrix" values="0 0 0 0 0 0 0 0 0 0 0 0 0 0 0 0 0 0 0.25 0"/>
<feBlend mode="normal" in2="shape" result="effect1_innerShadow_779_209"/>
</filter>
<linearGradient id="paint0_linear_779_209" x1="130.343" y1="119.058" x2="257.203" y2="374.261" gradientUnits="userSpaceOnUse">
<stop stop-color="#DB162F"/>
<stop offset="1" stop-color="#9A0D1F"/>
</linearGradient>
<linearGradient id="paint1_linear_779_209" x1="226.785" y1="321.394" x2="277.974" y2="532.084" gradientUnits="userSpaceOnUse">
<stop stop-color="#002964"/>
<stop offset="1" stop-color="#011532"/>
</linearGradient>
<clipPath id="clip0_779_209">
<rect width="441" height="441" fill="white" transform="translate(0.369141 0.690918)"/>
</clipPath>
</defs>
</svg>
