<svg width="574" height="574" viewBox="0 0 574 574" fill="none" xmlns="http://www.w3.org/2000/svg">
<rect width="574" height="574" rx="287" fill="white"/>
<circle cx="287" cy="287" r="274.211" stroke="#DB162F" stroke-width="10"/>
<g clip-path="url(#clip0_1944_202)">
<path d="M154.012 175.544C155.403 165.608 156.099 160.641 158.515 156.919C160.555 153.776 163.436 151.269 166.832 149.685C170.853 147.808 175.869 147.808 185.901 147.808H383.724C393.631 147.808 398.584 147.808 402.573 149.65C405.942 151.205 408.812 153.667 410.862 156.76C413.289 160.423 414.043 165.318 415.55 175.11L453.398 421.008C457.076 444.903 458.915 456.851 455.288 466.122C452.239 473.915 446.637 480.445 439.398 484.645C430.787 489.64 418.698 489.64 394.522 489.64H178.53C154.648 489.64 142.707 489.64 134.147 484.721C126.949 480.586 121.351 474.149 118.253 466.447C114.568 457.288 116.224 445.462 119.535 421.811L154.012 175.544Z" fill="#DB162F"/>
<path d="M285.656 53.3598C239.566 53.3598 221.774 124.373 220.334 162.097C220.334 172.449 237.951 172.38 237.951 162.097C236.309 129.461 246.262 64.1719 285.656 64.1719C325.049 64.1719 336.029 129.461 336.85 162.097C336.85 172.467 353.669 172.22 353.669 162.097C349.073 124.373 331.746 53.3598 285.656 53.3598Z" fill="#AB1326"/>
<mask id="mask0_1944_202" style="mask-type:alpha" maskUnits="userSpaceOnUse" x="116" y="147" width="342" height="343">
<path d="M154.012 175.544C155.403 165.608 156.099 160.641 158.515 156.919C160.555 153.776 163.436 151.269 166.832 149.685C170.853 147.808 175.869 147.808 185.901 147.808H383.724C393.631 147.808 398.584 147.808 402.573 149.65C405.942 151.205 408.812 153.667 410.862 156.76C413.289 160.423 414.043 165.318 415.55 175.11L453.398 421.008C457.076 444.903 458.915 456.851 455.288 466.122C452.239 473.915 446.637 480.445 439.398 484.645C430.787 489.64 418.698 489.64 394.522 489.64H178.53C154.648 489.64 142.707 489.64 134.147 484.721C126.949 480.586 121.351 474.149 118.253 466.447C114.568 457.288 116.224 445.462 119.535 421.811L154.012 175.544Z" fill="#DB162F"/>
</mask>
<g mask="url(#mask0_1944_202)">
<path d="M270.823 272.768C383.687 177.158 449.044 182.01 467.615 196.387C467.615 196.387 524.017 334.55 467.615 297.03C411.214 259.51 375.959 320.393 270.823 393.18C186.715 451.408 108.777 453.984 80.3213 447.994V320.393C96.7955 344.356 157.96 368.378 270.823 272.768Z" fill="url(#paint0_linear_1944_202)"/>
</g>
<mask id="mask1_1944_202" style="mask-type:alpha" maskUnits="userSpaceOnUse" x="116" y="147" width="342" height="343">
<path d="M154.012 175.544C155.403 165.608 156.099 160.641 158.515 156.919C160.555 153.776 163.436 151.269 166.832 149.685C170.853 147.808 175.869 147.808 185.901 147.808H383.724C393.631 147.808 398.584 147.808 402.573 149.65C405.942 151.205 408.812 153.667 410.862 156.76C413.289 160.423 414.043 165.318 415.55 175.11L453.398 421.008C457.076 444.903 458.915 456.851 455.288 466.122C452.239 473.915 446.637 480.445 439.398 484.645C430.787 489.64 418.698 489.64 394.522 489.64H178.53C154.648 489.64 142.707 489.64 134.147 484.721C126.949 480.586 121.351 474.149 118.253 466.447C114.568 457.288 116.224 445.462 119.535 421.811L154.012 175.544Z" fill="#DB162F"/>
</mask>
<g mask="url(#mask1_1944_202)">
<g filter="url(#filter0_i_1944_202)">
<path d="M300.541 360.893C413.405 265.282 478.762 270.135 497.333 284.512C497.333 284.512 553.734 422.675 497.333 385.155C440.932 347.634 591.943 505.703 486.807 578.489C402.699 636.718 138.495 542.109 110.039 536.118V408.518C126.513 432.48 187.678 456.503 300.541 360.893Z" fill="url(#paint1_linear_1944_202)"/>
</g>
</g>
<path d="M354.82 328.358C359.458 321.334 353.872 312.072 345.496 312.896L181.715 329.013C173.25 329.846 169.624 340.196 175.718 346.13L224.383 393.515C225.613 394.713 226.514 396.207 226.999 397.853L246.199 463.007C248.603 471.167 259.449 472.789 264.136 465.691L354.82 328.358Z" fill="white"/>
<path d="M243.6 348.194L276.137 402.149L135.108 487.194L133.507 486.149C128.15 482.423 121.118 475.718 117.693 465.244C116.039 460.109 115.818 453.606 116.441 445.34C116.808 440.235 118.414 428.222 118.881 424.923L119.107 423.267L243.6 348.194Z" fill="white"/>
<path d="M249.34 218.497C248.66 217.704 247.753 216.939 246.62 216.202C245.487 215.465 244.212 214.814 242.795 214.247C241.378 213.624 239.82 213.142 238.12 212.802C236.477 212.405 234.748 212.207 232.935 212.207C228.232 212.207 224.775 213.085 222.565 214.842C220.412 216.599 219.335 219.007 219.335 222.067C219.335 223.71 219.647 225.07 220.27 226.147C220.893 227.224 221.857 228.159 223.16 228.952C224.52 229.689 226.192 230.34 228.175 230.907C230.158 231.474 232.51 232.069 235.23 232.692C238.347 233.372 241.152 234.165 243.645 235.072C246.195 235.922 248.348 236.999 250.105 238.302C251.918 239.605 253.278 241.192 254.185 243.062C255.148 244.932 255.63 247.227 255.63 249.947C255.63 252.837 255.063 255.359 253.93 257.512C252.797 259.609 251.238 261.365 249.255 262.782C247.328 264.142 245.033 265.162 242.37 265.842C239.707 266.465 236.817 266.777 233.7 266.777C229.053 266.777 224.633 266.069 220.44 264.652C216.303 263.179 212.535 261.054 209.135 258.277L212.79 251.817C213.697 252.78 214.858 253.744 216.275 254.707C217.748 255.67 219.392 256.549 221.205 257.342C223.075 258.079 225.058 258.702 227.155 259.212C229.308 259.665 231.547 259.892 233.87 259.892C238.177 259.892 241.52 259.127 243.9 257.597C246.28 256.067 247.47 253.772 247.47 250.712C247.47 249.012 247.073 247.595 246.28 246.462C245.543 245.272 244.438 244.252 242.965 243.402C241.492 242.552 239.65 241.815 237.44 241.192C235.287 240.512 232.822 239.832 230.045 239.152C226.985 238.415 224.293 237.622 221.97 236.772C219.647 235.922 217.692 234.902 216.105 233.712C214.575 232.522 213.413 231.077 212.62 229.377C211.827 227.677 211.43 225.637 211.43 223.257C211.43 220.367 211.968 217.817 213.045 215.607C214.122 213.397 215.623 211.527 217.55 209.997C219.477 208.467 221.772 207.334 224.435 206.597C227.098 205.804 229.988 205.407 233.105 205.407C237.185 205.407 240.868 206.03 244.155 207.277C247.442 208.524 250.36 210.195 252.91 212.292L249.34 218.497ZM268.404 266.182V205.832H293.564C296.227 205.832 298.664 206.399 300.874 207.532C303.141 208.609 305.067 210.082 306.654 211.952C308.297 213.765 309.572 215.834 310.479 218.157C311.386 220.424 311.839 222.747 311.839 225.127C311.839 227.62 311.414 230.029 310.564 232.352C309.714 234.675 308.496 236.744 306.909 238.557C305.379 240.37 303.509 241.815 301.299 242.892C299.146 243.969 296.737 244.507 294.074 244.507H276.054V266.182H268.404ZM276.054 237.707H293.649C295.236 237.707 296.652 237.395 297.899 236.772C299.202 236.092 300.307 235.185 301.214 234.052C302.121 232.862 302.829 231.502 303.339 229.972C303.849 228.442 304.104 226.827 304.104 225.127C304.104 223.37 303.792 221.727 303.169 220.197C302.602 218.667 301.809 217.335 300.789 216.202C299.826 215.069 298.664 214.19 297.304 213.567C296.001 212.944 294.612 212.632 293.139 212.632H276.054V237.707ZM323.747 266.182V205.832H331.397V259.382H365.057V266.182H323.747Z" fill="white"/>
<path d="M249.34 218.497L246.872 220.612C247.559 221.413 248.592 221.831 249.643 221.733C250.693 221.635 251.631 221.033 252.157 220.118L249.34 218.497ZM246.62 216.202L244.849 218.927L244.849 218.927L246.62 216.202ZM242.795 214.247L241.486 217.222C241.52 217.237 241.554 217.251 241.588 217.265L242.795 214.247ZM238.12 212.802L237.357 215.961C237.399 215.971 237.441 215.981 237.483 215.989L238.12 212.802ZM222.565 214.842L220.543 212.298C220.532 212.307 220.521 212.315 220.511 212.324L222.565 214.842ZM220.27 226.147L217.457 227.775L217.457 227.775L220.27 226.147ZM223.16 228.952L221.47 231.728C221.517 231.757 221.564 231.784 221.612 231.81L223.16 228.952ZM228.175 230.907L229.068 227.782L229.068 227.782L228.175 230.907ZM235.23 232.692L234.504 235.86C234.515 235.863 234.526 235.865 234.537 235.867L235.23 232.692ZM243.645 235.072L242.534 238.126C242.562 238.136 242.589 238.146 242.617 238.155L243.645 235.072ZM250.105 238.302L248.168 240.912C248.182 240.922 248.195 240.932 248.208 240.941L250.105 238.302ZM254.185 243.062L251.261 244.48C251.272 244.504 251.284 244.527 251.296 244.55L254.185 243.062ZM253.93 257.512L256.789 259.058C256.795 259.047 256.8 259.036 256.806 259.026L253.93 257.512ZM249.255 262.782L251.129 265.437C251.134 265.434 251.139 265.43 251.144 265.427L249.255 262.782ZM242.37 265.842L243.111 269.007C243.132 269.002 243.153 268.996 243.174 268.991L242.37 265.842ZM220.44 264.652L219.35 267.714C219.366 267.72 219.383 267.725 219.4 267.731L220.44 264.652ZM209.135 258.277L206.306 256.677C205.527 258.054 205.853 259.793 207.079 260.794L209.135 258.277ZM212.79 251.817L215.157 249.59C214.449 248.838 213.426 248.467 212.401 248.591C211.375 248.714 210.47 249.318 209.961 250.217L212.79 251.817ZM216.275 254.707L214.447 257.395C214.464 257.406 214.48 257.417 214.496 257.427L216.275 254.707ZM221.205 257.342L219.902 260.32C219.939 260.336 219.976 260.351 220.014 260.366L221.205 257.342ZM227.155 259.212L226.387 262.37C226.42 262.378 226.452 262.385 226.485 262.392L227.155 259.212ZM246.28 246.462L243.517 248.173C243.549 248.225 243.582 248.276 243.617 248.326L246.28 246.462ZM242.965 243.402L241.341 246.217L241.341 246.217L242.965 243.402ZM237.44 241.192L236.461 244.291C236.493 244.301 236.525 244.311 236.558 244.32L237.44 241.192ZM230.045 239.152L230.818 235.995L230.806 235.992L230.045 239.152ZM221.97 236.772L220.853 239.824L220.853 239.824L221.97 236.772ZM216.105 233.712L214.11 236.278C214.125 236.289 214.14 236.301 214.155 236.312L216.105 233.712ZM212.62 229.377L215.565 228.003L215.565 228.003L212.62 229.377ZM213.045 215.607L215.967 217.031L215.967 217.031L213.045 215.607ZM217.55 209.997L219.571 212.542L219.571 212.542L217.55 209.997ZM224.435 206.597L225.301 209.73C225.322 209.724 225.342 209.718 225.363 209.712L224.435 206.597ZM244.155 207.277L243.002 210.316L243.002 210.316L244.155 207.277ZM252.91 212.292L255.727 213.913C256.519 212.537 256.2 210.79 254.974 209.782L252.91 212.292ZM251.808 216.382C250.877 215.296 249.713 214.336 248.391 213.477L244.849 218.927C245.794 219.541 246.443 220.112 246.872 220.612L251.808 216.382ZM248.391 213.477C247.059 212.611 245.591 211.865 244.002 211.23L241.588 217.265C242.832 217.762 243.915 218.32 244.849 218.927L248.391 213.477ZM244.104 211.272C242.448 210.544 240.661 209.996 238.757 209.615L237.483 215.989C238.979 216.288 240.309 216.704 241.486 217.222L244.104 211.272ZM238.883 209.643C236.972 209.182 234.987 208.957 232.935 208.957V215.457C234.51 215.457 235.981 215.629 237.357 215.961L238.883 209.643ZM232.935 208.957C227.946 208.957 223.601 209.867 220.543 212.298L224.587 217.386C225.949 216.304 228.518 215.457 232.935 215.457V208.957ZM220.511 212.324C217.518 214.765 216.085 218.143 216.085 222.067H222.585C222.585 219.871 223.306 218.432 224.619 217.36L220.511 212.324ZM216.085 222.067C216.085 224.104 216.47 226.07 217.457 227.775L223.083 224.519C222.823 224.071 222.585 223.317 222.585 222.067H216.085ZM217.457 227.775C218.408 229.418 219.807 230.716 221.47 231.728L224.85 226.176C223.907 225.602 223.378 225.03 223.083 224.519L217.457 227.775ZM221.612 231.81C223.236 232.689 225.142 233.421 227.282 234.032L229.068 227.782C227.242 227.26 225.804 226.688 224.708 226.094L221.612 231.81ZM227.282 234.032C229.336 234.619 231.746 235.228 234.504 235.86L235.956 229.524C233.274 228.91 230.981 228.329 229.068 227.782L227.282 234.032ZM234.537 235.867C237.539 236.522 240.201 237.278 242.534 238.126L244.756 232.018C242.102 231.053 239.154 230.222 235.923 229.517L234.537 235.867ZM242.617 238.155C244.913 238.921 246.743 239.854 248.168 240.912L252.042 235.692C249.954 234.143 247.477 232.924 244.673 231.989L242.617 238.155ZM248.208 240.941C249.616 241.953 250.607 243.132 251.261 244.48L257.109 241.644C255.95 239.252 254.22 237.258 252.002 235.663L248.208 240.941ZM251.296 244.55C251.963 245.845 252.38 247.598 252.38 249.947H258.88C258.88 246.856 258.334 244.019 257.074 241.574L251.296 244.55ZM252.38 249.947C252.38 252.408 251.9 254.392 251.054 255.998L256.806 259.026C258.227 256.326 258.88 253.266 258.88 249.947H252.38ZM251.071 255.967C250.178 257.618 248.956 259.002 247.366 260.137L251.144 265.427C253.521 263.729 255.415 261.6 256.789 259.058L251.071 255.967ZM247.381 260.127C245.827 261.224 243.908 262.095 241.566 262.693L243.174 268.991C246.159 268.229 248.83 267.06 251.129 265.437L247.381 260.127ZM241.629 262.678C239.24 263.237 236.601 263.527 233.7 263.527V270.027C237.032 270.027 240.174 269.694 243.111 269.007L241.629 262.678ZM233.7 263.527C229.389 263.527 225.322 262.871 221.48 261.573L219.4 267.731C223.945 269.267 228.717 270.027 233.7 270.027V263.527ZM221.53 261.591C217.744 260.242 214.302 258.301 211.191 255.76L207.079 260.794C210.768 263.806 214.862 266.116 219.35 267.714L221.53 261.591ZM211.964 259.878L215.619 253.418L209.961 250.217L206.306 256.677L211.964 259.878ZM210.423 254.045C211.532 255.222 212.889 256.335 214.447 257.395L218.103 252.02C216.828 251.153 215.861 250.339 215.157 249.59L210.423 254.045ZM214.496 257.427C216.138 258.501 217.944 259.463 219.902 260.32L222.508 254.365C220.84 253.635 219.358 252.84 218.054 251.987L214.496 257.427ZM220.014 260.366C222.031 261.161 224.157 261.828 226.387 262.37L227.923 256.054C225.96 255.577 224.119 254.997 222.396 254.318L220.014 260.366ZM226.485 262.392C228.871 262.895 231.334 263.142 233.87 263.142V256.642C231.759 256.642 229.746 256.436 227.825 256.032L226.485 262.392ZM233.87 263.142C238.497 263.142 242.547 262.331 245.657 260.331L242.143 254.863C240.493 255.923 237.856 256.642 233.87 256.642V263.142ZM245.657 260.331C249.055 258.147 250.72 254.77 250.72 250.712H244.22C244.22 252.774 243.505 253.987 242.143 254.863L245.657 260.331ZM250.72 250.712C250.72 248.5 250.198 246.392 248.943 244.598L243.617 248.326C243.948 248.799 244.22 249.524 244.22 250.712H250.72ZM249.043 244.751C247.969 243.016 246.428 241.648 244.589 240.587L241.341 246.217C242.448 246.856 243.117 247.528 243.517 248.173L249.043 244.751ZM244.589 240.587C242.817 239.565 240.708 238.737 238.322 238.064L236.558 244.32C238.592 244.894 240.166 245.539 241.341 246.217L244.589 240.587ZM238.419 238.093C236.182 237.387 233.647 236.688 230.818 235.995L229.272 242.309C231.997 242.976 234.391 243.637 236.461 244.291L238.419 238.093ZM230.806 235.992C227.836 235.277 225.267 234.518 223.087 233.72L220.853 239.824C223.32 240.727 226.134 241.554 229.284 242.312L230.806 235.992ZM223.087 233.72C220.991 232.953 219.334 232.071 218.055 231.112L214.155 236.312C216.05 237.733 218.302 238.891 220.853 239.824L223.087 233.72ZM218.1 231.147C216.963 230.262 216.133 229.22 215.565 228.003L209.675 230.752C210.693 232.934 212.187 234.782 214.11 236.278L218.1 231.147ZM215.565 228.003C215.019 226.832 214.68 225.286 214.68 223.257H208.18C208.18 225.989 208.634 228.522 209.675 230.752L215.565 228.003ZM214.68 223.257C214.68 220.774 215.141 218.726 215.967 217.031L210.123 214.184C208.796 216.909 208.18 219.96 208.18 223.257H214.68ZM215.967 217.031C216.831 215.257 218.024 213.771 219.571 212.542L215.529 207.452C213.222 209.284 211.413 211.537 210.123 214.184L215.967 217.031ZM219.571 212.542C221.117 211.315 223.007 210.364 225.301 209.73L223.569 203.465C220.537 204.303 217.837 205.619 215.529 207.452L219.571 212.542ZM225.363 209.712C227.691 209.018 230.265 208.657 233.105 208.657V202.157C229.712 202.157 226.506 202.589 223.507 203.482L225.363 209.712ZM233.105 208.657C236.853 208.657 240.138 209.229 243.002 210.316L245.308 204.238C241.599 202.832 237.517 202.157 233.105 202.157V208.657ZM243.002 210.316C245.98 211.445 248.586 212.945 250.846 214.803L254.974 209.782C252.134 207.446 248.903 205.602 245.308 204.238L243.002 210.316ZM250.093 210.671L246.523 216.876L252.157 220.118L255.727 213.913L250.093 210.671ZM268.404 266.182H265.154C265.154 267.977 266.609 269.432 268.404 269.432V266.182ZM268.404 205.832V202.582C266.609 202.582 265.154 204.037 265.154 205.832H268.404ZM300.874 207.532L299.391 210.424C299.42 210.439 299.45 210.454 299.479 210.468L300.874 207.532ZM306.654 211.952L304.176 214.055C304.199 214.082 304.222 214.108 304.246 214.135L306.654 211.952ZM310.479 218.157L307.451 219.339C307.455 219.347 307.458 219.356 307.461 219.364L310.479 218.157ZM310.564 232.352L307.512 231.235L307.512 231.235L310.564 232.352ZM306.909 238.557L304.463 236.417C304.45 236.432 304.438 236.446 304.425 236.461L306.909 238.557ZM301.299 242.892L299.876 239.97C299.865 239.975 299.855 239.98 299.845 239.985L301.299 242.892ZM276.054 244.507V241.257C274.259 241.257 272.804 242.712 272.804 244.507H276.054ZM276.054 266.182V269.432C277.849 269.432 279.304 267.977 279.304 266.182H276.054ZM276.054 237.707H272.804C272.804 239.502 274.259 240.957 276.054 240.957V237.707ZM297.899 236.772L299.352 239.679C299.369 239.671 299.386 239.662 299.402 239.654L297.899 236.772ZM301.214 234.052L303.752 236.082C303.768 236.062 303.784 236.042 303.799 236.022L301.214 234.052ZM303.339 229.972L306.422 231L306.422 231L303.339 229.972ZM303.169 220.197L300.121 221.326C300.133 221.359 300.146 221.391 300.159 221.423L303.169 220.197ZM300.789 216.202L298.313 218.307C298.332 218.33 298.353 218.353 298.373 218.376L300.789 216.202ZM297.304 213.567L295.902 216.499C295.918 216.507 295.934 216.514 295.95 216.522L297.304 213.567ZM276.054 212.632V209.382C274.259 209.382 272.804 210.837 272.804 212.632H276.054ZM271.654 266.182V205.832H265.154V266.182H271.654ZM268.404 209.082H293.564V202.582H268.404V209.082ZM293.564 209.082C295.75 209.082 297.673 209.543 299.391 210.424L302.357 204.64C299.655 203.255 296.705 202.582 293.564 202.582V209.082ZM299.479 210.468C301.34 211.351 302.894 212.544 304.176 214.055L309.132 209.849C307.24 207.62 304.941 205.866 302.268 204.596L299.479 210.468ZM304.246 214.135C305.618 215.649 306.686 217.377 307.451 219.339L313.507 216.976C312.459 214.291 310.976 211.882 309.062 209.77L304.246 214.135ZM307.461 219.364C308.219 221.257 308.589 223.171 308.589 225.127H315.089C315.089 222.323 314.553 219.591 313.496 216.95L307.461 219.364ZM308.589 225.127C308.589 227.243 308.23 229.273 307.512 231.235L313.616 233.469C314.598 230.785 315.089 227.998 315.089 225.127H308.589ZM307.512 231.235C306.795 233.193 305.779 234.913 304.463 236.417L309.355 240.697C311.212 238.575 312.632 236.157 313.616 233.469L307.512 231.235ZM304.425 236.461C303.198 237.916 301.693 239.085 299.876 239.97L302.722 245.814C305.324 244.546 307.56 242.825 309.393 240.653L304.425 236.461ZM299.845 239.985C298.19 240.813 296.287 241.257 294.074 241.257V247.757C297.187 247.757 300.102 247.124 302.752 245.799L299.845 239.985ZM294.074 241.257H276.054V247.757H294.074V241.257ZM272.804 244.507V266.182H279.304V244.507H272.804ZM276.054 262.932H268.404V269.432H276.054V262.932ZM276.054 240.957H293.649V234.457H276.054V240.957ZM293.649 240.957C295.67 240.957 297.596 240.557 299.352 239.679L296.445 233.865C295.709 234.234 294.801 234.457 293.649 234.457V240.957ZM299.402 239.654C301.1 238.768 302.559 237.573 303.752 236.082L298.676 232.022C298.055 232.798 297.304 233.417 296.396 233.891L299.402 239.654ZM303.799 236.022C304.939 234.526 305.808 232.843 306.422 231L300.256 228.944C299.85 230.162 299.302 231.198 298.629 232.082L303.799 236.022ZM306.422 231C307.048 229.121 307.354 227.157 307.354 225.127H300.854C300.854 226.497 300.649 227.763 300.256 228.944L306.422 231ZM307.354 225.127C307.354 222.977 306.971 220.914 306.179 218.971L300.159 221.423C300.614 222.54 300.854 223.764 300.854 225.127H307.354ZM306.217 219.068C305.517 217.18 304.518 215.488 303.205 214.028L298.373 218.376C299.1 219.183 299.687 220.154 300.121 221.326L306.217 219.068ZM303.265 214.097C301.993 212.6 300.447 211.433 298.658 210.613L295.95 216.522C296.881 216.948 297.659 217.538 298.313 218.307L303.265 214.097ZM298.706 210.635C296.956 209.798 295.088 209.382 293.139 209.382V215.882C294.137 215.882 295.045 216.089 295.902 216.499L298.706 210.635ZM293.139 209.382H276.054V215.882H293.139V209.382ZM272.804 212.632V237.707H279.304V212.632H272.804ZM323.747 266.182H320.497C320.497 267.977 321.952 269.432 323.747 269.432V266.182ZM323.747 205.832V202.582C321.952 202.582 320.497 204.037 320.497 205.832H323.747ZM331.397 205.832H334.647C334.647 204.037 333.192 202.582 331.397 202.582V205.832ZM331.397 259.382H328.147C328.147 261.177 329.602 262.632 331.397 262.632V259.382ZM365.057 259.382H368.307C368.307 257.587 366.852 256.132 365.057 256.132V259.382ZM365.057 266.182V269.432C366.852 269.432 368.307 267.977 368.307 266.182H365.057ZM326.997 266.182V205.832H320.497V266.182H326.997ZM323.747 209.082H331.397V202.582H323.747V209.082ZM328.147 205.832V259.382H334.647V205.832H328.147ZM331.397 262.632H365.057V256.132H331.397V262.632ZM361.807 259.382V266.182H368.307V259.382H361.807ZM365.057 262.932H323.747V269.432H365.057V262.932Z" fill="white"/>
</g>
<defs>
<filter id="filter0_i_1944_202" x="110.039" y="276.595" width="419.035" height="324.759" filterUnits="userSpaceOnUse" color-interpolation-filters="sRGB">
<feFlood flood-opacity="0" result="BackgroundImageFix"/>
<feBlend mode="normal" in="SourceGraphic" in2="BackgroundImageFix" result="shape"/>
<feColorMatrix in="SourceAlpha" type="matrix" values="0 0 0 0 0 0 0 0 0 0 0 0 0 0 0 0 0 0 127 0" result="hardAlpha"/>
<feOffset dx="4" dy="12"/>
<feGaussianBlur stdDeviation="2"/>
<feComposite in2="hardAlpha" operator="arithmetic" k2="-1" k3="1"/>
<feColorMatrix type="matrix" values="0 0 0 0 0 0 0 0 0 0 0 0 0 0 0 0 0 0 0.25 0"/>
<feBlend mode="normal" in2="shape" result="effect1_innerShadow_1944_202"/>
</filter>
<linearGradient id="paint0_linear_1944_202" x1="196.475" y1="169.367" x2="323.334" y2="424.57" gradientUnits="userSpaceOnUse">
<stop stop-color="#DB162F"/>
<stop offset="1" stop-color="#9A0D1F"/>
</linearGradient>
<linearGradient id="paint1_linear_1944_202" x1="292.917" y1="371.703" x2="344.106" y2="582.393" gradientUnits="userSpaceOnUse">
<stop stop-color="#002964"/>
<stop offset="1" stop-color="#011532"/>
</linearGradient>
<clipPath id="clip0_1944_202">
<rect width="441" height="441" fill="white" transform="translate(66.5 51)"/>
</clipPath>
</defs>
</svg>
