<svg width="115" height="18" viewBox="0 0 115 18" fill="none" xmlns="http://www.w3.org/2000/svg">
<path d="M7.42792 13.5779L4.31918 9.17385L2.5921 10.7973V13.5779H1.07227V0.970215H2.5921V9.2602L7.22067 4.57981H8.89594L5.30361 8.31031L9.06865 13.5779H7.42792Z" fill="#DB162F"/>
<path d="M12.0933 0.970215H13.6132V11.2463C13.6132 11.5802 13.6995 11.8451 13.8722 12.0408C14.0565 12.225 14.3098 12.3171 14.6321 12.3171C14.7588 12.3171 14.9085 12.2999 15.0812 12.2653C15.2539 12.2193 15.4151 12.1675 15.5648 12.1099L15.8066 13.3361C15.5533 13.4397 15.2539 13.5261 14.9085 13.5952C14.5631 13.6643 14.2579 13.6988 13.9931 13.6988C13.4059 13.6988 12.9396 13.5319 12.5942 13.1979C12.2603 12.864 12.0933 12.3977 12.0933 11.799V0.970215Z" fill="#DB162F"/>
<path d="M18.6264 13.5779V4.56254H20.1463V13.5779H18.6264ZM18.6264 2.87V0.970215H20.1463V2.87H18.6264Z" fill="#DB162F"/>
<path d="M30.6052 13.5779L27.4965 9.17385L25.7694 10.7973V13.5779H24.2496V0.970215H25.7694V9.2602L30.398 4.57981H32.0732L28.4809 8.31031L32.2459 13.5779H30.6052Z" fill="#DB162F"/>
<path d="M38.3469 13.7506C37.6215 13.7506 36.9076 13.6412 36.2053 13.4225C35.5029 13.1922 34.8985 12.864 34.3918 12.438L35.0481 11.4191C35.5778 11.822 36.1074 12.1272 36.637 12.3344C37.1667 12.5301 37.7251 12.628 38.3123 12.628C38.9686 12.628 39.4867 12.5014 39.8667 12.2481C40.2582 11.9832 40.4539 11.6148 40.4539 11.1427C40.4539 10.924 40.4021 10.7397 40.2985 10.5901C40.1948 10.4289 40.0394 10.2907 39.8321 10.1756C39.6249 10.0604 39.3601 9.95679 39.0377 9.86468C38.7153 9.77257 38.3411 9.6747 37.9151 9.57108C37.3739 9.43291 36.9076 9.3005 36.5162 9.17385C36.1247 9.0472 35.8023 8.89752 35.549 8.72481C35.2957 8.5521 35.1115 8.34485 34.9963 8.10306C34.8812 7.86127 34.8236 7.56191 34.8236 7.20498C34.8236 6.75594 34.91 6.35871 35.0827 6.01329C35.2669 5.65636 35.5144 5.36276 35.8253 5.13248C36.1362 4.89069 36.4989 4.71222 36.9134 4.59708C37.3394 4.47043 37.7942 4.40711 38.2778 4.40711C38.9571 4.40711 39.5904 4.51649 40.1776 4.73525C40.7648 4.95401 41.2599 5.24186 41.6629 5.59879L40.972 6.51414C40.5921 6.18024 40.1661 5.93269 39.694 5.7715C39.2219 5.59879 38.7383 5.51244 38.2432 5.51244C37.6906 5.51244 37.2185 5.63333 36.827 5.87513C36.4471 6.1054 36.2571 6.4796 36.2571 6.99773C36.2571 7.20498 36.2916 7.37769 36.3607 7.51585C36.4413 7.65402 36.568 7.77491 36.7407 7.87854C36.9134 7.98216 37.1321 8.07427 37.397 8.15487C37.6733 8.23547 38.0014 8.32182 38.3814 8.41393C38.9801 8.5521 39.4982 8.69602 39.9358 8.8457C40.3848 8.98387 40.7533 9.15082 41.0411 9.34656C41.3405 9.54229 41.5592 9.77257 41.6974 10.0374C41.8471 10.3022 41.9219 10.6246 41.9219 11.0046C41.9219 11.8451 41.5995 12.5129 40.9548 13.008C40.31 13.5031 39.4407 13.7506 38.3469 13.7506Z" fill="#DB162F"/>
<path d="M50.2493 13.7506C49.5009 13.7506 48.8388 13.5664 48.2631 13.1979C47.699 12.8295 47.2499 12.3632 46.916 11.799V17.2566H45.3962V4.56254H46.7433V6.25508C47.1002 5.70242 47.5608 5.25913 48.125 4.92523C48.7007 4.57981 49.3339 4.40711 50.0248 4.40711C50.6465 4.40711 51.2164 4.53376 51.7346 4.78706C52.2527 5.04037 52.7017 5.38579 53.0817 5.82331C53.4617 6.24933 53.7553 6.74442 53.9625 7.3086C54.1813 7.87278 54.2907 8.45999 54.2907 9.07023C54.2907 9.715 54.1928 10.3252 53.9971 10.9009C53.8013 11.4651 53.525 11.9602 53.1681 12.3862C52.8111 12.8007 52.3851 13.1346 51.89 13.3879C51.3949 13.6297 50.848 13.7506 50.2493 13.7506ZM49.783 12.438C50.232 12.438 50.635 12.3459 50.9919 12.1617C51.3604 11.966 51.6712 11.7127 51.9246 11.4018C52.1894 11.0794 52.3909 10.7167 52.529 10.3137C52.6672 9.91074 52.7363 9.49624 52.7363 9.07023C52.7363 8.62118 52.6557 8.19517 52.4945 7.79219C52.3333 7.37769 52.1145 7.02076 51.8382 6.72139C51.5619 6.41052 51.2337 6.16873 50.8538 5.99602C50.4853 5.8118 50.0823 5.71969 49.6448 5.71969C49.3685 5.71969 49.0806 5.77726 48.7813 5.8924C48.4934 5.99602 48.2171 6.13994 47.9523 6.32417C47.699 6.49687 47.4744 6.70988 47.2787 6.96319C47.0945 7.20498 46.9736 7.46404 46.916 7.74037V10.3137C47.0427 10.6131 47.2039 10.8952 47.3996 11.16C47.5953 11.4133 47.8199 11.6378 48.0732 11.8336C48.3265 12.0178 48.597 12.1675 48.8849 12.2826C49.1727 12.3862 49.4721 12.438 49.783 12.438Z" fill="#DB162F"/>
<path d="M57.8677 0.970215H59.3876V11.2463C59.3876 11.5802 59.4739 11.8451 59.6466 12.0408C59.8309 12.225 60.0842 12.3171 60.4065 12.3171C60.5332 12.3171 60.6829 12.2999 60.8556 12.2653C61.0283 12.2193 61.1895 12.1675 61.3392 12.1099L61.581 13.3361C61.3277 13.4397 61.0283 13.5261 60.6829 13.5952C60.3375 13.6643 60.0323 13.6988 59.7675 13.6988C59.1803 13.6988 58.714 13.5319 58.3686 13.1979C58.0347 12.864 57.8677 12.3977 57.8677 11.799V0.970215Z" fill="#DB162F"/>
<path d="M7.42792 13.5779L7.22368 13.7221C7.27053 13.7884 7.34669 13.8279 7.42792 13.8279V13.5779ZM4.31918 9.17385L4.52342 9.02968C4.48168 8.97054 4.41636 8.9324 4.34434 8.92512C4.27233 8.91783 4.20069 8.94212 4.14795 8.99169L4.31918 9.17385ZM2.5921 10.7973L2.42087 10.6151C2.3706 10.6624 2.3421 10.7283 2.3421 10.7973H2.5921ZM2.5921 13.5779V13.8279C2.73017 13.8279 2.8421 13.716 2.8421 13.5779H2.5921ZM1.07227 13.5779H0.822266C0.822266 13.716 0.934194 13.8279 1.07227 13.8279V13.5779ZM1.07227 0.970215V0.720215C0.934194 0.720215 0.822266 0.832144 0.822266 0.970215H1.07227ZM2.5921 0.970215H2.8421C2.8421 0.832144 2.73017 0.720215 2.5921 0.720215V0.970215ZM2.5921 9.2602H2.3421C2.3421 9.36157 2.40331 9.45291 2.49707 9.49144C2.59083 9.52997 2.69858 9.50807 2.76985 9.43599L2.5921 9.2602ZM7.22067 4.57981V4.32981C7.15389 4.32981 7.08988 4.35654 7.04292 4.40402L7.22067 4.57981ZM8.89594 4.57981L9.07602 4.75322C9.14557 4.68101 9.16524 4.57423 9.126 4.48197C9.08676 4.38971 8.9962 4.32981 8.89594 4.32981V4.57981ZM5.30361 8.31031L5.12353 8.1369C5.03998 8.22367 5.03018 8.35768 5.10023 8.45568L5.30361 8.31031ZM9.06865 13.5779V13.8279C9.16231 13.8279 9.24812 13.7756 9.29096 13.6923C9.33381 13.609 9.3265 13.5087 9.27204 13.4325L9.06865 13.5779ZM12.0933 0.970215V0.720215C11.9553 0.720215 11.8433 0.832144 11.8433 0.970215H12.0933ZM13.6132 0.970215H13.8632C13.8632 0.832144 13.7512 0.720215 13.6132 0.720215V0.970215ZM13.8722 12.0408L13.6848 12.2062C13.6882 12.2101 13.6918 12.2139 13.6955 12.2176L13.8722 12.0408ZM15.0812 12.2653L15.1302 12.5105C15.1354 12.5094 15.1405 12.5082 15.1456 12.5069L15.0812 12.2653ZM15.5648 12.1099L15.81 12.0615C15.7958 11.9891 15.7502 11.9267 15.6856 11.891C15.621 11.8554 15.5439 11.8501 15.475 11.8766L15.5648 12.1099ZM15.8066 13.3361L15.9012 13.5675C16.0118 13.5222 16.075 13.405 16.0518 13.2878L15.8066 13.3361ZM14.9085 13.5952L14.9575 13.8403L14.9575 13.8403L14.9085 13.5952ZM12.5942 13.1979L12.4174 13.3748L12.4204 13.3777L12.5942 13.1979ZM18.6264 13.5779H18.3764C18.3764 13.716 18.4884 13.8279 18.6264 13.8279V13.5779ZM18.6264 4.56254V4.31254C18.4884 4.31254 18.3764 4.42447 18.3764 4.56254H18.6264ZM20.1463 4.56254H20.3963C20.3963 4.42447 20.2843 4.31254 20.1463 4.31254V4.56254ZM20.1463 13.5779V13.8279C20.2843 13.8279 20.3963 13.716 20.3963 13.5779H20.1463ZM18.6264 2.87H18.3764C18.3764 3.00808 18.4884 3.12 18.6264 3.12V2.87ZM18.6264 0.970215V0.720215C18.4884 0.720215 18.3764 0.832144 18.3764 0.970215H18.6264ZM20.1463 0.970215H20.3963C20.3963 0.832144 20.2843 0.720215 20.1463 0.720215V0.970215ZM20.1463 2.87V3.12C20.2843 3.12 20.3963 3.00808 20.3963 2.87H20.1463ZM30.6052 13.5779L30.401 13.7221C30.4478 13.7884 30.524 13.8279 30.6052 13.8279V13.5779ZM27.4965 9.17385L27.7007 9.02968C27.659 8.97054 27.5937 8.9324 27.5216 8.92512C27.4496 8.91783 27.378 8.94212 27.3252 8.99169L27.4965 9.17385ZM25.7694 10.7973L25.5982 10.6151C25.5479 10.6624 25.5194 10.7283 25.5194 10.7973H25.7694ZM25.7694 13.5779V13.8279C25.9075 13.8279 26.0194 13.716 26.0194 13.5779H25.7694ZM24.2496 13.5779H23.9996C23.9996 13.716 24.1115 13.8279 24.2496 13.8279V13.5779ZM24.2496 0.970215V0.720215C24.1115 0.720215 23.9996 0.832144 23.9996 0.970215H24.2496ZM25.7694 0.970215H26.0194C26.0194 0.832144 25.9075 0.720215 25.7694 0.720215V0.970215ZM25.7694 9.2602H25.5194C25.5194 9.36157 25.5806 9.45291 25.6744 9.49144C25.7681 9.52997 25.8759 9.50807 25.9471 9.43599L25.7694 9.2602ZM30.398 4.57981V4.32981C30.3312 4.32981 30.2672 4.35654 30.2202 4.40402L30.398 4.57981ZM32.0732 4.57981L32.2533 4.75322C32.3229 4.68101 32.3425 4.57423 32.3033 4.48197C32.2641 4.38971 32.1735 4.32981 32.0732 4.32981V4.57981ZM28.4809 8.31031L28.3008 8.1369C28.2173 8.22367 28.2075 8.35768 28.2775 8.45568L28.4809 8.31031ZM32.2459 13.5779V13.8279C32.3396 13.8279 32.4254 13.7756 32.4683 13.6923C32.5111 13.609 32.5038 13.5087 32.4493 13.4325L32.2459 13.5779ZM36.2053 13.4225L36.1274 13.6601L36.1309 13.6612L36.2053 13.4225ZM34.3918 12.438L34.1817 12.3027C34.1135 12.4084 34.1346 12.5484 34.2309 12.6294L34.3918 12.438ZM35.0481 11.4191L35.1995 11.2201C35.144 11.1779 35.0735 11.1608 35.0048 11.1728C34.9362 11.1849 34.8757 11.2251 34.838 11.2837L35.0481 11.4191ZM36.637 12.3344L36.5459 12.5673L36.5504 12.5689L36.637 12.3344ZM39.8667 12.2481L40.0054 12.4561L40.0068 12.4551L39.8667 12.2481ZM40.2985 10.5901L40.088 10.7253L40.0929 10.7324L40.2985 10.5901ZM39.8321 10.1756L39.7107 10.3941L39.7107 10.3941L39.8321 10.1756ZM39.0377 9.86468L38.969 10.1051L38.969 10.1051L39.0377 9.86468ZM37.9151 9.57108L37.8532 9.81332L37.856 9.814L37.9151 9.57108ZM36.5162 9.17385L36.5931 8.93599L36.5931 8.93599L36.5162 9.17385ZM35.549 8.72481L35.6898 8.51825L35.6898 8.51825L35.549 8.72481ZM34.9963 8.10306L34.7706 8.21054L34.7706 8.21054L34.9963 8.10306ZM35.0827 6.01329L34.8605 5.89862L34.8591 5.90149L35.0827 6.01329ZM35.8253 5.13248L35.9742 5.33342L35.9788 5.32982L35.8253 5.13248ZM36.9134 4.59708L36.9803 4.838L36.9846 4.83672L36.9134 4.59708ZM41.6629 5.59879L41.8624 5.74939C41.941 5.64524 41.9263 5.49816 41.8286 5.41164L41.6629 5.59879ZM40.972 6.51414L40.807 6.70194C40.8592 6.74784 40.9282 6.76991 40.9974 6.76285C41.0666 6.7558 41.1297 6.72025 41.1716 6.66475L40.972 6.51414ZM39.694 5.7715L39.6081 6.00634L39.6132 6.00809L39.694 5.7715ZM36.827 5.87513L36.9566 6.08893L36.9584 6.08782L36.827 5.87513ZM36.3607 7.51585L36.1371 7.62766C36.1395 7.63246 36.1421 7.63718 36.1448 7.64182L36.3607 7.51585ZM37.397 8.15487L37.3242 8.39406L37.327 8.39487L37.397 8.15487ZM38.3814 8.41393L38.3225 8.65691L38.3252 8.65753L38.3814 8.41393ZM39.9358 8.8457L39.8548 9.08236L39.8623 9.08465L39.9358 8.8457ZM41.0411 9.34656L40.9005 9.55332L40.9043 9.5558L41.0411 9.34656ZM41.6974 10.0374L41.4756 10.1531L41.4798 10.1604L41.6974 10.0374ZM40.9548 13.008L41.107 13.2063L41.107 13.2063L40.9548 13.008ZM48.2631 13.1979L48.1264 13.4073L48.1284 13.4085L48.2631 13.1979ZM46.916 11.799L47.1312 11.6717C47.0738 11.5747 46.9587 11.5281 46.85 11.5579C46.7414 11.5876 46.666 11.6864 46.666 11.799H46.916ZM46.916 17.2566V17.5066C47.0541 17.5066 47.166 17.3947 47.166 17.2566H46.916ZM45.3962 17.2566H45.1462C45.1462 17.3947 45.2581 17.5066 45.3962 17.5066V17.2566ZM45.3962 4.56254V4.31254C45.2581 4.31254 45.1462 4.42447 45.1462 4.56254H45.3962ZM46.7433 4.56254H46.9933C46.9933 4.42447 46.8814 4.31254 46.7433 4.31254V4.56254ZM46.7433 6.25508H46.4933C46.4933 6.36592 46.5663 6.46353 46.6726 6.49488C46.7789 6.52622 46.8932 6.48382 46.9533 6.39071L46.7433 6.25508ZM48.125 4.92523L48.2523 5.14038L48.2536 5.1396L48.125 4.92523ZM51.7346 4.78706L51.6248 5.01166L51.6248 5.01166L51.7346 4.78706ZM53.0817 5.82331L52.8929 5.98725L52.8951 5.98972L53.0817 5.82331ZM53.9625 7.3086L53.7278 7.39482L53.7294 7.39898L53.9625 7.3086ZM53.9971 10.9009L54.2332 10.9829L54.2337 10.9814L53.9971 10.9009ZM53.1681 12.3862L53.3575 12.5494L53.3597 12.5468L53.1681 12.3862ZM51.89 13.3879L51.9997 13.6126L52.0039 13.6105L51.89 13.3879ZM50.9919 12.1617L51.1066 12.3839L51.1092 12.3825L50.9919 12.1617ZM51.9246 11.4018L51.7314 11.2431L51.7307 11.2439L51.9246 11.4018ZM52.4945 7.79219L52.2615 7.8828L52.2624 7.88503L52.4945 7.79219ZM51.8382 6.72139L51.6513 6.88751L51.6545 6.89096L51.8382 6.72139ZM50.8538 5.99602L50.7419 6.21978L50.7503 6.22361L50.8538 5.99602ZM48.7813 5.8924L48.866 6.12767L48.871 6.12573L48.7813 5.8924ZM47.9523 6.32417L48.0931 6.53073L48.095 6.52939L47.9523 6.32417ZM47.2787 6.96319L47.0809 6.81032L47.0798 6.81167L47.2787 6.96319ZM46.916 7.74037L46.6713 7.68938C46.6678 7.70615 46.666 7.72324 46.666 7.74037H46.916ZM46.916 10.3137H46.666C46.666 10.3472 46.6727 10.3803 46.6858 10.4111L46.916 10.3137ZM47.3996 11.16L47.1985 11.3086L47.2018 11.3129L47.3996 11.16ZM48.0732 11.8336L47.9202 12.0315L47.9261 12.0357L48.0732 11.8336ZM48.8849 12.2826L48.792 12.5149L48.8002 12.5178L48.8849 12.2826ZM57.8677 0.970215V0.720215C57.7297 0.720215 57.6177 0.832144 57.6177 0.970215H57.8677ZM59.3876 0.970215H59.6376C59.6376 0.832144 59.5256 0.720215 59.3876 0.720215V0.970215ZM59.6466 12.0408L59.4592 12.2062C59.4626 12.2101 59.4662 12.2139 59.4699 12.2176L59.6466 12.0408ZM60.8556 12.2653L60.9046 12.5105C60.9098 12.5094 60.9149 12.5082 60.92 12.5069L60.8556 12.2653ZM61.3392 12.1099L61.5844 12.0615C61.5702 11.9891 61.5246 11.9267 61.46 11.891C61.3954 11.8554 61.3183 11.8501 61.2494 11.8766L61.3392 12.1099ZM61.581 13.3361L61.6756 13.5675C61.7862 13.5222 61.8494 13.405 61.8262 13.2878L61.581 13.3361ZM60.6829 13.5952L60.7319 13.8403L60.7319 13.8403L60.6829 13.5952ZM58.3686 13.1979L58.1918 13.3748L58.1948 13.3777L58.3686 13.1979ZM7.63217 13.4337L4.52342 9.02968L4.11494 9.31802L7.22368 13.7221L7.63217 13.4337ZM4.14795 8.99169L2.42087 10.6151L2.76332 10.9795L4.49041 9.35601L4.14795 8.99169ZM2.3421 10.7973V13.5779H2.8421V10.7973H2.3421ZM2.5921 13.3279H1.07227V13.8279H2.5921V13.3279ZM1.32227 13.5779V0.970215H0.822266V13.5779H1.32227ZM1.07227 1.22021H2.5921V0.720215H1.07227V1.22021ZM2.3421 0.970215V9.2602H2.8421V0.970215H2.3421ZM2.76985 9.43599L7.39843 4.7556L7.04292 4.40402L2.41434 9.08441L2.76985 9.43599ZM7.22067 4.82981H8.89594V4.32981H7.22067V4.82981ZM8.71586 4.4064L5.12353 8.1369L5.48369 8.48372L9.07602 4.75322L8.71586 4.4064ZM5.10023 8.45568L8.86526 13.7233L9.27204 13.4325L5.507 8.16494L5.10023 8.45568ZM9.06865 13.3279H7.42792V13.8279H9.06865V13.3279ZM12.0933 1.22021H13.6132V0.720215H12.0933V1.22021ZM13.3632 0.970215V11.2463H13.8632V0.970215H13.3632ZM13.3632 11.2463C13.3632 11.6237 13.4615 11.9532 13.6848 12.2062L14.0597 11.8754C13.9375 11.7369 13.8632 11.5368 13.8632 11.2463H13.3632ZM13.6955 12.2176C13.9372 12.4593 14.2601 12.5671 14.6321 12.5671V12.0671C14.3594 12.0671 14.1757 11.9908 14.049 11.864L13.6955 12.2176ZM14.6321 12.5671C14.7802 12.5671 14.9471 12.5471 15.1302 12.5105L15.0322 12.0202C14.8698 12.0526 14.7374 12.0671 14.6321 12.0671V12.5671ZM15.1456 12.5069C15.3259 12.4588 15.4957 12.4043 15.6545 12.3432L15.475 11.8766C15.3345 11.9306 15.1819 11.9797 15.0168 12.0238L15.1456 12.5069ZM15.3195 12.1583L15.5613 13.3845L16.0518 13.2878L15.81 12.0615L15.3195 12.1583ZM15.7119 13.1047C15.4768 13.2009 15.1934 13.2832 14.8595 13.35L14.9575 13.8403C15.3143 13.769 15.6297 13.6786 15.9012 13.5675L15.7119 13.1047ZM14.8595 13.35C14.5252 13.4169 14.2371 13.4488 13.9931 13.4488V13.9488C14.2788 13.9488 14.6009 13.9116 14.9575 13.8403L14.8595 13.35ZM13.9931 13.4488C13.4555 13.4488 13.0568 13.2974 12.7679 13.0182L12.4204 13.3777C12.8224 13.7663 13.3563 13.9488 13.9931 13.9488V13.4488ZM12.771 13.0212C12.4957 12.7459 12.3433 12.3501 12.3433 11.799H11.8433C11.8433 12.4454 12.0249 12.9822 12.4174 13.3747L12.771 13.0212ZM12.3433 11.799V0.970215H11.8433V11.799H12.3433ZM18.8764 13.5779V4.56254H18.3764V13.5779H18.8764ZM18.6264 4.81254H20.1463V4.31254H18.6264V4.81254ZM19.8963 4.56254V13.5779H20.3963V4.56254H19.8963ZM20.1463 13.3279H18.6264V13.8279H20.1463V13.3279ZM18.8764 2.87V0.970215H18.3764V2.87H18.8764ZM18.6264 1.22021H20.1463V0.720215H18.6264V1.22021ZM19.8963 0.970215V2.87H20.3963V0.970215H19.8963ZM20.1463 2.62H18.6264V3.12H20.1463V2.62ZM30.8095 13.4337L27.7007 9.02968L27.2922 9.31802L30.401 13.7221L30.8095 13.4337ZM27.3252 8.99169L25.5982 10.6151L25.9406 10.9795L27.6677 9.35601L27.3252 8.99169ZM25.5194 10.7973V13.5779H26.0194V10.7973H25.5194ZM25.7694 13.3279H24.2496V13.8279H25.7694V13.3279ZM24.4996 13.5779V0.970215H23.9996V13.5779H24.4996ZM24.2496 1.22021H25.7694V0.720215H24.2496V1.22021ZM25.5194 0.970215V9.2602H26.0194V0.970215H25.5194ZM25.9471 9.43599L30.5757 4.7556L30.2202 4.40402L25.5916 9.08441L25.9471 9.43599ZM30.398 4.82981H32.0732V4.32981H30.398V4.82981ZM31.8932 4.4064L28.3008 8.1369L28.661 8.48372L32.2533 4.75322L31.8932 4.4064ZM28.2775 8.45568L32.0426 13.7233L32.4493 13.4325L28.6843 8.16494L28.2775 8.45568ZM32.2459 13.3279H30.6052V13.8279H32.2459V13.3279ZM38.3469 13.5006C37.6471 13.5006 36.9582 13.3952 36.2796 13.1838L36.1309 13.6612C36.857 13.8873 37.5959 14.0006 38.3469 14.0006V13.5006ZM36.2832 13.1849C35.6077 12.9634 35.0322 12.6499 34.5527 12.2467L34.2309 12.6294C34.7647 13.0782 35.3982 13.421 36.1274 13.66L36.2832 13.1849ZM34.602 12.5734L35.2583 11.5544L34.838 11.2837L34.1817 12.3027L34.602 12.5734ZM34.8968 11.618C35.4418 12.0327 35.9915 12.3502 36.5459 12.5672L36.7281 12.1016C36.2234 11.9041 35.7138 11.6114 35.1995 11.2201L34.8968 11.618ZM36.5504 12.5689C37.1089 12.7753 37.6967 12.878 38.3123 12.878V12.378C37.7535 12.378 37.2245 12.285 36.7237 12.0999L36.5504 12.5689ZM38.3123 12.878C38.9974 12.878 39.57 12.7463 40.0054 12.4561L39.728 12.04C39.4034 12.2564 38.9398 12.378 38.3123 12.378V12.878ZM40.0068 12.4551C40.4669 12.1439 40.7039 11.6979 40.7039 11.1427H40.2039C40.2039 11.5317 40.0494 11.8226 39.7266 12.041L40.0068 12.4551ZM40.7039 11.1427C40.7039 10.8836 40.642 10.6471 40.504 10.4478L40.0929 10.7324C40.1622 10.8324 40.2039 10.9644 40.2039 11.1427H40.7039ZM40.5088 10.4549C40.3781 10.2517 40.1884 10.0875 39.9536 9.95702L39.7107 10.3941C39.8904 10.4939 40.0115 10.606 40.0882 10.7252L40.5088 10.4549ZM39.9536 9.95702C39.7243 9.82967 39.4402 9.71968 39.1064 9.6243L38.969 10.1051C39.28 10.1939 39.5255 10.2912 39.7107 10.3941L39.9536 9.95702ZM39.1064 9.6243C38.78 9.53106 38.4025 9.43235 37.9742 9.32816L37.856 9.814C38.2797 9.91706 38.6506 10.0141 38.969 10.1051L39.1064 9.6243ZM37.9769 9.32885C37.4392 9.19156 36.9782 9.06057 36.5931 8.93599L36.4392 9.41171C36.8371 9.54043 37.3087 9.67427 37.8532 9.81331L37.9769 9.32885ZM36.5931 8.93599C36.2171 8.81434 35.918 8.67384 35.6898 8.51825L35.4082 8.93137C35.6866 9.12119 36.0323 9.28006 36.4392 9.41171L36.5931 8.93599ZM35.6898 8.51825C35.4677 8.36681 35.3155 8.19192 35.222 7.99558L34.7706 8.21054C34.9074 8.49778 35.1237 8.7374 35.4082 8.93137L35.6898 8.51825ZM35.222 7.99558C35.1273 7.79659 35.0736 7.53651 35.0736 7.20498H34.5736C34.5736 7.5873 34.6351 7.92594 34.7706 8.21054L35.222 7.99558ZM35.0736 7.20498C35.0736 6.78844 35.1536 6.43056 35.3063 6.12509L34.8591 5.90149C34.6664 6.28685 34.5736 6.72344 34.5736 7.20498H35.0736ZM35.3048 6.12795C35.4722 5.80366 35.6952 5.54001 35.9741 5.33337L35.6765 4.93159C35.3337 5.18551 35.0616 5.50907 34.8605 5.89863L35.3048 6.12795ZM35.9788 5.32982C36.2617 5.10983 36.5943 4.94518 36.9803 4.83796L36.8465 4.35621C36.4035 4.47926 36.0107 4.67155 35.6718 4.93514L35.9788 5.32982ZM36.9846 4.83672C37.3856 4.71752 37.8162 4.65711 38.2778 4.65711V4.15711C37.7722 4.15711 37.2932 4.22335 36.8421 4.35745L36.9846 4.83672ZM38.2778 4.65711C38.9298 4.65711 39.5333 4.762 40.0903 4.96952L40.2648 4.50098C39.6475 4.27097 38.9844 4.15711 38.2778 4.15711V4.65711ZM40.0903 4.96952C40.6533 5.17928 41.1206 5.45247 41.4971 5.78594L41.8286 5.41164C41.3991 5.03126 40.8762 4.72875 40.2648 4.50098L40.0903 4.96952ZM41.4633 5.44819L40.7725 6.36354L41.1716 6.66475L41.8624 5.74939L41.4633 5.44819ZM41.1371 6.32635C40.7328 5.97113 40.2783 5.70685 39.7748 5.53491L39.6132 6.00809C40.0538 6.15854 40.4513 6.38935 40.807 6.70194L41.1371 6.32635ZM39.7799 5.53672C39.2807 5.3541 38.7681 5.26244 38.2432 5.26244V5.76244C38.7086 5.76244 39.1631 5.84348 39.6081 6.00628L39.7799 5.53672ZM38.2432 5.26244C37.6536 5.26244 37.1339 5.39174 36.6957 5.66243L36.9584 6.08782C37.3031 5.87493 37.7276 5.76244 38.2432 5.76244V5.26244ZM36.6975 5.66133C36.2292 5.94514 36.0071 6.40933 36.0071 6.99773H36.5071C36.5071 6.54987 36.665 6.26566 36.9566 6.08892L36.6975 5.66133ZM36.0071 6.99773C36.0071 7.23114 36.0458 7.445 36.1371 7.62766L36.5843 7.40405C36.5375 7.31037 36.5071 7.17882 36.5071 6.99773H36.0071ZM36.1448 7.64182C36.2514 7.82458 36.4124 7.97315 36.6121 8.09291L36.8693 7.66417C36.7235 7.57668 36.6312 7.48346 36.5767 7.38988L36.1448 7.64182ZM36.6121 8.09291C36.8074 8.21014 37.0465 8.30954 37.3242 8.39404L37.4698 7.9157C37.2178 7.83901 37.0193 7.75419 36.8693 7.66417L36.6121 8.09291ZM37.327 8.39487C37.608 8.47684 37.94 8.56418 38.3225 8.6569L38.4403 8.17097C38.0628 8.07947 37.7386 7.9941 37.467 7.91487L37.327 8.39487ZM38.3252 8.65753C38.9181 8.79436 39.4276 8.93607 39.8549 9.08225L40.0167 8.60916C39.5689 8.45598 39.0422 8.30985 38.4376 8.17034L38.3252 8.65753ZM39.8623 9.08465C40.2952 9.21787 40.6391 9.3755 40.9005 9.55329L41.1817 9.13983C40.8674 8.92614 40.4744 8.74987 40.0093 8.60676L39.8623 9.08465ZM40.9043 9.5558C41.1749 9.73273 41.361 9.933 41.4758 10.153L41.919 9.92175C41.7575 9.61214 41.506 9.35185 41.1779 9.13732L40.9043 9.5558ZM41.4798 10.1604C41.6036 10.3794 41.6719 10.6571 41.6719 11.0046H42.1719C42.1719 10.5921 42.0906 10.225 41.915 9.91438L41.4798 10.1604ZM41.6719 11.0046C41.6719 11.7705 41.3832 12.3637 40.8025 12.8097L41.107 13.2063C41.8158 12.662 42.1719 11.9197 42.1719 11.0046H41.6719ZM40.8025 12.8097C40.2143 13.2613 39.4045 13.5006 38.3469 13.5006V14.0006C39.4769 14.0006 40.4056 13.7448 41.107 13.2063L40.8025 12.8097ZM50.2493 13.5006C49.5439 13.5006 48.9296 13.3276 48.3979 12.9874L48.1284 13.4085C48.7481 13.8051 49.4578 14.0006 50.2493 14.0006V13.5006ZM48.3998 12.9886C47.8668 12.6405 47.445 12.2019 47.1312 11.6717L46.7009 11.9263C47.0548 12.5244 47.5311 13.0185 48.1264 13.4073L48.3998 12.9886ZM46.666 11.799V17.2566H47.166V11.799H46.666ZM46.916 17.0066H45.3962V17.5066H46.916V17.0066ZM45.6462 17.2566V4.56254H45.1462V17.2566H45.6462ZM45.3962 4.81254H46.7433V4.31254H45.3962V4.81254ZM46.4933 4.56254V6.25508H46.9933V4.56254H46.4933ZM46.9533 6.39071C47.2893 5.87048 47.7216 5.45447 48.2523 5.14037L47.9976 4.71009C47.4 5.0638 46.9112 5.53435 46.5333 6.11945L46.9533 6.39071ZM48.2536 5.1396C48.7893 4.8182 49.3779 4.65711 50.0248 4.65711V4.15711C49.29 4.15711 48.6121 4.34143 47.9963 4.71086L48.2536 5.1396ZM50.0248 4.65711C50.6115 4.65711 51.1435 4.77635 51.6248 5.01166L51.8444 4.56247C51.2894 4.29117 50.6815 4.15711 50.0248 4.15711V4.65711ZM51.6248 5.01166C52.1126 5.25017 52.5349 5.5749 52.8929 5.98723L53.2705 5.65939C52.8686 5.19667 52.3928 4.83057 51.8444 4.56247L51.6248 5.01166ZM52.8951 5.98972C53.2531 6.39103 53.5309 6.85856 53.7278 7.39481L54.1972 7.2224C53.9797 6.63028 53.6703 6.10762 53.2683 5.65691L52.8951 5.98972ZM53.7294 7.39898C53.9369 7.93409 54.0407 8.49064 54.0407 9.07023H54.5407C54.5407 8.42934 54.4256 7.81147 54.1956 7.21822L53.7294 7.39898ZM54.0407 9.07023C54.0407 9.68929 53.9468 10.2722 53.7604 10.8205L54.2337 10.9814C54.4388 10.3783 54.5407 9.74071 54.5407 9.07023H54.0407ZM53.7609 10.819C53.5743 11.3566 53.3124 11.8246 52.9764 12.2257L53.3597 12.5468C53.7375 12.0958 54.0283 11.5736 54.2332 10.9829L53.7609 10.819ZM52.9786 12.2231C52.6431 12.6127 52.2429 12.9265 51.7761 13.1654L52.0039 13.6105C52.5273 13.3427 52.9791 12.9888 53.3575 12.5494L52.9786 12.2231ZM51.7803 13.1633C51.3223 13.387 50.8133 13.5006 50.2493 13.5006V14.0006C50.8827 14.0006 51.4676 13.8725 51.9997 13.6126L51.7803 13.1633ZM49.783 12.688C50.2671 12.688 50.7102 12.5884 51.1066 12.3839L50.8773 11.9395C50.5598 12.1034 50.1969 12.188 49.783 12.188V12.688ZM51.1092 12.3825C51.5059 12.1717 51.8431 11.8975 52.1184 11.5597L51.7307 11.2439C51.4994 11.5278 51.2149 11.7602 50.8746 11.9409L51.1092 12.3825ZM52.1177 11.5605C52.4019 11.2145 52.6179 10.8254 52.7655 10.3948L52.2925 10.2326C52.1639 10.608 51.9768 10.9443 51.7314 11.2431L52.1177 11.5605ZM52.7655 10.3948C52.9126 9.96572 52.9863 9.52383 52.9863 9.07023H52.4863C52.4863 9.46865 52.4218 9.85575 52.2925 10.2326L52.7655 10.3948ZM52.9863 9.07023C52.9863 8.5905 52.9 8.13288 52.7266 7.69934L52.2624 7.88503C52.4113 8.25746 52.4863 8.65187 52.4863 9.07023H52.9863ZM52.7275 7.70157C52.556 7.26058 52.3213 6.87621 52.0219 6.55182L51.6545 6.89096C51.9077 7.1653 52.1106 7.49479 52.2615 7.8828L52.7275 7.70157ZM52.0251 6.5553C51.7254 6.21824 51.3688 5.95554 50.9572 5.76843L50.7503 6.22361C51.0986 6.38192 51.3983 6.6028 51.6513 6.88749L52.0251 6.5553ZM50.9656 5.77241C50.5603 5.56976 50.1187 5.46969 49.6448 5.46969V5.96969C50.046 5.96969 50.4104 6.05384 50.742 6.21963L50.9656 5.77241ZM49.6448 5.46969C49.3333 5.46969 49.015 5.53465 48.6915 5.65906L48.871 6.12573C49.1463 6.01987 49.4037 5.96969 49.6448 5.96969V5.46969ZM48.6966 5.65717C48.3871 5.7686 48.0913 5.9229 47.8095 6.11894L48.095 6.52939C48.3429 6.35699 48.5998 6.22344 48.8659 6.12762L48.6966 5.65717ZM47.8114 6.11761C47.5355 6.30575 47.292 6.53716 47.0809 6.81032L47.4765 7.11605C47.6569 6.8826 47.8624 6.68799 48.0931 6.53072L47.8114 6.11761ZM47.0798 6.81167C46.8748 7.08081 46.737 7.37378 46.6713 7.68938L47.1608 7.79136C47.2102 7.55429 47.3142 7.32915 47.4776 7.1147L47.0798 6.81167ZM46.666 7.74037V10.3137H47.166V7.74037H46.666ZM46.6858 10.4111C46.8202 10.7289 46.9913 11.0281 47.1986 11.3086L47.6006 11.0114C47.4165 10.7622 47.2651 10.4973 47.1463 10.2163L46.6858 10.4111ZM47.2018 11.3129C47.4105 11.583 47.6502 11.8226 47.9203 12.0314L48.226 11.6357C47.9896 11.453 47.7801 11.2436 47.5974 11.0071L47.2018 11.3129ZM47.9261 12.0357C48.196 12.232 48.4848 12.3918 48.792 12.5147L48.9777 12.0505C48.7093 11.9431 48.4569 11.8035 48.2202 11.6314L47.9261 12.0357ZM48.8002 12.5178C49.1157 12.6314 49.4437 12.688 49.783 12.688V12.188C49.5005 12.188 49.2298 12.1411 48.9696 12.0474L48.8002 12.5178ZM57.8677 1.22021H59.3876V0.720215H57.8677V1.22021ZM59.1376 0.970215V11.2463H59.6376V0.970215H59.1376ZM59.1376 11.2463C59.1376 11.6237 59.2359 11.9532 59.4592 12.2062L59.8341 11.8754C59.7119 11.7369 59.6376 11.5368 59.6376 11.2463H59.1376ZM59.4699 12.2176C59.7116 12.4593 60.0345 12.5671 60.4065 12.5671V12.0671C60.1338 12.0671 59.9501 11.9908 59.8234 11.864L59.4699 12.2176ZM60.4065 12.5671C60.5546 12.5671 60.7215 12.5471 60.9046 12.5105L60.8066 12.0202C60.6442 12.0526 60.5118 12.0671 60.4065 12.0671V12.5671ZM60.92 12.5069C61.1003 12.4588 61.2701 12.4043 61.4289 12.3432L61.2494 11.8766C61.1089 11.9306 60.9563 11.9797 60.7912 12.0238L60.92 12.5069ZM61.0939 12.1583L61.3357 13.3845L61.8262 13.2878L61.5844 12.0615L61.0939 12.1583ZM61.4863 13.1047C61.2512 13.2009 60.9678 13.2832 60.6338 13.35L60.7319 13.8403C61.0887 13.769 61.4041 13.6786 61.6756 13.5675L61.4863 13.1047ZM60.6338 13.35C60.2996 13.4169 60.0115 13.4488 59.7675 13.4488V13.9488C60.0532 13.9488 60.3753 13.9116 60.7319 13.8403L60.6338 13.35ZM59.7675 13.4488C59.2299 13.4488 58.8312 13.2974 58.5423 13.0182L58.1948 13.3777C58.5968 13.7663 59.1307 13.9488 59.7675 13.9488V13.4488ZM58.5454 13.0212C58.2701 12.7459 58.1177 12.3501 58.1177 11.799H57.6177C57.6177 12.4454 57.7993 12.9822 58.1918 13.3747L58.5454 13.0212ZM58.1177 11.799V0.970215H57.6177V11.799H58.1177Z" fill="#DB162F"/>
<path d="M76.5996 9.05295C76.5996 8.41969 76.709 7.82097 76.9278 7.25679C77.1465 6.69261 77.4574 6.20327 77.8604 5.78877C78.2634 5.36276 78.7412 5.02885 79.2939 4.78706C79.858 4.53376 80.4855 4.4071 81.1764 4.4071C82.0745 4.4071 82.8459 4.6086 83.4907 5.01158C84.147 5.40305 84.6421 5.93269 84.976 6.6005L83.4907 7.06681C83.2604 6.6408 82.938 6.31265 82.5235 6.08237C82.109 5.84058 81.6484 5.71969 81.1418 5.71969C80.7273 5.71969 80.3359 5.80604 79.9674 5.97875C79.599 6.13994 79.2823 6.37022 79.0175 6.66958C78.7527 6.96894 78.5397 7.32011 78.3785 7.7231C78.2288 8.12609 78.154 8.56937 78.154 9.05295C78.154 9.52502 78.2346 9.96831 78.3958 10.3828C78.557 10.7973 78.77 11.16 79.0348 11.4709C79.3111 11.7702 79.6278 12.0063 79.9847 12.179C80.3531 12.3517 80.7446 12.438 81.1591 12.438C81.4239 12.438 81.683 12.4035 81.9363 12.3344C82.2011 12.2538 82.4371 12.1502 82.6444 12.0235C82.8632 11.8969 83.0531 11.753 83.2143 11.5918C83.3755 11.4191 83.4907 11.2348 83.5597 11.0391L85.045 11.4881C84.9069 11.822 84.7111 12.1272 84.4578 12.4035C84.216 12.6798 83.9282 12.9159 83.5943 13.1116C83.2604 13.3073 82.8862 13.4628 82.4717 13.5779C82.0687 13.693 81.6427 13.7506 81.1936 13.7506C80.5143 13.7506 79.8926 13.624 79.3284 13.3707C78.7642 13.1174 78.2806 12.7777 77.8776 12.3517C77.4747 11.9257 77.158 11.4306 76.9278 10.8664C76.709 10.2907 76.5996 9.68622 76.5996 9.05295Z" fill="#012252"/>
<path d="M92.3308 13.7506C91.6514 13.7506 91.0297 13.624 90.4655 13.3707C89.9128 13.1174 89.435 12.7777 89.032 12.3517C88.6406 11.9257 88.3354 11.4306 88.1167 10.8664C87.8979 10.3022 87.7885 9.70924 87.7885 9.08749C87.7885 8.45423 87.8979 7.85551 88.1167 7.29133C88.347 6.72715 88.6578 6.23205 89.0493 5.80604C89.4523 5.38003 89.9301 5.04037 90.4828 4.78706C91.047 4.53376 91.663 4.4071 92.3308 4.4071C92.9986 4.4071 93.6146 4.53376 94.1787 4.78706C94.7429 5.04037 95.2207 5.38003 95.6122 5.80604C96.0152 6.23205 96.3261 6.72715 96.5448 7.29133C96.7751 7.85551 96.8903 8.45423 96.8903 9.08749C96.8903 9.70924 96.7809 10.3022 96.5621 10.8664C96.3433 11.4306 96.0325 11.9257 95.6295 12.3517C95.2265 12.7777 94.7429 13.1174 94.1787 13.3707C93.6261 13.624 93.0101 13.7506 92.3308 13.7506ZM89.3429 9.10477C89.3429 9.57683 89.4177 10.0144 89.5674 10.4173C89.7286 10.8203 89.9416 11.1715 90.2064 11.4709C90.4828 11.7702 90.7994 12.0063 91.1563 12.179C91.5248 12.3517 91.9163 12.438 92.3308 12.438C92.7453 12.438 93.131 12.3517 93.4879 12.179C93.8563 12.0063 94.1787 11.7702 94.4551 11.4709C94.7314 11.16 94.9444 10.8031 95.0941 10.4001C95.2553 9.98558 95.3359 9.54229 95.3359 9.07022C95.3359 8.60967 95.2553 8.1779 95.0941 7.77491C94.9444 7.36041 94.7314 7.00348 94.4551 6.70412C94.1787 6.39325 93.8563 6.15146 93.4879 5.97875C93.131 5.80604 92.7453 5.71969 92.3308 5.71969C91.9163 5.71969 91.5248 5.8118 91.1563 5.99602C90.7994 6.16873 90.4828 6.41052 90.2064 6.72139C89.9416 7.02075 89.7286 7.37768 89.5674 7.79218C89.4177 8.19517 89.3429 8.6327 89.3429 9.10477Z" fill="#012252"/>
<path d="M114 13.5779H112.48V8.53483C112.48 7.59069 112.324 6.8941 112.014 6.44506C111.714 5.99602 111.265 5.7715 110.666 5.7715C110.045 5.7715 109.486 5.99602 108.991 6.44506C108.508 6.88259 108.162 7.45252 107.955 8.15487V13.5779H106.435V8.53483C106.435 7.56766 106.285 6.86532 105.986 6.42779C105.687 5.99026 105.238 5.7715 104.639 5.7715C104.029 5.7715 103.476 5.99026 102.981 6.42779C102.486 6.8538 102.135 7.42374 101.927 8.1376V13.5779H100.408V4.56254H101.789V6.49687C102.158 5.82907 102.635 5.3167 103.223 4.95977C103.81 4.59133 104.472 4.4071 105.209 4.4071C105.969 4.4071 106.567 4.61435 107.005 5.02885C107.454 5.43184 107.73 5.95572 107.834 6.6005C108.64 5.13824 109.786 4.4071 111.271 4.4071C111.789 4.4071 112.221 4.50497 112.566 4.70071C112.923 4.88493 113.205 5.14975 113.412 5.49517C113.62 5.82907 113.769 6.2263 113.862 6.68685C113.954 7.14741 114 7.64826 114 8.18941V13.5779Z" fill="#012252"/>
<path d="M76.9278 7.25679L76.6947 7.16641L76.6947 7.16641L76.9278 7.25679ZM77.8604 5.78877L78.0396 5.96306L78.042 5.96057L77.8604 5.78877ZM79.2939 4.78706L79.3941 5.01611L79.3963 5.01513L79.2939 4.78706ZM83.4907 5.01158L83.3581 5.22363L83.3626 5.22629L83.4907 5.01158ZM84.976 6.6005L85.0508 6.83902C85.1207 6.81708 85.1775 6.76561 85.2061 6.69819C85.2347 6.63078 85.2323 6.5542 85.1996 6.48869L84.976 6.6005ZM83.4907 7.06681L83.2707 7.18569C83.3277 7.29102 83.4513 7.3412 83.5655 7.30533L83.4907 7.06681ZM82.5235 6.08237L82.3975 6.29837L82.4021 6.30091L82.5235 6.08237ZM79.9674 5.97875L80.0677 6.20786L80.0735 6.20511L79.9674 5.97875ZM79.0175 6.66958L79.2048 6.83522L79.2048 6.83522L79.0175 6.66958ZM78.3785 7.7231L78.1463 7.63022L78.1441 7.63605L78.3785 7.7231ZM78.3958 10.3828L78.1628 10.4734L78.1628 10.4734L78.3958 10.3828ZM79.0348 11.4709L78.8443 11.6331L78.8511 11.6404L79.0348 11.4709ZM79.9847 12.179L79.8758 12.404L79.8786 12.4053L79.9847 12.179ZM81.9363 12.3344L82.0021 12.5757L82.0091 12.5736L81.9363 12.3344ZM82.6444 12.0235L82.5191 11.8071L82.514 11.8102L82.6444 12.0235ZM83.2143 11.5918L83.3912 11.7686L83.3971 11.7623L83.2143 11.5918ZM83.5597 11.0391L83.6321 10.7998C83.5042 10.7611 83.3685 10.8299 83.324 10.9559L83.5597 11.0391ZM85.045 11.4881L85.276 11.5837C85.303 11.5185 85.3012 11.4449 85.271 11.3811C85.2407 11.3173 85.185 11.2693 85.1174 11.2488L85.045 11.4881ZM84.4578 12.4035L84.2735 12.2345L84.2697 12.2389L84.4578 12.4035ZM83.5943 13.1116L83.4679 12.8959L83.4679 12.8959L83.5943 13.1116ZM82.4717 13.5779L82.4048 13.337L82.403 13.3375L82.4717 13.5779ZM79.3284 13.3707L79.226 13.5987L79.226 13.5987L79.3284 13.3707ZM77.8776 12.3517L78.0593 12.1799L78.0593 12.1799L77.8776 12.3517ZM76.9278 10.8664L76.694 10.9552L76.6963 10.9609L76.9278 10.8664ZM90.4655 13.3707L90.3613 13.5979L90.3631 13.5987L90.4655 13.3707ZM89.032 12.3517L88.8479 12.5209L88.8504 12.5235L89.032 12.3517ZM88.1167 10.8664L88.3498 10.776L88.1167 10.8664ZM88.1167 7.29133L87.8852 7.19684L87.8836 7.20095L88.1167 7.29133ZM89.0493 5.80604L88.8677 5.63422L88.8652 5.63688L89.0493 5.80604ZM90.4828 4.78706L90.3804 4.55899L90.3786 4.5598L90.4828 4.78706ZM94.1787 4.78706L94.0763 5.01513L94.0763 5.01513L94.1787 4.78706ZM95.6122 5.80604L95.4281 5.97521L95.4306 5.97784L95.6122 5.80604ZM96.5448 7.29133L96.3117 7.38173L96.3134 7.3858L96.5448 7.29133ZM96.5621 10.8664L96.7952 10.9568L96.7952 10.9568L96.5621 10.8664ZM95.6295 12.3517L95.4479 12.1799L95.4479 12.1799L95.6295 12.3517ZM94.1787 13.3707L94.0763 13.1426L94.0746 13.1434L94.1787 13.3707ZM89.5674 10.4173L89.333 10.5044L89.3353 10.5102L89.5674 10.4173ZM90.2064 11.4709L90.0192 11.6365L90.0227 11.6404L90.2064 11.4709ZM91.1563 12.179L91.0474 12.404L91.0502 12.4053L91.1563 12.179ZM93.4879 12.179L93.3818 11.9526L93.379 11.9539L93.4879 12.179ZM94.4551 11.4709L94.6388 11.6405L94.6419 11.637L94.4551 11.4709ZM95.0941 10.4001L94.8611 10.3095L94.8597 10.313L95.0941 10.4001ZM95.0941 7.77491L94.8588 7.85987L94.862 7.86776L95.0941 7.77491ZM94.4551 6.70412L94.2682 6.87024L94.2714 6.87369L94.4551 6.70412ZM93.4879 5.97875L93.379 6.20381L93.3818 6.20511L93.4879 5.97875ZM91.1563 5.99602L91.2652 6.22108L91.2681 6.21963L91.1563 5.99602ZM90.2064 6.72139L90.0196 6.5553L90.0192 6.55575L90.2064 6.72139ZM89.5674 7.79218L89.3344 7.70156L89.3331 7.70514L89.5674 7.79218ZM114 13.5779V13.8279C114.138 13.8279 114.25 13.716 114.25 13.5779H114ZM112.48 13.5779H112.23C112.23 13.716 112.342 13.8279 112.48 13.8279V13.5779ZM112.014 6.44506L111.806 6.58376L111.808 6.58736L112.014 6.44506ZM108.991 6.44506L109.159 6.63044L109.159 6.63024L108.991 6.44506ZM107.955 8.15487L107.715 8.08412C107.708 8.10709 107.705 8.13092 107.705 8.15487H107.955ZM107.955 13.5779V13.8279C108.093 13.8279 108.205 13.716 108.205 13.5779H107.955ZM106.435 13.5779H106.185C106.185 13.716 106.297 13.8279 106.435 13.8279V13.5779ZM105.986 6.42779L106.192 6.28662L106.192 6.28662L105.986 6.42779ZM102.981 6.42779L103.144 6.61731L103.146 6.61512L102.981 6.42779ZM101.927 8.1376L101.687 8.0679C101.681 8.09055 101.677 8.11401 101.677 8.1376H101.927ZM101.927 13.5779V13.8279C102.065 13.8279 102.177 13.716 102.177 13.5779H101.927ZM100.408 13.5779H100.158C100.158 13.716 100.269 13.8279 100.408 13.8279V13.5779ZM100.408 4.56254V4.31254C100.269 4.31254 100.158 4.42447 100.158 4.56254H100.408ZM101.789 4.56254H102.039C102.039 4.42447 101.927 4.31254 101.789 4.31254V4.56254ZM101.789 6.49687H101.539C101.539 6.61093 101.616 6.71052 101.727 6.73897C101.837 6.76742 101.953 6.71751 102.008 6.61764L101.789 6.49687ZM103.223 4.95977L103.353 5.17342L103.356 5.17154L103.223 4.95977ZM107.005 5.02885L106.833 5.21041L106.838 5.21491L107.005 5.02885ZM107.834 6.6005L107.587 6.64017C107.604 6.74552 107.686 6.82852 107.791 6.8468C107.896 6.86508 108.001 6.81463 108.053 6.72118L107.834 6.6005ZM112.566 4.70071L112.443 4.91838L112.452 4.92286L112.566 4.70071ZM113.412 5.49517L113.198 5.6238L113.2 5.62701L113.412 5.49517ZM76.8496 9.05295C76.8496 8.44914 76.9538 7.8812 77.1608 7.34717L76.6947 7.16641C76.4642 7.76074 76.3496 8.39023 76.3496 9.05295H76.8496ZM77.1608 7.34717C77.3681 6.81279 77.6611 6.35235 78.0396 5.96304L77.6811 5.6145C77.2537 6.05418 76.925 6.57242 76.6947 7.16641L77.1608 7.34717ZM78.042 5.96057C78.4213 5.5596 78.8712 5.24486 79.3941 5.0161L79.1937 4.55802C78.6112 4.81285 78.1054 5.16591 77.6788 5.61697L78.042 5.96057ZM79.3963 5.01513C79.9247 4.77789 80.5167 4.6571 81.1764 4.6571V4.1571C80.4544 4.1571 79.7914 4.28962 79.1915 4.559L79.3963 5.01513ZM81.1764 4.6571C82.0362 4.6571 82.7598 4.84962 83.3582 5.22358L83.6232 4.79958C82.9319 4.36757 82.1127 4.1571 81.1764 4.1571V4.6571ZM83.3626 5.22629C83.9789 5.5939 84.4403 6.08827 84.7523 6.7123L85.1996 6.48869C84.8438 5.77712 84.315 5.21221 83.6187 4.79688L83.3626 5.22629ZM84.9011 6.36198L83.4158 6.82829L83.5655 7.30533L85.0508 6.83902L84.9011 6.36198ZM83.7106 6.94793C83.4582 6.48093 83.102 6.11778 82.6449 5.86383L82.4021 6.30091C82.774 6.50753 83.0626 6.80066 83.2707 7.18569L83.7106 6.94793ZM82.6495 5.86643C82.1946 5.60108 81.6901 5.46969 81.1418 5.46969V5.96969C81.6067 5.96969 82.0234 6.08009 82.3975 6.29832L82.6495 5.86643ZM81.1418 5.46969C80.6914 5.46969 80.2636 5.56381 79.8613 5.75238L80.0735 6.20511C80.4081 6.04827 80.7633 5.96969 81.1418 5.96969V5.46969ZM79.8672 5.74971C79.4657 5.92537 79.1193 6.1772 78.8303 6.50394L79.2048 6.83522C79.4454 6.56324 79.7322 6.35452 80.0676 6.20779L79.8672 5.74971ZM78.8303 6.50394C78.5449 6.82658 78.3173 7.2029 78.1464 7.63025L78.6106 7.81595C78.7621 7.43733 78.9605 7.1113 79.2048 6.83522L78.8303 6.50394ZM78.1441 7.63605C77.9829 8.07015 77.904 8.54334 77.904 9.05295H78.404C78.404 8.5954 78.4747 8.18202 78.6129 7.81015L78.1441 7.63605ZM77.904 9.05295C77.904 9.55409 77.9897 10.0283 78.1628 10.4734L78.6288 10.2922C78.4795 9.90832 78.404 9.49595 78.404 9.05295H77.904ZM78.1628 10.4734C78.3332 10.9117 78.56 11.299 78.8445 11.633L79.2251 11.3088C78.98 11.021 78.7807 10.683 78.6288 10.2922L78.1628 10.4734ZM78.8511 11.6404C79.1481 11.9622 79.4899 12.2173 79.8758 12.404L80.0936 11.9539C79.7656 11.7952 79.4742 11.5783 79.2185 11.3013L78.8511 11.6404ZM79.8786 12.4053C80.2809 12.5939 80.7086 12.688 81.1591 12.688V12.188C80.7806 12.188 80.4254 12.1095 80.0908 11.9526L79.8786 12.4053ZM81.1591 12.688C81.4459 12.688 81.7271 12.6506 82.0021 12.5756L81.8705 12.0932C81.6388 12.1564 81.4019 12.188 81.1591 12.188V12.688ZM82.0091 12.5736C82.2913 12.4877 82.5472 12.3759 82.7748 12.2369L82.514 11.8102C82.3271 11.9244 82.1109 12.02 81.8635 12.0952L82.0091 12.5736ZM82.7697 12.2399C83.0052 12.1035 83.213 11.9467 83.3911 11.7685L83.0376 11.415C82.8933 11.5592 82.7211 11.6903 82.5191 11.8072L82.7697 12.2399ZM83.3971 11.7623C83.5785 11.5679 83.7135 11.3547 83.7955 11.1223L83.324 10.9559C83.2679 11.115 83.1725 11.2702 83.0316 11.4212L83.3971 11.7623ZM83.4874 11.2784L84.9727 11.7274L85.1174 11.2488L83.6321 10.7998L83.4874 11.2784ZM84.814 11.3925C84.6874 11.6985 84.5079 11.9789 84.2735 12.2346L84.6421 12.5724C84.9144 12.2754 85.1263 11.9456 85.276 11.5837L84.814 11.3925ZM84.2697 12.2389C84.0465 12.4939 83.7798 12.713 83.4679 12.8959L83.7207 13.3273C84.0765 13.1187 84.3855 12.8657 84.646 12.5681L84.2697 12.2389ZM83.4679 12.8959C83.1546 13.0796 82.8007 13.227 82.4048 13.337L82.5386 13.8188C82.9717 13.6985 83.3662 13.5351 83.7207 13.3273L83.4679 12.8959ZM82.403 13.3375C82.0239 13.4458 81.6211 13.5006 81.1936 13.5006V14.0006C81.6643 14.0006 82.1135 13.9402 82.5404 13.8183L82.403 13.3375ZM81.1936 13.5006C80.5461 13.5006 79.9597 13.3801 79.4308 13.1426L79.226 13.5987C79.8254 13.8679 80.4825 14.0006 81.1936 14.0006V13.5006ZM79.4308 13.1426C78.8948 12.9019 78.4386 12.5809 78.0593 12.1799L77.696 12.5235C78.1227 12.9745 78.6336 13.3328 79.226 13.5987L79.4308 13.1426ZM78.0593 12.1799C77.6784 11.7772 77.3783 11.3086 77.1592 10.7719L76.6963 10.9609C76.9378 11.5525 77.271 12.0741 77.696 12.5235L78.0593 12.1799ZM77.1615 10.7776C76.9538 10.2311 76.8496 9.65674 76.8496 9.05295H76.3496C76.3496 9.71569 76.4642 10.3503 76.6941 10.9552L77.1615 10.7776ZM92.3308 13.5006C91.6832 13.5006 91.0968 13.3801 90.5679 13.1426L90.3631 13.5987C90.9625 13.8679 91.6196 14.0006 92.3308 14.0006V13.5006ZM90.5697 13.1434C90.045 12.9029 89.5938 12.5818 89.2136 12.1799L88.8504 12.5235C89.2762 12.9736 89.7806 13.3318 90.3613 13.5979L90.5697 13.1434ZM89.2161 12.1825C88.8467 11.7805 88.5578 11.3125 88.3498 10.776L87.8836 10.9568C88.1131 11.5487 88.4344 12.0708 88.8479 12.5208L89.2161 12.1825ZM88.3498 10.776C88.1425 10.2414 88.0385 9.6792 88.0385 9.08749H87.5385C87.5385 9.73929 87.6533 10.363 87.8836 10.9568L88.3498 10.776ZM88.0385 9.08749C88.0385 8.48369 88.1427 7.91574 88.3498 7.38171L87.8836 7.20095C87.6531 7.79528 87.5385 8.42478 87.5385 9.08749H88.0385ZM88.3481 7.3858C88.5678 6.84766 88.8631 6.37818 89.2334 5.9752L88.8652 5.63688C88.4526 6.08592 88.1261 6.60664 87.8852 7.19686L88.3481 7.3858ZM89.2309 5.97784C89.6111 5.57596 90.0623 5.25478 90.5869 5.01433L90.3786 4.5598C89.7979 4.82596 89.2935 5.18409 88.8677 5.63424L89.2309 5.97784ZM90.5852 5.01513C91.1146 4.77741 91.6954 4.6571 92.3308 4.6571V4.1571C91.6305 4.1571 90.9793 4.29011 90.3804 4.559L90.5852 5.01513ZM92.3308 4.6571C92.9661 4.6571 93.5469 4.77741 94.0763 5.01513L94.2811 4.559C93.6822 4.29011 93.031 4.1571 92.3308 4.1571V4.6571ZM94.0763 5.01513C94.6117 5.25551 95.0612 5.57585 95.4281 5.9752L95.7963 5.63688C95.3803 5.18421 94.8741 4.82522 94.2811 4.559L94.0763 5.01513ZM95.4306 5.97784C95.8106 6.37955 96.1043 6.84677 96.3117 7.38171L96.7779 7.20095C96.5478 6.60753 96.2198 6.08455 95.7938 5.63424L95.4306 5.97784ZM96.3134 7.3858C96.5309 7.91882 96.6403 8.48533 96.6403 9.08749H97.1403C97.1403 8.42313 97.0193 7.7922 96.7763 7.19686L96.3134 7.3858ZM96.6403 9.08749C96.6403 9.6792 96.5363 10.2414 96.329 10.776L96.7952 10.9568C97.0254 10.363 97.1403 9.73929 97.1403 9.08749H96.6403ZM96.329 10.776C96.1216 11.3109 95.8279 11.7782 95.4479 12.1799L95.8111 12.5235C96.2371 12.0732 96.5651 11.5502 96.7952 10.9568L96.329 10.776ZM95.4479 12.1799C95.0686 12.5809 94.6123 12.9019 94.0763 13.1426L94.2811 13.5987C94.8735 13.3328 95.3844 12.9745 95.8111 12.5235L95.4479 12.1799ZM94.0746 13.1434C93.5582 13.38 92.9784 13.5006 92.3308 13.5006V14.0006C93.0418 14.0006 93.6939 13.8679 94.2829 13.5979L94.0746 13.1434ZM89.0929 9.10477C89.0929 9.60364 89.1721 10.0709 89.3331 10.5044L89.8018 10.3303C89.6634 9.95778 89.5929 9.55003 89.5929 9.10477H89.0929ZM89.3353 10.5102C89.5062 10.9376 89.7338 11.3139 90.0192 11.6365L90.3937 11.3052C90.1495 11.0291 89.951 10.7031 89.7995 10.3245L89.3353 10.5102ZM90.0227 11.6404C90.3197 11.9622 90.6616 12.2173 91.0475 12.404L91.2652 11.9539C90.9373 11.7952 90.6458 11.5783 90.3901 11.3013L90.0227 11.6404ZM91.0502 12.4053C91.4525 12.5939 91.8803 12.688 92.3308 12.688V12.188C91.9522 12.188 91.5971 12.1095 91.2624 11.9526L91.0502 12.4053ZM92.3308 12.688C92.7812 12.688 93.2044 12.5939 93.5968 12.404L93.379 11.9539C93.0576 12.1095 92.7093 12.188 92.3308 12.188V12.688ZM93.594 12.4053C93.9918 12.2189 94.3405 11.9635 94.6388 11.6404L94.2714 11.3013C94.0169 11.5769 93.7209 11.7936 93.3818 11.9526L93.594 12.4053ZM94.6419 11.637C94.9395 11.3021 95.1683 10.9182 95.3284 10.4871L94.8597 10.313C94.7205 10.6879 94.5233 11.0179 94.2682 11.3048L94.6419 11.637ZM95.3271 10.4907C95.5002 10.0456 95.5859 9.57136 95.5859 9.07022H95.0859C95.0859 9.51322 95.0104 9.9256 94.8611 10.3095L95.3271 10.4907ZM95.5859 9.07022C95.5859 8.57983 95.4999 8.11635 95.3262 7.68207L94.862 7.86776C95.0106 8.23944 95.0859 8.63951 95.0859 9.07022H95.5859ZM95.3292 7.69C95.1692 7.24672 94.9395 6.86036 94.6388 6.53455L94.2714 6.87369C94.5233 7.1466 94.7197 7.47411 94.8589 7.85982L95.3292 7.69ZM94.6419 6.53803C94.3436 6.20237 93.9939 5.93982 93.594 5.75238L93.3818 6.20511C93.7188 6.36309 94.0139 6.58412 94.2682 6.87021L94.6419 6.53803ZM93.5968 5.75371C93.2044 5.56382 92.7812 5.46969 92.3308 5.46969V5.96969C92.7093 5.96969 93.0576 6.04826 93.379 6.20379L93.5968 5.75371ZM92.3308 5.46969C91.8777 5.46969 91.4479 5.57072 91.0445 5.77241L91.2681 6.21963C91.6016 6.05287 91.9548 5.96969 92.3308 5.96969V5.46969ZM91.0475 5.77098C90.6595 5.95871 90.3167 6.22106 90.0196 6.5553L90.3933 6.88748C90.6489 6.59997 90.9394 6.37874 91.2652 6.22106L91.0475 5.77098ZM90.0192 6.55575C89.7327 6.87957 89.5051 7.26264 89.3344 7.70157L89.8004 7.8828C89.9521 7.49273 90.1505 7.16193 90.3937 6.88704L90.0192 6.55575ZM89.3331 7.70514C89.1721 8.13858 89.0929 8.6059 89.0929 9.10477H89.5929C89.5929 8.6595 89.6634 8.25175 89.8018 7.87923L89.3331 7.70514ZM114 13.3279H112.48V13.8279H114V13.3279ZM112.73 13.5779V8.53483H112.23V13.5779H112.73ZM112.73 8.53483C112.73 7.57274 112.573 6.8143 112.219 6.30276L111.808 6.58736C112.076 6.97391 112.23 7.60864 112.23 8.53483H112.73ZM112.222 6.30639C111.87 5.77929 111.338 5.5215 110.666 5.5215V6.0215C111.192 6.0215 111.558 6.21275 111.806 6.58374L112.222 6.30639ZM110.666 5.5215C109.978 5.5215 109.361 5.77254 108.823 6.25988L109.159 6.63024C109.612 6.2195 110.112 6.0215 110.666 6.0215V5.5215ZM108.823 6.25968C108.302 6.73173 107.934 7.34322 107.715 8.08412L108.195 8.22563C108.391 7.56182 108.713 7.03344 109.159 6.63044L108.823 6.25968ZM107.705 8.15487V13.5779H108.205V8.15487H107.705ZM107.955 13.3279H106.435V13.8279H107.955V13.3279ZM106.685 13.5779V8.53483H106.185V13.5779H106.685ZM106.685 8.53483C106.685 7.55323 106.535 6.78785 106.192 6.28662L105.78 6.56896C106.035 6.94278 106.185 7.5821 106.185 8.53483H106.685ZM106.192 6.28662C105.84 5.77133 105.308 5.5215 104.639 5.5215V6.0215C105.168 6.0215 105.534 6.2092 105.78 6.56896L106.192 6.28662ZM104.639 5.5215C103.962 5.5215 103.352 5.76617 102.815 6.24046L103.146 6.61512C103.6 6.21436 104.095 6.0215 104.639 6.0215V5.5215ZM102.818 6.23829C102.281 6.70013 101.906 7.31409 101.687 8.0679L102.167 8.2073C102.363 7.53338 102.691 7.00747 103.144 6.61729L102.818 6.23829ZM101.677 8.1376V13.5779H102.177V8.1376H101.677ZM101.927 13.3279H100.408V13.8279H101.927V13.3279ZM100.658 13.5779V4.56254H100.158V13.5779H100.658ZM100.408 4.81254H101.789V4.31254H100.408V4.81254ZM101.539 4.56254V6.49687H102.039V4.56254H101.539ZM102.008 6.61764C102.358 5.98373 102.807 5.50525 103.353 5.1734L103.093 4.74614C102.464 5.12815 101.957 5.6744 101.57 6.3761L102.008 6.61764ZM103.356 5.17154C103.9 4.82967 104.516 4.6571 105.209 4.6571V4.1571C104.428 4.1571 103.719 4.35298 103.09 4.748L103.356 5.17154ZM105.209 4.6571C105.922 4.6571 106.453 4.85052 106.833 5.21034L107.177 4.84737C106.682 4.37819 106.015 4.1571 105.209 4.1571V4.6571ZM106.838 5.21491C107.241 5.57644 107.492 6.04691 107.587 6.64017L108.081 6.56083C107.969 5.86453 107.667 5.28724 107.172 4.84279L106.838 5.21491ZM108.053 6.72118C108.822 5.32665 109.89 4.6571 111.271 4.6571V4.1571C109.682 4.1571 108.458 4.94982 107.615 6.47982L108.053 6.72118ZM111.271 4.6571C111.759 4.6571 112.145 4.74931 112.443 4.91821L112.689 4.4832C112.297 4.26063 111.819 4.1571 111.271 4.1571V4.6571ZM112.452 4.92286C112.767 5.08571 113.015 5.31809 113.198 5.62379L113.627 5.36654C113.396 4.98141 113.079 4.68415 112.681 4.47855L112.452 4.92286ZM113.2 5.62701C113.389 5.93106 113.529 6.29909 113.616 6.73588L114.107 6.63782C114.01 6.15351 113.851 5.72707 113.625 5.36332L113.2 5.62701ZM113.616 6.73588C113.705 7.17807 113.75 7.66229 113.75 8.18941H114.25C114.25 7.63423 114.202 7.11674 114.107 6.63782L113.616 6.73588ZM113.75 8.18941V13.5779H114.25V8.18941H113.75Z" fill="#012252"/>
<circle cx="68.8727" cy="9.35131" r="4.22667" fill="#DB162F"/>
</svg>
