<svg width="396" height="213" viewBox="0 0 396 213" fill="none" xmlns="http://www.w3.org/2000/svg">
<path d="M388.619 32.7783L382.119 32.7783L382.119 32.7783L388.619 32.7783ZM388.619 66.4333V72.9333C390.343 72.9333 391.996 72.2485 393.215 71.0295C394.434 69.8105 395.119 68.1572 395.119 66.4333L388.619 66.4333ZM388.619 146.844L395.119 146.844C395.119 145.12 394.434 143.466 393.215 142.247C391.996 141.028 390.343 140.344 388.619 140.344V146.844ZM388.619 180.499L382.119 180.499V180.499H388.619ZM7.25732 146.844V140.344C3.66747 140.344 0.757324 143.254 0.757324 146.844H7.25732ZM7.25732 66.4333H0.757324C0.757324 70.0232 3.66747 72.9333 7.25732 72.9333L7.25732 66.4333ZM33.2573 0.27832C15.3081 0.27832 0.757324 14.8291 0.757324 32.7783H13.7573C13.7573 22.0088 22.4878 13.2783 33.2573 13.2783V0.27832ZM362.619 0.27832H33.2573V13.2783H362.619V0.27832ZM395.119 32.7783C395.119 14.8291 380.568 0.27832 362.619 0.27832V13.2783C373.389 13.2783 382.119 22.0088 382.119 32.7783H395.119ZM395.119 66.4333L395.119 32.7783L382.119 32.7783L382.119 66.4333L395.119 66.4333ZM354.914 106.638C354.914 88.0236 370.004 72.9333 388.619 72.9333V59.9333C362.825 59.9333 341.914 80.8439 341.914 106.638H354.914ZM388.619 140.344C370.004 140.344 354.914 125.253 354.914 106.638H341.914C341.914 132.433 362.825 153.344 388.619 153.344V140.344ZM395.119 180.499L395.119 146.844L382.119 146.844L382.119 180.499L395.119 180.499ZM362.619 212.999C380.568 212.999 395.119 198.448 395.119 180.499H382.119C382.119 191.268 373.389 199.999 362.619 199.999V212.999ZM33.2574 212.999H362.619V199.999H33.2574V212.999ZM0.757324 180.499C0.757324 198.448 15.3081 212.999 33.2574 212.999V199.999C22.4878 199.999 13.7573 191.268 13.7573 180.499H0.757324ZM0.757324 146.844V180.499H13.7573V146.844H0.757324ZM40.9623 106.638C40.9623 125.253 25.8721 140.344 7.25732 140.344V153.344C33.0518 153.344 53.9623 132.433 53.9623 106.638H40.9623ZM7.25732 72.9333C25.8721 72.9333 40.9623 88.0236 40.9623 106.638H53.9623C53.9623 80.8439 33.0518 59.9333 7.25732 59.9333V72.9333ZM0.757324 32.7783V66.4333H13.7573V32.7783H0.757324Z" fill="white"/>
<line x1="100.781" y1="13.2783" x2="100.781" y2="199.999" stroke="white" stroke-width="13" stroke-linecap="square" stroke-dasharray="11 30"/>
<path d="M285.829 48.6726C286.448 49.2908 286.938 50.0247 287.273 50.8325C287.607 51.6404 287.78 52.5062 287.78 53.3806C287.78 54.2549 287.607 55.1208 287.273 55.9286C286.938 56.7364 286.448 57.4703 285.829 58.0886L179.314 164.604C178.695 165.222 177.961 165.713 177.154 166.047C176.346 166.382 175.48 166.554 174.606 166.554C173.731 166.554 172.866 166.382 172.058 166.047C171.25 165.713 170.516 165.222 169.898 164.604C169.279 163.986 168.789 163.252 168.454 162.444C168.12 161.636 167.948 160.771 167.948 159.896C167.948 159.022 168.12 158.156 168.454 157.348C168.789 156.54 169.279 155.806 169.898 155.188L276.413 48.6726C277.031 48.0542 277.765 47.5637 278.573 47.229C279.381 46.8944 280.247 46.7221 281.121 46.7221C281.996 46.7221 282.861 46.8944 283.669 47.229C284.477 47.5637 285.211 48.0542 285.829 48.6726ZM190.583 85.3352C186.346 85.3352 182.282 83.6519 179.285 80.6556C176.289 77.6593 174.606 73.5954 174.606 69.3579C174.606 65.1204 176.289 61.0565 179.285 58.0602C182.282 55.0639 186.346 53.3806 190.583 53.3806C194.82 53.3806 198.884 55.0639 201.881 58.0602C204.877 61.0565 206.56 65.1204 206.56 69.3579C206.56 73.5954 204.877 77.6593 201.881 80.6556C198.884 83.6519 194.82 85.3352 190.583 85.3352ZM190.583 95.9868C197.645 95.9868 204.419 93.1813 209.412 88.1874C214.406 83.1935 217.212 76.4203 217.212 69.3579C217.212 62.2955 214.406 55.5223 209.412 50.5284C204.419 45.5345 197.645 42.729 190.583 42.729C183.521 42.729 176.747 45.5345 171.754 50.5284C166.76 55.5223 163.954 62.2955 163.954 69.3579C163.954 76.4203 166.76 83.1935 171.754 88.1874C176.747 93.1813 183.521 95.9868 190.583 95.9868V95.9868ZM265.144 159.896C260.906 159.896 256.843 158.213 253.846 155.216C250.85 152.22 249.167 148.156 249.167 143.919C249.167 139.681 250.85 135.617 253.846 132.621C256.843 129.625 260.906 127.941 265.144 127.941C269.381 127.941 273.445 129.625 276.442 132.621C279.438 135.617 281.121 139.681 281.121 143.919C281.121 148.156 279.438 152.22 276.442 155.216C273.445 158.213 269.381 159.896 265.144 159.896ZM265.144 170.548C272.206 170.548 278.979 167.742 283.973 162.748C288.967 157.754 291.773 150.981 291.773 143.919C291.773 136.856 288.967 130.083 283.973 125.089C278.979 120.095 272.206 117.29 265.144 117.29C258.081 117.29 251.308 120.095 246.314 125.089C241.321 130.083 238.515 136.856 238.515 143.919C238.515 150.981 241.321 157.754 246.314 162.748C251.308 167.742 258.081 170.548 265.144 170.548Z" fill="white"/>
</svg>
