<svg width="2202" height="2202" viewBox="0 0 2202 2202" fill="none" xmlns="http://www.w3.org/2000/svg">
<path fill-rule="evenodd" clip-rule="evenodd" d="M365.09 765.629C364.36 765.629 363.64 765.629 362.92 765.629C266.222 765.629 173.145 788.078 82.9675 833.357C46.3885 920.275 25.7491 1008.64 24.6591 1098.83C23.2092 1188.28 41.6786 1279.9 82.6075 1373.35C176.765 1414.27 270.922 1435.28 365.09 1436.37C459.247 1435.28 553.414 1414.27 647.572 1373.35C688.501 1279.9 706.97 1188.28 705.52 1098.83C704.43 1008.64 683.791 920.275 647.212 833.357C557.034 788.078 463.957 765.629 367.26 765.629C366.54 765.629 365.82 765.629 365.09 765.629V765.629Z" fill="#FEFEFE"/>
<path d="M67.7584 813.438C162.646 764.899 261.153 741 362.92 741C363.64 741 364.36 741 365.09 741C365.82 741 366.54 741 367.26 741C469.027 741 567.534 764.899 662.422 813.438L668.222 819.588C706.971 910.855 729.06 1003.93 730.15 1098.46C730.15 1100.27 730.15 1101.72 730.15 1103.53V1110.05C729.79 1200.96 710.231 1293.67 668.222 1387.84L661.702 1393.99C562.835 1437.82 463.957 1459.91 365.09 1461C266.223 1459.91 167.346 1437.82 68.4784 1393.99L61.9586 1387.84C19.9497 1293.67 0.390263 1200.96 0.0302734 1110.05V1103.53C0.0302734 1101.72 0.0302734 1100.27 0.0302734 1098.46C1.12024 1003.93 23.2096 910.855 61.9586 819.588L67.7584 813.438V813.438ZM365.09 765.629C364.36 765.629 363.64 765.629 362.92 765.629C266.223 765.629 173.145 788.079 82.968 833.357C46.389 920.275 25.7496 1008.64 24.6596 1098.83C23.2096 1188.28 41.6791 1279.91 82.608 1373.35C176.765 1414.27 270.923 1435.28 365.09 1436.37C459.248 1435.28 553.415 1414.27 647.572 1373.35C688.501 1279.91 706.971 1188.28 705.521 1098.83C704.431 1008.64 683.791 920.275 647.212 833.357C557.035 788.079 463.957 765.629 367.26 765.629C366.54 765.629 365.82 765.629 365.09 765.629V765.629Z" fill="#003399"/>
<path fill-rule="evenodd" clip-rule="evenodd" d="M371.61 1302C366.541 1232.83 369.801 1160.76 349.151 1094.84C329.962 1033.27 257.164 998.143 255.714 930.415C254.264 877.536 294.473 816.328 369.8 816.328C440.419 815.968 484.237 867.397 489.307 924.625C495.467 990.903 415.069 1035.44 394.06 1098.46C372.33 1162.93 378.49 1234.28 371.61 1302Z" fill="#003399"/>
<path fill-rule="evenodd" clip-rule="evenodd" d="M399.499 1285.34C396.599 1225.23 396.599 1167.64 413.259 1116.57C431.728 1058.62 470.117 1009.73 528.785 993.793C568.984 982.933 628.023 1030.01 618.603 1078.18C610.633 1116.93 571.884 1162.57 509.596 1167.64C480.617 1170.18 468.307 1193.35 450.198 1206.76C531.325 1198.79 583.834 1166.91 620.413 1133.59C625.843 1161.84 629.463 1209.29 607.373 1225.59C563.914 1256.37 523.716 1231.38 472.647 1245.87C444.038 1254.2 426.298 1272.31 399.499 1285.34Z" fill="#003399"/>
<path fill-rule="evenodd" clip-rule="evenodd" d="M344.081 1285.34C347.341 1225.23 346.981 1167.64 330.682 1116.57C312.212 1058.62 273.823 1009.73 215.155 993.793C174.956 982.933 115.558 1030.01 125.337 1078.18C133.307 1116.93 172.056 1162.57 234.354 1167.64C262.963 1170.18 275.633 1193.35 293.743 1206.76C212.255 1198.79 160.106 1166.91 123.527 1133.59C118.097 1161.84 114.478 1209.29 136.567 1225.59C180.026 1256.37 220.225 1231.38 271.293 1245.87C299.902 1254.2 317.282 1272.31 344.081 1285.34Z" fill="#003399"/>
<path fill-rule="evenodd" clip-rule="evenodd" d="M537.116 1374.8V1365.02L544.356 1363.21L537.116 1352.34V1334.23L569.715 1379.51L558.125 1382.4L550.155 1371.17L537.116 1374.8ZM537.116 1334.23V1352.34L532.046 1345.1L529.876 1366.83L537.116 1365.02V1374.8L528.786 1376.61L527.336 1390.01L515.746 1392.91L523.356 1333.87L534.946 1330.97L537.116 1334.23V1334.23ZM429.189 1406.31V1396.89H431.729C435.709 1396.53 438.248 1396.17 439.328 1395.8C440.778 1395.44 442.228 1394.35 442.958 1393.27C444.038 1391.82 444.408 1390.37 444.408 1388.56C444.038 1386.75 443.678 1385.3 442.588 1384.21C441.868 1383.13 440.418 1382.4 438.968 1382.04C437.519 1381.68 434.259 1381.68 429.189 1382.04V1372.62C432.089 1372.62 433.899 1372.26 434.629 1372.26C436.439 1371.9 437.889 1370.81 438.968 1369.73C440.058 1368.64 440.418 1367.19 440.058 1365.38C440.058 1363.57 439.328 1362.12 438.249 1361.4C437.519 1360.31 436.069 1359.59 433.899 1359.59C433.179 1359.59 431.729 1359.59 429.189 1359.95V1350.53C433.179 1350.17 436.069 1350.17 437.888 1350.53C440.058 1350.53 442.228 1351.26 444.038 1352.34C445.848 1353.07 447.298 1354.51 448.748 1356.33C449.838 1358.14 450.558 1360.31 450.918 1362.84C451.288 1365.38 450.558 1367.92 449.468 1370.09C448.388 1372.26 446.578 1374.07 444.038 1375.52C447.658 1376.25 450.558 1377.69 452.368 1379.87C454.548 1382.04 455.628 1384.58 455.988 1387.84C455.988 1390.37 455.628 1392.91 454.908 1395.44C453.818 1397.98 452.368 1399.79 450.558 1401.6C448.388 1403.05 446.218 1404.13 443.318 1404.86C441.508 1405.22 436.799 1405.58 429.919 1406.31H429.189V1406.31ZM497.637 1375.88L508.867 1377.33C508.147 1383.49 506.337 1388.56 503.077 1392.18C499.817 1395.44 495.107 1397.98 489.307 1399.06C482.067 1400.15 475.547 1398.7 470.118 1394.72C464.318 1390.37 461.058 1384.21 459.248 1375.52C457.808 1366.47 458.888 1358.86 462.878 1353.07C466.498 1347.27 472.288 1343.65 479.897 1342.2C486.777 1341.11 492.207 1342.2 497.277 1345.46C500.177 1347.27 502.707 1350.17 504.517 1354.51L494.017 1358.86C492.937 1356.33 491.117 1354.15 488.947 1353.07C486.417 1351.62 483.877 1351.26 480.977 1351.62C476.997 1352.34 474.097 1354.51 471.928 1357.78C469.758 1361.4 469.388 1366.11 470.478 1372.62C471.928 1379.51 474.098 1384.21 476.997 1386.75C479.897 1389.29 483.517 1390.37 487.497 1389.65C490.397 1388.92 492.567 1387.47 494.377 1385.3C496.197 1383.13 497.277 1379.87 497.637 1375.88V1375.88ZM429.189 1350.53V1359.95C427.749 1359.95 426.299 1360.31 424.489 1360.31L417.969 1361.04L419.049 1373.71L426.659 1372.99C427.379 1372.99 428.469 1372.99 429.189 1372.62V1382.04C429.189 1382.04 429.189 1382.04 428.829 1382.04L420.139 1382.77L421.229 1397.61L429.189 1396.89V1406.31L411.079 1408.12L406.009 1352.7L428.109 1350.89C428.469 1350.53 428.829 1350.53 429.189 1350.53V1350.53ZM359.291 1387.11V1377.69C361.831 1377.69 363.281 1377.33 364.361 1376.97C365.811 1376.61 366.9 1375.52 367.99 1374.44C368.71 1372.99 369.07 1371.54 369.07 1370.09C369.44 1367.92 368.71 1366.47 367.62 1365.02C366.54 1363.57 365.091 1362.84 363.281 1362.48C362.191 1362.48 361.101 1362.12 359.291 1362.12V1352.7C364.731 1352.7 367.99 1353.07 369.8 1353.79C373.06 1354.51 375.59 1356.33 377.76 1359.22C379.94 1362.12 381.02 1365.74 380.66 1370.09C380.66 1373.35 379.94 1376.25 378.85 1378.78C377.4 1380.96 375.95 1382.77 374.14 1384.21C371.97 1385.3 370.16 1386.02 367.99 1386.75C365.811 1387.11 362.921 1387.11 359.291 1387.11ZM359.291 1352.7V1362.12C358.211 1362.12 356.761 1362.12 354.951 1362.12L349.521 1361.76V1377.69H355.311C356.761 1377.69 358.211 1377.69 359.291 1377.69V1387.11C358.571 1387.11 357.481 1387.11 356.401 1387.11H349.151L348.791 1408.12L337.561 1407.75L338.651 1352.34L356.401 1352.7C357.481 1352.7 358.571 1352.7 359.291 1352.7V1352.7ZM254.634 1381.68V1364.66C257.894 1365.38 260.063 1365.38 261.153 1365.38C262.603 1365.02 263.683 1364.66 264.773 1363.57C265.493 1362.48 266.223 1361.4 266.583 1359.59C266.943 1357.78 266.583 1356.33 265.853 1354.88C265.133 1353.43 263.683 1352.7 261.873 1351.98C261.153 1351.62 258.613 1351.26 254.634 1350.53V1341.11L259.343 1341.84C265.133 1342.93 269.113 1344.01 271.653 1345.46C274.183 1346.91 276.003 1349.08 277.083 1351.98C278.173 1354.51 278.533 1357.78 277.813 1361.04C277.083 1365.02 275.273 1368.28 272.373 1370.45C269.843 1372.62 265.853 1373.71 260.783 1373.71C262.963 1375.52 264.773 1377.33 265.853 1379.14C267.303 1381.32 268.753 1384.58 270.563 1389.29L275.273 1401.24L262.233 1398.7L256.444 1385.3C255.714 1384.21 255.354 1382.77 254.634 1381.68V1381.68ZM286.503 1347.27L297.362 1348.36L294.832 1378.42C294.472 1383.13 294.473 1386.39 294.473 1387.47C294.832 1390.01 295.912 1391.82 297.362 1393.27C299.172 1395.08 301.352 1395.8 304.612 1396.17C307.872 1396.53 310.402 1395.8 311.852 1394.72C313.662 1393.63 314.752 1392.18 315.472 1390.37C315.832 1388.56 316.202 1385.3 316.562 1380.96L319.092 1350.17L330.321 1351.26L327.792 1380.23C327.422 1387.11 326.702 1391.82 325.612 1394.35C324.892 1396.89 323.442 1399.42 321.992 1400.87C320.182 1402.69 317.652 1404.13 314.752 1404.86C312.212 1405.95 308.592 1405.95 304.242 1405.58C298.812 1405.22 294.832 1404.13 292.293 1402.69C289.763 1401.24 287.583 1399.42 286.143 1397.61C284.693 1395.44 283.963 1393.27 283.603 1391.1C283.243 1387.84 283.243 1383.13 283.603 1376.97L286.503 1347.27V1347.27ZM198.495 1363.57L200.665 1354.51L224.214 1360.67L218.415 1382.04C215.515 1383.85 211.895 1384.94 206.825 1385.3C202.115 1385.66 197.775 1385.3 193.425 1384.21C187.635 1382.77 182.926 1380.23 179.666 1376.97C176.046 1373.35 173.866 1369 172.786 1364.29C172.056 1359.22 172.056 1354.15 173.506 1349.08C174.956 1343.65 177.486 1338.94 181.116 1334.96C184.376 1331.33 188.715 1329.16 193.785 1328.08C197.775 1326.99 202.475 1327.35 207.555 1328.8C214.065 1330.61 219.135 1333.15 222.034 1337.13C224.934 1340.75 226.384 1345.46 226.024 1350.53L214.795 1349.81C214.795 1346.91 214.065 1344.37 212.255 1342.2C210.445 1340.39 208.275 1338.58 205.015 1337.86C200.305 1336.77 196.325 1337.13 192.705 1339.3C189.075 1341.48 186.545 1345.82 184.736 1351.62C182.926 1358.14 183.286 1363.21 185.096 1367.19C187.265 1371.17 190.525 1373.71 194.875 1374.8C197.405 1375.52 199.585 1375.52 202.115 1375.52C204.655 1375.16 206.825 1374.44 208.995 1373.71L210.805 1366.83L198.495 1363.57V1363.57ZM254.634 1341.11L235.794 1337.86L226.384 1392.54L237.244 1394.35L241.234 1371.54L243.764 1371.9C246.304 1372.26 248.114 1372.99 249.194 1373.35C250.284 1374.07 251.004 1375.16 252.094 1376.25C252.454 1377.33 253.544 1379.14 254.634 1381.68V1364.66C253.544 1364.66 252.454 1364.29 251.004 1364.29L243.044 1362.84L245.214 1349.08L253.904 1350.53C254.264 1350.53 254.634 1350.53 254.634 1350.53V1341.11Z" fill="#003399"/>
<path fill-rule="evenodd" clip-rule="evenodd" d="M1980.68 1273.39V1171.26H2025.59V991.623L1980.68 1081.44V857.256H2157.06L2201.97 1373.71H2025.59V1273.39H1980.68V1273.39ZM1980.68 857.256V1081.44L1935.78 1171.26H1980.68V1273.39H1895.95L1861.18 1368.28H1751.8V1250.22L1873.85 986.913H1848.86L1918.4 857.256H1980.68V857.256ZM1751.8 1029.29L1806.49 899.625L1751.8 869.206V1029.29ZM1316.84 979.673C1319.38 964.823 1319.38 950.334 1316.84 936.574V979.673ZM1751.8 869.206V1029.29L1744.56 1046.67C1636.63 969.533 1477.29 1039.79 1468.23 1121.28C1459.18 1206.39 1524.01 1275.2 1689.51 1223.78L1632.65 1375.88C1414.27 1400.15 1329.52 1313.59 1316.84 1212.55V1155.33C1320.1 1128.89 1326.99 1103.17 1336.4 1079.27C1443.97 811.988 1618.52 872.106 1684.8 867.036L1694.58 837.337L1751.8 869.206V869.206ZM1751.8 1250.22L1697.11 1368.28H1751.8V1250.22V1250.22ZM1120.56 1365.02C1237.54 1341.84 1352.34 1201.32 1237.18 1089.41C1282.08 1065.5 1309.96 1022.41 1316.84 979.673V936.574C1308.88 892.025 1274.47 855.806 1209.65 854.716L1120.56 852.906V952.144H1157.5C1196.98 952.144 1191.91 1054.28 1142.65 1054.28H1120.56V1132.51C1173.8 1142.65 1154.96 1216.53 1120.56 1239.35V1365.02V1365.02ZM1316.84 1155.33V1212.55C1314.67 1193.72 1314.67 1174.52 1316.84 1155.33V1155.33ZM966.273 849.647L894.205 989.453L926.434 986.913L839.517 1368.28H1088.32C1099.19 1368.28 1109.69 1367.19 1120.56 1365.02V1239.35C1114.4 1243.7 1107.52 1246.23 1100.64 1246.23H1011.18L1040.88 1131.42H1107.88C1112.59 1131.42 1116.94 1131.78 1120.56 1132.51V1054.28H1058.26L1083.25 952.144H1120.56V852.906L966.273 849.647V849.647Z" fill="#003399"/>
</svg>
