<svg width="2202" height="2202" viewBox="0 0 2202 2202" fill="none" xmlns="http://www.w3.org/2000/svg">
<g clip-path="url(#clip0_1289_248)">
<path fill-rule="evenodd" clip-rule="evenodd" d="M757.276 691.143C782.951 708.722 809.07 735.388 809.07 761.142V1215.08C809.07 1240.52 785.092 1276.48 763.254 1290.83C840.278 1290.83 917.314 1290.83 994.35 1290.83C1143.87 1284.65 1234.55 1230.67 1245.39 1117.49C1253 1038.11 1211.05 976.366 1108.01 941.56C1159.42 922 1187.06 879.406 1189.59 820.644C1193.93 719.573 1076.3 691.143 1002.32 691.143H757.276V691.143ZM900.714 934.205V744.94H971.624C1052.09 744.94 1089.99 784.414 1089.98 843.916C1089.97 903.418 1035.57 934.205 967.662 934.205H900.714V934.205ZM976.304 1233.05H900.714V987.991H986.38C1114 987.991 1152.6 1064.73 1145.76 1127.46C1138.91 1190.18 1085.01 1233.05 976.304 1233.05ZM1448.88 691.143H1323.31C1351.22 722.214 1363.41 738.541 1363.41 786.703V1200.39C1363.41 1248.04 1342.29 1277.28 1311.99 1297.97H1479.09C1454.28 1282.84 1427.57 1253.1 1427.57 1199.29V833.829C1511.98 946.593 1596.38 1059.35 1680.8 1172.11C1728.66 1234.72 1784.14 1287.8 1848.84 1329.37V784.517C1848.84 729.957 1870.85 709.155 1900.28 691.143H1737.37C1766.89 713.049 1782.55 737.79 1782.55 782.342V1147.22L1448.88 691.143V691.143ZM1992.74 1297.97C2026.53 1275.55 2043.73 1249.24 2043.73 1215.08V781.762C2043.73 730.526 2028.94 718.947 1999.94 691.143H2192.79C2159.51 709.883 2136.16 748.14 2136.16 781.762V1213.88C2136.16 1247.04 2155.77 1277.42 2182.38 1297.97H1992.74V1297.97Z" fill="#007697"/>
<path fill-rule="evenodd" clip-rule="evenodd" d="M0 691.143H186.168C176.445 707.834 169.078 745.339 187.899 829.604C204.636 904.5 253.025 982.629 303.498 1044.38L240.068 1096.46L0 794.821V691.143ZM271.857 691.143H599.595V770.558C574.239 755.745 528.013 741.433 460.131 768.588C350.612 812.389 341.23 940.684 341.23 940.684C280.647 867.508 240.785 747.513 271.857 691.143V691.143ZM599.595 875.899V1112.28C525.121 1140.54 420.669 1067.04 394.424 979.805C356.385 853.344 446.047 807.698 510.195 820.211C558.128 829.57 585.967 858.137 599.595 875.899ZM599.595 1151.08V1290.75H398.728L439 1257.7C412.721 1260.9 361.11 1248.54 335.97 1216.96L265.265 1128.12L329.902 1075.05C369.626 1118.84 407.45 1150.29 428.843 1159.73C474.637 1179.93 526.226 1189.69 599.595 1151.08V1151.08ZM286.567 1290.75H67.1416L203.861 1178.52C215.042 1192.58 225.847 1206.16 236.106 1219.05C256.247 1244.35 273.155 1269.34 286.567 1290.75ZM3.38156 1290.75H0V922.375C52.215 987.98 118.913 1071.79 178.665 1146.87L3.38156 1290.75Z" fill="#EC6722"/>
<path fill-rule="evenodd" clip-rule="evenodd" d="M2074.72 1463.78L2085.98 1462.13C2086.64 1466.43 2088.3 1469.76 2091.28 1472.4C2094.27 1474.72 2098.25 1476.05 2103.55 1476.05C2108.52 1476.05 2112.51 1474.72 2115.15 1472.73C2117.47 1470.75 2118.8 1468.09 2118.8 1465.11C2118.8 1462.79 2117.8 1460.79 2115.49 1459.14C2113.83 1458.14 2109.85 1456.82 2103.88 1455.5C2095.6 1453.18 2089.63 1451.52 2086.64 1449.85C2083.33 1448.2 2080.67 1446.21 2079.02 1443.56C2077.36 1440.9 2076.7 1437.92 2076.7 1434.61C2076.7 1431.62 2077.36 1428.64 2078.69 1426.32C2080.01 1423.67 2082.01 1421.68 2084.33 1420.02C2085.98 1418.7 2088.63 1417.37 2091.61 1416.71C2094.6 1415.72 2097.91 1415.06 2101.24 1415.06C2106.54 1415.06 2111.18 1416.05 2115.15 1417.37C2119.12 1419.03 2122.12 1421.02 2124.11 1423.67C2125.76 1426.32 2127.08 1429.64 2128.08 1433.95L2116.81 1435.6C2116.15 1431.95 2114.82 1429.3 2112.51 1427.32C2110.18 1425.66 2106.54 1424.67 2102.23 1424.67C2096.92 1424.67 2093.28 1425.33 2090.95 1426.99C2088.63 1428.97 2087.64 1430.96 2087.64 1433.29C2087.64 1434.61 2088.3 1435.94 2088.97 1437.26C2089.96 1438.25 2091.28 1439.25 2093.28 1440.24C2094.6 1440.59 2097.91 1441.58 2103.55 1443.23C2111.51 1445.22 2117.14 1446.88 2120.12 1448.53C2123.45 1449.85 2126.09 1451.85 2127.75 1454.5C2129.42 1456.82 2130.39 1460.13 2130.39 1464.12C2130.39 1467.76 2129.42 1471.41 2127.08 1474.72C2125.1 1478.03 2121.79 1480.69 2117.47 1482.68C2113.5 1484.34 2108.85 1485.33 2103.55 1485.33C2094.6 1485.33 2087.97 1483.34 2083.67 1479.7C2079.02 1476.05 2076.04 1470.75 2074.72 1463.78V1463.78ZM2169.52 1444.89C2177.14 1443.89 2182.78 1442.57 2186.75 1441.25C2186.75 1439.58 2186.75 1438.59 2186.75 1438.25C2186.75 1433.62 2185.76 1430.3 2183.44 1428.31C2180.79 1425.99 2176.48 1424.67 2170.52 1424.67C2170.18 1424.67 2169.85 1424.67 2169.52 1424.67C2164.87 1424.67 2161.23 1425.66 2158.9 1427.32C2156.26 1429.3 2154.27 1432.63 2153.27 1437.26L2142.01 1435.94C2143 1430.96 2144.65 1427.32 2146.97 1424.34C2149.29 1421.35 2152.61 1419.03 2157.25 1417.7C2160.9 1416.38 2164.87 1415.39 2169.52 1415.39C2170.52 1415.06 2171.51 1415.06 2172.17 1415.06C2178.14 1415.06 2182.78 1416.05 2186.09 1417.37C2189.74 1418.7 2192.39 1420.36 2194.05 1422.35C2195.7 1424.34 2197.02 1426.99 2197.68 1429.97C2198.03 1431.95 2198.36 1435.6 2198.36 1440.59V1455.5C2198.36 1466.1 2198.36 1473.07 2199.02 1475.72C2199.35 1478.36 2200.34 1481.35 2202 1483.67H2190.07C2188.75 1481.35 2188.09 1478.7 2187.74 1475.38C2183.44 1479.03 2179.46 1481.69 2175.48 1483.01C2173.49 1483.67 2171.51 1484.34 2169.52 1484.67C2167.52 1484.99 2165.21 1485.33 2162.89 1485.33C2155.59 1485.33 2149.96 1483.34 2145.98 1480.03C2142.01 1476.38 2140.02 1471.74 2140.02 1466.1C2140.02 1462.79 2141.01 1459.8 2142.34 1457.15C2143.99 1454.5 2145.65 1452.18 2148.3 1450.53C2150.62 1448.86 2153.27 1447.54 2156.26 1446.88C2158.57 1446.21 2161.89 1445.55 2166.53 1445.22C2167.52 1444.89 2168.53 1444.89 2169.52 1444.89V1444.89ZM2169.52 1476.05C2172.5 1475.72 2175.15 1474.72 2177.47 1473.4C2180.79 1471.74 2183.44 1469.08 2185.09 1465.77C2186.09 1463.12 2186.75 1459.14 2186.75 1454.17V1450.19C2182.78 1451.85 2177.14 1453.18 2169.52 1454.17C2169.19 1454.17 2168.53 1454.5 2168.18 1454.5C2163.55 1455.16 2160.24 1455.82 2158.24 1456.82C2156.26 1457.48 2154.93 1458.81 2153.93 1460.46C2152.61 1462.13 2152.28 1463.78 2152.28 1465.77C2152.28 1468.75 2153.27 1471.41 2155.59 1473.4C2157.91 1475.38 2161.23 1476.38 2165.87 1476.38C2167.2 1476.38 2168.18 1476.38 2169.52 1476.05V1476.05ZM3.62012 1483.67V1391.18H22.1789L44.0622 1456.82C46.0547 1462.79 47.7057 1467.43 48.366 1470.42C49.6868 1467.1 51.3491 1462.13 53.3416 1455.5L75.5552 1391.18H92.1214V1483.67H80.1891V1406.43L53.3416 1483.67H42.3999L15.5524 1405.11V1483.67H3.62012V1483.67ZM181.955 1483.67V1391.18H193.557V1483.67H181.955ZM137.539 1443.89H156.428C155.768 1438.25 154.447 1433.95 152.124 1430.96C148.469 1426.66 143.835 1424.67 138.199 1424.67C137.869 1424.67 137.869 1424.67 137.539 1424.67C132.564 1424.67 128.26 1426.32 124.935 1429.64C121.292 1433.29 119.311 1437.92 118.969 1443.89H137.539V1443.89ZM137.539 1476.05C137.869 1476.05 138.199 1476.05 138.53 1476.05C142.845 1476.05 146.158 1474.72 149.141 1472.73C152.124 1470.42 154.447 1467.1 156.428 1462.13L168.03 1463.45C166.038 1470.42 162.724 1475.72 157.76 1479.7C152.785 1483.34 146.158 1485.33 138.53 1485.33C138.199 1485.33 137.869 1485.33 137.539 1485.33C128.26 1484.99 120.631 1482.02 115.326 1476.05C109.359 1470.07 106.707 1461.8 106.707 1450.86C106.707 1439.58 109.359 1430.63 115.326 1424.67C120.961 1418.37 128.59 1415.39 137.539 1415.06C137.869 1415.06 137.869 1415.06 137.869 1415.06C146.818 1415.06 154.105 1418.37 159.753 1424.34C165.719 1430.3 168.36 1438.92 168.36 1450.19C168.36 1450.86 168.36 1451.85 168.36 1453.18H137.539H118.309C118.639 1460.46 120.961 1466.1 124.605 1470.07C128.26 1473.73 132.564 1475.72 137.539 1476.05V1476.05ZM282.388 1509.54L281.068 1498.91C283.72 1499.59 285.713 1499.92 287.694 1499.92C290.017 1499.92 292.009 1499.59 293.66 1498.6C295.323 1497.92 296.313 1496.6 297.304 1494.94C298.306 1493.95 299.296 1491.3 300.958 1486.65C300.958 1485.99 301.289 1484.99 301.949 1484L276.422 1416.71H288.685L302.609 1455.5C304.602 1460.46 306.253 1465.77 307.585 1471.08C308.906 1465.77 310.238 1460.79 312.23 1455.82L326.474 1416.71H337.746L312.23 1484.99C309.577 1492.29 307.585 1497.26 305.923 1500.25C303.942 1503.89 301.619 1506.54 298.966 1508.21C296.313 1510.2 293.33 1510.86 289.687 1510.86C287.364 1510.86 285.041 1510.52 282.388 1509.54V1509.54ZM236.652 1444.89C244.269 1443.89 249.905 1442.57 253.89 1441.25C253.89 1439.58 253.89 1438.59 253.89 1438.25C253.89 1433.62 252.888 1430.3 250.577 1428.31C247.582 1425.99 243.278 1424.67 237.642 1424.67C237.312 1424.67 236.982 1424.67 236.652 1424.67C231.676 1424.67 228.363 1425.66 225.71 1427.32C223.387 1429.3 221.395 1432.63 220.074 1437.26L209.133 1435.94C210.134 1430.96 211.785 1427.32 214.108 1424.34C216.431 1421.35 219.744 1419.03 224.048 1417.7C227.703 1416.38 232.006 1415.39 236.652 1415.39C237.312 1415.06 238.303 1415.06 239.305 1415.06C244.929 1415.06 249.575 1416.05 253.229 1417.37C256.873 1418.7 259.514 1420.36 261.177 1422.35C262.839 1424.34 264.16 1426.99 264.832 1429.97C265.15 1431.95 265.15 1435.6 265.15 1440.59V1455.5C265.15 1466.1 265.492 1473.07 266.152 1475.72C266.482 1478.36 267.484 1481.35 268.805 1483.67H256.873C255.871 1481.35 255.211 1478.7 254.88 1475.38C250.577 1479.03 246.592 1481.69 242.618 1483.01C240.625 1483.67 238.633 1484.34 236.652 1484.67C234.329 1484.99 232.337 1485.33 230.014 1485.33C222.727 1485.33 217.091 1483.34 213.118 1480.03C209.133 1476.38 207.151 1471.74 207.151 1466.1C207.151 1462.79 207.812 1459.8 209.474 1457.15C210.795 1454.5 212.787 1452.18 215.099 1450.53C217.752 1448.86 220.404 1447.54 223.387 1446.88C225.71 1446.21 229.023 1445.55 233.669 1445.22C234.659 1444.89 235.65 1444.89 236.652 1444.89V1444.89ZM236.652 1476.05C239.305 1475.72 241.958 1474.72 244.61 1473.4C247.924 1471.74 250.235 1469.08 251.897 1465.77C253.229 1463.12 253.89 1459.14 253.89 1454.17V1450.19C249.905 1451.85 244.269 1453.18 236.652 1454.17C235.98 1454.17 235.65 1454.5 235.32 1454.5C230.686 1455.16 227.361 1455.82 225.38 1456.82C223.387 1457.48 221.737 1458.81 220.735 1460.46C219.744 1462.13 219.414 1463.78 219.414 1465.77C219.414 1468.75 220.404 1471.41 222.727 1473.4C225.05 1475.38 228.363 1476.38 232.667 1476.38C233.999 1476.38 235.32 1476.38 236.652 1476.05V1476.05ZM557.194 1483.67V1391.18H569.787L618.518 1463.78V1391.18H630.12V1483.67H617.527L569.127 1411.07V1483.67H557.194V1483.67ZM491.225 1483.67V1416.71H502.827V1483.67H491.225ZM491.225 1404.45V1391.18H502.827V1404.45H491.225ZM419.29 1483.67V1416.71H429.572V1426.32C434.547 1419.03 441.834 1415.06 451.113 1415.06C455.098 1415.06 458.742 1416.05 462.055 1417.37C465.368 1418.7 468.021 1420.68 469.684 1423.01C471.334 1425.33 472.667 1428.31 473.327 1431.62C473.657 1433.62 473.987 1437.26 473.987 1442.57V1483.67H462.385V1442.9C462.385 1438.25 462.055 1434.94 461.053 1432.63C460.393 1430.3 458.742 1428.31 456.419 1426.99C454.108 1425.66 451.785 1425 448.461 1425C443.827 1425 439.511 1426.66 436.198 1429.64C432.555 1432.63 430.892 1438.59 430.892 1447.21V1483.67H419.29V1483.67ZM373.224 1444.89C380.841 1443.89 386.477 1442.57 390.45 1441.25C390.45 1439.58 390.45 1438.59 390.45 1438.25C390.45 1433.62 389.46 1430.3 387.137 1428.31C384.154 1425.99 379.85 1424.67 374.214 1424.67C373.884 1424.67 373.542 1424.67 373.224 1424.67C368.248 1424.67 364.605 1425.66 362.282 1427.32C359.959 1429.3 357.967 1432.63 356.646 1437.26L345.704 1435.94C346.695 1430.96 348.357 1427.32 350.68 1424.34C353.003 1421.35 356.316 1419.03 360.62 1417.7C364.274 1416.38 368.578 1415.39 373.224 1415.39C373.884 1415.06 374.875 1415.06 375.877 1415.06C381.501 1415.06 386.146 1416.05 389.79 1417.37C393.445 1418.7 396.098 1420.36 397.749 1422.35C399.411 1424.34 400.401 1426.99 401.392 1429.97C401.722 1431.95 401.722 1435.6 401.722 1440.59V1455.5C401.722 1466.1 402.064 1473.07 402.394 1475.72C403.054 1478.36 404.045 1481.35 405.377 1483.67H393.445C392.443 1481.35 391.452 1478.7 391.122 1475.38C387.137 1479.03 383.163 1481.69 379.19 1483.01C377.197 1483.67 375.205 1484.34 373.224 1484.67C370.901 1484.99 368.908 1485.33 366.597 1485.33C359.299 1485.33 353.663 1483.34 349.689 1480.03C345.704 1476.38 343.712 1471.74 343.712 1466.1C343.712 1462.79 344.384 1459.8 346.035 1457.15C347.367 1454.5 349.348 1452.18 351.67 1450.53C354.323 1448.86 356.976 1447.54 359.959 1446.88C362.282 1446.21 365.595 1445.55 369.91 1445.22C371.231 1444.89 372.222 1444.89 373.224 1444.89V1444.89ZM373.224 1476.05C375.877 1475.72 378.529 1474.72 380.841 1473.4C384.484 1471.74 386.807 1469.08 388.469 1465.77C389.79 1463.12 390.45 1459.14 390.45 1454.17V1450.19C386.477 1451.85 380.511 1453.18 373.224 1454.17C372.563 1454.17 372.222 1454.5 371.892 1454.5C367.246 1455.16 363.933 1455.82 361.952 1456.82C359.959 1457.48 358.308 1458.81 357.306 1460.46C356.316 1462.13 355.655 1463.78 355.655 1465.77C355.655 1468.75 356.976 1471.41 359.299 1473.4C361.622 1475.38 364.935 1476.38 369.239 1476.38C370.571 1476.38 371.892 1476.38 373.224 1476.05V1476.05ZM676.517 1443.89H695.417C694.757 1438.25 693.425 1433.95 691.113 1430.96C687.458 1426.66 682.824 1424.67 676.858 1424.67C676.858 1424.67 676.858 1424.67 676.517 1424.67C671.553 1424.67 667.237 1426.32 663.924 1429.64C660.281 1433.29 658.288 1437.92 657.958 1443.89H676.517V1443.89ZM676.517 1476.05C676.858 1476.05 677.188 1476.05 677.519 1476.05C681.822 1476.05 685.147 1474.72 688.13 1472.73C691.113 1470.42 693.425 1467.1 695.087 1462.13L707.019 1463.45C705.027 1470.42 701.713 1475.72 696.738 1479.7C691.774 1483.34 685.147 1485.33 677.519 1485.33C677.188 1485.33 676.858 1485.33 676.517 1485.33C667.237 1484.99 659.62 1482.02 653.984 1476.05C648.348 1470.07 645.365 1461.8 645.365 1450.86C645.365 1439.58 648.348 1430.63 654.315 1424.67C659.95 1418.37 667.579 1415.39 676.517 1415.06H676.858C685.807 1415.06 693.106 1418.37 698.73 1424.34C704.366 1430.3 707.349 1438.92 707.349 1450.19C707.349 1450.86 707.349 1451.85 707.349 1453.18H676.517H657.298C657.628 1460.46 659.62 1466.1 663.594 1470.07C666.919 1473.73 671.553 1475.72 676.517 1476.05V1476.05ZM746.801 1474.39C752.107 1474.39 756.41 1472.4 760.054 1468.42C763.709 1464.45 765.36 1458.14 765.36 1449.53C765.36 1441.25 763.367 1434.94 759.724 1430.96C756.41 1426.66 752.107 1424.67 746.801 1424.67C741.495 1424.67 737.521 1426.66 733.867 1430.63C730.223 1434.94 728.572 1440.9 728.572 1449.19C728.572 1457.81 730.223 1464.12 733.867 1468.42C737.18 1472.4 741.495 1474.39 746.801 1474.39V1474.39ZM746.801 1501.57C751.435 1501.24 755.09 1500.25 757.743 1498.25C760.714 1496.26 762.377 1493.29 763.709 1489.63C764.039 1487.31 764.369 1482.35 764.369 1475.06C759.724 1480.69 753.757 1483.34 746.801 1483.67C746.471 1483.67 746.14 1483.67 745.799 1483.67C736.52 1483.67 729.563 1480.36 724.257 1473.73C719.293 1467.1 716.959 1459.14 716.959 1449.85C716.959 1443.56 717.961 1437.59 720.272 1432.29C722.606 1426.66 725.919 1422.68 730.223 1419.69C734.869 1416.71 739.833 1415.06 745.799 1415.06C746.14 1415.06 746.471 1415.06 746.801 1415.06C754.429 1415.39 760.395 1418.7 765.36 1424.67V1416.71H775.971V1474.72C775.971 1484.99 774.969 1492.62 772.658 1496.93C770.665 1501.24 767.352 1504.55 762.707 1507.2C758.403 1509.54 753.097 1510.86 746.801 1510.86C746.471 1510.86 746.14 1510.86 745.469 1510.86C737.521 1510.86 731.214 1509.2 726.25 1505.55C721.274 1501.9 718.951 1496.6 718.951 1489.3L730.223 1490.97C730.553 1494.28 731.886 1496.93 733.867 1498.25C736.861 1500.58 740.835 1501.57 745.469 1501.57C746.14 1501.57 746.471 1501.57 746.801 1501.57V1501.57ZM1009.66 1483.67V1391.18H1021.93V1437.26L1067.67 1391.18H1084.25L1045.46 1428.64L1085.9 1483.67H1070L1036.84 1436.93L1021.93 1451.85V1483.67H1009.66V1483.67ZM939.721 1483.67V1470.75H952.643V1483.67C952.643 1488.64 951.983 1492.29 949.991 1495.28C948.34 1498.25 945.687 1500.58 942.043 1501.9L939.06 1497.26C941.383 1496.26 943.034 1494.61 944.366 1492.62C945.357 1490.64 946.017 1487.64 946.017 1483.67H939.721V1483.67ZM908.228 1483.67V1416.71H919.5V1483.67H908.228ZM908.228 1404.45V1391.18H919.5V1404.45H908.228ZM864.803 1483.67V1416.71H875.084V1426.99C877.737 1422.02 880.048 1419.03 882.371 1417.37C884.363 1416.05 887.016 1415.06 889.669 1415.06C893.312 1415.06 897.286 1416.38 901.271 1418.7L897.286 1429.3C894.633 1427.65 891.661 1426.99 889.009 1426.99C886.686 1426.99 884.363 1427.65 882.371 1429.3C880.39 1430.63 879.057 1432.63 878.067 1435.28C876.746 1439.58 876.074 1443.89 876.074 1448.53V1483.67H864.803ZM820.387 1443.89H838.946C838.615 1438.25 837.295 1433.95 834.972 1430.96C831.328 1426.66 826.353 1424.67 820.717 1424.67H820.387C815.411 1424.67 811.107 1426.32 807.464 1429.64C804.151 1433.29 802.158 1437.92 801.828 1443.89H820.387V1443.89ZM820.387 1476.05C820.717 1476.05 821.047 1476.05 821.377 1476.05C825.362 1476.05 829.006 1474.72 831.989 1472.73C834.972 1470.42 837.295 1467.1 838.946 1462.13L850.559 1463.45C848.897 1470.42 845.583 1475.72 840.278 1479.7C835.302 1483.34 829.006 1485.33 821.377 1485.33C821.047 1485.33 820.717 1485.33 820.387 1485.33C811.107 1484.99 803.479 1482.02 797.843 1476.05C792.207 1470.07 789.224 1461.8 789.224 1450.86C789.224 1439.58 792.207 1430.63 798.185 1424.67C803.809 1418.37 811.107 1415.39 820.387 1415.06C820.387 1415.06 820.387 1415.06 820.717 1415.06C829.666 1415.06 836.964 1418.37 842.6 1424.34C848.236 1430.3 851.219 1438.92 851.219 1450.19C851.219 1450.86 851.219 1451.85 850.878 1453.18H820.387H801.156C801.498 1460.46 803.479 1466.1 807.464 1470.07C810.777 1473.73 815.081 1475.72 820.387 1476.05V1476.05ZM1121.7 1443.89H1140.6C1139.94 1438.25 1138.61 1433.95 1136.28 1430.96C1132.64 1426.66 1128.01 1424.67 1122.04 1424.67C1122.04 1424.67 1122.04 1424.67 1121.7 1424.67C1116.73 1424.67 1112.42 1426.32 1109.11 1429.64C1105.46 1433.29 1103.47 1437.92 1103.14 1443.89H1121.7V1443.89ZM1121.7 1476.05C1122.04 1476.05 1122.37 1476.05 1122.7 1476.05C1126.67 1476.05 1130.32 1474.72 1133.3 1472.73C1136.28 1470.42 1138.61 1467.1 1140.27 1462.13L1152.2 1463.45C1150.21 1470.42 1146.9 1475.72 1141.92 1479.7C1136.63 1483.34 1130.32 1485.33 1122.7 1485.33C1122.37 1485.33 1122.04 1485.33 1121.7 1485.33C1112.42 1484.99 1104.8 1482.02 1099.5 1476.05C1093.86 1470.07 1090.88 1461.8 1090.88 1450.86C1090.88 1439.58 1093.86 1430.63 1099.83 1424.67C1105.13 1418.37 1112.75 1415.39 1121.7 1415.06H1122.04C1130.99 1415.06 1138.28 1418.37 1143.91 1424.34C1149.55 1430.3 1152.53 1438.92 1152.53 1450.19C1152.53 1450.86 1152.53 1451.85 1152.53 1453.18H1121.7H1102.81C1102.81 1460.46 1104.8 1466.1 1108.78 1470.07C1112.09 1473.73 1116.4 1475.72 1121.7 1476.05V1476.05ZM1194.64 1415.39C1195.3 1415.06 1195.63 1415.06 1195.96 1415.06C1200.26 1415.06 1203.92 1416.05 1207.89 1417.7C1211.53 1419.36 1214.52 1421.68 1216.84 1424.67C1219.16 1427.65 1221.15 1431.29 1222.47 1435.6C1223.79 1439.91 1224.47 1444.56 1224.47 1449.19C1224.47 1460.79 1221.48 1469.76 1215.85 1475.72C1210.21 1482.02 1203.24 1485.33 1195.3 1485.33C1195.3 1485.33 1194.97 1485.33 1194.64 1485.33C1187.34 1484.99 1181.37 1481.69 1176.73 1475.38V1483.67H1166.46V1391.18H1177.73V1424.34C1182.03 1418.7 1188 1415.39 1194.64 1415.39V1415.39ZM1194.64 1476.05C1199.6 1475.72 1203.92 1473.73 1207.23 1469.41C1210.87 1465.11 1212.86 1458.81 1212.86 1450.19C1212.86 1441.58 1211.2 1434.94 1207.56 1430.96C1204.25 1426.66 1199.93 1424.67 1194.97 1424.67C1194.97 1424.67 1194.97 1424.67 1194.64 1424.67C1189.99 1424.67 1185.68 1426.66 1182.03 1430.96C1178.39 1435.28 1176.73 1441.58 1176.73 1449.85C1176.73 1457.81 1177.73 1463.45 1180.04 1467.1C1183.69 1473.07 1188.33 1476.05 1194.64 1476.05ZM1310.31 1483.67V1416.71H1320.25V1426.32C1325.23 1419.03 1332.53 1415.06 1341.81 1415.06C1345.78 1415.06 1349.44 1416.05 1352.75 1417.37C1356.39 1418.7 1358.72 1420.68 1360.38 1423.01C1362.03 1425.33 1363.35 1428.31 1364.02 1431.62C1364.35 1433.62 1364.68 1437.26 1364.68 1442.57V1483.67H1353.41V1442.9C1353.41 1438.25 1352.75 1434.94 1352.08 1432.63C1351.09 1430.3 1349.44 1428.31 1347.11 1426.99C1345.12 1425.66 1342.47 1425 1339.15 1425C1334.51 1425 1330.21 1426.66 1326.89 1429.64C1323.25 1432.63 1321.59 1438.59 1321.59 1447.21V1483.67H1310.31V1483.67ZM1263.91 1444.89C1271.53 1443.89 1277.17 1442.57 1281.14 1441.25C1281.14 1439.58 1281.14 1438.59 1281.14 1438.25C1281.14 1433.62 1280.15 1430.3 1277.83 1428.31C1274.85 1425.99 1270.53 1424.67 1264.91 1424.67C1264.57 1424.67 1264.25 1424.67 1263.91 1424.67C1258.94 1424.67 1255.62 1425.66 1252.96 1427.32C1250.65 1429.3 1248.66 1432.63 1247.34 1437.26L1236.4 1435.94C1237.39 1430.96 1239.05 1427.32 1241.36 1424.34C1243.69 1421.35 1247 1419.03 1251.31 1417.7C1254.96 1416.38 1259.27 1415.39 1263.91 1415.39C1264.57 1415.06 1265.57 1415.06 1266.56 1415.06C1272.2 1415.06 1276.84 1416.05 1280.48 1417.37C1284.13 1418.7 1286.78 1420.36 1288.44 1422.35C1290.09 1424.34 1291.43 1426.99 1292.09 1429.97C1292.42 1431.95 1292.42 1435.6 1292.42 1440.59V1455.5C1292.42 1466.1 1292.75 1473.07 1293.41 1475.72C1293.75 1478.36 1294.74 1481.35 1296.06 1483.67H1284.13C1283.14 1481.35 1282.48 1478.7 1282.15 1475.38C1277.83 1479.03 1273.85 1481.69 1269.87 1483.01C1267.89 1483.67 1265.9 1484.34 1263.91 1484.67C1261.58 1484.99 1259.6 1485.33 1257.28 1485.33C1249.99 1485.33 1244.35 1483.34 1240.37 1480.03C1236.4 1476.38 1234.41 1471.74 1234.41 1466.1C1234.41 1462.79 1235.08 1459.8 1236.73 1457.15C1238.05 1454.5 1240.04 1452.18 1242.36 1450.53C1245.02 1448.86 1247.67 1447.54 1250.65 1446.88C1252.96 1446.21 1256.29 1445.55 1260.92 1445.22C1261.93 1444.89 1262.92 1444.89 1263.91 1444.89V1444.89ZM1263.91 1476.05C1266.56 1475.72 1269.21 1474.72 1271.53 1473.4C1275.18 1471.74 1277.5 1469.08 1279.15 1465.77C1280.48 1463.12 1281.14 1459.14 1281.14 1454.17V1450.19C1277.17 1451.85 1271.2 1453.18 1263.91 1454.17C1263.25 1454.17 1262.92 1454.5 1262.59 1454.5C1257.94 1455.16 1254.63 1455.82 1252.65 1456.82C1250.65 1457.48 1248.99 1458.81 1248 1460.46C1247 1462.13 1246.68 1463.78 1246.68 1465.77C1246.68 1468.75 1247.67 1471.41 1249.99 1473.4C1252.3 1475.38 1255.62 1476.38 1259.93 1476.38C1261.25 1476.38 1262.59 1476.38 1263.91 1476.05V1476.05ZM1407.78 1474.39C1413.07 1474.39 1417.39 1472.4 1420.7 1468.42C1424.35 1464.45 1426.01 1458.14 1426.01 1449.53C1426.01 1441.25 1424.35 1434.94 1420.7 1430.96C1417.06 1426.66 1412.74 1424.67 1407.78 1424.67C1407.78 1424.67 1407.78 1424.67 1407.45 1424.67C1402.47 1424.67 1398.16 1426.66 1394.51 1430.63C1391.2 1434.94 1389.21 1440.9 1389.21 1449.19C1389.21 1457.81 1391.2 1464.12 1394.51 1468.42C1398.16 1472.4 1402.47 1474.39 1407.78 1474.39V1474.39ZM1407.78 1501.57C1412.41 1501.24 1416.05 1500.25 1418.71 1498.25C1421.36 1496.26 1423.35 1493.29 1424.35 1489.63C1425.01 1487.31 1425.34 1482.35 1425.34 1475.06C1420.37 1480.69 1414.73 1483.34 1407.78 1483.67C1407.45 1483.67 1407.1 1483.67 1406.77 1483.67C1397.5 1483.67 1390.21 1480.36 1385.23 1473.73C1380.26 1467.1 1377.6 1459.14 1377.6 1449.85C1377.6 1443.56 1378.94 1437.59 1381.26 1432.29C1383.57 1426.66 1386.88 1422.68 1391.2 1419.69C1395.5 1416.71 1400.81 1415.06 1406.77 1415.06C1407.1 1415.06 1407.45 1415.06 1407.78 1415.06C1415.06 1415.39 1421.36 1418.7 1426.34 1424.67V1416.71H1436.95V1474.72C1436.95 1484.99 1435.61 1492.62 1433.63 1496.93C1431.31 1501.24 1428 1504.55 1423.35 1507.2C1419.05 1509.54 1414.07 1510.86 1407.78 1510.86C1407.45 1510.86 1406.77 1510.86 1406.44 1510.86C1398.49 1510.86 1391.86 1509.2 1387.23 1505.55C1382.25 1501.9 1379.93 1496.6 1379.93 1489.3L1390.87 1490.97C1391.53 1494.28 1392.85 1496.93 1394.84 1498.25C1397.83 1500.58 1401.48 1501.57 1406.44 1501.57C1406.77 1501.57 1407.45 1501.57 1407.78 1501.57V1501.57ZM1479.7 1474.39C1485.01 1474.39 1489.31 1472.4 1492.63 1468.42C1496.28 1464.45 1497.94 1458.14 1497.94 1449.53C1497.94 1441.25 1496.28 1434.94 1492.63 1430.96C1488.99 1426.66 1484.68 1424.67 1479.7 1424.67H1479.37C1474.39 1424.67 1470.09 1426.66 1466.45 1430.63C1463.12 1434.94 1461.14 1440.9 1461.14 1449.19C1461.14 1457.81 1463.12 1464.12 1466.45 1468.42C1470.09 1472.4 1474.39 1474.39 1479.7 1474.39V1474.39ZM1479.7 1501.57C1484.35 1501.24 1487.99 1500.25 1490.64 1498.25C1493.29 1496.26 1495.29 1493.29 1496.28 1489.63C1496.94 1487.31 1497.27 1482.35 1497.27 1475.06C1492.3 1480.69 1486.66 1483.34 1479.7 1483.67C1479.37 1483.67 1479.04 1483.67 1478.71 1483.67C1469.43 1483.67 1462.13 1480.36 1457.17 1473.73C1452.19 1467.1 1449.54 1459.14 1449.54 1449.85C1449.54 1443.56 1450.86 1437.59 1453.18 1432.29C1455.51 1426.66 1458.82 1422.68 1463.12 1419.69C1467.44 1416.71 1472.74 1415.06 1478.71 1415.06C1479.04 1415.06 1479.37 1415.06 1479.7 1415.06C1487 1415.39 1493.29 1418.7 1498.27 1424.67V1416.71H1508.54V1474.72C1508.54 1484.99 1507.55 1492.62 1505.56 1496.93C1503.23 1501.24 1499.92 1504.55 1495.29 1507.2C1490.97 1509.54 1485.68 1510.86 1479.7 1510.86C1479.37 1510.86 1478.71 1510.86 1478.38 1510.86C1470.42 1510.86 1463.79 1509.2 1459.15 1505.55C1454.18 1501.9 1451.53 1496.6 1451.86 1489.3L1462.8 1490.97C1463.46 1494.28 1464.78 1496.93 1466.78 1498.25C1469.43 1500.58 1473.4 1501.57 1478.38 1501.57C1478.71 1501.57 1479.37 1501.57 1479.7 1501.57V1501.57ZM1551.31 1444.89C1558.93 1443.89 1564.89 1442.57 1568.54 1441.25C1568.54 1439.58 1568.54 1438.59 1568.54 1438.25C1568.54 1433.62 1567.54 1430.3 1565.56 1428.31C1562.58 1425.99 1558.26 1424.67 1552.63 1424.67C1552.3 1424.67 1551.64 1424.67 1551.31 1424.67C1546.66 1424.67 1543.02 1425.66 1540.69 1427.32C1538.04 1429.3 1536.39 1432.63 1535.06 1437.26L1523.79 1435.94C1525.12 1430.96 1526.78 1427.32 1528.76 1424.34C1531.08 1421.35 1534.73 1419.03 1539.04 1417.7C1542.69 1416.38 1546.66 1415.39 1551.31 1415.39C1552.3 1415.06 1553.29 1415.06 1554.29 1415.06C1559.92 1415.06 1564.57 1416.05 1568.21 1417.37C1571.86 1418.7 1574.17 1420.36 1576.16 1422.35C1577.82 1424.34 1578.81 1426.99 1579.47 1429.97C1579.81 1431.95 1580.15 1435.6 1580.15 1440.59V1455.5C1580.15 1466.1 1580.48 1473.07 1580.81 1475.72C1581.47 1478.36 1582.13 1481.35 1583.79 1483.67H1571.86C1570.54 1481.35 1569.88 1478.7 1569.53 1475.38C1565.23 1479.03 1561.24 1481.69 1557.27 1483.01C1555.62 1483.67 1553.29 1484.34 1551.31 1484.67C1549.31 1484.99 1547 1485.33 1545.01 1485.33C1537.38 1485.33 1531.74 1483.34 1527.77 1480.03C1524.12 1476.38 1522.13 1471.74 1522.13 1466.1C1522.13 1462.79 1522.8 1459.8 1524.12 1457.15C1525.78 1454.5 1527.77 1452.18 1530.09 1450.53C1532.4 1448.86 1535.4 1447.54 1538.37 1446.88C1540.36 1446.21 1544.01 1445.55 1548.32 1445.22C1549.31 1444.89 1550.31 1444.89 1551.31 1444.89V1444.89ZM1551.31 1476.05C1554.29 1475.72 1556.94 1474.72 1559.26 1473.4C1562.58 1471.74 1565.23 1469.08 1566.88 1465.77C1567.88 1463.12 1568.54 1459.14 1568.54 1454.17V1450.19C1564.57 1451.85 1558.93 1453.18 1551.31 1454.17C1550.97 1454.17 1550.63 1454.5 1549.97 1454.5C1545.34 1455.16 1542.03 1455.82 1540.03 1456.82C1538.37 1457.48 1536.72 1458.81 1535.72 1460.46C1534.73 1462.13 1534.07 1463.78 1534.07 1465.77C1534.07 1468.75 1535.4 1471.41 1537.71 1473.4C1539.7 1475.38 1543.35 1476.38 1547.66 1476.38C1548.98 1476.38 1550.31 1476.38 1551.31 1476.05V1476.05ZM1669.64 1483.67V1416.71H1679.92V1426.32C1684.89 1419.03 1691.85 1415.06 1701.14 1415.06C1705.11 1415.06 1709.09 1416.05 1712.4 1417.37C1715.71 1418.7 1718.37 1420.68 1720.03 1423.01C1721.68 1425.33 1722.68 1428.31 1723.34 1431.62C1724 1433.62 1724 1437.26 1724 1442.57V1483.67H1712.73V1442.9C1712.73 1438.25 1712.4 1434.94 1711.41 1432.63C1710.42 1430.3 1709.09 1428.31 1706.77 1426.99C1704.45 1425.66 1701.8 1425 1698.81 1425C1693.84 1425 1689.86 1426.66 1686.21 1429.64C1682.57 1432.63 1680.92 1438.59 1680.92 1447.21V1483.67H1669.64V1483.67ZM1623.24 1444.89C1630.86 1443.89 1636.82 1442.57 1640.48 1441.25C1640.48 1439.58 1640.48 1438.59 1640.48 1438.25C1640.48 1433.62 1639.48 1430.3 1637.48 1428.31C1634.51 1425.99 1630.2 1424.67 1624.56 1424.67C1623.9 1424.67 1623.57 1424.67 1623.24 1424.67C1618.59 1424.67 1614.95 1425.66 1612.63 1427.32C1609.98 1429.3 1608.32 1432.63 1606.99 1437.26L1595.72 1435.94C1596.72 1430.96 1598.37 1427.32 1600.7 1424.34C1603.02 1421.35 1606.66 1419.03 1610.98 1417.7C1614.61 1416.38 1618.59 1415.39 1623.24 1415.39C1624.23 1415.06 1625.22 1415.06 1626.22 1415.06C1631.86 1415.06 1636.49 1416.05 1640.14 1417.37C1643.45 1418.7 1646.1 1420.36 1647.76 1422.35C1649.76 1424.34 1650.75 1426.99 1651.41 1429.97C1651.74 1431.95 1652.08 1435.6 1652.08 1440.59V1455.5C1652.08 1466.1 1652.4 1473.07 1652.74 1475.72C1653.07 1478.36 1654.06 1481.35 1655.72 1483.67H1643.79C1642.46 1481.35 1641.8 1478.7 1641.47 1475.38C1637.16 1479.03 1633.18 1481.69 1629.21 1483.01C1627.21 1483.67 1625.22 1484.34 1623.24 1484.67C1621.25 1484.99 1618.92 1485.33 1616.94 1485.33C1609.32 1485.33 1603.68 1483.34 1599.69 1480.03C1595.72 1476.38 1593.73 1471.74 1593.73 1466.1C1593.73 1462.79 1594.73 1459.8 1596.05 1457.15C1597.71 1454.5 1599.69 1452.18 1602.02 1450.53C1604.34 1448.86 1606.99 1447.54 1610.31 1446.88C1612.3 1446.21 1615.61 1445.55 1620.26 1445.22C1621.25 1444.89 1622.24 1444.89 1623.24 1444.89V1444.89ZM1623.24 1476.05C1626.22 1475.72 1628.86 1474.72 1631.19 1473.4C1634.51 1471.74 1637.16 1469.08 1638.82 1465.77C1639.81 1463.12 1640.48 1459.14 1640.48 1454.17V1450.19C1636.49 1451.85 1630.86 1453.18 1623.24 1454.17C1622.91 1454.17 1622.57 1454.5 1621.91 1454.5C1617.26 1455.16 1613.95 1455.82 1611.97 1456.82C1609.98 1457.48 1608.64 1458.81 1607.65 1460.46C1606.66 1462.13 1606 1463.78 1606 1465.77C1606 1468.75 1607.32 1471.41 1609.32 1473.4C1611.64 1475.38 1614.95 1476.38 1619.59 1476.38C1620.92 1476.38 1621.91 1476.38 1623.24 1476.05V1476.05ZM1811.18 1391.18H1813.18C1820.13 1391.18 1825.77 1392.18 1830.07 1394.17C1834.39 1395.83 1837.7 1398.81 1840.02 1402.78C1842.68 1406.43 1843.67 1410.74 1843.67 1415.06C1843.67 1418.7 1842.68 1422.68 1840.68 1425.99C1838.36 1429.64 1835.05 1432.29 1830.75 1434.61C1836.38 1436.27 1840.68 1438.92 1843.67 1442.9C1846.66 1446.88 1848.31 1451.52 1848.31 1456.82C1848.31 1461.13 1847.32 1465.44 1845.66 1469.08C1843.67 1472.73 1841.35 1475.72 1838.7 1477.7C1836.05 1479.7 1832.73 1481.02 1828.75 1482.35C1824.45 1483.34 1819.47 1483.67 1813.51 1483.67H1811.18H1778.37V1391.18H1811.18V1391.18ZM1811.18 1429.97C1816.16 1429.97 1820.13 1429.64 1822.46 1428.97C1825.44 1427.98 1827.76 1426.66 1829.41 1424.34C1831.08 1422.35 1831.74 1419.69 1831.74 1416.38C1831.74 1413.4 1831.08 1410.41 1829.41 1408.09C1828.09 1405.77 1825.77 1404.45 1823.12 1403.45C1820.79 1402.78 1816.82 1402.12 1811.18 1402.12C1810.52 1402.12 1809.85 1402.12 1809.19 1402.12H1790.63V1429.97H1810.52C1810.85 1429.97 1810.85 1429.97 1811.18 1429.97ZM1811.18 1472.73H1813.51C1817.48 1472.73 1820.46 1472.73 1822.13 1472.4C1824.78 1471.74 1827.1 1471.08 1829.08 1469.76C1831.08 1468.75 1832.41 1467.1 1833.73 1464.78C1835.05 1462.46 1835.72 1459.8 1835.72 1456.82C1835.72 1453.51 1834.72 1450.53 1833.07 1447.87C1831.08 1445.22 1828.75 1443.56 1825.44 1442.57C1822.46 1441.58 1817.81 1440.9 1812.19 1440.9H1811.18H1790.63V1472.73H1811.18V1472.73ZM1935.49 1483.67V1416.71H1945.76V1426.32C1950.74 1419.03 1957.71 1415.06 1966.99 1415.06C1971.29 1415.06 1974.93 1416.05 1978.25 1417.37C1981.57 1418.7 1984.21 1420.68 1985.88 1423.01C1987.54 1425.33 1988.86 1428.31 1989.52 1431.62C1989.85 1433.62 1990.18 1437.26 1990.18 1442.57V1483.67H1978.59V1442.9C1978.59 1438.25 1978.25 1434.94 1977.26 1432.63C1976.6 1430.3 1974.93 1428.31 1972.61 1426.99C1970.3 1425.66 1967.65 1425 1964.66 1425C1960.02 1425 1955.71 1426.66 1952.06 1429.64C1948.75 1432.63 1946.77 1438.59 1946.77 1447.21V1483.67H1935.49V1483.67ZM1889.09 1444.89C1896.7 1443.89 1902.67 1442.57 1906.32 1441.25C1906.65 1439.58 1906.65 1438.59 1906.65 1438.25C1906.65 1433.62 1905.32 1430.3 1903.34 1428.31C1900.36 1425.99 1896.04 1424.67 1890.42 1424.67C1890.08 1424.67 1889.42 1424.67 1889.09 1424.67C1884.44 1424.67 1880.8 1425.66 1878.47 1427.32C1875.82 1429.3 1874.17 1432.63 1872.84 1437.26L1861.9 1435.94C1862.9 1430.96 1864.55 1427.32 1866.87 1424.34C1869.19 1421.35 1872.51 1419.03 1876.82 1417.7C1880.47 1416.38 1884.44 1415.39 1889.09 1415.39C1890.08 1415.06 1891.08 1415.06 1892.07 1415.06C1897.7 1415.06 1902.34 1416.05 1905.99 1417.37C1909.64 1418.7 1912.29 1420.36 1913.95 1422.35C1915.6 1424.34 1916.59 1426.99 1917.27 1429.97C1917.58 1431.95 1917.93 1435.6 1917.93 1440.59V1455.5C1917.93 1466.1 1918.26 1473.07 1918.59 1475.72C1919.25 1478.36 1920.24 1481.35 1921.57 1483.67H1909.64C1908.65 1481.35 1907.64 1478.7 1907.31 1475.38C1903.34 1479.03 1899.03 1481.69 1895.38 1483.01C1893.39 1483.67 1891.4 1484.34 1889.09 1484.67C1887.09 1484.99 1884.77 1485.33 1882.79 1485.33C1875.49 1485.33 1869.85 1483.34 1865.88 1480.03C1861.9 1476.38 1859.92 1471.74 1859.92 1466.1C1859.92 1462.79 1860.58 1459.8 1861.9 1457.15C1863.56 1454.5 1865.55 1452.18 1867.86 1450.53C1870.2 1448.86 1873.17 1447.54 1876.16 1446.88C1878.14 1446.21 1881.79 1445.55 1886.1 1445.22C1887.09 1444.89 1888.08 1444.89 1889.09 1444.89V1444.89ZM1889.09 1476.05C1892.07 1475.72 1894.71 1474.72 1897.04 1473.4C1900.36 1471.74 1903.01 1469.08 1904.66 1465.77C1905.99 1463.12 1906.32 1459.14 1906.32 1454.17V1450.19C1902.67 1451.85 1896.7 1453.18 1889.09 1454.17C1888.76 1454.17 1888.43 1454.5 1887.76 1454.5C1883.12 1455.16 1879.81 1455.82 1878.14 1456.82C1876.16 1457.48 1874.5 1458.81 1873.51 1460.46C1872.51 1462.13 1871.85 1463.78 1871.85 1465.77C1871.85 1468.75 1873.17 1471.41 1875.49 1473.4C1877.48 1475.38 1881.13 1476.38 1885.44 1476.38C1886.76 1476.38 1888.08 1476.38 1889.09 1476.05V1476.05ZM2033.27 1474.39C2038.25 1474.39 2042.88 1472.4 2046.21 1468.42C2049.85 1464.45 2051.51 1458.14 2051.51 1449.53C2051.51 1441.25 2049.85 1434.94 2046.21 1430.96C2042.57 1426.66 2038.25 1424.67 2033.27 1424.67C2032.94 1424.67 2032.94 1424.67 2032.94 1424.67C2027.97 1424.67 2023.66 1426.66 2020.02 1430.63C2016.37 1434.94 2014.72 1440.9 2014.72 1449.19C2014.72 1457.81 2016.37 1464.12 2020.02 1468.42C2023.66 1472.4 2027.97 1474.39 2033.27 1474.39V1474.39ZM2033.27 1501.57C2037.92 1501.24 2041.23 1500.25 2043.89 1498.25C2046.87 1496.26 2048.86 1493.29 2049.85 1489.63C2050.51 1487.31 2050.51 1482.35 2050.51 1475.06C2045.88 1480.69 2040.24 1483.34 2033.27 1483.67C2032.94 1483.67 2032.28 1483.67 2031.95 1483.67C2022.67 1483.67 2015.71 1480.36 2010.74 1473.73C2005.77 1467.1 2003.11 1459.14 2003.11 1449.85C2003.11 1443.56 2004.1 1437.59 2006.43 1432.29C2008.75 1426.66 2012.39 1422.68 2016.7 1419.69C2021.01 1416.71 2026.32 1415.06 2032.28 1415.06C2032.61 1415.06 2032.94 1415.06 2033.27 1415.06C2040.57 1415.39 2046.87 1418.7 2051.84 1424.67V1416.71H2062.11V1474.72C2062.11 1484.99 2061.12 1492.62 2059.13 1496.93C2056.81 1501.24 2053.5 1504.55 2048.86 1507.2C2044.55 1509.54 2039.24 1510.86 2033.27 1510.86C2032.61 1510.86 2032.28 1510.86 2031.95 1510.86C2023.99 1510.86 2017.37 1509.2 2012.39 1505.55C2007.43 1501.9 2005.11 1496.6 2005.44 1489.3L2016.37 1490.97C2017.04 1494.28 2018.03 1496.93 2020.35 1498.25C2023 1500.58 2026.98 1501.57 2031.95 1501.57C2032.28 1501.57 2032.61 1501.57 2033.27 1501.57V1501.57Z" fill="#007697"/>
</g>
<defs>
<clipPath id="clip0_1289_248">
<rect width="2202" height="2202" fill="white"/>
</clipPath>
</defs>
</svg>
