<svg width="2202" height="2202" viewBox="0 0 2202 2202" fill="none" xmlns="http://www.w3.org/2000/svg">
<path fill-rule="evenodd" clip-rule="evenodd" d="M436.998 356.981C436.998 251.711 522.326 166.384 627.596 166.384H1575.57C1680.84 166.384 1766.14 251.711 1766.14 356.981V1304.98C1766.14 1410.23 1680.84 1495.56 1575.57 1495.56H627.596C522.326 1495.56 436.998 1410.23 436.998 1304.98V356.981V356.981ZM668.883 1365.33C612.743 1365.33 567.249 1319.81 567.249 1263.67V398.581C567.249 342.44 612.743 296.946 668.883 296.946H784.826C937.59 296.946 1050.73 451.735 953.014 549.604L669.533 833.476L912.817 1088.34C1030.79 1211.92 892.641 1365.33 761.767 1365.33H668.883V1365.33ZM1036.78 296.946H1134.76C1287.52 296.946 1400.68 451.735 1302.95 549.604L1019.46 833.476L1540.62 1365.12L990.64 1365.02C1108.82 1365.02 1183.42 1166.22 1056.93 1034.54L863.818 833.476L1088.64 601.72C1209.7 476.897 1121.85 316.343 1036.78 296.946ZM1635.79 1263.67L1213.77 833.476L1438.6 601.72C1559.65 476.897 1471.78 316.343 1386.71 296.946H1533.97C1590.11 296.946 1635.61 342.44 1635.61 398.581L1635.79 1263.67V1263.67ZM86.0286 1897.32V1974.78H120.617C138.56 1974.78 152.167 1971.43 161.437 1964.7C170.733 1957.98 175.355 1948.19 175.355 1935.36C175.355 1922.69 171.122 1913.16 162.605 1906.82C154.114 1900.48 141.416 1897.32 124.564 1897.32H86.0286V1897.32ZM86.0286 1765.2V1838.87H112.723C131.315 1838.87 145.207 1835.72 154.426 1829.44C163.618 1823.18 168.24 1813.6 168.24 1800.75C168.24 1789.14 163.904 1780.31 155.231 1774.26C146.558 1768.21 133.782 1765.2 116.903 1765.2H86.0286ZM0 1705.78H135.028C174.94 1705.78 204.931 1712.95 225.056 1727.28C245.154 1741.59 255.203 1762.91 255.203 1791.24C255.203 1810.28 249.958 1826.12 239.416 1838.74C228.899 1851.33 213.578 1860.42 193.48 1866C216.045 1870.18 233.417 1879.04 245.544 1892.59C257.696 1906.09 263.773 1923.39 263.773 1944.42C263.773 1975.37 252.711 1998.3 230.587 2013.23C208.463 2028.16 174.368 2035.62 128.277 2035.62H0V1705.78H0ZM452.085 1779.35L409.395 1903.03H493.399L452.085 1779.35ZM400.8 1705.78H506.875L631.725 2035.62H537.75L514.302 1965.77H387.349L362.759 2035.62H275.769L400.8 1705.78V1705.78ZM650.758 1705.78H760.495L856.027 1903.55C859.273 1910.2 863.065 1919.44 867.375 1931.28C871.712 1943.12 876.515 1957.64 881.761 1974.8C878.982 1958.55 876.931 1943.62 875.607 1930.01C874.308 1916.4 873.633 1903.94 873.633 1892.64V1705.78H953.014V2035.62H843.719L744.499 1830.66C739.851 1821.23 735.593 1810.98 731.749 1799.91C727.88 1788.85 724.323 1776.83 721.077 1763.82C724.167 1783.48 726.426 1801.52 727.906 1818.01C729.387 1834.48 730.114 1848.99 730.114 1861.53V2035.62H650.758V1705.78V1705.78ZM1015.44 1705.78H1103.36V1848.32L1205.49 1705.78H1303.91L1182.74 1857.35L1316.27 2035.62H1207.02L1103.36 1882.67V2035.62H1015.44V1705.78ZM1572.14 1897.32V1974.78H1606.73C1624.68 1974.78 1638.28 1971.43 1647.55 1964.7C1656.85 1957.98 1661.47 1948.19 1661.47 1935.36C1661.47 1922.69 1657.24 1913.16 1648.72 1906.82C1640.2 1900.48 1627.53 1897.32 1610.68 1897.32H1572.14V1897.32ZM1572.14 1765.2V1838.87H1598.84C1617.43 1838.87 1631.32 1835.72 1640.52 1829.44C1649.73 1823.18 1654.36 1813.6 1654.36 1800.75C1654.36 1789.14 1650.02 1780.31 1641.35 1774.26C1632.67 1768.21 1619.9 1765.2 1603.02 1765.2H1572.14ZM1486.12 1705.78H1621.14C1661.03 1705.78 1691.05 1712.95 1711.15 1727.28C1731.27 1741.59 1741.32 1762.91 1741.32 1791.24C1741.32 1810.28 1736.05 1826.12 1725.53 1838.74C1715.02 1851.33 1699.69 1860.42 1679.57 1866C1702.16 1870.18 1719.51 1879.04 1731.66 1892.59C1743.81 1906.09 1749.86 1923.39 1749.86 1944.42C1749.86 1975.37 1738.83 1998.3 1716.7 2013.23C1694.58 2028.16 1660.48 2035.62 1614.39 2035.62H1486.12V1705.78V1705.78ZM1887.83 1763.77V1848.37H1918.67C1937.71 1848.37 1951.96 1844.92 1961.47 1838.03C1971 1831.13 1975.75 1820.79 1975.75 1807C1975.75 1792.12 1970.45 1781.22 1959.86 1774.23C1949.26 1767.25 1932.51 1763.77 1909.64 1763.77H1887.83ZM1801.8 1705.78H1932.83C1976.5 1705.78 2008.91 1712.87 2030.05 1727.03C2051.18 1741.2 2061.75 1762.76 2061.75 1791.68C2061.75 1813.05 2056.2 1830.63 2045.03 1844.4C2033.86 1858.18 2017.74 1867.38 1996.68 1872.02C2014.02 1878.36 2027.97 1896.38 2038.51 1926.09L2077.9 2035.62H1986.21L1957.18 1945.36C1952.54 1930.81 1946.2 1920.74 1938.15 1915.18C1930.13 1909.6 1917.58 1906.82 1900.58 1906.82H1887.83V2035.62H1801.8V1705.78V1705.78ZM2114.08 1705.78H2202V2035.62H2114.08V1705.78Z" fill="#1F4396"/>
</svg>
