<svg width="2202" height="2202" viewBox="0 0 2202 2202" fill="none" xmlns="http://www.w3.org/2000/svg">
<path fill-rule="evenodd" clip-rule="evenodd" d="M1914.74 1620.56H287.258V117.559H1914.74V1620.56Z" fill="#7B131F"/>
<path fill-rule="evenodd" clip-rule="evenodd" d="M492.312 379.879H1364.37L1800.4 866.39L1364.37 1398.65H492.312L882.602 866.39L492.312 379.879Z" fill="#E2071F"/>
<path fill-rule="evenodd" clip-rule="evenodd" d="M1800.4 866.39L1364.37 379.879H492.312L882.602 866.39H1800.4Z" fill="white"/>
<path d="M224.028 1886.51C212.549 1873.08 196.011 1865.29 174.61 1865.29C131.029 1865.29 98.9267 1900.32 98.9267 1948.59C98.9267 1996.86 131.029 2031.89 172.664 2031.89C195.817 2031.89 214.689 2021.58 226.557 2004.06L274.419 2039.48C252.628 2070.23 215.856 2084.44 180.058 2084.44C98.5376 2084.44 39.1973 2031.5 39.1973 1948.59C39.1973 1865.68 98.5376 1812.74 180.058 1812.74C209.241 1812.74 246.208 1822.67 268.193 1850.69L223.833 1886.51H224.028Z" fill="#7B131F"/>
<path d="M305.158 1819.36H362.748V2077.82H305.158V1819.36Z" fill="#7B131F"/>
<path d="M415.084 1819.36H502.052L562.17 1987.91H562.948L623.456 1819.36H710.229V2077.82H652.64V1879.5H652.056L583.377 2077.82H539.407L473.452 1879.5H472.479V2077.82H415.084V1819.36Z" fill="#7B131F"/>
<path d="M763.344 1819.36H860.818C906.539 1819.36 956.346 1828.89 956.346 1885.14C956.346 1913.95 938.252 1933.6 911.403 1941.97V1942.75C945.645 1947.03 968.603 1972.33 968.603 2005.81C968.603 2059.72 916.85 2077.63 870.351 2077.63H763.538V1819.16L763.344 1819.36ZM820.933 1922.7H862.763C880.468 1922.7 898.951 1915.31 898.951 1894.68C898.951 1873.07 878.328 1867.63 860.039 1867.63H820.933V1922.7ZM820.933 2029.75H872.686C890.78 2029.75 911.014 2022.16 911.014 1999.39C911.014 1974.87 883.386 1970.78 864.514 1970.78H820.933V2029.56V2029.75Z" fill="#7B131F"/>
<path d="M1041.76 1823.45H1079.7L1226.59 2034.23H1227.37V1823.45H1257.33V2077.24H1219.39L1072.69 1866.46H1071.91V2077.24H1041.76V1823.45Z" fill="#7B131F"/>
<path d="M1320.37 1823.45H1350.52V2077.24H1320.37V1823.45Z" fill="#7B131F"/>
<path d="M1496.05 1823.45H1524.26L1632.05 2077.04H1596.83L1571.15 2014.76H1444.3L1418.03 2077.04H1383.99L1495.86 1823.45H1496.05ZM1509.67 1862.18H1508.89L1456.17 1986.93H1559.67L1509.48 1862.18H1509.67Z" fill="#7B131F"/>
<path d="M1881.47 2059.92C1852.48 2076.07 1819.6 2083.47 1786.53 2083.47C1707.73 2083.47 1651.11 2029.75 1651.11 1950.15C1651.11 1870.35 1711.62 1816.83 1787.5 1816.83C1820.77 1816.83 1853.07 1825.78 1877 1850.3L1854.43 1873.85C1837.31 1855.17 1811.04 1844.85 1785.17 1844.85C1727.19 1844.85 1683.02 1888.65 1683.02 1950.15C1683.02 2010.68 1725.63 2055.64 1788.08 2055.64C1808.51 2055.64 1832.44 2050.19 1851.12 2040.84V1962.99H1792.75V1935.16H1881.28V2059.92H1881.47Z" fill="#7B131F"/>
<path d="M2026.81 1823.45H2055.02L2162.8 2077.04H2127.78L2101.91 2014.76H1975.05L1948.79 2077.04H1914.74L2026.61 1823.45H2026.81ZM2040.43 1862.18H2039.84L1987.12 1986.93H2090.62L2040.43 1862.18Z" fill="#7B131F"/>
</svg>
