<svg width="2202" height="2202" viewBox="0 0 2202 2202" fill="none" xmlns="http://www.w3.org/2000/svg">
<path d="M1633.85 1145.2H1710.62V1409.17H1633.85V1145.2V1145.2ZM1444.91 1409.17V1227.14C1444.91 1212.25 1444.65 1197.96 1444.12 1184.21C1443.61 1170.53 1442.9 1157.56 1441.84 1145.2H1512.23L1515.02 1192.44C1521.69 1176.23 1532.38 1163.96 1547.02 1155.63C1561.56 1147.3 1579.79 1143.19 1601.53 1143.19H1603.8L1603.54 1212.51C1598.9 1212.16 1595.48 1211.9 1593.2 1211.72C1590.83 1211.54 1588.73 1211.46 1586.89 1211.46C1566.82 1211.46 1551.13 1216.36 1539.83 1226.1C1528.44 1235.82 1522.74 1249.41 1522.74 1266.67V1409.17H1444.91ZM1328.84 1145.2H1405.61V1409.17H1328.84V1145.2ZM1204.44 1409.17L1201.9 1371.49C1192.44 1385.69 1181.05 1396.38 1167.72 1403.57C1154.41 1410.75 1139.34 1414.35 1122.5 1414.35C1090.52 1414.35 1064.58 1401.81 1044.59 1376.75C1024.7 1351.68 1014.71 1318.47 1014.71 1277.28C1014.71 1235.82 1024.44 1202.61 1043.98 1177.72C1063.52 1152.83 1089.38 1140.38 1121.54 1140.38C1138.98 1140.38 1154.23 1143.79 1167.2 1150.55C1180.26 1157.3 1191.47 1167.64 1200.86 1181.48V1030.49H1277.1V1356.06C1277.1 1369.39 1277.28 1380.25 1277.71 1388.5C1278.15 1396.81 1278.86 1403.74 1279.65 1409.17H1204.44ZM1092.53 1277.72C1092.53 1304.97 1097.26 1326.1 1106.64 1341.08C1116.02 1356.06 1129.25 1363.51 1146.16 1363.51C1163.43 1363.51 1177.19 1355.89 1187.27 1340.55C1197.35 1325.22 1202.43 1304.27 1202.43 1277.72C1202.43 1251.07 1197.35 1229.95 1187.27 1214.61C1177.19 1199.19 1163.43 1191.48 1146.16 1191.48C1129.25 1191.48 1116.02 1199.01 1106.64 1214.18C1097.26 1229.34 1092.53 1250.55 1092.53 1277.72V1277.72ZM729.716 1409.17V1195.85C729.716 1188.32 729.541 1180.44 729.102 1172.19C728.672 1163.96 727.97 1154.93 727.181 1145.2H800.274L801.845 1184.81C811.749 1168.87 823.583 1157.21 837.172 1149.85C850.752 1142.49 867.402 1138.8 887.123 1138.8C916.213 1138.8 937.776 1147.05 951.883 1163.61C965.989 1180.08 973.095 1205.32 973.095 1239.24V1409.17H897.633V1249.76C897.633 1230.04 894.22 1215.93 887.465 1207.34C880.719 1198.84 869.762 1194.54 854.524 1194.54C839.795 1194.54 827.873 1199.28 818.934 1208.83C809.907 1218.29 805.441 1230.91 805.441 1246.69V1409.17H729.716V1409.17ZM2.0177 1409.17V1195.85C2.0177 1186.38 1.83348 1177.54 1.49135 1169.22C1.13167 1160.89 0.614084 1152.92 0 1145.2H72.6549L74.6726 1184.81C84.5681 1168.87 96.3147 1157.21 109.991 1149.85C123.571 1142.49 140.222 1138.8 159.855 1138.8C179.742 1138.8 196.481 1143.19 210.245 1152.04C223.913 1160.89 233.905 1173.68 240.221 1190.43C248.809 1172.64 260.021 1159.58 273.864 1151.25C287.716 1142.93 305.244 1138.8 326.535 1138.8C355.634 1138.8 377.284 1147.05 391.487 1163.61C405.681 1180.08 412.778 1205.32 412.778 1239.24V1409.17H336.536V1249.76C336.536 1230.04 333.114 1215.93 326.368 1207.34C319.613 1198.84 308.665 1194.54 293.409 1194.54C278.689 1194.54 266.863 1199.28 258.091 1208.83C249.239 1218.29 244.862 1230.91 244.862 1246.69V1409.17H168.619V1249.76C168.619 1230.21 165.285 1216.19 158.627 1207.52C151.968 1198.84 141.187 1194.54 126.282 1194.54C111.57 1194.54 99.9115 1199.28 91.2353 1208.66C82.5592 1218.12 78.2606 1230.74 78.2606 1246.69V1409.17H2.0177V1409.17ZM619.067 1381.6C603.688 1395.03 573.598 1409.45 552.912 1414.1C544.982 1415.96 536.332 1416.83 526.981 1416.83C504.795 1416.83 486.232 1409.02 471.274 1393.45C456.317 1377.81 448.878 1357.9 448.878 1333.7C448.878 1314.27 452.703 1298.47 460.291 1286.22C467.95 1273.88 478.714 1264.2 492.68 1257.11C506.496 1250.09 523.717 1245.01 544.201 1242.03C564.685 1239.05 585.941 1236.79 607.908 1235.42V1233.97C607.908 1170.84 517.875 1178.7 479.38 1205.68L466.055 1155.95C496.145 1141.83 525.744 1134.65 562.545 1134.65C627.094 1134.65 681.607 1165.6 681.607 1239.56V1409.74H619.067V1381.6V1381.6ZM613.022 1330.1V1279.21C601.39 1280.32 588.696 1281.81 575.098 1283.68C561.51 1285.63 551.193 1287.88 544.149 1290.39C535.551 1293.46 528.919 1298.03 524.419 1303.9C519.822 1309.86 517.532 1317.6 517.532 1327.28C517.532 1394.14 595.6 1372.43 613.022 1330.1Z" fill="#0061AE"/>
<path fill-rule="evenodd" clip-rule="evenodd" d="M852.111 977.052C875.666 1003.37 919.494 1074.74 971.375 1070.33C1092.94 1060 1162.16 928.548 1312.24 937.926C1373.89 941.786 1402.92 1045.19 1464.05 1054.09C1560.4 1068.14 1652.73 919.977 1809.78 928.478C1874.33 931.969 1901.02 1040.44 1965.38 1046.71C2025.37 1052.55 2119.34 967.49 2201.93 923.399C2180.9 887.984 2141.83 832.681 2100.23 829.882C2018.34 824.373 1952.82 928.996 1880.8 910.731C1838.87 900.099 1791.12 784.94 1722.07 785.168C1594.23 785.589 1506.01 912.161 1392.99 922.162C1328.85 927.838 1298.02 785.186 1212.13 798.301C1094.6 816.241 974.472 913.091 852.111 977.052Z" fill="url(#paint0_linear_1289_261)"/>
<defs>
<linearGradient id="paint0_linear_1289_261" x1="937.32" y1="1173.89" x2="2116.72" y2="685.792" gradientUnits="userSpaceOnUse">
<stop stop-color="#F6AD02"/>
<stop offset="0.2" stop-color="#FFF000"/>
<stop offset="0.411765" stop-color="#F6AD02"/>
<stop offset="0.658824" stop-color="#FFF000"/>
<stop offset="0.788235" stop-color="#F6AD02"/>
<stop offset="1" stop-color="#FFF000"/>
</linearGradient>
</defs>
</svg>
